<?xml version="1.0" encoding="UTF-8"?>
<svg width="100pt" height="100pt" version="1.1" viewBox="0 0 100 100" xmlns="http://www.w3.org/2000/svg">
 <g>
  <path d="m45.656 83.043c0.42188 0 0.82422-0.18359 1.0977-0.50391l1.6328-1.8828c1.1719 0.30078 2.4141 0.16406 3.4961-0.38281 1.125-0.58984 2.0117-1.5586 2.5-2.7344 1.2266-2.8398 1.1914-6.5781 0.97656-9.0898-0.039063-0.44141-0.32812-0.81641-0.74609-0.96484-0.41406-0.14844-0.87891-0.039063-1.1836 0.27734-2.1953 2.2734-5.5234 4.3555-5.5234 4.3555-2.4492 1.5-2.6797 3.9062-2.5 5.5547 0.058594 0.5 0.23438 0.97656 0.50781 1.3984l-1.3438 1.5625c-0.37109 0.42969-0.45703 1.0352-0.22266 1.5508s0.75 0.84766 1.3164 0.84766z"/>
  <path d="m94.902 28.422c0.53516-1.1523 0.64844-2.457 0.32422-3.6836-0.75781-3-3.0625-5.9453-4.7656-7.8008-0.30078-0.32812-0.76172-0.45312-1.1836-0.31641-0.41797 0.13672-0.72266 0.50781-0.76953 0.94922-0.35937 3.1406-1.7266 6.8164-1.7266 6.8164-1.0312 2.6797 0.25781 4.7383 1.3984 5.9297v-0.003906c0.35156 0.35938 0.78125 0.63281 1.2578 0.79688l-0.12109 2.0547c-0.023437 0.38672 0.10938 0.76563 0.36719 1.0508 0.25391 0.28906 0.61719 0.46094 1 0.48047h0.089844c0.76562 0 1.3984-0.59766 1.4453-1.3672l0.14844-2.4883-0.003907 0.003906c1.1094-0.47656 2.0117-1.3359 2.5391-2.4219z"/>
  <path d="m38.645 3.8203c-7.3008 2.2891-16.559 7.7188-21.223 20.539l-5.3984 0.12891c-0.54297 0.015625-1.0234 0.35547-1.2148 0.86328-0.19141 0.50781-0.054688 1.082 0.33984 1.4531l4.4453 4.1016c-0.054688 0.26953-0.11328 0.53125-0.16406 0.80859l0.003906-0.003906c-1.0625 5.8672-1.1289 11.871-0.19531 17.762 0.57031 3.6875 1.4688 8.5547 2.7891 13.184 0.89062 3.1016 1.4922 6.2812 1.793 9.4922l-4.4766 0.92969-0.003906 0.003906c-0.30078 0.070313-0.53516 0.3125-0.59375 0.62109-0.054688 0.30859 0.078125 0.61719 0.33594 0.78906 0 0 6.7734 4.0234 9.6328 7.0859l0.003906 0.003906c0.74609 0.76953 0.78125 1.9805 0.082031 2.793h0.003907c-0.36328 0.40234-0.86719 0.64062-1.4062 0.66797-0.53906 0.027343-1.0664-0.16406-1.4648-0.52734-0.42969-0.39062-0.85547-0.76562-1.2734-1.1211v0.003907c-0.19922-0.16797-0.47266-0.21484-0.71484-0.12109-0.24609 0.089844-0.41797 0.30859-0.45703 0.56641-0.39062 2.625-1.0234 5.2461-2.0312 7.6094l0.003907-0.003906c-0.46094 1.0781-0.35156 2.3125 0.29297 3.293 0.64844 0.97656 1.7383 1.5664 2.9102 1.5664h13.828c1.8047 0.003906 3.3125-1.3711 3.4766-3.168 0.47656-5.2969 0.58594-17.078-4.5-34.234l4.5977-4.2188c0.22656-0.21484 0.30078-0.54297 0.19141-0.83594-0.10937-0.29297-0.38281-0.49219-0.69531-0.50781l-5.6367-0.16016c-1.0586-4.8828-2.2891-13.273-1.0312-22.238 0.039063-0.32031-0.10156-0.63672-0.36719-0.82031-0.26953-0.17969-0.61328-0.19922-0.89844-0.046875-0.53516 0.28125-1.0508 0.60156-1.5391 0.96094-0.88281 0.68359-2.1523 0.52734-2.8477-0.35156-0.6875-0.88281-0.60547-2.2422 0.33594-2.8438 4.3672-2.7969 10.082-3.5742 10.082-3.5742h0.003906c0.28125-0.039062 0.51172-0.24609 0.58203-0.52344 0.066406-0.27734-0.039063-0.56641-0.26953-0.73828l-2.6016-1.8906c1.7773-4.7695 4.5078-9.125 8.0312-12.801 1.9531-2.0273-0.070312-5.3398-2.7617-4.4961z"/>
  <path d="m92.688 53.301c0.1875-4.1367-0.70312-8.2539-2.5781-11.949-1.793-3.4805-4.4492-6.4453-7.7188-8.6055-2.7891-1.8438-5.9375-3.0703-9.2383-3.6094-0.21484-0.039063-0.43359 0.027343-0.58594 0.17969-0.15625 0.15234-0.23047 0.37109-0.19531 0.58203 0.10938 0.59375-0.050782 1.207-0.43359 1.6719-0.38672 0.46484-0.96094 0.73438-1.5625 0.73438-0.66016-0.003907-1.2773-0.32422-1.6562-0.86328l-1.7891-8.1836h-0.003907c-0.066406-0.30469-0.30859-0.53906-0.61719-0.58984-0.30859-0.054688-0.61719 0.085937-0.78125 0.34766l-4.4258 6.9883c-1.4141 0.44141-2.7734 1.0312-4.0664 1.7578-4.8633 2.7656-7.6602 8.1211-7.1445 13.695 0.078125 0.84375 0.22656 1.6797 0.44531 2.4961l-3.793 3.7812c-0.22266 0.21875-0.28906 0.55469-0.16406 0.83984 0.12109 0.28906 0.40625 0.47266 0.71484 0.46875l5.5938-0.078125c0.61719 0.87891 1.3125 1.7031 2.0781 2.457 1.1094 1.0977 2.4219 1.9609 3.8711 2.5391 3.4609 1.3477 6.1992 0.44531 8.168-0.96484v-0.003906c0.46484-0.32813 0.64062-0.92969 0.42969-1.457-0.21484-0.52734-0.75781-0.83984-1.3203-0.75781l-0.16406 0.023437c-4.0312 0.49609-7.1562-3.4336-5.9844-7.3242 0.25391-0.8125 0.61719-1.5859 1.0898-2.2969 0.73828-1.1055 1.832-1.9336 3.1016-2.3438 8.4805-2.7969 13.191 5.0508 13.191 5.0508 0.96875 1.6953 1.5469 3.582 1.6875 5.5273l-4.1172 1.7578h0.003906c-0.23438 0.10547-0.38672 0.33984-0.38281 0.59766 0.003906 0.25391 0.16797 0.48438 0.40625 0.57422l0.19531 0.078125c2.332 0.92578 4.5508 2.1133 6.6133 3.5391 0.46484 0.3125 0.78125 0.79687 0.88672 1.3438 0.10156 0.54687-0.019531 1.1133-0.33984 1.5703-0.64844 0.88672-1.8789 1.0938-2.7812 0.47266l-1.3672-0.93359c-0.22656-0.15625-0.50781-0.20703-0.77344-0.14062-0.26563 0.066406-0.48828 0.23828-0.61719 0.48047-0.84375 1.5703-1.8516 3.043-3.0117 4.3945-0.25781 0.29687-0.50781 0.58594-0.75781 0.89062-4.582 5.6797-6.7812 11.844-7.8125 16.965l-5.4102 1.3008c-0.25 0.0625-0.44141 0.26562-0.48047 0.52344-0.035156 0.25391 0.085937 0.50781 0.30859 0.63672l4.8516 2.9414c-0.26562 3.5938 0.015625 5.9102 0.015625 5.9102h18.891-0.003906c-1.0234-2.7227-1.4961-5.6211-1.3945-8.5273 0.074219-2.6172 0.55078-5.207 1.4062-7.6797l6.4727 0.33594h-0.003907c0.25781 0.011719 0.49609-0.13281 0.60547-0.36328 0.10938-0.23438 0.066407-0.51172-0.10938-0.69922l-4.3633-4.7734c0.25781-0.42969 0.53125-0.84766 0.8125-1.2617 4.7969-7.0273 5.9219-15.098 6.1094-20.047z"/>
  <path d="m6.2578 62.332c0.80078 0.68359 1.8203 1.0586 2.8711 1.0469l0.97656 1.9297c0.32812 0.59766 1.0703 0.82422 1.6758 0.51562 0.60547-0.30859 0.85938-1.043 0.56641-1.6602l-0.8125-1.5938h0.003906c0.32031-0.29687 0.56641-0.66406 0.71875-1.0742 0.49609-1.3438 0.80469-3.4297-0.94531-5.2031 0 0-2.3672-2.4531-3.7461-4.8281l-0.003906 0.003906c-0.19141-0.33594-0.55859-0.52344-0.94141-0.48438-0.38281 0.035156-0.70703 0.29297-0.82812 0.65625-0.71094 2.0703-1.5195 5.2188-1.0781 7.8672v0.003907c0.16797 1.0938 0.71484 2.0898 1.543 2.8203z"/>
 </g>
</svg>
