<?xml version="1.0" encoding="UTF-8"?>
<svg width="100pt" height="100pt" version="1.1" viewBox="0 0 100 100" xmlns="http://www.w3.org/2000/svg">
 <g>
  <path d="m53.137 6.8906c1.4922 3.5977-3.9023 5.8281-5.3906 2.2344-1.4883-3.5938 3.9023-5.8281 5.3906-2.2344"/>
  <path d="m91.25 22.719c1.4297-1.0898 2.8555-2.9609 3.5508-6.1797h0.003907c0.29297-1.4062 0.39844-2.8398 0.32031-4.2734-0.070312-1.668-0.25391-3.332-0.54688-4.9766-0.13672-0.70312-0.6875-1.25-1.3945-1.3789-0.70312-0.13281-1.4141 0.18359-1.793 0.79297-1.7578 2.8242-4.3984 6.8359-6.4883 9.1797h-0.003906c-0.54688 0.60547-0.92969 1.3477-1.1016 2.1484 0 0.023438-0.007813 0.054688-0.015625 0.078125-0.82422 4.2227 4.0469 7.2188 7.4688 4.6094z"/>
  <path d="m79.836 48.781c0.33984 0.41797 0.79687 0.73047 1.3125 0.89062 1.2109 0.375 2.4922-0.26562 3.0391-1.4062 0.58594-1.2109 1.2266-3.3359 1.0703-6.6836-0.085937-1.8125-2.5859-2.2266-3.2656-0.54688 0 0-1.0469 1.9922-2.4688 5.0469h0.007812c-0.42969 0.88281-0.3125 1.9336 0.30469 2.6992z"/>
  <path d="m36.469 63.738c2.0742 2.168 4.7422 3.668 7.6719 4.3047 2.9297 0.64062 5.9844 0.38672 8.7656-0.72266 8.0312-3.1484 19.305-11.672 23.656-40.84 0.33984-2.2617 0.58594-4.5312 0.80469-6.8086 0.21094-2.207 0.98828-7.1719 3.9062-11.188 1.0898-1.5039-0.15625-3.5859-2-3.3789-2.9961 0.33594-6.8164 1.9023-9.7344 6.9766-0.625 1.1094-1.1328 2.2812-1.5156 3.4961-1.0039 3.1094-4.2812 10.484-11.637 11.422 0 0-7.9375 1.25-9.3516-6.9453l0.003906-0.003907c-0.125-1.1094-0.36719-2.1992-0.73047-3.2539-0.58594-1.6406-2.9297-1.582-3.4688 0.078125h0.003906c-1.3945 4.2031-3.8906 7.957-7.2266 10.863-2.3125 2.0312-4.1875 4.5273-5.3086 7.3906-1.4648 3.7344-2.4297 9.1406-0.72656 16.109 0.003907 0.003907 1.8359 7.1602 6.8867 12.5zm10.406-20.941c0.97656 0 1.8594 0.58984 2.2344 1.4961 0.375 0.90234 0.16797 1.9414-0.52344 2.6328-0.69141 0.69141-1.7344 0.89844-2.6367 0.52344-0.90234-0.37109-1.4922-1.2539-1.4922-2.2305 0-1.3359 1.082-2.4219 2.418-2.4219zm-3.2539 10.93 4.2734-1.1562-0.003906-0.003906c1.7539-0.46875 3.5586 0.56641 4.0352 2.3164l0.51172 1.8867c0.47656 1.7539-0.55859 3.5625-2.3125 4.0391l-4.2734 1.1602c-1.7539 0.47656-3.5625-0.5625-4.0391-2.3164l-0.51172-1.8828h-0.003906c-0.47266-1.7578 0.5625-3.5664 2.3203-4.043zm-5.5391-9.4414h-0.003906c1.2188 0 2.3164 0.73438 2.7812 1.8594 0.46484 1.1211 0.20703 2.418-0.65625 3.2773-0.85938 0.85938-2.1523 1.1172-3.2773 0.64844-1.1211-0.46484-1.8555-1.5625-1.8555-2.7773 0-1.6602 1.3438-3.0039 3.0039-3.0078z"/>
  <path d="m21.984 91.973c1.5664 1.2148 3.6016 1.6484 5.5273 1.1719 4.1953-1.0391 8.8203-2.4531 11.945-3.4492 2.1641-0.69531 4.5195 0.21484 5.6641 2.1797l0.88281 1.5234c0.53906 0.92969 1.5312 1.5039 2.6094 1.5039h28.184c2.1602 0.007812 4.2773-0.61719 6.0859-1.8008 3.2734-2.1602 5.8984-5.3828 7.8711-8.4648 3.375-5.2734 5.2422-11.375 5.6016-17.633 0.51953-9.0703-1.3594-16-3.0781-20.301-0.57031-1.4219-2.6758-1.1016-2.793 0.42578-0.97656 12.637-4.2812 17.945-7.3438 20.098-3.375 2.375-7.9062-0.79687-6.9375-4.8125h-0.003906c0.34766-1.3594 0.88281-2.668 1.5859-3.8867 0.53906-0.95312 0.28125-2.1641-0.60156-2.8164l-0.0625-0.046876v0.003907c-0.48828-0.35156-1.0977-0.48438-1.6875-0.36328-0.58594 0.11719-1.0977 0.47656-1.4102 0.99219-4.5234 7.2891-17.148 15.066-17.148 15.066-6.3047 3.3672-22.539 7.1875-27.844 8.3828-1.125 0.25391-2.3047 0.0625-3.2891-0.53125-4.3359-2.6211-10.004-6.9883-13.633-9.8789-2.1797-1.6562-5.2656-1.3633-7.1016 0.66797-1.8359 2.0312-1.8086 5.1289 0.058594 7.1289 5.9414 6.1016 13.195 11.949 16.918 14.84z"/>
  <path d="m26.77 74.055c0.76953 0.77344 1.9141 1.0352 2.9414 0.67969l4.3594-1.5156v-0.003906c0.86719-0.30469 1.5234-1.0312 1.7461-1.9258 0.21875-0.89453-0.023437-1.8398-0.65234-2.5156-4.0469-4.3086-9.2812-9.4141-12.055-11.977v0.003906c-1.6992-1.5703-4.2773-1.707-6.1328-0.32422-1.1211 0.83203-1.8203 2.1133-1.9219 3.5039-0.10156 1.3906 0.40625 2.7578 1.3906 3.7461z"/>
 </g>
</svg>
