<?xml version="1.0" encoding="UTF-8"?>
<svg width="100pt" height="100pt" version="1.1" viewBox="0 0 100 100" xmlns="http://www.w3.org/2000/svg">
 <path d="m56.133 94.922c7.4453-3.7578 19.648-12.254 24.727-29.172l1.043-0.15234v-0.003906c1.8906-0.28125 3.5039-1.5117 4.2773-3.2617 2.2305-4.9922 2.5703-10.391 2.5391-13.555-0.019531-1.6836-0.78906-3.2695-2.0977-4.3281l-3.5781-2.9062c-0.78906-9.2305-3.6641-21.645-12.73-30.02-11.418-10.531-29.207-10.531-40.625 0-9.0664 8.3672-11.941 20.781-12.727 30.008l-3.5781 2.9141c-1.3086 1.0625-2.0781 2.6484-2.0977 4.332-0.03125 3.1641 0.30469 8.5625 2.5391 13.555 0.77344 1.75 2.3867 2.9805 4.2773 3.2617l1.043 0.15234c5.0781 16.922 17.277 25.418 24.727 29.168 3.8555 1.9453 8.4023 1.9453 12.262 0.007813zm3.8281-50.289 0.35937-3.4219c0.20703-1.8828 1.8945-3.2461 3.7812-3.0508 1.8828 0.19531 3.2578 1.8789 3.0742 3.7617l-0.35938 3.4297h0.003906c-0.19922 1.8945-1.8945 3.2695-3.7891 3.0703s-3.2695-1.8945-3.0703-3.7891zm-26.781 0.71094-0.35938-3.4297 0.003907 0.003907c-0.16406-1.875 1.207-3.5391 3.082-3.7305 1.8711-0.19531 3.5547 1.1523 3.7734 3.0234l0.35937 3.4219c0.18359 1.8867-1.1914 3.5664-3.0742 3.7617-1.8867 0.19531-3.5742-1.1641-3.7852-3.0508zm6.2734 35.648-0.85156-0.99219c-1.2539-1.4609-1.0898-3.6641 0.375-4.9219l4.6602-4-5.4961-4.8672c-1.4453-1.2773-1.5781-3.4844-0.30078-4.9258l0.86719-0.97656c0.61328-0.69141 1.4766-1.1133 2.4023-1.1719 0.92188-0.054688 1.832 0.25781 2.5234 0.87109l6.3477 5.6172 6.4453-5.5312c0.70312-0.60156 1.6133-0.90234 2.5391-0.83203 0.92188 0.070312 1.7773 0.50391 2.3789 1.207l0.85156 0.99219c0.60547 0.69922 0.90625 1.6133 0.83594 2.5352s-0.50391 1.7812-1.207 2.3828l-5.5742 4.793 4.6055 4.0781v0.003906c0.69141 0.61328 1.1133 1.4766 1.1719 2.4023 0.054687 0.92188-0.25781 1.832-0.87109 2.5234l-0.86719 0.97656c-1.2773 1.4414-3.4844 1.5781-4.9297 0.29688l-5.4531-4.832-5.5312 4.7461c-1.4609 1.2578-3.6641 1.0898-4.9219-0.375z"/>
</svg>
