<?xml version="1.0" encoding="UTF-8"?>
<svg width="100pt" height="100pt" version="1.1" viewBox="0 0 100 100" xmlns="http://www.w3.org/2000/svg">
 <g>
  <path d="m95.375 57.586h-4.3164l-0.003906-2.1641c0.003906-0.20703-0.078126-0.40234-0.22266-0.54688s-0.33984-0.22656-0.54297-0.22656h-7.1484c-0.42578 0.003906-0.76562 0.34766-0.77344 0.77344v2.1641h-4.3164 0.003907c-0.37891 0-0.71875 0.22656-0.86328 0.57422-0.14453 0.34766-0.070312 0.74609 0.19531 1.0156l8.1758 8.2812v0.003907c0.30469 0.30469 0.71875 0.48047 1.1484 0.48047 0.43359 0 0.84766-0.17578 1.1523-0.48047l8.1758-8.2812c0.26563-0.26953 0.34766-0.67188 0.19922-1.0195-0.14453-0.35156-0.48828-0.57812-0.86328-0.57422z"/>
  <path d="m95.375 78.969h-4.3164l-0.003906-2.1641c0.003906-0.20703-0.074219-0.40625-0.21875-0.55469-0.14453-0.14453-0.34375-0.23047-0.54688-0.22656h-7.1484c-0.42578 0.003906-0.77344 0.35156-0.77344 0.78125v2.1641h-4.3164 0.003907c-0.37891 0-0.71875 0.22656-0.86328 0.57422-0.14453 0.34766-0.070312 0.74609 0.19531 1.0156l8.1758 8.2812v0.003906c0.30469 0.30469 0.71875 0.48047 1.1484 0.48047 0.43359 0 0.84766-0.17578 1.1523-0.48047l8.1758-8.2812v-0.003906c0.26563-0.26953 0.33984-0.66797 0.19531-1.0156-0.14453-0.34766-0.48438-0.57422-0.85938-0.57422z"/>
  <path d="m21.484 31.57c-0.44141-0.027343-0.87891 0.12891-1.2031 0.43359-0.32031 0.30469-0.5 0.73047-0.49219 1.1758h-0.003906c0.054688 3.7891 0.49219 7.5664 1.3086 11.27 2.4102 10.664 7.7109 18.035 15.758 21.906 1.6719 0.80469 3.6172 0.80469 5.2891 0 8.0469-3.8711 13.352-11.242 15.758-21.906v-0.003907c0.81641-3.6992 1.2578-7.4766 1.3086-11.266 0.007813-0.44531-0.17578-0.87109-0.49609-1.1758-0.32422-0.30469-0.75781-0.46094-1.2031-0.43359-9 0.60156-14.414-2.1562-17.242-4.3672-0.44922-0.35547-1.0859-0.35547-1.5391 0-2.8281 2.2109-8.2422 4.9688-17.242 4.3672z"/>
  <path d="m73.016 13.891c-14.156 8.4258-25.766 0.42188-29.766-2.9922-0.26953-0.23438-0.64844-0.28516-0.96875-0.13672-0.32031 0.14844-0.52734 0.46875-0.52734 0.82422l0.13281 9.2109h-0.003907c0.015626 1.2227 0.67188 2.3516 1.7305 2.9688 2.7891 1.625 8.875 4.2656 17.363 2.8594 0.61719-0.10547 1.25 0.054688 1.7461 0.43359 0.49609 0.38281 0.8125 0.95312 0.87109 1.5742 0.03125 0.3125 0.71875 7.8125-1.2617 16.68-2.6719 11.977-8.9844 20.66-18.238 25.113-0.49219 0.23438-1.0039 0.42969-1.5312 0.58594-0.47656 0.13672-0.80469 0.57422-0.80859 1.0742v9.625c0 0.38672 0.19922 0.74609 0.53125 0.94922 0.32812 0.20703 0.74219 0.22266 1.0859 0.050782 5.0977-2.5898 9.9023-5.7188 14.328-9.3359 9.1523-7.4766 14.957-18.297 16.324-30.035 0.97656-8.5469 1.7734-19.434 0.92187-28.492v0.003906c-0.042968-0.4375-0.30859-0.82031-0.69922-1.0156-0.39062-0.19531-0.85547-0.17578-1.2305 0.054687z"/>
  <path d="m21.289 73.383v-0.003906c4.4258 3.6172 9.2266 6.7461 14.324 9.332 0.34766 0.17578 0.75781 0.16016 1.0898-0.046876 0.32812-0.20312 0.53125-0.5625 0.53125-0.95312v-9.625c-0.003906-0.49609-0.33203-0.92969-0.8125-1.0703-0.52344-0.15625-1.0352-0.35156-1.5312-0.58594-9.25-4.457-15.555-13.141-18.23-25.117-1.9805-8.8672-1.293-16.363-1.2617-16.68v0.003907c0.058593-0.625 0.375-1.1953 0.87109-1.5781 0.49609-0.37891 1.1289-0.53906 1.7461-0.43359 8.4922 1.4102 14.578-1.2305 17.363-2.8555v-0.003906c1.0586-0.61719 1.7148-1.7461 1.7305-2.9688l0.13281-9.1953v-0.003906c0-0.35547-0.20313-0.67969-0.52734-0.82812-0.32422-0.15234-0.70312-0.097656-0.97266 0.13672-3.8945 3.3203-15.086 10.938-29.805 2.957v-0.003906c-0.375-0.20312-0.82812-0.20703-1.2109-0.007813-0.37891 0.19922-0.63281 0.57813-0.67969 1.0039-0.85156 9.0547-0.0625 19.941 0.92188 28.484 1.3594 11.738 7.1719 22.559 16.32 30.043z"/>
 </g>
</svg>
