<?xml version="1.0" encoding="UTF-8"?>
<svg width="100pt" height="100pt" version="1.1" viewBox="0 0 100 100" xmlns="http://www.w3.org/2000/svg">
 <g>
  <path d="m95.375 62.07h-4.3164l-0.003906-2.1641c0.003906-0.20703-0.074219-0.40625-0.21875-0.55078-0.14453-0.14844-0.34375-0.23047-0.54688-0.23047h-7.1484c-0.42578 0.003906-0.77344 0.35547-0.77344 0.78125v2.1641h-4.3164 0.003907c-0.37891 0-0.71875 0.22656-0.86328 0.57422-0.14453 0.34766-0.070312 0.75 0.19531 1.0195l8.1758 8.2812c0.30469 0.30859 0.71875 0.48047 1.1484 0.48047 0.43359 0 0.84766-0.17188 1.1523-0.48047l8.1758-8.2734c0.26953-0.26953 0.35156-0.67188 0.20703-1.0234-0.14844-0.35547-0.49219-0.58203-0.87109-0.57813z"/>
  <path d="m95.375 83.453h-4.3164l-0.003906-2.1641c0.003906-0.20312-0.078126-0.40234-0.22266-0.54687-0.14453-0.14453-0.33984-0.22656-0.54297-0.22656h-7.1484c-0.42578 0.007813-0.76562 0.34766-0.77344 0.77344v2.1641h-4.3164 0.003907c-0.37891 0-0.71875 0.22656-0.86328 0.57422-0.14844 0.34766-0.070312 0.75 0.19531 1.0195l8.1758 8.2812c0.30469 0.30859 0.71875 0.48047 1.1484 0.48047 0.43359 0 0.84766-0.17188 1.1523-0.48047l8.1758-8.2812v-0.003906c0.26563-0.26562 0.34375-0.66797 0.19531-1.0156-0.14453-0.34766-0.48438-0.57422-0.85938-0.57422z"/>
  <path d="m67.516 32.539s0-6.9922-5.0352-14.738l-0.003907 0.003907c-3.2812-5.0742-8.3164-8.7617-14.141-10.367-7.082-1.9414-17.812-2.625-27.867 5.7031 0 0-12.367 9.9453-9.9453 28.859l-6.4844 12.004c-0.48437 0.89062-0.45703 1.9727 0.0625 2.8438 0.51953 0.87109 1.4609 1.4023 2.4766 1.3984h5.6406l3.6562 14.605c0.36719 1.4883 1.3438 2.75 2.6875 3.4883 1.3438 0.73828 2.9336 0.88281 4.3867 0.39844l13.02-6.3594v-0.003906c0.50391-0.29297 1.1055-0.37109 1.668-0.21094 0.5625 0.16016 1.0352 0.53906 1.3086 1.0547 0.27734 0.51172 0.33203 1.1172 0.15234 1.6719-0.17969 0.55859-0.57812 1.0156-1.1016 1.2734l-4.332 2.3203c-0.89453 0.47656-1.3125 1.5273-0.99219 2.4883l3.4375 10.387h-0.003906c0.26172 0.82812 0.89844 1.4844 1.7188 1.7695 0.82031 0.28516 1.7266 0.16406 2.4414-0.32812l20.227-14.023h-0.003907c2.3477-1.625 3.1055-4.75 1.7578-7.2656l-2.625-4.9062h0.003906c-1.4531-2.7188-1.2617-6.0195 0.49219-8.5508 3.1367-4.5312 7.5547-12.836 7.3984-23.516zm-18.668 5.8086-19.191-8.9414c-5.0938-2.3711-5.6211-9.3906-0.95703-12.523 5.2891-3.5508 10.906-3.7227 14.949-3.125 4.5938 0.66797 8.8281 2.9688 11.648 6.6523 2.7344 3.5703 3.6719 7.6172 3.793 11.242 0.17578 5.332-5.4023 8.957-10.246 6.6992z"/>
 </g>
</svg>
