<?xml version="1.0" encoding="UTF-8"?>
<svg width="100pt" height="100pt" version="1.1" viewBox="0 0 100 100" xmlns="http://www.w3.org/2000/svg">
 <path d="m74.305 77.805c-0.11719-0.59766-0.17969-1.207-0.19531-1.8203-0.03125-1.4336 0.67969-2.7812 1.8867-3.5547 1.2031-0.77734 2.7266-0.87109 4.0195-0.24609 2.1484 1.0352 4.1875 1.9531 6.1172 2.7656 4.1406 1.7383 7.6992-3.4609 4.5781-6.6914-8.0391-8.3164-15.855-15.836-23.297-22.586l-0.007812-5.8438c0-1.7109-0.55078-3.3789-1.5703-4.7539-0.68359-0.92188-1.3555-1.8203-1.9258-2.5859l-0.003906-0.003906c-0.83203-1.082-0.70312-2.6211 0.29688-3.5547 0.52344-0.47266 1.2188-0.71484 1.9219-0.66406 0.70703 0.050781 1.3594 0.38281 1.8125 0.92188 1.5234 1.8203 3.3438 4.0156 4.8945 5.8906h0.003907c1.8086 2.1953 4.2031 3.8398 6.9023 4.7461v-0.003907c2.9375 0.98828 5.9297 1.8008 8.9609 2.4375 2.168 0.45313 3.9453-1.8438 2.8789-3.7852-6.3828-11.656-16.508-19.582-16.508-19.582-12.664-9.4844-23.344-13.406-28.969-14.953-0.89062-0.24219-1.8477 0.023438-2.4844 0.69922-0.63672 0.67188-0.85156 1.6406-0.55469 2.5195 3.2734 9.7266 8.0625 14.773 8.0625 14.773s5.4688 6.4336 5.9375 14.625c-18.523-15.812-33.984-26.398-43.688-32.195-3.1484-1.8789-6.6875 1.7734-4.7031 4.8516 0.48047 0.74609 0.96484 1.4844 1.4609 2.2188h-0.011718s7.6523 14.09 6.6562 39.758l0.070312 7.3789h-0.003906c0.039062 2.4336-0.39062 4.8477-1.2617 7.1211-0.20703 0.53906-0.44531 1.0625-0.71094 1.5742-1.1133 2.0781-1.7422 4.3828-1.8398 6.7383-0.074219 2.4062 0.42578 5.1328 2.4805 7.1016 1.4883 1.4062 3.5 2.1328 5.5469 2.0039 2.043-0.13281 3.9453-1.1094 5.2461-2.6953 1.1953-1.4844 2.0938-3.6562 1.9883-6.8086-0.070313-1.6016-0.45312-3.1719-1.1328-4.625h-0.003906c-1.7969-4.0273-2.7578-8.3828-2.8203-12.797v-9.2852c0-2.0352 0.52344-4.0391 1.5234-5.8164 0.80859-1.4336 0.71484-3.207-0.24219-4.5469l-3.2266-4.5c-0.49219-0.6875-0.41406-1.6289 0.1875-2.2266 0.33594-0.33984 0.79688-0.52344 1.2734-0.50781 0.47656 0.015625 0.92969 0.22656 1.2422 0.58203l3.8711 3.6055h0.003906c3.7812 3.5039 6.8672 7.6875 9.0938 12.336 0.32422 0.66406 0.60938 1.2969 0.80469 1.8359 1.2852 3.4922 2.1445 7.125 2.5547 10.82 0 0 1.4141 12.727 0.58594 19.336 0 0-0.35937 3.6094-1.2422 6.7266-0.42188 1.4414-0.63281 2.9414-0.625 4.4453 0.007813 1.1406 0.15234 2.2773 0.42969 3.3828 1.4453 5.4023 9.1562 4.8945 9.9023-0.64844 0.24609-1.8242 0.13281-4.2656-0.60156-7.5234-0.39062-1.7305-0.71875-3.4766-0.94141-5.2422-0.53125-4.1875-1.1914-11.273-0.32813-15.992 0.49609-2.7188 2.1328-3.957 3.9531-4.4492h0.003906c1.9805-0.51172 4.0859-0.12891 5.7617 1.043 0.75 0.51172 1.5 1.0156 2.2422 1.5078l0.003906-0.003906c2.6875 1.7422 4.7305 4.3164 5.8203 7.3281 0.41797 1.1758 0.66406 2.4062 0.72266 3.6484v1.9531c0.011719 1.3203-0.30859 2.6211-0.92969 3.7891-0.0625 0.11328-0.125 0.22656-0.19531 0.34375-0.53906 0.92188-0.87891 1.9492-0.99219 3.0156-0.25 2.4609-0.046876 6.4844 3.5039 8.0234 1.1445 0.51953 2.4609 0.51953 3.6055 0 1.8906-0.90234 4.0391-3.5586 2.2031-11.355zm-52.93-5.3672c-0.32812 1.8516-1.7266 3.1484-3.125 2.8984-1.3984-0.24609-2.2578-1.9531-1.9258-3.7969 0.32812-1.8438 1.7266-3.1484 3.125-2.8984 1.3945 0.25 2.2539 1.9492 1.9258 3.7969z"/>
</svg>
