<?xml version="1.0" encoding="UTF-8"?>
<svg width="100pt" height="100pt" version="1.1" viewBox="0 0 100 100" xmlns="http://www.w3.org/2000/svg">
 <g>
  <path d="m45.98 61.523c0.37891-0.36719 0.51172-0.91797 0.35156-1.418-0.16406-0.5-0.59766-0.86719-1.1172-0.94141l-12.305-1.7891c-0.44922-0.066406-0.83984-0.34766-1.043-0.75781l-5.5-11.152c-0.23438-0.47266-0.71484-0.76953-1.2422-0.76953-0.52344 0-1.0039 0.29688-1.2383 0.76953l-5.5039 11.152c-0.20312 0.41016-0.58984 0.69141-1.0391 0.75781l-12.305 1.7891c-0.52344 0.074219-0.96094 0.4375-1.125 0.9375-0.16406 0.5-0.03125 1.0547 0.34766 1.4219l8.9062 8.6797c0.32422 0.32031 0.46875 0.77734 0.39062 1.2266l-2.0977 12.258c-0.089844 0.51953 0.125 1.0469 0.55469 1.3555 0.42578 0.30859 0.99609 0.34766 1.4609 0.10156l11.008-5.7891c0.40234-0.21094 0.88281-0.21094 1.2891 0l11.008 5.7891c0.46484 0.24609 1.0273 0.20312 1.4531-0.10547 0.42578-0.30859 0.64062-0.83594 0.55078-1.3516l-2.1016-12.258c-0.078125-0.44922 0.066406-0.90625 0.39062-1.2266z"/>
  <path d="m79.707 34.328-6.9648 1.0156v-0.003906c-0.29688 0.042968-0.54297 0.24609-0.63281 0.53125-0.09375 0.28516-0.015625 0.59375 0.19922 0.80078l5.0352 4.9141c0.18359 0.18359 0.26953 0.44141 0.22656 0.69531l-1.1875 6.9375c-0.050781 0.29297 0.070313 0.59375 0.3125 0.76562 0.23828 0.17578 0.5625 0.19922 0.82422 0.058594l6.2305-3.2734v-0.003906c0.22656-0.11719 0.5-0.11719 0.72656 0l6.2305 3.2734v0.003907c0.26562 0.14062 0.58594 0.11719 0.82422-0.058594 0.24219-0.17578 0.36328-0.47266 0.3125-0.76562l-1.1875-6.9375c-0.046875-0.25391 0.039062-0.51172 0.22266-0.69531l5.0391-4.9141c0.21484-0.20703 0.29297-0.51562 0.19922-0.80078-0.089844-0.28125-0.33594-0.48828-0.63281-0.53125l-6.9648-1.0156v0.003906c-0.25-0.039063-0.47266-0.19922-0.58594-0.42969l-3.1172-6.3125h0.003906c-0.13281-0.26953-0.40234-0.4375-0.70312-0.4375-0.29688 0-0.57031 0.16797-0.70313 0.4375l-3.1172 6.3125h0.003906c-0.11328 0.23047-0.33594 0.39062-0.59375 0.42969z"/>
  <path d="m54.477 79.898c0.089844 0 0.17969 0 0.27344-0.011719 14.215-1.3281 26.223-9.0586 31.336-20.18l-0.003907-0.003906c0.66797-1.457 0.03125-3.1797-1.4258-3.8477s-3.1797-0.027344-3.8477 1.4258c-4.25 9.2461-14.453 15.691-26.605 16.828v0.003906c-1.543 0.13672-2.707 1.4688-2.6367 3.0195 0.074219 1.5469 1.3516 2.7656 2.9023 2.7656z"/>
  <path d="m51.109 20.562c6.625 0.39062 12.934 2.3281 18.242 5.6172 1.3633 0.83984 3.1484 0.42187 3.9922-0.9375 0.84375-1.3633 0.42578-3.1484-0.9375-3.9922-6.125-3.7969-13.375-6.0391-20.961-6.4766-9.2734-0.53125-18.418 1.7031-25.75 6.2969-7.3945 4.6406-12.508 11.367-14.398 18.957h0.003906c-0.34375 1.5352 0.59766 3.0664 2.1289 3.4453 1.5273 0.38281 3.0781-0.52344 3.4961-2.043 3.1914-12.84 17.902-21.809 34.184-20.867z"/>
 </g>
</svg>
