<?xml version="1.0" encoding="UTF-8"?>
<svg width="100pt" height="100pt" version="1.1" viewBox="0 0 100 100" xmlns="http://www.w3.org/2000/svg">
 <g>
  <path d="m43.992 40.645c1.043 4.9883 5.4531 8.6094 10.57 8.4297 4.8828-0.17188 8.8711-3.75 9.8281-8.4258h0.054687-0.003906c1.7734 0.027343 3.2344-1.3906 3.2578-3.1641 0.023437-1.7773-1.3945-3.2344-3.168-3.2578-0.023438-1.3828-0.039062-2.8008-0.050781-4.2266-0.039063-5.8828-4.7305-10.641-10.5-10.664-5.8281-0.023438-10.547 4.7812-10.555 10.727 0 1.3477 0.019531 2.7695 0.070313 4.2266l-0.003906-0.003906c-1.5859 0.32812-2.6797 1.7852-2.5547 3.3984 0.12891 1.6172 1.4336 2.8828 3.0508 2.9609zm14.297-11.422v0.003906c1.0234 0.003907 1.9453 0.62109 2.3359 1.5703s0.17188 2.0391-0.55078 2.7617c-0.72656 0.72656-1.8164 0.94141-2.7656 0.55078-0.94531-0.38672-1.5664-1.3125-1.5703-2.3359-0.003906-0.67578 0.26562-1.3281 0.74219-1.8047 0.48047-0.48047 1.1289-0.74609 1.8086-0.74609zm-2.9453 8.2109-0.003906 0.003906c1.7422-0.058594 3.2031 1.3008 3.2656 3.0469v0.0625-0.003906c0.03125 0.83594-0.27344 1.6523-0.84766 2.2656-0.57031 0.60938-1.3594 0.97266-2.1953 1l-2.3242 0.082031c-0.83984 0.03125-1.6523-0.27344-2.2656-0.84375-0.61328-0.57031-0.97266-1.3633-1-2.1992v-0.0625c-0.03125-0.83594 0.27344-1.6523 0.84375-2.2617 0.57031-0.61328 1.3594-0.97656 2.1992-1.0039zm-5.6875-8.2109-0.003906 0.003906c1.0234 0.003907 1.9492 0.62109 2.3359 1.5703 0.39062 0.94922 0.17578 2.0391-0.55078 2.7617-0.72266 0.72656-1.8125 0.94141-2.7617 0.55078-0.94922-0.38672-1.5664-1.3125-1.5703-2.3359h-0.003907c0-0.67578 0.26563-1.3281 0.74609-1.8047 0.47656-0.48047 1.1289-0.74609 1.8047-0.74609z"/>
  <path d="m46.336 96.469h22.023c0.54297-0.003906 1.0547-0.24609 1.3984-0.66797 0.33984-0.41797 0.47656-0.97266 0.36719-1.5039-0.25-1.2578-0.66406-2.4805-1.2305-3.6328-0.64844-1.3398-1.0312-2.7969-1.1211-4.2852l-1.9297-29.363c-0.14453-2.1797-1.918-3.9023-4.1016-3.9844l-14.906-0.53125c-1.1641-0.039062-2.293 0.39453-3.1289 1.207-0.83594 0.8125-1.3008 1.9297-1.293 3.0898 0.046876 8.3516 0.37109 26.562 2.1484 38.141 0.13672 0.875 0.88672 1.5234 1.7734 1.5312z"/>
  <path d="m89.695 64.258c-1.1055-5.6211-5.9414-9.7422-11.672-9.9297l-5.8047-0.19531c-0.58984-0.019531-1.1641 0.21875-1.5664 0.65625-0.40234 0.43359-0.59766 1.0234-0.53516 1.6133l0.4375 3.9922c0.10547 0.95703 0.86328 1.7148 1.8203 1.8164l4.3672 0.46484c2.1133 0.22656 3.875 1.7148 4.4453 3.7617l2.7969 10.047c0.57422 2.0586 2.6719 3.2969 4.75 2.8047 2.0781-0.49609 3.3984-2.5391 2.9922-4.6367z"/>
  <path d="m21.172 32.633 0.03125 13.125c-0.41016 5.7188 3.1875 10.961 8.668 12.641l5.5547 1.6992h-0.003906c0.57031 0.17578 1.1875 0.09375 1.6914-0.22266 0.50391-0.31641 0.84766-0.83594 0.9375-1.4219l0.62109-3.9766c0.14844-0.95312-0.38672-1.8789-1.2812-2.2266l-4.1016-1.5898v-0.003906c-1.9805-0.76953-3.2891-2.6641-3.3086-4.7891l-0.86719-12.984h0.003907c-0.015626-2.1367-1.7188-3.8828-3.8555-3.9492-2.1406-0.066406-3.9492 1.5664-4.0977 3.6992z"/>
  <path d="m80.422 17.469-7.5938-5.7188c-0.62891-0.47266-1.5195-0.37109-2.0234 0.23438l-1.9922 2.3906c-0.25391 0.30078-0.375 0.69531-0.33594 1.0898 0.042969 0.39844 0.23828 0.75781 0.54688 1.0039l5.4062 4.2969c0.50391 0.40234 0.76562 1.0352 0.69531 1.6758l-1.3359 12.133v-0.003907c-0.10547 0.88672 0.28516 1.7578 1.0156 2.2695l10.91 7.6367c0.65625 0.45703 1.5586 0.30859 2.0352-0.33594l2.2617-3.0508h-0.003907c0.25-0.33203 0.34375-0.75391 0.26563-1.1562-0.078126-0.40625-0.32422-0.76172-0.67578-0.98047l-7.7422-4.75c-0.75-0.46094-1.1875-1.293-1.1445-2.1719l0.625-12.609c0.039062-0.76172-0.30469-1.4961-0.91406-1.9531z"/>
  <path d="m95.82 29.516-3.7812-2.5547c-0.41016-0.27734-0.64062-0.75781-0.60156-1.2539l0.94531-11.914h-0.003906c0.054688-0.64844-0.22266-1.2812-0.73828-1.6836l-10.645-8.2812c-0.58984-0.46094-1.4375-0.37109-1.918 0.20312l-1.9336 2.3438h0.003907c-0.24609 0.29688-0.35938 0.67969-0.30859 1.0586 0.046875 0.37891 0.25 0.72266 0.55859 0.94922l8.625 6.25c0.47656 0.34375 0.74609 0.90625 0.71875 1.4922l-0.64063 13.148c-0.039062 0.82422 0.35547 1.6094 1.043 2.0625l4.9844 3.3008-0.003906 0.003906c0.60938 0.40234 1.4258 0.26562 1.8672-0.3125l2.1484-2.8086c0.23438-0.30469 0.33594-0.69141 0.27344-1.0703-0.058593-0.37891-0.27344-0.71875-0.59375-0.93359z"/>
  <path d="m6.7148 81.734 11.176 4.3984c0.58984 0.23047 1.0156 0.74609 1.1367 1.3672l1.2656 6.6836c0.074219 0.38281 0.29688 0.72266 0.625 0.9375 0.32422 0.21484 0.72266 0.29297 1.1016 0.21094l3-0.64062v0.003906c0.75391-0.16406 1.2539-0.88672 1.1289-1.6484l-1.4883-9.2383v-0.003906c-0.11719-0.74219-0.59766-1.375-1.2812-1.6953l-11.27-5.2344c-0.78516-0.36328-1.3086-1.1289-1.3672-1.9922l-0.58594-8.9258c-0.027344-0.40625-0.22266-0.78125-0.53906-1.0352-0.32031-0.25391-0.72656-0.36328-1.1289-0.30078l-3.6953 0.57031v-0.003906c-0.77344 0.12109-1.3086 0.83203-1.2109 1.6094l1.6367 13.004c0.10938 0.87109 0.67969 1.6094 1.4961 1.9336z"/>
  <path d="m19.656 63.68-3.4336 0.58594h0.003906c-0.70703 0.125-1.1992 0.76953-1.1289 1.4844l0.58594 5.8594c0.082031 0.80469 0.57812 1.5117 1.3164 1.8516l11.742 5.4844h-0.003907c0.52734 0.24219 0.89453 0.73828 0.97656 1.3125l1.4727 10.367c0.054688 0.37109 0.26172 0.70703 0.57031 0.92188 0.30859 0.21484 0.69141 0.29297 1.0625 0.21875l2.9219-0.60938c0.71484-0.15625 1.1797-0.84375 1.0625-1.5625l-2.3281-13.074c-0.11328-0.62891-0.53516-1.1641-1.1211-1.418l-10.805-4.6484c-0.44922-0.19141-0.76172-0.61328-0.81641-1.1016l-0.48828-4.4648c-0.039063-0.375-0.23438-0.71875-0.53125-0.94531-0.30078-0.23047-0.68359-0.32422-1.0586-0.25781z"/>
 </g>
</svg>
