<?xml version="1.0" encoding="UTF-8"?>
<svg width="100pt" height="100pt" version="1.1" viewBox="0 0 100 100" xmlns="http://www.w3.org/2000/svg">
 <g>
  <path d="m95.375 56.859h-4.3164l-0.003906-2.1719c0.003906-0.20312-0.078126-0.40234-0.22266-0.54688s-0.33984-0.22656-0.54297-0.22656h-7.1484c-0.42578 0.007813-0.76562 0.34766-0.77344 0.77344v2.1641h-4.3164 0.003907c-0.37891 0-0.71875 0.22656-0.86328 0.57422-0.14453 0.34766-0.070312 0.75 0.19531 1.0195l8.1758 8.2812c0.30469 0.30859 0.71875 0.48047 1.1484 0.48047 0.43359 0 0.84766-0.17188 1.1523-0.48047l8.1758-8.2812c0.26172-0.26953 0.33594-0.66797 0.19141-1.0156-0.14453-0.34375-0.48438-0.57031-0.85547-0.57031z"/>
  <path d="m95.375 78.242h-4.3164l-0.003906-2.1641c0.003906-0.20703-0.078126-0.40234-0.22266-0.54688s-0.33984-0.22656-0.54297-0.22656h-7.1484c-0.42578 0.003906-0.76562 0.34766-0.77344 0.77344v2.1641h-4.3164 0.003907c-0.37891 0-0.71875 0.22656-0.86328 0.57422-0.14453 0.34766-0.070312 0.74609 0.19531 1.0156l8.1758 8.2812v0.003907c0.30469 0.30469 0.71875 0.48047 1.1484 0.48047 0.43359 0 0.84766-0.17578 1.1523-0.48047l8.1758-8.2812v-0.003907c0.26563-0.26953 0.33984-0.66797 0.19531-1.0156s-0.48438-0.57422-0.85938-0.57422z"/>
  <path d="m61.328 11.797s-10.742-2.6172-18.828 5.6719c-0.55469 0.56641-1.3125 0.88672-2.1055 0.88672s-1.5508-0.32031-2.1055-0.88672c-8.0859-8.2891-18.836-5.6719-18.836-5.6719s-14.562 2.4609-15.707 18.977c-1.1484 16.516 15.379 27.977 15.379 27.977 6.918 4.9023 13.305 10.516 19.051 16.75 0.56641 0.625 1.375 0.98047 2.2188 0.98047s1.6523-0.35547 2.2188-0.98047c5.7461-6.2344 12.133-11.848 19.051-16.75 0 0 16.523-11.453 15.379-27.977-1.1445-16.527-15.715-18.977-15.715-18.977z"/>
 </g>
</svg>
