<?xml version="1.0" encoding="UTF-8"?>
<svg width="100pt" height="100pt" version="1.1" viewBox="0 0 100 100" xmlns="http://www.w3.org/2000/svg">
 <g>
  <path d="m27.41 45.312c0 3.3984 2.6797 6.1914 6.0781 6.3281h-0.003906c0.69141 1.3828 1.4922 2.7109 2.3945 3.9648 2.1719 3.0078 5.2188 6.0547 9.375 7.9453s9.0234 1.3828 12.594-1.4375c2.5586-2.0234 5.2109-5.2852 6.8359-10.512 2.918-0.3125 5.2422-2.5898 5.6055-5.5039 0.36719-2.9141-1.3164-5.6953-4.0703-6.7227-0.19531-6.0156-1.8945-17.879-11.75-22.543-6.2891-2.9766-13.773-1.7734-18.59 3.25-3.4727 3.6289-6.3867 9.7227-5.5469 19.891-1.8242 1.1641-2.9258 3.1758-2.9219 5.3398zm26.582-9.9805c2.2266 0 4.0273 2.3125 4.0273 5.1641 0 2.8516-1.8047 5.1641-4.0273 5.1641-2.2227 0-4.0273-2.3125-4.0273-5.1641 0.003906-2.8516 1.8047-5.1641 4.0273-5.1641zm-4.0273 16.445h0.003906c1.3047 0 2.4844 0.78516 2.9844 1.9961 0.50391 1.207 0.22656 2.5977-0.69922 3.5234-0.92578 0.92188-2.3164 1.1992-3.5234 0.69922s-1.9961-1.6797-1.9961-2.9883c0-0.85547 0.34375-1.6797 0.94922-2.2852 0.60547-0.60547 1.4258-0.94531 2.2852-0.94531zm-10.031-13.961c1.7578 0 3.168 1.5625 3.168 3.4688 0 1.9102-1.418 3.4688-3.168 3.4688s-3.168-1.5547-3.168-3.4688c0-1.918 1.418-3.4688 3.168-3.4688z"/>
  <path d="m76.508 91.516c-0.49609-6.0352-3.2461-11.66-7.7031-15.766-4.4531-4.1016-10.289-6.3789-16.344-6.375-5.6406-0.003906-11.105 1.9766-15.441 5.5859-4.3359 3.6094-7.2695 8.625-8.2891 14.172l-0.66406 3.5938c-0.16406 0.88672 0.078125 1.8008 0.65234 2.4922 0.57812 0.69531 1.4336 1.0938 2.3359 1.0938h42.555c0.85156 0 1.6602-0.35547 2.2344-0.98047s0.85938-1.4609 0.78906-2.3047z"/>
  <path d="m6.2344 61.371c2.5938 2.4062 6.1172 2.2812 6.5078 2.2617 1.6016-0.089843 2.8242-1.457 2.7344-3.0547-0.089843-1.6016-1.457-2.8242-3.0547-2.7344-0.22656 0.015625-1.5273-0.0625-2.2422-0.72266-0.15625-0.14453-0.625-0.58594-0.65625-1.9141 0-0.13281 0.070312-1.8477 1.9961-2.4375 1.9922-0.60938 3.8477-0.5 5.3594 0.32031l-0.003906-0.003906c1.3672 0.76953 2.3672 2.0547 2.7695 3.5703 0.30469 1.1445 0.41797 2.332 0.34375 3.5156-0.28516 2.293-1.4648 4.3828-3.2812 5.8125-2.7266 2.1289-4.3906 5.3438-4.5508 8.7969l-0.13281 2.8438c-0.070313 1.5977 1.1641 2.9531 2.7617 3.0234h0.13672c1.5469 0 2.8203-1.2188 2.8945-2.7656l0.13281-2.8438-0.003907 0.003907c0.089844-1.7734 0.94531-3.418 2.3438-4.5117 5.1562-4.0508 5.4844-9.8555 5.4922-10.102h0.003906c0.10156-1.8086-0.085937-3.625-0.56641-5.375-0.82812-3.0117-2.8398-5.5625-5.5781-7.0664-2.8711-1.5625-6.3594-1.8281-9.8242-0.76562-4.8594 1.4961-6.1055 5.9023-6.0938 8.0391v0.03125c0.058594 3.1523 1.4023 5.0469 2.5117 6.0781z"/>
  <path d="m12.641 88.496c0.10938 0.15625 0.23047 0.30469 0.36719 0.44141 0.13281 0.13281 0.28125 0.25391 0.4375 0.35938h0.003907c0.15625 0.10547 0.32031 0.19141 0.49609 0.26562 0.17578 0.074219 0.35547 0.12891 0.54297 0.16406 0.1875 0.039063 0.375 0.058594 0.56641 0.054688 0.37891 0.003906 0.75781-0.070312 1.1094-0.21875 0.17188-0.070312 0.34375-0.16016 0.5-0.26562 0.16016-0.10547 0.30859-0.22656 0.44141-0.35938 0.13281-0.13672 0.25391-0.28516 0.35938-0.44141 0.10156-0.16016 0.19141-0.32812 0.26953-0.50391 0.070313-0.17188 0.125-0.35547 0.16406-0.53906 0.19531-0.94922-0.097657-1.9336-0.78125-2.6172-0.13672-0.13672-0.28516-0.25781-0.44141-0.35938-0.16016-0.10547-0.32812-0.19531-0.50391-0.26562-0.17578-0.074219-0.35938-0.13281-0.54688-0.16797-0.5625-0.11328-1.1445-0.054688-1.6758 0.16797-0.17578 0.070312-0.33984 0.16016-0.49609 0.26562-0.16016 0.10156-0.30859 0.22266-0.44531 0.35938-0.68359 0.68359-0.98047 1.668-0.79297 2.6172 0.039062 0.18359 0.09375 0.36719 0.16797 0.54297v-0.003906c0.070313 0.17578 0.15625 0.34375 0.26172 0.50391z"/>
  <path d="m90.113 5.0938c-2.8711-1.5625-6.3594-1.8281-9.8242-0.76562-4.8594 1.4922-6.1094 5.9062-6.0938 8.0312v0.03125c0.0625 3.1523 1.3984 5.0469 2.5156 6.0781 2.5938 2.4062 6.1172 2.2812 6.5078 2.2617v0.003906c1.5977-0.089844 2.8203-1.457 2.7344-3.0547-0.089844-1.6016-1.4609-2.8242-3.0586-2.7344-0.22266 0.015626-1.5273-0.0625-2.2422-0.72266-0.15625-0.14453-0.625-0.58594-0.65625-1.9141 0-0.12891 0.074218-1.8438 1.9961-2.4375 1.9922-0.60938 3.8477-0.5 5.3594 0.32031l-0.003906-0.003906c1.3672 0.76953 2.3672 2.0547 2.7695 3.5703 0.30469 1.1445 0.42187 2.332 0.34375 3.5156-0.28125 2.293-1.4609 4.3828-3.2812 5.8125-2.7227 2.1289-4.3867 5.3438-4.5508 8.7969l-0.13281 2.8438c-0.035156 0.76953 0.23828 1.5195 0.75391 2.0859 0.51953 0.57031 1.2422 0.90625 2.0078 0.94531h0.13672c1.5469-0.007812 2.8164-1.2227 2.8867-2.7656l0.13281-2.8438c0.085938-1.7734 0.94141-3.418 2.3438-4.5078 5.1562-4.0508 5.4805-9.8555 5.4922-10.102 0.10938-1.8125-0.074219-3.6289-0.54688-5.3789-0.83203-3.0156-2.8477-5.5625-5.5898-7.0664z"/>
  <path d="m83.117 45.598c0.10937 0.15625 0.23047 0.30469 0.36328 0.44141 0.13672 0.13281 0.28125 0.25391 0.44141 0.35938 0.15625 0.10547 0.32422 0.19141 0.5 0.26562 0.17188 0.070313 0.35547 0.125 0.53906 0.16406 0.1875 0.039063 0.37891 0.058594 0.57031 0.054687 0.19141 0.003907 0.37891-0.015624 0.5625-0.054687 0.1875-0.035156 0.37109-0.09375 0.54688-0.16406 0.17188-0.074218 0.33984-0.16016 0.5-0.26562 0.15625-0.10547 0.30469-0.22656 0.4375-0.35938 0.13672-0.13672 0.25391-0.28516 0.35938-0.44141 0.10547-0.16016 0.19531-0.32812 0.26953-0.50391 0.074219-0.17188 0.12891-0.35547 0.16406-0.53906 0.039062-0.1875 0.058594-0.37891 0.058594-0.57031-0.003907-0.76562-0.30859-1.5039-0.85156-2.0469-0.13281-0.13672-0.28125-0.25781-0.4375-0.35938-0.16016-0.10547-0.32812-0.19531-0.50391-0.26562-0.17188-0.074219-0.35547-0.13281-0.54297-0.16797-0.37109-0.078125-0.75781-0.078125-1.1328 0-0.18359 0.039063-0.36719 0.09375-0.54297 0.16797-0.17188 0.070312-0.33984 0.16016-0.49609 0.26562-0.80859 0.53125-1.293 1.4375-1.293 2.4062 0 0.19141 0.019532 0.38281 0.058594 0.57031 0.035156 0.18359 0.089844 0.36719 0.16406 0.53906 0.074219 0.17578 0.16406 0.34375 0.26563 0.50391z"/>
 </g>
</svg>
