<?xml version="1.0" encoding="UTF-8"?>
<svg width="100pt" height="100pt" version="1.1" viewBox="0 0 100 100" xmlns="http://www.w3.org/2000/svg">
 <g>
  <path d="m51.414 61.328c-5.1797 0-9.4766 4.125-9.7656 9.3984-0.57031 10.703 0.070312 19.625 0.48437 23.324 0.12891 1.2734 1.1953 2.2461 2.4766 2.2578h15.383c0.71094-0.007813 1.3867-0.31641 1.8594-0.84766 0.47266-0.53125 0.69922-1.2383 0.625-1.9453-0.64062-6.7812-1.0547-16.18-1.3047-22.617-0.19531-5.3438-4.5078-9.5703-9.7578-9.5703z"/>
  <path d="m63.426 39.453c0.64844-6.0859-3.6406-11.555-9.6016-12.254-6.0234-0.71094-11.469 3.7109-12.172 9.8438-0.33984 2.9766-0.61719 6.3047-0.70312 9.6602-0.14844 5.8828 4.2266 10.852 9.9844 11.301 5.9141 0.46094 11.117-4.0078 11.66-10.031 0.23438-2.6445 0.51562-5.5664 0.83203-8.5195zm-17.578-0.0625c0.078125-0.82031 0.64062-1.5117 1.4297-1.7539 0.78516-0.24609 1.6406 0.007812 2.168 0.63672 0.53125 0.62891 0.62891 1.5156 0.25391 2.2461-0.37891 0.73438-1.1562 1.168-1.9766 1.1055-1.1328-0.10547-1.9648-1.1016-1.8711-2.2344zm10.273 10.219v0.0625c-0.066406 0.86719-0.47656 1.6758-1.1406 2.2422-0.66016 0.56641-1.5195 0.84375-2.3906 0.77734l-2.4141-0.19531h0.003907c-0.86719-0.066406-1.6758-0.47656-2.2422-1.1406-0.56641-0.66016-0.84375-1.5195-0.77734-2.3906v-0.0625 0.003906c0.066406-0.87109 0.47656-1.6758 1.1406-2.2422 0.66016-0.56641 1.5195-0.84766 2.3867-0.78125l2.4141 0.19531c0.86719 0.070313 1.6758 0.48047 2.2422 1.1406 0.56641 0.66406 0.84375 1.5234 0.77734 2.3906zm2.7656-9.1953c-0.078125 0.82031-0.64062 1.5117-1.4297 1.7539-0.78516 0.24219-1.6406-0.007813-2.168-0.63672-0.53125-0.63281-0.62891-1.5195-0.25391-2.25 0.37891-0.73047 1.1562-1.1641 1.9766-1.1016 1.1328 0.10156 1.9688 1.0938 1.875 2.2266z"/>
  <path d="m36.625 40.141c1.0195-1.8125 0.51562-4.1016-1.1719-5.3164-0.87109-0.62109-1.957-0.85547-3.0078-0.65234-1.0508 0.20312-1.9727 0.83203-2.5469 1.7344l-7.3633 11.406h-0.003906c-2.1953 3.4102-1.3711 7.9375 1.8828 10.352l9.3125 6.8359c0.90234 0.66406 2.0273 0.94531 3.1328 0.77734 1.1016-0.16797 2.0938-0.76953 2.7578-1.668 1.4219-1.9297 1.043-4.6445-0.85156-6.1094l-6.6758-5.0938-0.003906 0.003906c-0.94531-0.73438-1.2109-2.0469-0.62891-3.0898z"/>
  <path d="m80.02 88.066 0.10938-13.34h0.003906c0.019532-2.0078-0.73437-3.9414-2.1016-5.4102l-7.8125-8.3359c-0.72266-0.77344-1.7266-1.2227-2.7852-1.2422s-2.082 0.39453-2.832 1.1406c-0.77344 0.77344-1.2031 1.8203-1.1953 2.9141s0.45312 2.1367 1.2344 2.8984l6.8242 6.5977c0.64844 0.63281 1.0352 1.4844 1.0742 2.3906l0.57422 12.52c0.10547 2.3125 2.3438 3.8906 4.4922 3.1875 1.4336-0.47266 2.4062-1.8086 2.4141-3.3203z"/>
  <path d="m17.523 74.008c0.62891 0.94141 1.0312 2.0156 1.1719 3.1406l2.2031 17.508c0.10937 0.9375 0.89844 1.6484 1.8438 1.6562l4.0156-0.003906c0.51172-0.003906 1-0.21875 1.3477-0.58984 0.35156-0.37109 0.53516-0.87109 0.50781-1.3828l-0.91016-19.379c-0.058594-1.3164-0.47656-2.5938-1.2031-3.6914l-10.398-15.648c-1.3594-2.0586-1.5938-4.6602-0.62109-6.9219l8.7383-20.359c0.89453-2.1094 2.7578-3.6562 4.9961-4.1484l9.6172-2.0859h0.003907c0.58203-0.125 1.1484-0.32812 1.6797-0.59766l6.5469-3.3203c2.3945-1.2188 5.2773-0.94922 7.3984 0.69922l14.5 11.164v-0.003906c1.7734 1.3789 2.8086 3.4961 2.8047 5.7422v12.25-0.003906c-0.003906 1.8477 0.69531 3.625 1.9531 4.9766l10.07 10.711c1.2383 1.3242 1.9336 3.0664 1.9531 4.8828l0.29687 25.832v-0.003906c0.003907 1.0273 0.82813 1.8633 1.8555 1.875h3.5859-0.003907c1.0078-0.011719 1.8242-0.8125 1.8594-1.8125l1.2188-28.867c0.078124-1.8594-0.55859-3.6758-1.7812-5.0781l-8.3984-9.6562c-1.0625-1.2266-1.6875-2.7695-1.7695-4.3906l-0.92188-17.52c-0.10547-2.0898-1.1133-4.0352-2.7617-5.3281l-23.715-18.484c-2.4883-1.9492-5.9766-1.9727-8.4922-0.058594l-10.992 8.3281c-0.82812 0.62891-1.7891 1.0664-2.8086 1.2734l-11.875 2.4453c-2.4688 0.52344-4.4766 2.3203-5.2734 4.7188l-9.9453 29.559c-0.72266 2.1484-0.40625 4.5117 0.85156 6.3945z"/>
 </g>
</svg>
