<?xml version="1.0" encoding="UTF-8"?>
<svg width="100pt" height="100pt" version="1.1" viewBox="0 0 100 100" xmlns="http://www.w3.org/2000/svg">
 <g>
  <path d="m95.297 59.488h-4.3164l-0.003907-2.1641c0-0.20312-0.078124-0.39844-0.22266-0.54297-0.14453-0.14453-0.33984-0.22656-0.54297-0.22656h-7.1484c-0.42188 0.003906-0.76562 0.34766-0.77344 0.76953v2.1641h-4.3164c-0.375 0.003907-0.71484 0.23047-0.85938 0.57812s-0.070312 0.74609 0.19531 1.0156l8.1758 8.2812v0.003907c0.30469 0.30469 0.71875 0.48047 1.1484 0.48047 0.43359 0 0.84766-0.17578 1.1523-0.48047l8.1758-8.2812v-0.003907c0.26562-0.26953 0.33984-0.66797 0.19531-1.0156s-0.48438-0.57422-0.85938-0.57812z"/>
  <path d="m95.297 80.875h-4.3164l-0.003907-2.1641c0.003907-0.20313-0.078124-0.40234-0.22266-0.54688-0.14453-0.14453-0.33984-0.22656-0.54297-0.22656h-7.1484c-0.42578 0.007812-0.76562 0.34766-0.77344 0.77344v2.1641h-4.3164c-0.375 0-0.71484 0.22656-0.85938 0.57422-0.14453 0.34766-0.070312 0.75 0.19531 1.0195l8.1758 8.2812c0.30469 0.30859 0.71875 0.48047 1.1484 0.48047 0.43359 0 0.84766-0.17188 1.1523-0.48047l8.1758-8.2812c0.26562-0.26953 0.34375-0.67188 0.19922-1.0195-0.14844-0.35156-0.48828-0.57812-0.86328-0.57422z"/>
  <path d="m62.648 70.453h-8.4805c-1.4102-0.003906-2.8125-0.25781-4.1367-0.75391-1.418-0.34766-2.7891-0.86328-4.0859-1.5352-1.0234-0.51953-1.4961-1.7266-1.0977-2.8047 0.23047-0.58984 0.70312-1.0508 1.2969-1.2695s1.25-0.17188 1.8086 0.125c1.0391 0.54688 2.1445 0.95703 3.2891 1.2227 0.37891 0.097656 0.77734-0.066406 0.98047-0.39844 0.20703-0.33203 0.17188-0.76172-0.085937-1.0586l-0.44531-0.51953c-1.0039-1.1602-1.6484-2.5898-1.8594-4.1133l-1.4766-10.664 0.003906 0.003906c-0.085937-0.60938-0.21094-1.2109-0.38281-1.8047l-2.1758-7.6836c-0.78906-2.7852-0.82031-5.7266-0.085937-8.5273 0.73047-2.7969 2.1953-5.3516 4.2422-7.3945l11.199-11.168c0.55859-0.55859 0.73047-1.4023 0.42578-2.1367-0.30469-0.73047-1.0234-1.207-1.8164-1.1992h-30.691c-1.1641-0.007813-2.25 0.58203-2.875 1.5625v-0.003907c-0.67188 1.0469-1.4414 2.0312-2.2969 2.9336-1.4531 2.3438-4.0156 6.9961-5.2969 12.516h0.003906c-0.23438 1-1.125 1.707-2.1484 1.7109v0.003906c-0.69141 0-1.3438-0.32422-1.7656-0.87109-0.41797-0.55078-0.55859-1.2656-0.375-1.9297 0.46875-1.9805 1.082-3.9258 1.832-5.8203 0.13672-0.35547 0.070312-0.76172-0.17969-1.0547-0.24609-0.29297-0.63672-0.42578-1.0117-0.34375-3.6172 0.76172-8.5547 3.0469-10.523 9.7422-3.2656 11.086 6.5 18.645 6.5 18.645 1.6172 1.4805 3.0664 2.9023 4.3672 4.2578v0.003906c6.1211 6.332 10.297 14.289 12.039 22.922 0.29688 1.5664 0.73828 3.1016 1.3125 4.5898 1.3047 3.2539 4.4961 5.3594 8 5.2734 4.75-0.10156 8.1172-0.35938 10.43-0.63281 1.6133-0.19531 4.2383 0.03125 5.957 0.21484 1.3477 0.14844 2.6992 0.24219 4.0547 0.28125l5.5 0.17578 0.003906 0.003906c3.5039 0 6.3438-2.8398 6.3438-6.3438 0-0.14062 0-0.28125-0.015624-0.42188-0.21094-3.2578-3.0156-5.7344-6.2812-5.7344z"/>
 </g>
</svg>
