<?xml version="1.0" encoding="UTF-8"?>
<svg width="100pt" height="100pt" version="1.1" viewBox="0 0 100 100" xmlns="http://www.w3.org/2000/svg">
 <g>
  <path d="m95.336 58.016h-4.3203v-2.1562c-0.007813-0.42188-0.34766-0.76172-0.76953-0.76953h-7.1445c-0.42187 0.003906-0.76172 0.34766-0.76953 0.76953v2.1641h-4.3164c-0.375 0.003906-0.71094 0.22656-0.85938 0.57031-0.14453 0.34766-0.070312 0.74609 0.1875 1.0156l8.1758 8.2812c0.30469 0.30859 0.71875 0.48438 1.1523 0.48438 0.42969 0 0.84375-0.17578 1.1484-0.48438l8.1758-8.2812c0.26172-0.26953 0.33984-0.66797 0.19922-1.0156-0.14453-0.34766-0.48437-0.57422-0.85937-0.57812z"/>
  <path d="m95.336 79.398h-4.3203v-2.1641c-0.003906-0.42188-0.34766-0.76172-0.76953-0.76953h-7.1445c-0.42187 0.003906-0.76562 0.34766-0.76953 0.76953v2.1641h-4.3164c-0.375 0.003906-0.71875 0.23047-0.86328 0.57812-0.14453 0.34766-0.066406 0.74609 0.19922 1.0156l8.1758 8.2812h-0.003906c0.30469 0.30859 0.71875 0.48437 1.1523 0.48437 0.43359 0 0.84766-0.17578 1.1523-0.48437l8.1758-8.2812h-0.003906c0.26562-0.26953 0.34375-0.66797 0.19922-1.0156-0.14453-0.34766-0.48828-0.57422-0.86328-0.57812z"/>
  <path d="m65.062 14.742c-2.8047 1.3359-7.4844 2.7969-14.547 2.7969 0 0-7.832-0.33594-12.867-6.5391v0.003906c-0.39063-0.48047-0.97656-0.76172-1.5938-0.76172-0.62109 0-1.207 0.28125-1.5938 0.76172-5.0391 6.2031-12.867 6.5391-12.867 6.5391-7.0625 0-11.742-1.4609-14.547-2.7969h-0.003906c-0.72656-0.35547-1.5859-0.30469-2.2656 0.13672-0.67969 0.4375-1.0781 1.2031-1.0547 2.0078 0.22266 7.9258 1.1133 25.016 4.6367 35.984 3.9609 12.297 20.742 20.562 26.07 22.906 1.0352 0.45703 2.2148 0.45703 3.25 0 5.3203-2.3438 22.109-10.609 26.062-22.906 3.5234-10.969 4.4219-28.07 4.6367-35.988 0.019532-0.80469-0.37891-1.5664-1.0586-2.0039-0.67578-0.4375-1.5312-0.48828-2.2578-0.14062zm-31.836 22.461c-5.2891 1.9531-6.457 5.9805-7.2461 9.3359-0.14844 0.625-1.1719 0.63281-1.2891 0-0.60938-3.3594-2.4922-7.6602-7.2461-9.3359-0.5-0.17578-0.53516-1.0078-0.039062-1.1875 3-1.0781 6.0469-3.5859 7.2773-8.918 0.14844-0.64062 1.1875-0.64844 1.3008 0 1.1406 6.5859 4.6367 8.1094 7.2773 8.918 0.52734 0.15625 0.47266 1.0039-0.027344 1.1875zm20.258 10.578c-5.293 1.9531-6.457 5.9805-7.2461 9.3359-0.14844 0.625-1.1719 0.63281-1.2891 0-0.60938-3.3594-2.4922-7.6602-7.2461-9.3359-0.49609-0.17969-0.53125-1.0078-0.039063-1.1875 3-1.0781 6.0547-3.5859 7.2812-8.9141 0.14844-0.64063 1.1875-0.64844 1.2969 0 1.1406 6.5859 4.6406 8.1094 7.2812 8.9141 0.51172 0.15234 0.46484 1-0.03125 1.1875z"/>
 </g>
</svg>
