<?xml version="1.0" encoding="UTF-8"?>
<svg width="100pt" height="100pt" version="1.1" viewBox="0 0 100 100" xmlns="http://www.w3.org/2000/svg">
 <g>
  <path d="m13.418 23.617c2.0391 0.33594 4.0469-0.17578 5.1562-2.0703 0.78125-1.3281 1.1367-3.375 1.0703-4.8828-0.16406-3.6055-2.9141-6.4258-6.5977-6.2969-1.7266 0.0625-3.5938 0.55469-4.8828 1.7578-0.03125 0.027344-0.054687 0.054688-0.085937 0.085938-2.3281 1.5977-3.2812 4.7812-1.6875 7.3828 1.4023 2.3047 4.4688 3.6016 7.0273 4.0234z"/>
  <path d="m61.16 9.3047c0.089844 0.32031 0.26172 0.61719 0.49609 0.85156 0.042969 0.070312 0.089844 0.14062 0.14062 0.20703h0.003906c0.21875 0.33594 0.50391 0.625 0.84375 0.83984h-0.003906c0.37109 0.33984 0.82031 0.57812 1.3086 0.6875v0.003906c0.66797 0.18359 1.375 0.18359 2.043 0l0.039062-0.007812 0.91797-0.39062 0.070312-0.039063c0.60547-0.32812 0.79297-0.58594 1.1602-1.0703v-0.003907c0.25-0.27344 0.4375-0.59766 0.55078-0.94922 0.085937-0.17188 0.15625-0.35156 0.21484-0.53125 0.046876-0.33984 0.089844-0.67969 0.13672-1.0156v-0.039063-0.078125l-0.13672-1.0117v-0.039062l-0.015624-0.039062-0.39063-0.91016-0.050781-0.085937h0.003907c-0.19141-0.27734-0.39844-0.54688-0.61719-0.80078-0.13672-0.12109-0.28125-0.23437-0.42969-0.33594-0.51172-0.39062-0.65234-0.52344-1.3906-0.73438l-0.078126-0.023438h-0.039062l-1.0039-0.13281h-0.078125l-1 0.13281h-0.039063l-0.89844 0.37891v-0.003907c-0.42969 0.23047-0.79297 0.56641-1.0547 0.97656h-0.003906c-0.17578 0.17578-0.31641 0.38672-0.41016 0.62109l-0.09375 0.12109-0.39062 0.91797c-0.16016 0.49609-0.18359 1.0234-0.066406 1.5352h-0.003907c0 0.33984 0.09375 0.67578 0.26562 0.96875z"/>
  <path d="m87.031 38.352c2.1094 0.54297 4.4102 0.24609 5.9531-1.3945 1.6172-1.7148 1.9297-4.2734 1.543-6.5078-0.82031-4.7656-6.1367-8.9375-10.883-6.375l0.003907 0.003906c-1.4766 0.77734-2.5195 2.1875-2.8281 3.832-0.066406 0.17969-0.12109 0.36328-0.16797 0.55078-1.043 4.3125 2.2383 8.8281 6.3789 9.8906z"/>
  <path d="m5.3828 84.273c-0.078124 1.6211 0.70313 3.1719 1.9766 4.2109l-0.003906-0.003906c0.3125 0.39844 0.67578 0.75391 1.0781 1.0625 1.875 1.3867 4.3203 1.7461 6.5156 0.95703 1.0781-0.37109 2.0586-0.97266 2.8828-1.7578 0.92578-0.83984 1.6289-1.8906 2.0469-3.0664 0.85547-2.3633 0.33984-5.0039-1.3438-6.8672-2.6094-3.4453-7.8125-3.7734-10.883-0.63281-1.4062 1.4336-2.4141 3.5156-2.3281 5.5391 0.007812 0.18359 0.027343 0.37109 0.054687 0.55859z"/>
  <path d="m48.578 63.309c0.875 0.11719 1.7656 0.11719 2.6406-0.011719 0.49609-0.074219 0.92578-0.37109 1.1797-0.80078 0.25-0.42969 0.29687-0.94922 0.125-1.418-0.33203-0.90625-0.87109-1.7266-1.5703-2.3945-0.32812-0.31641-0.76562-0.48828-1.2188-0.47656-0.45703 0.011719-0.88672 0.21094-1.1914 0.54688-0.61719 0.69141-1.0703 1.5156-1.3281 2.4102v-0.003906c-0.14453 0.46875-0.078125 0.97656 0.18359 1.3906 0.26172 0.41016 0.69531 0.6875 1.1797 0.75781z"/>
  <path d="m39.668 58.688 0.070312 0.042969h0.003907c0.78906 0.4375 1.7188 0.54688 2.5898 0.29297 0.86719-0.25 1.5977-0.83594 2.0352-1.6289 1.2109-2.1328 1.7539-4.582 1.5625-7.0312-0.09375-1.1211-0.73438-2.1211-1.7109-2.6758-0.98047-0.55078-2.168-0.58203-3.1719-0.078125-2.793 1.4023-4.1172 3.4375-4.6875 4.6484-0.32422 0.67188-0.40625 1.4336-0.23828 2.1602 0.69922 3.0508 3.5469 4.2695 3.5469 4.2695z"/>
  <path d="m50.391 52.367c1.3438 1.3086 2.6016 2.7031 3.7656 4.1719h0.003906c0.44531 0.57422 1.1133 0.9375 1.8398 1 0.72656 0.058594 1.4453-0.19141 1.9805-0.69141 0.9375-0.90234 1.8672-2.4062 2.3047-4.9141 0 0 0.54688-3.7617-1.2812-6.8047-1.1445-1.8672-3.5664-2.4844-5.4609-1.3945-1.5742 0.87891-2.8906 2.1484-3.8203 3.6875-0.93359 1.6094-0.66016 3.6445 0.66797 4.9453z"/>
  <path d="m14.582 71.414c1.3711 0.63281 2.793 1.1562 4.2461 1.5625 4.0586 1.1562 7.2578 4.2734 8.5156 8.3008 1.8516 5.9883 6.4688 13.844 17.953 15.039 0 0 11.871 0.86719 19.195-5.4531v-0.003906c1.8242-1.5977 4.2227-2.3828 6.6406-2.1797 1.7188 0.17969 3.457 0.082031 5.1484-0.27734 4.0898-0.95703 7.1055-4.4336 7.4766-8.6211 0.19531-2.1055 0.039063-4.7109-1.1797-7.2578l-0.003906 0.003906c-0.97266-2.0703-0.65625-4.5156 0.80859-6.2695 1.5742-1.8984 3.2305-4.8086 3.6758-8.9062v-0.09375c0.63672-6.0859-4.1875-11.438-10.301-11.453-1.1367 0-2.2734 0.089843-3.3984 0.27344-0.53906 0.089844-1.0898-0.066406-1.5078-0.42188-0.41797-0.35938-0.65625-0.87891-0.65625-1.4297v-0.039062 0.003906c-0.003906-0.56641 0.26172-1.1016 0.71875-1.4375 0.10156-0.070312 0.19531-0.14062 0.28906-0.21484h0.003906c1.875-1.5 2.8359-3.8672 2.5391-6.25-0.67578-5.9141-3.5859-14.844-14.152-21.168-8.7031-5.1992-19.605-5.3945-28.242-0.082032-4.2031 2.5859-8.2578 6.6797-11.094 13.117-1.6875 3.7891-0.61719 8.2422 2.6094 10.852l0.16406 0.12891v-0.003907c0.57031 0.42578 0.86719 1.1211 0.78125 1.8242-0.066406 0.52344-0.33984 0.99609-0.76172 1.3086-0.42188 0.31641-0.94922 0.45312-1.4727 0.37109l-0.21094-0.03125h0.003906c-3.6992-0.53906-7.4609 0.35547-10.523 2.5-3.0586 2.1445-5.1836 5.3789-5.9375 9.0352-0.015625 0.074219-0.03125 0.14844-0.042968 0.22266v0.003907c-0.64844 3.4062-0.14453 6.9297 1.4336 10.02 1.5781 3.0859 4.1406 5.5586 7.2812 7.0273zm59.344-13.141c1.168 0 2.2188 0.70312 2.6641 1.7812 0.44922 1.0781 0.19922 2.3164-0.625 3.1445-0.82422 0.82422-2.0664 1.0703-3.1445 0.625-1.0781-0.44922-1.7812-1.5-1.7812-2.668 0-0.76172 0.30469-1.4961 0.84766-2.0391 0.53906-0.53906 1.2734-0.84375 2.0391-0.84375zm-38.184-34.066c1.2227 0 2.3242 0.73438 2.793 1.8633 0.46484 1.1328 0.20703 2.4297-0.65625 3.293-0.86328 0.86719-2.1641 1.125-3.293 0.65625-1.1289-0.46875-1.8672-1.5703-1.8672-2.793 0-1.668 1.3555-3.0195 3.0234-3.0195zm-4.3984 22.379c2.1797-4.6562 5.4688-7.3984 8.5781-9.0078h0.003906c5.0938-2.6289 11.109-2.7891 16.34-0.43359 6.0742 2.7344 8.2656 7.8867 8.9648 12.203l-0.003907 0.003906c0.46875 3 0.31641 6.0664-0.45312 9.0039-1.1875 4.6562-1.25 8.3477-1.1367 10.418 0.023437 0.48047-0.15234 0.94922-0.48438 1.3008-0.33203 0.34766-0.79297 0.54297-1.2734 0.54297h-0.09375c-0.69141-0.007813-1.3008-0.45313-1.5195-1.1094-0.023437-0.070312-0.046875-0.13281-0.078125-0.19531-0.6875-1.5938-2.9023-1.7578-3.875-0.32031-1.2969 1.9141-1.5 5.2188-1.4844 7.2461h0.003906c0.003907 0.46484-0.17969 0.91406-0.51172 1.2461-0.32812 0.32812-0.77734 0.51172-1.2461 0.51172h-0.80469 0.003907c-0.47656 0-0.93359-0.19531-1.2617-0.53906-0.32812-0.33984-0.50391-0.80469-0.48438-1.2773 0.19531-5.4258-2.1797-6.5625-3.1953-6.8047-0.20312-0.054688-0.41797-0.070312-0.625-0.054688-1.4883 0.14063-2.1484 1.9531-2.4297 3.2617l-0.003906-0.003906c-0.17578 0.80078-0.88672 1.3672-1.707 1.3672h-0.15625 0.003906c-0.91797 0-1.6758-0.70703-1.7422-1.6172-0.39062-5.1875-5.7656-9.6836-5.7656-9.6836-7.4883-5.4727-3.5625-16.059-3.5625-16.059z"/>
 </g>
</svg>
