<?xml version="1.0" encoding="UTF-8"?>
<svg width="100pt" height="100pt" version="1.1" viewBox="0 0 100 100" xmlns="http://www.w3.org/2000/svg">
 <g>
  <path d="m6.2109 92.516 2.2656 1.4297 2.2656 1.4375c0.58594 0.375 1.293 0.49609 1.9727 0.34766 0.67578-0.15234 1.2617-0.56641 1.6367-1.1523l10.766-16.969 6.7578 4.2969c0.99219 0.62891 2.3047 0.33594 2.9297-0.65234l1.0508-1.6562c0.62891-0.99219 0.33594-2.3008-0.65625-2.9297l-11.23-7.1367-11.227-7.1211c-0.98828-0.62891-2.3008-0.33594-2.9297 0.65625l-1.0469 1.6562c-0.30469 0.47266-0.40625 1.0508-0.28125 1.5977 0.12109 0.55078 0.45703 1.0273 0.93359 1.332l6.7578 4.2969-10.77 16.957c-0.37109 0.58594-0.49609 1.2969-0.34375 1.9727 0.15234 0.67578 0.56641 1.2656 1.1484 1.6367z"/>
  <path d="m67.266 35.32c1.0781-1.1914 1.6328-2.7656 1.5391-4.375-0.28125-4.8984-1.0469-16.062-2.6484-25.023-0.10156-0.57422-0.44141-1.0781-0.93359-1.3906-0.49219-0.3125-1.0938-0.40234-1.6523-0.25-8.7891 2.3633-19.223 6.4219-23.773 8.2539-1.4922 0.60156-2.6797 1.7734-3.3047 3.2539-5.7461 13.672-13.367 36.133-15.707 43.109h0.003906c-0.42187 1.2539 0.066407 2.6328 1.1836 3.3438l2.9766 1.8906 27.113-42.719c0.61328-0.96484 1.8906-1.25 2.8555-0.63672 0.96484 0.61328 1.2461 1.8906 0.63672 2.8555l-27.113 42.711 2.9766 1.8906h0.003906c1.1133 0.70703 2.5625 0.5625 3.5156-0.34766 5.3281-5.0859 22.402-21.547 32.328-32.566z"/>
  <path d="m94.062 63.242h-4.3164v-2.168c0-0.20312-0.082032-0.39844-0.22656-0.54297s-0.33984-0.22656-0.54297-0.22656h-7.1406c-0.20703 0-0.40625 0.078124-0.55078 0.22266-0.14844 0.14453-0.23047 0.34375-0.23047 0.55078v2.1641h-4.3164c-0.37891 0-0.71875 0.22656-0.86328 0.57422s-0.066406 0.75 0.19922 1.0195l8.1719 8.2812h0.003906c0.30078 0.30859 0.71875 0.48047 1.1484 0.48047 0.43359 0 0.84766-0.17188 1.1523-0.48047l8.1758-8.2734c0.26953-0.26562 0.35156-0.67188 0.20703-1.0234-0.14453-0.35156-0.48828-0.58203-0.87109-0.57812z"/>
  <path d="m94.062 84.625h-4.3164v-2.1641c0-0.20703-0.082032-0.40234-0.22656-0.54688-0.14453-0.14453-0.33984-0.22656-0.54297-0.22656h-7.1406c-0.20703 0-0.40625 0.078125-0.55078 0.22266-0.14844 0.14453-0.23047 0.34375-0.23047 0.55078v2.1641h-4.3164c-0.37891 0-0.71875 0.22656-0.86328 0.57422-0.14453 0.34766-0.066406 0.75 0.19922 1.0195l8.1719 8.2812h0.003906c0.30078 0.30859 0.71875 0.48047 1.1484 0.48047 0.43359 0 0.84766-0.17188 1.1523-0.48047l8.1758-8.2812c0.26563-0.26953 0.33984-0.67188 0.19531-1.0156-0.14453-0.34766-0.48047-0.57812-0.85938-0.57812z"/>
 </g>
</svg>
