<?xml version="1.0" encoding="UTF-8"?>
<svg width="100pt" height="100pt" version="1.1" viewBox="0 0 100 100" xmlns="http://www.w3.org/2000/svg">
 <g>
  <path d="m44.195 96.312c11.516 0.015625 22.496-4.8789 30.18-13.461 0.40625-0.45703 0.48047-1.125 0.17969-1.6602-0.29688-0.53906-0.90234-0.82812-1.5078-0.72266-2.4805 0.42188-5 0.60156-7.5156 0.53906-20.914-0.52344-37.727-17.82-37.676-38.742v-0.003906c0.003906-8.5078 2.832-16.777 8.0352-23.512 0.38281-0.48438 0.41406-1.1602 0.078125-1.6758-0.33203-0.51953-0.96094-0.76953-1.5586-0.62109-18.051 4.4883-31.324 21.074-30.699 40.656 0.69531 21.758 18.719 39.188 40.484 39.203z"/>
  <path d="m45.375 44.445h5.4375-0.003906c0.40625 0.003907 0.76953 0.24219 0.92969 0.60938 0.16016 0.37109 0.089844 0.80078-0.1875 1.0938l-6.0234 6.4922c-0.17188 0.1875-0.26953 0.43359-0.26953 0.6875v4.7148c0 0.26953 0.10547 0.52734 0.29688 0.71484 0.19141 0.19141 0.44922 0.29688 0.71875 0.29688h14.648-0.003906c0.5625 0 1.0156-0.45313 1.0156-1.0117v-4.1016c0-0.55859-0.45312-1.0117-1.0156-1.0156h-5.4492c-0.40234 0.003907-0.76953-0.23438-0.92969-0.60547-0.16016-0.36719-0.085937-0.80078 0.1875-1.0938l6.0234-6.4922c0.17578-0.1875 0.27344-0.43359 0.27344-0.6875v-4.7109c0-0.55859-0.45703-1.0117-1.0156-1.0117h-14.648c-0.55859 0-1.0156 0.45312-1.0156 1.0117v4.1016c0.003906 0.27344 0.11328 0.53125 0.30469 0.71875 0.19531 0.19141 0.45703 0.29688 0.72656 0.28906z"/>
  <path d="m94.898 28.094h-10.012c-0.5625 0-1.0703-0.33203-1.293-0.84766-0.22656-0.51562-0.125-1.1133 0.25781-1.5273l10.578-11.395c0.24219-0.25781 0.37891-0.60156 0.37891-0.96094v-8.2617c0-0.37109-0.14844-0.73437-0.41406-0.99609-0.26562-0.26562-0.625-0.41797-0.99609-0.41797h-25.023c-0.78125 0-1.4141 0.63281-1.4141 1.4141v7.3984c0 0.78125 0.63281 1.4141 1.4141 1.4141h10.008c0.55859-0.003906 1.0664 0.33203 1.293 0.84375 0.22266 0.51563 0.12109 1.1172-0.26172 1.5273l-10.578 11.398h0.003906c-0.24609 0.25781-0.37891 0.60156-0.37891 0.96094v8.2695c0 0.375 0.14844 0.73438 0.41406 1 0.26562 0.26563 0.625 0.41406 1 0.41406h25.023c0.78125 0 1.4141-0.63281 1.4141-1.4141v-7.4062c0-0.375-0.15234-0.73437-0.41406-1-0.26563-0.26172-0.625-0.41406-1-0.41406z"/>
 </g>
</svg>
