<?xml version="1.0" encoding="UTF-8"?>
<svg width="100pt" height="100pt" version="1.1" viewBox="0 0 100 100" xmlns="http://www.w3.org/2000/svg">
 <g>
  <path d="m72.227 82.574c0.625 0.76562 1.5273 1.25 2.5117 1.3477 0.98047 0.097656 1.9609-0.19922 2.7227-0.82812 0.76562-0.625 1.25-1.5273 1.3477-2.5078 0.097656-0.98438-0.19922-1.9648-0.82812-2.7266l-6.4961-7.9141c2.875-1.5859 5.5625-3.4805 8.0234-5.6484l0.48828-0.43359s7.7344-7.2266 14.953-10.535l-0.003907-0.003906c0.58984-0.26562 0.96875-0.85156 0.96875-1.5 0-0.64844-0.37891-1.2383-0.96875-1.5039-7.2266-3.3125-14.953-10.535-14.953-10.535l-0.48828-0.42969 0.003906-0.003907c-11.188-9.8867-26.586-13.516-41.012-9.6641l-10.055-12.262c-0.625-0.76562-1.5273-1.25-2.5117-1.3477-0.98047-0.097656-1.9609 0.20312-2.7227 0.82812-1.5898 1.3008-1.8203 3.6445-0.51953 5.2344zm-22.227-42.941c4.1953-0.003906 8.0977 2.1523 10.328 5.7031 2.2305 3.5547 2.4766 8.0039 0.64844 11.781l-14.02-17.102c0.99609-0.25391 2.0156-0.38672 3.043-0.38281z"/>
  <path d="m5.0469 53.32c7.2266 3.3203 14.949 10.535 14.949 10.535l0.48828 0.43359c10.656 9.418 25.172 13.184 39.062 10.137l-8.5703-10.457c-0.32031 0.023438-0.64844 0.042969-0.97656 0.042969v0.003906c-3.8242 0-7.4258-1.7969-9.7305-4.8477-2.3008-3.0547-3.0391-7.0117-1.9883-10.688l-11.359-13.867c-2.2812 1.3828-4.4336 2.9648-6.4336 4.7305l-0.48828 0.42969s-7.7344 7.2266-14.949 10.535v0.003906c-0.58984 0.26562-0.97266 0.85547-0.97266 1.5039 0 0.64844 0.37891 1.2344 0.96875 1.5039z"/>
 </g>
</svg>
