<?xml version="1.0" encoding="UTF-8"?>
<svg width="100pt" height="100pt" version="1.1" viewBox="0 0 100 100" xmlns="http://www.w3.org/2000/svg">
 <g>
  <path d="m4.6875 84.375c0 2.0703 0.82422 4.0586 2.2891 5.5234 1.4648 1.4648 3.4531 2.2891 5.5234 2.2891v-15.547h-7.8125z"/>
  <path d="m4.6875 68.75v4.7656h7.8125v-6.3281h-6.25c-0.86328 0-1.5625 0.69922-1.5625 1.5625z"/>
  <path d="m93.75 67.188h-6.25v6.3281h7.8125v-4.7656c0-0.41406-0.16406-0.8125-0.45703-1.1055s-0.69141-0.45703-1.1055-0.45703z"/>
  <path d="m87.5 92.188c2.0703 0 4.0586-0.82422 5.5234-2.2891 1.4648-1.4648 2.2891-3.4531 2.2891-5.5234v-7.7344h-7.8125z"/>
  <path d="m68.75 67.188h-37.5c-0.86328 0-1.5625 0.69922-1.5625 1.5625s0.69922 1.5625 1.5625 1.5625h37.5c0.86328 0 1.5625-0.69922 1.5625-1.5625s-0.69922-1.5625-1.5625-1.5625z"/>
  <path d="m32.812 82.812c0 2.5898 2.0977 4.6875 4.6875 4.6875h25c2.5898 0 4.6875-2.0977 4.6875-4.6875v-9.375h-34.375z"/>
  <path d="m29.688 53.125h4.6875c2.5898 0 4.6875-2.0977 4.6875-4.6875v-20.312h1.5625c0.86328 0 1.5625-0.69922 1.5625-1.5625s-0.69922-1.5625-1.5625-1.5625h-17.188c-0.86328 0-1.5625 0.69922-1.5625 1.5625s0.69922 1.5625 1.5625 1.5625h1.5625v20.312c0 2.5898 2.0977 4.6875 4.6875 4.6875z"/>
  <path d="m17.188 39.062h4.6875v-8.0781c-2.1562-0.75781-3.4492-2.9609-3.0664-5.2148 0.38672-2.2539 2.3438-3.8984 4.6289-3.8945h17.188c2.2852-0.003906 4.2422 1.6406 4.6289 3.8945 0.38281 2.2539-0.91016 4.457-3.0664 5.2148v8.0781h15.625v-8.0781c-2.1562-0.75781-3.4492-2.9609-3.0664-5.2148 0.38672-2.2539 2.3438-3.8984 4.6289-3.8945h17.188c2.2852-0.003906 4.2422 1.6406 4.6289 3.8945 0.38281 2.2539-0.91016 4.457-3.0664 5.2148v8.0781h4.6875c2.0703 0 4.0586-0.82422 5.5234-2.2891 1.4648-1.4648 2.2891-3.4531 2.2891-5.5234v-6.9688c0-3.9531-1.5703-7.7461-4.3672-10.539-2.793-2.7969-6.5859-4.3672-10.539-4.3672h-13.906l-2.4375-4.0156c-1.4023-2.3398-3.9258-3.7812-6.6562-3.7969h-5.4375c-2.7305 0.015625-5.2539 1.457-6.6562 3.7969l-2.4531 4.0156h-13.906c-3.9492 0.003906-7.7344 1.5742-10.523 4.3672-2.793 2.7891-4.3633 6.5742-4.3672 10.523v6.9844c0 2.0703 0.82422 4.0586 2.2891 5.5234 1.4648 1.4648 3.4531 2.2891 5.5234 2.2891zm26.078-32.094c0.84375-1.4141 2.3711-2.2773 4.0156-2.2812h5.4219c1.6445 0.003906 3.1719 0.86719 4.0156 2.2812l1.4531 2.4062h-16.344z"/>
  <path d="m78.125 42.188v6.25c0 2.0703-0.82422 4.0586-2.2891 5.5234-1.4648 1.4648-3.4531 2.2891-5.5234 2.2891h-4.6875c-4.3164 0-7.8125-3.4961-7.8125-7.8125v-6.25h-15.625v6.25c0 2.0703-0.82422 4.0586-2.2891 5.5234-1.4648 1.4648-3.4531 2.2891-5.5234 2.2891h-4.6875c-4.3164 0-7.8125-3.4961-7.8125-7.8125v-6.25h-4.6875c-0.52344-0.003906-1.0469-0.046875-1.5625-0.125v48.562c0 2.0703 0.82422 4.0586 2.2891 5.5234 1.4648 1.4648 3.4531 2.2891 5.5234 2.2891h53.125c2.0703 0 4.0586-0.82422 5.5234-2.2891 1.4648-1.4648 2.2891-3.4531 2.2891-5.5234v-48.562c-0.51562 0.078125-1.0391 0.12109-1.5625 0.125zm-7.8125 30.969v9.6562c0 2.0703-0.82422 4.0586-2.2891 5.5234-1.4648 1.4648-3.4531 2.2891-5.5234 2.2891h-25c-4.3164 0-7.8125-3.4961-7.8125-7.8125v-9.6562c-2.1328-0.77344-3.4062-2.9648-3.0195-5.1992 0.38281-2.2383 2.3125-3.875 4.582-3.8945h37.5c2.2695 0.019531 4.1992 1.6562 4.582 3.8945 0.38672 2.2344-0.88672 4.4258-3.0195 5.1992z"/>
  <path d="m65.625 53.125h4.6875c2.5898 0 4.6875-2.0977 4.6875-4.6875v-20.312h1.5625c0.86328 0 1.5625-0.69922 1.5625-1.5625s-0.69922-1.5625-1.5625-1.5625h-17.188c-0.86328 0-1.5625 0.69922-1.5625 1.5625s0.69922 1.5625 1.5625 1.5625h1.5625v20.312c0 2.5898 2.0977 4.6875 4.6875 4.6875z"/>
 </g>
</svg>
