<?xml version="1.0" encoding="UTF-8"?>
<svg width="100pt" height="100pt" version="1.1" viewBox="0 0 100 100" xmlns="http://www.w3.org/2000/svg">
 <g>
  <path d="m19.555 73.668h60.891v11.668h-60.891z"/>
  <path d="m15.223 43.332 4.332 28h28.891v-45.887l-12.336-2.8906z"/>
  <path d="m51.555 25.445v45.887h28.891l4.332-28-20.887-20.777z"/>
  <path d="m7.4453 20.223 0.22266-0.22266c7.2227-7.2227 18.891-7.2227 26 0l0.66797 0.66797-26.113 26.223-0.77734-0.66797c-7.1133-7.2227-7.1133-18.891 0-26z"/>
  <path d="m92.223 19.891 0.22266 0.22266c7.2227 7.2227 7.2227 18.891 0 26l-0.66797 0.77734-26.223-26.223 0.66797-0.66797c7.2227-7.2227 18.887-7.2227 26-0.10938z"/>
 </g>
</svg>
