<?xml version="1.0" encoding="UTF-8"?>
<svg width="100pt" height="100pt" version="1.1" viewBox="0 0 100 100" xmlns="http://www.w3.org/2000/svg">
 <g>
  <path d="m7.7891 16.43 8.6406-8.6406c0.49609-0.49609 0.49609-1.3047 0-1.8047l-1.2578-1.2578c-1.4766-1.4727-3.8633-1.4727-5.3398 0l-2.5508 2.5547-2.5547 2.5508c-1.4727 1.4766-1.4727 3.8633-0.003906 5.3359l1.2617 1.2617c0.5 0.49609 1.3086 0.49609 1.8047 0z"/>
  <path d="m41.078 9.7969c-1.3594 1.9961-4.3125 6.0039-9.2578 11.176l-0.003906-0.003906c-0.49219 0.51953-1.1758 0.81641-1.8906 0.82422-0.71484 0.011719-1.4062-0.26953-1.9102-0.77734l-9.4141-9.4102c-0.42578-0.42578-1.1133-0.42578-1.5391 0l-5.4688 5.4688c-0.42188 0.42578-0.42188 1.1133 0 1.5352l9.4141 9.4141c0.50391 0.50781 0.78516 1.1953 0.77734 1.9102-0.007812 0.71875-0.30469 1.3984-0.82422 1.8945-5.1719 4.9492-9.1797 7.9023-11.176 9.2578-0.33594 0.23047-0.55078 0.59766-0.58984 1.0039-0.039062 0.40234 0.10547 0.80469 0.39453 1.0898l0.73438 0.73047-0.003907 0.003906c1.3438 1.3438 3.168 2.0977 5.0703 2.0977s3.7266-0.75391 5.0703-2.0977l23.438-23.438c1.3438-1.3438 2.0977-3.168 2.0977-5.0703s-0.75391-3.7266-2.0977-5.0664l-0.73438-0.74219c-0.28906-0.28516-0.6875-0.42578-1.0898-0.39062-0.40234 0.039063-0.76953 0.25391-0.99609 0.58984z"/>
  <path d="m41.117 29.785-3.5156 3.5156c-0.39453 0.39844-0.39453 1.0469 0 1.4453l49.832 49.824c0.80469 0.77734 0.84766 2.0508 0.10547 2.8828-0.37891 0.40234-0.89844 0.63281-1.4492 0.64062-0.54688 0.007812-1.0781-0.20703-1.4648-0.59375l-49.883-49.891c-0.40234-0.39844-1.0469-0.39844-1.4453 0l-3.5156 3.5156c-0.53906 0.53906-0.53906 1.4141 0 1.9531l52.371 52.367c0.64062 0.64063 1.5273 0.98047 2.4336 0.92969l9.6484-0.52344c0.87109-0.050781 1.5664-0.74609 1.6172-1.6172l0.52344-9.6484c0.050781-0.90625-0.28906-1.793-0.92969-2.4336l-52.367-52.367c-0.26172-0.26172-0.61328-0.40625-0.98047-0.40625-0.36719 0-0.71875 0.14453-0.98047 0.40625z"/>
  <path d="m38.016 78.754c-6.1602-6.1602-9.1953-14.777-8.2578-23.438 0.11719-1.1211-0.28125-2.2305-1.0781-3.0234l-3.8125-3.8125v-0.003907c-0.32422-0.32422-0.80078-0.44922-1.2422-0.32812-0.44531 0.12109-0.78906 0.47266-0.90625 0.91406-3.3125 12.668 0.33984 26.145 9.6016 35.402 9.2578 9.2578 22.73 12.914 35.398 9.5977 0.44531-0.11328 0.79297-0.45703 0.91406-0.90234 0.12109-0.44531-0.003906-0.91797-0.32812-1.2461l-3.8203-3.8281c-0.79297-0.79688-1.9062-1.1914-3.0234-1.0742-8.6641 0.94141-17.285-2.0977-23.445-8.2578z"/>
  <path d="m40.887 75.883c4.1719 4.1836 9.7109 6.7227 15.605 7.1641 0.49219 0.039063 0.96094-0.23438 1.168-0.68359 0.20703-0.44922 0.11328-0.98438-0.23828-1.332l-21.68-21.68c-0.35156-0.35156-0.88672-0.44531-1.3359-0.23828-0.44922 0.21094-0.72266 0.67969-0.67969 1.1758 0.4375 5.8867 2.9805 11.422 7.1602 15.594z"/>
  <path d="m75.883 40.887c-4.1719-4.1836-9.7109-6.7227-15.602-7.1641-0.49609-0.039062-0.96484 0.23047-1.1758 0.68359-0.20703 0.44922-0.11328 0.98047 0.23828 1.3359l21.68 21.68c0.34766 0.35156 0.88281 0.44531 1.3359 0.23438 0.44922-0.20703 0.72266-0.67578 0.67969-1.1719-0.4375-5.8906-2.9766-11.426-7.1562-15.598z"/>
  <path d="m48.469 24.867 3.8125 3.8125c0.79688 0.79687 1.9062 1.1953 3.0273 1.0781 8.6641-0.94141 17.285 2.0977 23.445 8.2578s9.1992 14.781 8.2617 23.445c-0.11719 1.1172 0.27734 2.2305 1.0703 3.0234l3.8125 3.8125h0.003906c0.32422 0.32812 0.80078 0.45312 1.2422 0.33203 0.44531-0.12109 0.78906-0.47266 0.90625-0.91797 3.3125-12.664-0.33984-26.141-9.6016-35.398-9.2578-9.2578-22.73-12.914-35.398-9.5977v-0.003906c-0.44531 0.11719-0.79688 0.46484-0.91797 0.91016-0.11719 0.44531 0.011719 0.92188 0.33594 1.2461z"/>
 </g>
</svg>
