<?xml version="1.0" encoding="UTF-8"?>
<svg width="100pt" height="100pt" version="1.1" viewBox="0 0 100 100" xmlns="http://www.w3.org/2000/svg">
 <g>
  <path d="m29.688 53.727c-0.78516-1.9648-0.62891-4.1758 0.42188-6.0078 0.37109-0.66016 0.54297-1.4141 0.5-2.1719-0.50781-9.4336 3.9883-15.203 6.3906-17.578h-0.003906c0.84375-0.84766 1.1055-2.1172 0.66797-3.2305-1.3984-3.6133-2.375-6.5273-2.9297-8.2812l0.003906-0.003906c-0.35547-1.1055-1.332-1.8984-2.4883-2.0195-13.758-1.5273-23.176-7.2461-26.898-9.8945-0.32422-0.23437-0.75391-0.25391-1.1016-0.058593-0.34766 0.19922-0.55078 0.57812-0.52344 0.97656 1.9688 24.906 12.609 41.734 24.375 52.898 0.26953 0.25 0.65234 0.32812 0.99609 0.19922 0.33984-0.12891 0.58203-0.44141 0.61328-0.80469 0.070312-0.70703 0.15625-1.3555 0.23828-1.9375h0.003906c0.097656-0.70703 0.003906-1.4258-0.26562-2.0859z"/>
  <path d="m91.535 86.176c-0.39062 0-0.77734 0.050781-1.1523 0.14844-5.7578-3.2617-11.18-8.1484-13.605-10.461-0.28125-0.26953-0.6875-0.36719-1.0625-0.25781-0.37109 0.11328-0.66016 0.41406-0.75 0.79297-0.21875 0.90234-0.37109 1.6562-0.47656 2.2617-0.19922 1.1406 0.28906 2.293 1.2539 2.9414l8.3984 5.6875c0.52344 0.35938 0.80078 0.98047 0.71875 1.6094-0.082031 0.62891-0.51172 1.1602-1.1094 1.3672-7.3711 2.6328-11.094 0.22656-12.969-2.6562-1.6562-2.5391-2.0312-6.0977-1.3398-9.0547 1.3203-5.5781 3.9961-8.2812 5.4336-10.586 0.73438-1.125 0.58203-2.6055-0.36719-3.5547-0.55469-0.53906-1.3086-0.81641-2.082-0.77344-0.76953 0.042969-1.4883 0.40625-1.9805 1l-2.9297 3.5547c-1.3711-0.9375-2.6953-1.9453-3.9609-3.0195-0.32813-0.28125-0.75781-0.41016-1.1797-0.35547-0.42578 0.054688-0.80859 0.28516-1.0547 0.64063-0.95703 1.3828-2.3242 3.5625-2.7969 5.3555-0.375 1.4219-1.1133 2.7227-2.1484 3.7695-0.25391 0.26172-0.35938 0.63672-0.28125 0.99219s0.33203 0.65234 0.67188 0.78125c4.082 1.5742 6.6562 2.1953 6.6562 2.1953 0.16016 3.2109 0 5.5547 0.70312 7.6172 1.6719 4.9102 6.8359 8.5547 11.992 9.0586 5.0156 0.48828 8.6523-0.63281 11.211-2.1641l0.003906-0.003906c0.78125 1.5273 2.3242 2.5156 4.0391 2.582 1.7109 0.066407 3.3281-0.80078 4.2227-2.2617 0.89453-1.4648 0.92969-3.2969 0.089844-4.793-0.83594-1.4961-2.418-2.4219-4.1328-2.418z"/>
  <path d="m53.043 61.047c-0.21094 0.25781-0.42188 0.51562-0.64062 0.78125-1.3633 1.5859-3.0195 2.8906-4.8828 3.8359-0.35156 0.18359-0.51562 0.59375-0.39062 0.96875 0.046875 0.14453 0.10156 0.28125 0.15625 0.40625 0.35156 0.75781 0.070313 1.6602-0.64453 2.0859-0.23828 0.13672-0.50781 0.21094-0.78125 0.21094-0.64844-0.035157-1.2188-0.42578-1.4883-1.0195-0.015625-0.03125 0.011718 0.03125 0 0v0.003906c-0.32812-0.75781-1.1094-1.207-1.9258-1.1094l-0.70312 0.085937c-0.32031 0.035156-0.60938 0.20312-0.80469 0.45703-0.19531 0.25781-0.27734 0.58203-0.23047 0.89844 0.13281 0.78125 0.085938 1.6797-0.81641 1.9688-0.21875 0.085937-0.44922 0.13672-0.6875 0.15234-0.67578 0-1.2773-0.42578-1.5039-1.0664v0.003907c-0.16406-0.48828-0.29297-0.98438-0.39062-1.4844v-0.003906c-0.09375-0.45703-0.48828-0.79297-0.95703-0.8125-0.36719-0.015625-0.73437-0.039062-1.0859-0.0625-0.31641-0.027344-0.62891 0.097656-0.83984 0.33594-0.21484 0.23438-0.30469 0.55859-0.24609 0.87109 0.32422 1.6992 0.80859 3.3672 1.4375 4.9766 0.60156 1.4883 2.168 2.3477 3.7461 2.0547 3.3359-0.60156 9.1523-1.8594 13.012-3.8945 1.1016-0.57422 1.9062-1.582 2.2266-2.7773 0.40625-1.5547 1.2109-3.9883 2.6172-6.2031l-0.003906-0.003907c0.13281-0.19922 0.17188-0.44141 0.11719-0.67188-0.058593-0.23047-0.20703-0.42578-0.41406-0.54297-2.1133-1.1562-3.4883-0.64063-3.875-0.44531z"/>
  <path d="m64.648 29.367c-3.7109-2.5391-9.1289-4.1484-16.922-2.6094 0 0-14.422 1.8516-12.984 20.203h0.003906c0.054687 0.67578-0.14062 1.3438-0.54297 1.8867-0.11328 0.15234-0.23438 0.31641-0.36719 0.48047-0.76563 0.96875-0.80469 2.3242-0.09375 3.3359l0.023437 0.03125c0.42578 0.62109 0.58984 1.3867 0.45312 2.125v0.003907c-0.54297 2.9648-0.76562 5.9844-0.66406 9 0.019531 0.55859 0.46094 1.0156 1.0195 1.0586l1.3672 0.10156v-0.003906c0.59766 0.042969 1.1172-0.39844 1.1719-0.99609 0.046875-0.52344 0.10156-0.85156 0.10938-0.89844 0.14062-0.86719 0.95703-1.457 1.8281-1.3203 0.87109 0.14062 1.4609 0.96094 1.3203 1.8281 0 0-0.039063 0.25-0.078125 0.65234v0.003906c-0.019531 0.19531 0.050781 0.38672 0.1875 0.52734s0.33203 0.21484 0.52734 0.19922l0.32031-0.023437v-0.003906c0.44922-0.039063 0.89453-0.097657 1.3359-0.18359 0.44531-0.089844 0.75781-0.49219 0.74219-0.94531-0.023438-0.625-0.015625-1.0703-0.011719-1.2031l-0.003906 0.003906c0.042969-0.86719 0.76953-1.5391 1.6328-1.5195 0.86328 0.019532 1.5547 0.72656 1.5586 1.5938-0.003906 0.12891 0.066407 0.25 0.17969 0.3125s0.25391 0.058594 0.36328-0.007812c1.0664-0.68359 2.0273-1.5156 2.8516-2.4727 1.9531-2.2305 3.5547-4.7461 4.75-7.457 0.31641-0.76562 1.1562-1.1758 1.9531-0.94922 0.42969 0.13281 0.78516 0.44141 0.97656 0.85156s0.19922 0.87891 0.023438 1.2969c-0.44141 1.0273-0.94141 2.0273-1.5 3-0.15234 0.26562-0.17578 0.58203-0.066407 0.86719 0.10547 0.28516 0.33984 0.50781 0.62891 0.60156 0.83984 0.27734 1.6406 0.66016 2.3828 1.1445h-0.003906c0.48047 0.30078 1.0664 0.37891 1.6094 0.21094 0.34375-0.10547 0.69922-0.15625 1.0586-0.15625h2.1016c1.0078 0 1.9727-0.41016 2.668-1.1445 1.7344-1.8438 4.7812-5.9727 5.5352-12.773 0.72656-6.4961-2.0391-12.965-7.4453-16.652zm-17.188 15.133v0.078125c-0.085938 6.4258-4.7656 7.7109-4.7656 7.7109v-0.003906c-0.42578 0.082032-0.85547 0.13672-1.2852 0.16016-2.1953 0.11719-3.9297-1.8164-3.6797-4 0.19531-1.7109 0.23828-3.5156 0.23828-3.5156 0.10156-3.6758 2.7344-4.7031 4.9297-4.9141v-0.003906c1.2305-0.11328 2.4492 0.31641 3.332 1.1797 0.88281 0.86328 1.3398 2.0742 1.2461 3.3047z"/>
 </g>
</svg>
