<?xml version="1.0" encoding="UTF-8"?>
<svg width="100pt" height="100pt" version="1.1" viewBox="0 0 100 100" xmlns="http://www.w3.org/2000/svg">
 <g>
  <path d="m6.2969 21.484 4.2305 6.4453c0.83203 1.1367 1.3008 2.5 1.3516 3.9062l1.2305 35.914c0.035156 1.0195-0.625 1.9297-1.6016 2.2109-0.63672 0.1875-1.3203 0.078124-1.8672-0.28906-0.54688-0.37109-0.90234-0.96484-0.96875-1.6211l-4.7305-45.668c-0.054687-0.58594 0.28516-1.1406 0.83594-1.3477 0.55078-0.21094 1.1719-0.027344 1.5195 0.44922z"/>
  <path d="m78.516 93.703-6.4453-4.2305c-1.1367-0.83203-2.5-1.3008-3.9062-1.3516l-35.914-1.2305c-1.0195-0.035156-1.9297 0.625-2.2109 1.6016-0.1875 0.63672-0.078124 1.3203 0.28906 1.8672 0.37109 0.54688 0.96484 0.90234 1.6211 0.96875l45.66 4.7305c0.58594 0.0625 1.1445-0.27734 1.3555-0.83203 0.21484-0.55078 0.027344-1.1758-0.44922-1.5234z"/>
  <path d="m92.594 90.969-5.2344-6.6406c-3.0078-3.8047-4.875-8.3867-5.3828-13.211h-0.003906c-0.26172-2.5469-0.39062-5.1094-0.39062-7.6719 1.2578-25.141-10.57-34.457-10.57-34.457 0.003906-0.003906-9.3086-11.836-34.449-10.578-2.5625 0.003906-5.125-0.12891-7.6758-0.39062-4.8242-0.50781-9.4023-2.3711-13.211-5.3789l-6.6406-5.2344c-1.8672-1.5625-4.5156 0.60156-3.3594 2.7344 2.0703 3.8281 4.6172 8.3555 7.3359 12.781h0.003906c2.543 4.1758 6.625 7.1836 11.367 8.3789 2.8633 0.69531 5.7852 1.1133 8.7266 1.2461 10.133 0.53125 17.945 2.8242 23.125 6.5469l-30.156 30.164c-0.93359 0.93359-2.1367 1.5547-3.4414 1.7734l-3.6484 0.61719h0.003907c-1.0352 0.17578-2.0078 0.60156-2.8359 1.2422l-10.492 8.1172c-0.54687 0.42188-0.80859 1.1211-0.67578 1.8008 0.13672 0.67969 0.64453 1.2227 1.3125 1.4062l7.4609 2.0312 2.0312 7.4609 0.003906 0.003907c0.17969 0.66797 0.72656 1.1758 1.4062 1.3086 0.67969 0.13672 1.375-0.125 1.8008-0.67578l8.1172-10.504v0.003906c0.63672-0.82812 1.0625-1.8008 1.2383-2.8359l0.61719-3.6484v0.003906c0.21875-1.3047 0.84375-2.5078 1.7773-3.4414l30.145-30.156c3.7266 5.1797 6.0156 12.996 6.5469 23.125l0.003907 0.003906c0.13281 2.9414 0.55078 5.8672 1.2461 8.7305 1.1953 4.7422 4.2031 8.8242 8.3789 11.367 4.4258 2.7188 8.9531 5.2734 12.781 7.3359 2.1367 1.1562 4.2969-1.4922 2.7383-3.3594z"/>
  <path d="m88.977 28.379v-0.011718c0.55469-1.3047 0.96094-2.6758 1.2031-4.0781 0.60156-3.4609 2.207-10.926 5.7266-18.145v0.003907c0.26953-0.58984 0.14844-1.2852-0.3125-1.7422-0.45703-0.45703-1.1523-0.57812-1.7422-0.30469-7.2266 3.5156-14.688 5.1211-18.145 5.7266l0.003907-0.003906c-1.4023 0.24219-2.7734 0.64844-4.0781 1.207h-0.011718c-0.60938 0.26562-0.98047 0.89062-0.92969 1.5508 0.050782 0.66406 0.51562 1.2188 1.1562 1.3906l0.24219 0.0625v0.003906c2.1992 0.58203 4.2812 1.5469 6.1484 2.8477l-5.0273 5.0234v0.003906c-0.74609 0.74219-0.74609 1.9531 0 2.6992l2.1797 2.1758c0.74609 0.74609 1.9531 0.74609 2.6992 0l5.0234-5.0273h0.003907c1.3008 1.8672 2.2656 3.9492 2.8477 6.1484l0.0625 0.24219h0.003906c0.16797 0.64453 0.72656 1.1133 1.3906 1.1641 0.66406 0.050782 1.2891-0.32422 1.5547-0.9375z"/>
 </g>
</svg>
