<?xml version="1.0" encoding="UTF-8"?>
<svg width="100pt" height="100pt" version="1.1" viewBox="0 0 100 100" xmlns="http://www.w3.org/2000/svg">
 <g>
  <path d="m41.328 32.867c-1.2266-1.2266-1.875-2.9219-1.7773-4.6523l0.37891-6.8047c0.09375-1.6914-0.53516-3.3398-1.7344-4.5391l-5.8125-5.8086c-1.1875-1.1914-2.8281-1.8203-4.5078-1.7344l-5.7812 0.29688v-0.003906c-0.55859 0.027344-1.043 0.38281-1.2461 0.90234-0.19922 0.52344-0.074218 1.1094 0.32031 1.5078l4.1836 4.1797c2.5234 2.5234 2.5234 6.6133 0 9.1406-2.5234 2.5195-6.6133 2.5195-9.1367 0l-4.1836-4.1836c-0.39844-0.39453-0.98438-0.51953-1.5078-0.32031-0.51953 0.20312-0.875 0.6875-0.90234 1.2461l-0.29688 5.7812 0.003906-0.003906c-0.085937 1.6836 0.54297 3.3242 1.7344 4.5117l5.8125 5.8125h-0.003906c1.1992 1.1992 2.8477 1.8281 4.5391 1.7344l6.8047-0.37891h-0.003906c1.7344-0.097656 3.4297 0.55078 4.6562 1.7773l12.902 12.898 12.891 12.902v0.003906c1.2266 1.2266 1.875 2.9219 1.7773 4.6562l-0.37891 6.8047 0.003906-0.003906c-0.097656 1.6914 0.53516 3.3398 1.7344 4.5391l5.8125 5.8125-0.003906-0.003906c1.1914 1.1914 2.832 1.8203 4.5117 1.7344l5.7812-0.29688v0.003906c0.55469-0.027344 1.043-0.38281 1.2422-0.90234 0.19922-0.52344 0.074219-1.1094-0.32031-1.5078l-4.1719-4.1797c-2.5234-2.5234-2.5234-6.6133 0-9.1406 2.5234-2.5195 6.6133-2.5195 9.1367 0l4.1875 4.1875h-0.003906c0.39844 0.39453 0.98438 0.51953 1.5078 0.32031 0.51953-0.20312 0.875-0.6875 0.90234-1.2461l0.29688-5.7812-0.003906 0.003906c0.085937-1.6836-0.54297-3.3242-1.7344-4.5156l-5.8125-5.8125 0.003906 0.003906c-1.1992-1.1992-2.8477-1.8281-4.5391-1.7344l-6.8047 0.37891h0.003906c-1.7344 0.097656-3.4297-0.55078-4.6562-1.7812l-12.902-12.891z"/>
  <path d="m32.949 67.051c5.7109 5.7148 13.906 8.1836 21.824 6.582 0.99609-0.19922 1.7266-1.0469 1.7812-2.0547 0.035156-0.62891-0.19922-1.2383-0.64063-1.6836l-2.3789-2.3789c-0.74609-0.73438-1.7656-1.1211-2.8125-1.0625-4.6094 0.20312-9.0977-1.543-12.363-4.8047-3.2656-3.2656-5.0078-7.7539-4.8047-12.367 0.054687-1.0469-0.33203-2.0664-1.0664-2.8125l-2.375-2.375h-0.003906c-0.44141-0.44531-1.0547-0.67969-1.6797-0.64453-1.0117 0.054687-1.8594 0.78125-2.0625 1.7773-1.6016 7.918 0.86719 16.113 6.582 21.824z"/>
  <path d="m30.191 69.809c-6.543-6.5469-9.4258-15.906-7.7031-25 0.042969-0.25-0.027343-0.50781-0.19531-0.69531-0.16797-0.19141-0.41406-0.29688-0.66406-0.28125h-0.003906c-2.0469 0.10938-4.0742-0.42578-5.8047-1.5273-0.87109-0.54688-1.9141-0.75781-2.9297-0.58594l-7.0508 1.1914v0.003906c-1.1445 0.19141-1.9805 1.1836-1.9844 2.3438v9.5c0.003906 1.1562 0.83984 2.1484 1.9844 2.3438l10.375 1.7578h0.003906c0.80078 3.082 2.0273 6.0391 3.6367 8.7891l-6.0938 8.5742v-0.003906c-0.67188 0.94922-0.56641 2.2422 0.25391 3.0625l6.7188 6.7188c0.82422 0.82031 2.1172 0.92969 3.0625 0.25781l8.5742-6.0938c2.75 1.6094 5.707 2.832 8.7891 3.6367l1.7578 10.375v0.003907c0.19141 1.1406 1.1836 1.9805 2.3438 1.9805h9.5c1.1602 0 2.1523-0.83984 2.3438-1.9805l1.1914-7.0508v-0.003906c0.17188-1.0117-0.035156-2.0547-0.58594-2.9297-1.0977-1.7305-1.6289-3.7656-1.5156-5.8125 0.015626-0.25391-0.089843-0.5-0.28125-0.66797-0.1875-0.16797-0.44531-0.23828-0.69531-0.19141-9.1055 1.7266-18.477-1.1602-25.027-7.7148z"/>
  <path d="m67.051 32.949c-5.7109-5.7148-13.906-8.1836-21.824-6.582-0.99609 0.19922-1.7266 1.0469-1.7812 2.0547-0.035156 0.62891 0.19922 1.2383 0.64063 1.6836l2.375 2.375c0.75 0.73828 1.7695 1.125 2.8125 1.0664 4.6133-0.20312 9.1016 1.543 12.367 4.8047 3.2656 3.2656 5.0078 7.7539 4.8047 12.367-0.054687 1.0469 0.33203 2.0664 1.0664 2.8125l2.375 2.375h0.003906c0.44141 0.44531 1.0547 0.67969 1.6797 0.64453 1.0117-0.054687 1.8594-0.78125 2.0625-1.7773 1.6016-7.918-0.86719-16.113-6.582-21.824z"/>
  <path d="m76.219 13.742-8.5742 6.0938h0.003907c-2.75-1.6094-5.707-2.832-8.7891-3.6367l-1.7578-10.375c-0.19531-1.1445-1.1875-1.9844-2.3438-1.9844h-9.5078c-1.1602 0-2.1523 0.83984-2.3438 1.9844l-1.1914 7.0508c-0.17188 1.0117 0.035156 2.0547 0.58594 2.9297 1.0977 1.7305 1.6289 3.7656 1.5156 5.8125-0.015625 0.25391 0.089844 0.5 0.28125 0.66797 0.1875 0.16797 0.44531 0.23828 0.69531 0.19141 9.1016-1.7305 18.469 1.1523 25.02 7.7031 6.5508 6.5508 9.4336 15.918 7.7031 25.02-0.046875 0.25 0.023437 0.50781 0.19141 0.69531 0.16797 0.19141 0.41406 0.29688 0.66797 0.28125 2.043-0.10938 4.0742 0.42188 5.8047 1.5195 0.87109 0.54688 1.9141 0.75781 2.9297 0.58594l7.0508-1.1914v-0.003906c1.1445-0.19141 1.9805-1.1836 1.9805-2.3438v-9.4922c0-1.1602-0.83594-2.1523-1.9805-2.3438l-10.375-1.7578h-0.003906c-0.80078-3.082-2.0273-6.0391-3.6367-8.7891l6.0938-8.5742c0.67188-0.94531 0.56641-2.2383-0.25391-3.0586l-6.7188-6.7188v-0.003906c-0.82031-0.8125-2.1016-0.92188-3.0469-0.26172z"/>
 </g>
</svg>
