<?xml version="1.0" encoding="UTF-8"?>
<svg width="100pt" height="100pt" version="1.1" viewBox="0 0 100 100" xmlns="http://www.w3.org/2000/svg">
 <g>
  <path d="m91.137 12.02-3.1562-3.1562c-1.0859-1.0859-2.8477-1.0859-3.9336 0l-9.1094 9.1055c-2.9609-2.3047-6.2266-4.1914-9.7031-5.6094-0.50781-0.20703-1.0781-0.19531-1.5781 0.035156-0.5 0.22656-0.88281 0.64844-1.0625 1.168l-0.75 2.1641h0.003906c-0.83594 2.4102 0.23047 5.0664 2.4961 6.2305h0.003906c3.7109 1.9062 7.0117 4.5273 9.707 7.7148 0.38281 0.48047 0.95703 0.77344 1.5742 0.80078 0.61328 0.03125 1.2148-0.20703 1.6445-0.64844l13.867-13.867c1.0859-1.0898 1.082-2.8516-0.003906-3.9375z"/>
  <path d="m93.531 44.984h-3.2422c-0.4375-3.5742-1.3516-7.0742-2.7227-10.406-0.20703-0.50781-0.61719-0.91016-1.1289-1.1094s-1.0859-0.17969-1.582 0.054688l-2.0703 0.97656c-2.3164 1.1094-3.4609 3.75-2.6914 6.1953 0.92969 3.0156 1.4023 6.1523 1.3984 9.3047 0 0.89844-0.039063 1.7891-0.10938 2.6641-0.050781 0.60547 0.15625 1.2031 0.56641 1.6484 0.41406 0.44531 0.99219 0.69531 1.5977 0.69531h9.9844c0.73438 0 1.4414-0.29297 1.9648-0.81641 0.51953-0.51953 0.81641-1.2266 0.81641-1.9648v-4.4609c0-1.5352-1.2461-2.7812-2.7812-2.7812z"/>
  <path d="m91.137 84.047-9.1055-9.1016c2.0703-2.6523 3.8008-5.5508 5.1484-8.6289 0.22266-0.50391 0.22656-1.0742 0.015624-1.582-0.21484-0.50391-0.625-0.90234-1.1406-1.0938l-2.1484-0.8125c-2.3945-0.90234-5.0898 0.097656-6.3164 2.3438-1.8711 3.3906-4.3438 6.4062-7.3008 8.9023-0.46484 0.39453-0.73828 0.96094-0.76172 1.5664-0.023438 0.60547 0.21094 1.1953 0.64062 1.6211l13.867 13.867c1.0859 1.0859 2.8477 1.0859 3.9336 0l3.1562-3.1562c1.0859-1.082 1.0898-2.8398 0.011719-3.9258z"/>
  <path d="m50 81.492c-0.89844 0-1.7891-0.039063-2.6641-0.10938-0.60547-0.050781-1.2031 0.15625-1.6484 0.56641-0.44531 0.41406-0.69531 0.99219-0.69531 1.5977v9.9844c0 0.73438 0.29297 1.4414 0.81641 1.9648 0.51953 0.51953 1.2266 0.81641 1.9648 0.81641h4.4648c0.73828 0 1.4453-0.29688 1.9648-0.81641 0.52344-0.52344 0.81641-1.2305 0.81641-1.9648v-3.2422c3.5625-0.43359 7.0469-1.3438 10.367-2.707 0.50781-0.20703 0.91016-0.61328 1.1094-1.1289 0.19922-0.51172 0.17969-1.082-0.050782-1.582l-0.97656-2.0703c-1.1055-2.3164-3.7461-3.4648-6.1914-2.6953-3.0078 0.92188-6.1328 1.3906-9.2773 1.3867z"/>
  <path d="m22.734 70.176-13.867 13.867c-1.0859 1.0859-1.0859 2.8477 0 3.9336l3.1562 3.1562c1.0859 1.0859 2.8477 1.0859 3.9336 0l9.1055-9.1016c2.9805 2.3203 6.2656 4.2148 9.7656 5.6328 0.50781 0.20703 1.0781 0.19531 1.5781-0.035156 0.5-0.22656 0.88281-0.64844 1.0625-1.168l0.74609-2.168c0.82812-2.4102-0.24219-5.0664-2.5117-6.2266-3.7305-1.9062-7.043-4.5352-9.75-7.7344-0.38672-0.48047-0.95703-0.77734-1.5742-0.80469-0.61719-0.03125-1.2148 0.20703-1.6445 0.64844z"/>
  <path d="m18.508 50c0-0.89844 0.039063-1.7891 0.10938-2.6641 0.050781-0.60547-0.15625-1.2031-0.56641-1.6484-0.41406-0.44531-0.99219-0.69531-1.5977-0.69531h-9.9805c-1.5391 0-2.7812 1.2461-2.7812 2.7812v4.4648h-0.003906c0 0.73828 0.29688 1.4453 0.81641 1.9648 0.52344 0.52344 1.2305 0.81641 1.9648 0.81641h3.2422c0.47656 3.9258 1.5352 7.7617 3.1367 11.379 0.22266 0.5 0.64062 0.89062 1.1562 1.0742 0.51953 0.18359 1.0898 0.14844 1.5781-0.097656l2.0469-1.0352v-0.003906c2.2773-1.1484 3.3594-3.8047 2.5391-6.2188-1.1016-3.2617-1.6641-6.6758-1.6602-10.117z"/>
  <path d="m21.551 36.477c1.9336-4.0547 4.7109-7.6484 8.1445-10.547l0.003907 0.003906c0.46094-0.39453 0.73828-0.96484 0.76562-1.5703 0.023437-0.60547-0.20703-1.1953-0.63672-1.625l-13.867-13.867c-1.0898-1.0859-2.8516-1.0859-3.9375 0l-3.1602 3.1484c-1.0859 1.0859-1.0859 2.8477 0 3.9336l9.1055 9.1094c-2.5391 3.2578-4.5664 6.8828-6.0195 10.754h0.003906c-0.19531 0.51562-0.16797 1.0859 0.074219 1.582 0.23828 0.49219 0.67188 0.86719 1.1992 1.0312l2.1797 0.68359-0.003906 0.003907c2.4219 0.76953 5.043-0.35156 6.1484-2.6367z"/>
  <path d="m50 18.508c0.89844 0 1.7891 0.039063 2.6641 0.10938 0.60547 0.050781 1.2031-0.15625 1.6484-0.56641 0.44531-0.41406 0.69531-0.99219 0.69531-1.5977v-9.9805c0-0.73828-0.29297-1.4453-0.81641-1.9688-0.51953-0.51953-1.2266-0.8125-1.9648-0.8125l-4.4609-0.003906c-1.5352 0-2.7812 1.2461-2.7812 2.7812v3.2422c-3.668 0.44531-7.2578 1.3984-10.664 2.832h-0.003906c-0.50781 0.21094-0.90625 0.62109-1.1016 1.1367-0.19531 0.51562-0.17188 1.0859 0.066406 1.582l0.99219 2.0625c1.1211 2.3047 3.7656 3.4336 6.2031 2.6484 3.082-0.97266 6.293-1.4688 9.5234-1.4648z"/>
  <path d="m64.469 42.73c-2.1211 0.46875-4.2891 0.70312-6.4609 0.69922-0.88672 0.003906-1.7383-0.36328-2.3477-1.0117-0.60547-0.64453-0.91797-1.5195-0.85547-2.4023 0.34375-4.8125 0.75781-8.957 1.0352-11.477 0.074218-0.66016-0.14062-1.3203-0.58203-1.8125-0.44531-0.49609-1.0781-0.77734-1.7422-0.77344h-7.0312c-0.66406-0.003906-1.2969 0.28125-1.7383 0.77344-0.44141 0.49219-0.65625 1.1523-0.58203 1.8125 0.27344 2.5156 0.69531 6.6641 1.0352 11.477 0.0625 0.88281-0.25 1.7578-0.85547 2.4023-0.60938 0.64844-1.4609 1.0156-2.3477 1.0117v-0.003907c-2.1758 0.007813-4.3477-0.22656-6.4727-0.69531-0.51953-0.12109-1.0664-0.003907-1.4844 0.32812-0.41797 0.32812-0.66406 0.83203-0.66406 1.3633v7.9219c0 0.52734 0.23828 1.0234 0.64453 1.3555 0.41016 0.33203 0.94531 0.46094 1.457 0.35156h0.003907c2.1406-0.43359 4.3086-0.70703 6.4922-0.82422 0.89453-0.054687 1.7695 0.27344 2.4102 0.89844 0.64063 0.625 0.98828 1.4922 0.95703 2.3906-0.125 3.6953-0.4375 9.7344-1.2188 14.648-0.10938 0.67188 0.085937 1.3594 0.53125 1.8789 0.44141 0.51953 1.0898 0.82031 1.7734 0.81641h7.1562c0.68359 0.003906 1.332-0.29688 1.7734-0.81641 0.44531-0.51953 0.64062-1.207 0.53125-1.8828-0.78125-4.9141-1.0938-10.961-1.2188-14.648-0.03125-0.89453 0.31641-1.7617 0.95703-2.3867s1.5156-0.95312 2.4102-0.89844c2.1836 0.11719 4.3555 0.39063 6.4961 0.82422 0.51562 0.10547 1.0508-0.023437 1.457-0.35547 0.40625-0.33203 0.64062-0.82812 0.64062-1.3516v-7.9102c0.003906-0.53516-0.24219-1.043-0.66406-1.3789-0.42188-0.33203-0.97266-0.44922-1.4961-0.32422z"/>
 </g>
</svg>
