<?xml version="1.0" encoding="UTF-8"?>
<svg width="100pt" height="100pt" version="1.1" viewBox="0 0 100 100" xmlns="http://www.w3.org/2000/svg">
 <g>
  <path d="m87.773 60.156c-4.1797 15.531-17.703 27.27-34.148 28.789v-7.6094c5.7188-0.67188 11.145-2.8906 15.695-6.418 4.5508-3.5312 8.0508-8.2344 10.121-13.605l0.003906-0.003906c0.22266-0.57812 0.14453-1.2266-0.20703-1.7383-0.35156-0.51172-0.93359-0.8125-1.5508-0.8125h-3.7891c-0.74609 0.003907-1.418 0.44141-1.7148 1.1211-3.3789 7.5664-10.371 12.891-18.559 14.145v-3.0312c0-1.9961-1.5625-3.7109-3.5547-3.7461v0.003906c-0.97656-0.019531-1.9141 0.35547-2.6094 1.0352-0.69141 0.68359-1.0859 1.6133-1.082 2.5898l-0.003906 25.344c1.1953 0.09375 2.4023 0.14062 3.625 0.14062 21.746 0 40.039-15.051 45.02-35.281 0.13672-0.55859 0.007813-1.1484-0.34766-1.6016-0.35547-0.45312-0.89844-0.71875-1.4766-0.71484h-3.6133c-0.85156 0-1.5898 0.57422-1.8086 1.3945z"/>
  <path d="m62.602 46.289c0.63672-1.5508 1.1328-3.2969 1.1992-5.0469h-0.003906c0.019531-0.625-0.21094-1.2305-0.64062-1.6797-0.42969-0.45312-1.0234-0.71094-1.6484-0.71875-1.7734-0.015625-3.5625 0.40625-5.1523 0.97656-2.7578 1.0117-5.2773 2.5898-7.3906 4.6328l-6.8789 6.5703c-0.19531 0.18359-0.30859 0.44141-0.31641 0.71094-0.003906 0.26953 0.097657 0.53516 0.28125 0.72656l7.2344 7.5781h0.003906c0.38672 0.41016 1.0312 0.42578 1.4375 0.035157l6.8906-6.5586c2.1484-2.0352 3.8438-4.4961 4.9844-7.2266z"/>
  <path d="m40.223 54.215 7.2344 7.5781c0.39062 0.40625 0.29688 1.125-0.035156 1.4414l-1.6211 1.5469c-0.40625 0.39062-1.0508 0.375-1.4414-0.035156l-7.2344-7.5781c-0.39062-0.40625-0.29688-1.125 0.035156-1.4414l1.6211-1.5469c0.40625-0.39063 1.0508-0.375 1.4414 0.035156z"/>
  <path d="m74.023 46.375h-3.0312c-1.9961 0-3.7109 1.5625-3.7461 3.5547h0.003906c-0.019531 0.97656 0.35547 1.9141 1.0391 2.6094 0.67969 0.69531 1.6133 1.0859 2.5859 1.082h25.344c0.09375-1.1953 0.14062-2.4023 0.14062-3.625 0-21.746-15.051-40.039-35.281-45.02v0.003907c-0.55859-0.13672-1.1484-0.007813-1.6016 0.34766-0.45312 0.35547-0.71875 0.89844-0.71484 1.4727v3.6172c0 0.85156 0.57422 1.5898 1.3945 1.8086 15.531 4.1797 27.27 17.703 28.789 34.148h-7.6094c-0.67188-5.7188-2.8906-11.145-6.418-15.695-3.5312-4.5508-8.2344-8.0508-13.605-10.121l-0.003906-0.003906c-0.57812-0.22266-1.2266-0.14453-1.7383 0.20703-0.51172 0.35156-0.8125 0.93359-0.8125 1.5508v3.7891c0.003907 0.74609 0.44531 1.4141 1.1211 1.7148 7.5664 3.3789 12.891 10.371 14.145 18.559z"/>
  <path d="m25.977 53.625h3.0312c1.9961 0 3.7109-1.5625 3.7461-3.5547 0.019532-0.97656-0.35547-1.9141-1.0391-2.6094-0.67969-0.69531-1.6133-1.0859-2.5859-1.082l-25.348-0.003906c-0.09375 1.1953-0.14062 2.4023-0.14062 3.625 0 21.746 15.051 40.039 35.281 45.02 0.55859 0.13672 1.1484 0.007813 1.6016-0.34766 0.45312-0.35547 0.71875-0.89844 0.71875-1.4766v-3.6133c-0.003907-0.85156-0.57813-1.5898-1.3984-1.8086-15.531-4.1797-27.27-17.703-28.789-34.148h7.6172l0.003906-0.003906c0.66797 5.7227 2.8867 11.148 6.418 15.699 3.5273 4.5508 8.2344 8.0508 13.605 10.125 0.57812 0.22266 1.2305 0.14453 1.7383-0.20703 0.51172-0.35156 0.81641-0.93359 0.8125-1.5508v-3.7891c-0.003906-0.74609-0.44141-1.4141-1.1211-1.7148-7.5664-3.3789-12.898-10.371-14.152-18.559z"/>
  <path d="m50 3.6406c-21.746 0-40.039 15.051-45.02 35.281-0.13672 0.55859-0.007813 1.1484 0.34766 1.6016 0.35547 0.45312 0.89844 0.71875 1.4766 0.71875h3.6133c0.85156-0.003907 1.5898-0.57813 1.8086-1.3984 4.1797-15.531 17.703-27.27 34.148-28.789v7.6211c-5.7188 0.66797-11.145 2.8867-15.695 6.418-4.5508 3.5273-8.0508 8.2344-10.121 13.605h-0.003906c-0.22266 0.57812-0.14453 1.2305 0.20703 1.7383 0.35156 0.51172 0.93359 0.81641 1.5508 0.8125h3.7891c0.74609-0.003906 1.4141-0.44141 1.7148-1.1211 3.3789-7.5664 10.371-12.898 18.559-14.152v3.0312c0 1.9961 1.5625 3.7109 3.5547 3.7461 0.97656 0.019532 1.9141-0.35547 2.6094-1.0352 0.69141-0.68359 1.0859-1.6133 1.082-2.5859v-25.352c-1.1953-0.09375-2.4023-0.14062-3.6211-0.14062z"/>
 </g>
</svg>
