<?xml version="1.0" encoding="UTF-8"?>
<svg width="100pt" height="100pt" version="1.1" viewBox="0 0 100 100" xmlns="http://www.w3.org/2000/svg">
 <g>
  <path d="m37.797 47.391 0.03125-8.0078c0.003906-1.0234-0.39844-2.0078-1.1172-2.7344-0.72266-0.73047-1.7031-1.1406-2.7266-1.1484h-0.625c-2.1367-0.003906-3.875 1.7188-3.8828 3.8516l-0.035156 9.3359c-0.003906 0.36328 0.18359 0.69922 0.49219 0.89062s0.69531 0.21094 1.0195 0.046875c1.5352-0.78906 3.2344-1.1953 4.9609-1.1875h0.83203c0.27734 0 0.54688-0.10938 0.74219-0.30469 0.19531-0.19531 0.30859-0.46094 0.30859-0.74219z"/>
  <path d="m48.305 48.477c0.26562 0.003907 0.52344-0.09375 0.71875-0.28125 0.19141-0.1875 0.30078-0.44141 0.30469-0.71094l0.03125-7.75v-0.3125 0.003906c0.003906-2.1328-1.7188-3.8711-3.8516-3.8789h-0.625c-1.0273-0.003906-2.0117 0.39844-2.7383 1.1211-0.73047 0.72266-1.1406 1.7031-1.1445 2.7305l-0.03125 8.0625c0 0.26562 0.10547 0.51953 0.28906 0.70703 0.1875 0.1875 0.4375 0.29297 0.70313 0.29297l6.332 0.023437z"/>
  <path d="m56.902 59.914c2.3438 0.019532 4.207-1.9531 4.2148-4.2852l0.0625-15.727c0-2.25-1.707-4.1914-3.9531-4.3125v0.003906c-1.1445-0.0625-2.2617 0.34766-3.0938 1.1328-0.83203 0.78516-1.3086 1.8789-1.3125 3.0234l-0.039062 9.6992c-0.003906 0.44141 0.125 0.875 0.37891 1.2344 0.71094 0.98438 1.0703 2.1797 1.0117 3.3906-0.042969 1.0273-0.15625 2.0469-0.33203 3.0586v0.003907c-0.15234 0.91016 0.28516 1.8164 1.0938 2.2617 0.60156 0.33203 1.2812 0.51172 1.9688 0.51562z"/>
  <path d="m72.711 39.828c0.027343-1.125-0.39844-2.2148-1.1797-3.0195-0.78516-0.80469-1.8594-1.2617-2.9805-1.2656-1.125-0.007813-2.2031 0.44141-2.9922 1.2422-0.78906 0.80078-1.2227 1.8828-1.207 3.0078l-0.0625 15.969v0.003906c0.042969 2.2695 1.8906 4.0977 4.1641 4.1055 2.2734 0.007812 4.1367-1.8047 4.1953-4.0742z"/>
  <path d="m62.012 63.398-8.0625-0.03125c-0.25 0-0.65625 0.023437-0.90234 0.050781l-4.5312 0.50781v0.003907c-0.49609 0.054687-0.91797 0.38672-1.082 0.85937-0.16406 0.46875-0.042969 0.99219 0.30859 1.3438 2.4727 2.4688 4.8555 6.4375 5.4766 12.727l0.003906 0.003906c0.046875 0.45312-0.09375 0.91016-0.38281 1.2656-0.29297 0.35547-0.71484 0.57812-1.168 0.625h-0.17969c-0.88672-0.003906-1.6289-0.67969-1.7109-1.5625-1.2969-13.086-11.062-14.125-11.477-14.164-0.46094-0.042969-0.88281-0.26953-1.1758-0.625-0.29297-0.35938-0.43359-0.81641-0.38672-1.2773 0.10547-0.82812 0.77344-1.4727 1.6055-1.5508l9.6797-1.0859h-0.003906c1.0312-0.11328 1.8945-0.82812 2.2031-1.8125v-0.015625c0.13672-0.43359 0.25-0.875 0.34375-1.3164v-0.003906c0.23828-1.125 0.38281-2.2656 0.42969-3.4141 0.011719-0.16797 0.003906-0.33594-0.023438-0.5-0.125-0.80469-0.63672-1.4922-1.3672-1.8398-0.32422-0.15625-0.67578-0.23438-1.0312-0.23438l-7.3281-0.027343h-4.7656 0.003906c-2.375-0.011719-4.6289 1.043-6.1406 2.8789-0.34375 0.41797-0.64453 0.87109-0.89844 1.3516-0.59375 1.1289-0.90625 2.3828-0.91406 3.6602l-0.078125 20.961c-0.015625 4.1172 2.1406 7.9414 5.6758 10.059l0.26563 0.16016c1.0625 0.63281 1.7109 1.7812 1.7031 3.0195v0.44531-0.003906c-0.003906 0.67578 0.26172 1.3242 0.73828 1.8047 0.47656 0.48047 1.125 0.75 1.8008 0.75h24.887c1.4023 0 2.5391-1.1367 2.5391-2.5391v-0.74609c0.003906-1.25 0.67188-2.4023 1.7578-3.0273 2.4531-1.3945 3.9688-3.9961 3.9805-6.8164l0.039062-9.9609c0.019531-5.4531-4.3789-9.8906-9.832-9.918z"/>
  <path d="m91.137 11.926-3.1562-3.1602c-1.0859-1.082-2.8477-1.082-3.9336 0l-9.1094 9.1094c-2.9609-2.3047-6.2266-4.1953-9.7031-5.6094-0.51172-0.20703-1.082-0.19531-1.582 0.035156s-0.88672 0.65625-1.0625 1.1758l-0.74609 2.1484c-0.83594 2.4102 0.23047 5.0664 2.5 6.2305 3.7109 1.9062 7.0117 4.5273 9.7031 7.7148 0.38672 0.48047 0.96094 0.77344 1.5781 0.80078 0.61328 0.03125 1.2148-0.20703 1.6406-0.64844l13.867-13.867c1.0859-1.0859 1.0859-2.8438 0.003907-3.9297z"/>
  <path d="m93.531 44.891h-3.2422c-0.4375-3.5742-1.3516-7.0742-2.7227-10.406-0.20703-0.50781-0.61719-0.91016-1.1289-1.1094s-1.0859-0.17969-1.582 0.054688l-2.0703 0.97656c-2.3164 1.1055-3.4609 3.75-2.6914 6.1953 0.92969 3.0117 1.4023 6.1484 1.3984 9.2969 0 0.89844-0.039063 1.7891-0.10938 2.6641l-0.003906 0.003906c-0.046875 0.60547 0.16016 1.2031 0.57031 1.6484 0.41406 0.44531 0.99219 0.69531 1.5977 0.69531h9.9844-0.003906c1.5391 0 2.7852-1.2461 2.7812-2.7852v-4.4531c0-1.5352-1.2422-2.7812-2.7773-2.7812z"/>
  <path d="m21.551 36.383c1.9336-4.0547 4.7109-7.6484 8.1445-10.547h0.003907c0.46094-0.39063 0.73828-0.96094 0.76172-1.5664 0.027343-0.60938-0.20313-1.1992-0.63281-1.6289l-13.867-13.867c-1.0898-1.082-2.8516-1.082-3.9375 0l-3.1602 3.1523c-0.52344 0.52344-0.81641 1.2305-0.81641 1.9648 0 0.73828 0.29297 1.4453 0.81641 1.9688l9.1055 9.1055c-2.5391 3.2617-4.5664 6.8867-6.0195 10.758l0.003906-0.003906c-0.19531 0.51562-0.16797 1.0898 0.074219 1.582 0.23828 0.49609 0.67188 0.87109 1.1992 1.0352l2.1797 0.6875-0.003906-0.003907c2.4219 0.77344 5.0391-0.35156 6.1484-2.6367z"/>
  <path d="m50 18.414c0.89844 0 1.7852 0.039063 2.6641 0.11328v-0.003906c0.60547 0.050781 1.2031-0.15625 1.6484-0.56641 0.44531-0.41406 0.69531-0.99219 0.69531-1.5977v-9.9844c0-1.5312-1.2422-2.7773-2.7734-2.7812h-4.4688c-0.73438 0-1.4453 0.29297-1.9648 0.81641-0.52344 0.51953-0.81641 1.2305-0.81641 1.9648v3.2422c-3.668 0.44531-7.2578 1.3984-10.664 2.8281h-0.003906c-0.50781 0.21484-0.90625 0.625-1.1016 1.1367-0.19531 0.51562-0.17188 1.0898 0.066406 1.582l0.99219 2.0625v0.003907c1.1211 2.3047 3.7656 3.4336 6.2031 2.6484 3.082-0.97656 6.293-1.4688 9.5234-1.4648z"/>
  <path d="m18.508 49.906c0-0.89844 0.039063-1.7852 0.10938-2.6641 0.050781-0.60547-0.15625-1.2031-0.56641-1.6484-0.41406-0.44531-0.99219-0.69922-1.5977-0.69531h-9.9805c-1.5391 0-2.7812 1.2422-2.7812 2.7812v4.4648h-0.003906c0 1.5352 1.2461 2.7812 2.7812 2.7812h9.5352c0.72266-0.003906 1.4102-0.30469 1.9023-0.83594 0.48828-0.53125 0.73438-1.2422 0.67969-1.9609-0.050782-0.73828-0.078126-1.4805-0.078126-2.2227z"/>
 </g>
</svg>
