<?xml version="1.0" encoding="UTF-8"?>
<svg width="100pt" height="100pt" version="1.1" viewBox="0 0 100 100" xmlns="http://www.w3.org/2000/svg">
 <g>
  <path d="m13.688 51.258 56.055 25.27v0.003906c0.42187 0.19141 0.74609 0.54688 0.89844 0.98438 0.14844 0.4375 0.11328 0.91797-0.10156 1.3281l-2.6328 5.043v-0.003907c-0.38281 0.73828-1.1133 1.2227-1.9414 1.293-6.3047 0.51172-33.473 0.60547-53.27-32.832-0.15234-0.29297-0.10547-0.64844 0.11719-0.89062 0.21875-0.24219 0.57031-0.32031 0.875-0.19531z"/>
  <path d="m93.398 89.188c-0.76563-0.074219-1.5352 0.11719-2.1797 0.54688l-10.188-5.9922c-1.2617-0.73828-1.7656-2.3086-1.1719-3.6484l1.5508-3.4688 0.003906 0.003906c0.30469-0.68359 0.007813-1.4883-0.67187-1.8008v-0.003906c-1.8438-0.85156-4.0273-0.070313-4.9062 1.7578l-6.7734 14.242v0.003906c-0.42188 0.89062-0.46875 1.9102-0.13672 2.8398 0.33203 0.92578 1.0234 1.6836 1.9141 2.1016l0.39062 0.1875v-0.003906c0.33203 0.16016 0.71484 0.17578 1.0586 0.046875 0.34766-0.12891 0.625-0.39062 0.77344-0.72656l1.9375-4.2812c0.60547-1.3555 2.1484-2.0234 3.5547-1.5391l11.25 3.8789c0.29297 1.2305 1.25 2.1914 2.4766 2.4922 1.2305 0.30078 2.5234-0.10938 3.3516-1.0664 0.82813-0.95312 1.0547-2.2891 0.58594-3.4648-0.46875-1.1719-1.5547-1.9883-2.8125-2.1055z"/>
  <path d="m6.6016 89.188c0.76953-0.078125 1.543 0.11328 2.1875 0.54688l10.188-5.9922c1.2617-0.73828 1.7656-2.3086 1.1719-3.6484l-1.5508-3.4688v0.003906c-0.30859-0.68359-0.007812-1.4883 0.67188-1.8008v-0.003906c1.8398-0.85156 4.0273-0.070313 4.9062 1.7578l6.7734 14.242-0.003907 0.003906c0.42188 0.89062 0.47266 1.9102 0.13672 2.8398-0.33203 0.92578-1.0195 1.6836-1.9141 2.1016l-0.39062 0.1875 0.003906-0.003906c-0.33594 0.16016-0.71875 0.17578-1.0625 0.046875s-0.62109-0.39062-0.77344-0.72656l-1.9453-4.2812c-0.60547-1.3555-2.1484-2.0234-3.5547-1.5391l-11.242 3.8789c-0.29297 1.2305-1.25 2.1914-2.4805 2.4922-1.2266 0.30078-2.5195-0.10938-3.3477-1.0664-0.83203-0.95312-1.0586-2.2891-0.58984-3.4648 0.46875-1.1719 1.5547-1.9883 2.8164-2.1055z"/>
  <path d="m31 77.328c-0.36328-0.26172-0.84766-0.27344-1.2227-0.027344-0.375 0.24219-0.5625 0.69141-0.47266 1.1289 0.035156 0.14453 0.085937 0.28125 0.15234 0.41406l2.6328 5.043 0.003906-0.003907c0.38281 0.73828 1.1133 1.2227 1.9375 1.293 2.7578 0.19922 5.5273 0.12891 8.2656-0.21484 0.28125-0.015626 0.51172-0.22656 0.55078-0.50391 0.039063-0.27734-0.125-0.54297-0.38672-0.63672v0.003907c-4.0508-1.7344-7.8945-3.9141-11.461-6.4961z"/>
  <path d="m86.312 51.258-30.98 13.977c-0.32031 0.14453-0.52734 0.46094-0.52734 0.8125s0.20703 0.67188 0.52734 0.8125l12.93 5.8281v0.003906c0.80469 0.36328 1.7461 0.23438 2.4258-0.33203 5.7031-4.7578 11.414-11.227 16.617-20.016 0.15234-0.29297 0.10547-0.64844-0.11719-0.89062-0.21875-0.24219-0.57031-0.32031-0.875-0.19531z"/>
  <path d="m58.238 43.859c-0.078125-0.44141-0.36328-0.82031-0.76953-1.0156s-0.88281-0.17969-1.2734 0.039062l-3.7969 2.1328c-1.5781 0.88281-3.5039 0.88281-5.0781 0l-3.7969-2.1328c-0.39453-0.21875-0.87109-0.23437-1.2773-0.039062s-0.69141 0.57422-0.76953 1.0156c-0.87109 4.9766-0.19531 10.641 0.19531 13.148 0.12891 0.80859 0.66797 1.4922 1.4297 1.8008l5.4453 2.2031v0.003906c0.83984 0.33984 1.7812 0.33984 2.625 0l5.4453-2.207c0.75781-0.3125 1.3008-0.99219 1.4297-1.8008 0.38672-2.5156 1.0625-8.1719 0.19141-13.148z"/>
  <path d="m43.227 34.281h0.17969c1.8555 0 3.5625 1.0078 4.457 2.6328 0.16016 0.29297 0.15625 0.65234-0.015625 0.94141-0.17188 0.28906-0.48047 0.46484-0.81641 0.46484h-1.9141c-1.3359 0.007813-2.5469-0.79297-3.0547-2.0312-0.039062-0.097656-0.078125-0.19531-0.10938-0.30859v0.003906c-0.12109-0.40234-0.042969-0.83594 0.20703-1.1719s0.64453-0.53125 1.0664-0.53125z"/>
  <path d="m83.062 44.383c-1.2891-1.5469-3.3555-3.4141-6.2656-4.2344l-0.17969-0.0625c-4.0742-1.5234-6.7773-5.418-6.7734-9.7656v-6.4453c0-10.785-8.5625-19.727-19.344-19.953h-0.64062-0.66797c-10.773 0.23047-19.32 9.1797-19.32 19.953v6.4453-0.003906c0.007812 4.3789-2.7266 8.293-6.8359 9.7969l-0.125 0.042969c-2.9141 0.82031-4.9766 2.6875-6.2656 4.2344-0.44922 0.54297-0.61719 1.2695-0.45312 1.9531 0.16406 0.6875 0.64062 1.2578 1.2852 1.5352l17.215 7.5273 0.003906 0.003906c0.52734 0.23438 1.1445 0.17578 1.6211-0.15234 0.47656-0.33203 0.75-0.88672 0.72266-1.4648-0.9375-18.391 5.2969-26.25 9.5938-29.453h-0.003906c1.9141-1.4336 4.543-1.4336 6.457 0 4.2969 3.2031 10.531 11.062 9.5938 29.453-0.03125 0.57812 0.24219 1.1328 0.71875 1.4648 0.47656 0.32813 1.0938 0.38672 1.625 0.15234l17.203-7.5352c0.64844-0.28125 1.125-0.85156 1.2891-1.5391 0.16406-0.68359-0.003906-1.4062-0.45312-1.9531z"/>
  <path d="m56.492 34.281h-0.18359c-1.8555 0-3.5625 1.0078-4.457 2.6328-0.16016 0.29297-0.15234 0.65234 0.015626 0.94141 0.17187 0.28906 0.48437 0.46484 0.82031 0.46484h1.9062-0.003906c1.3359 0.007813 2.5469-0.79297 3.0586-2.0312 0.039062-0.097656 0.078124-0.19531 0.10937-0.30859l-0.003906 0.003906c0.12109-0.40234 0.046875-0.83594-0.20312-1.168-0.25-0.33594-0.64453-0.53516-1.0586-0.53516z"/>
 </g>
</svg>
