<?xml version="1.0" encoding="UTF-8"?>
<svg width="100pt" height="100pt" version="1.1" viewBox="0 0 100 100" xmlns="http://www.w3.org/2000/svg">
 <g>
  <path d="m93.75 49.961h-5.4883c3.1719-3.9766 5.5391-8.5352 6.9727-13.418 0.64062-2.2188-1.707-4.1016-3.7266-2.9883-4.75 2.6406-10.562 6.168-13.844 8.1875-1.582 0.98047-2.7344 2.5273-3.2188 4.3242-4.0547 14.629-13.922 14.48-13.922 14.48 0.015624-0.84766-0.035157-1.6992-0.15234-2.5391-0.042969-0.61719 0.007812-1.2383 0.15234-1.8359v-0.003906c0.20703-0.875 0.60547-1.6953 1.1719-2.3984 0.53125-0.67188 1.3125-2.0781 0.96484-4.2109-0.039062-0.23438-0.20312-0.43359-0.42969-0.51562-0.22266-0.082031-0.47266-0.039063-0.66016 0.11328-1.1172 0.92578-3.4766 2.1484-7.3789 0.80859h0.003906c-1.3398-0.52344-2.7578-0.80859-4.1953-0.83984-1.4336 0.03125-2.8516 0.31641-4.1875 0.84375-3.9062 1.3359-6.2617 0.11719-7.3789-0.80859-0.18359-0.15625-0.4375-0.19922-0.66016-0.11328-0.22266 0.082031-0.38672 0.27734-0.42969 0.51562-0.35156 2.1367 0.4375 3.5391 0.96484 4.2109h0.003906c0.5625 0.70312 0.96484 1.5195 1.1719 2.3984 0.14062 0.60156 0.19141 1.2227 0.14844 1.8398-0.11719 0.83594-0.16797 1.6797-0.14844 2.5273 0 0-9.8672 0.15625-13.922-14.469v-0.003906c-0.48828-1.7969-1.6406-3.3438-3.2227-4.3242-3.2812-2.0156-9.0938-5.5469-13.844-8.1875-2.0156-1.1211-4.3672 0.77344-3.7266 2.9883h0.003907c1.4297 4.8828 3.7969 9.4375 6.9648 13.422l-5.4883-0.003906c-0.55859 0-1.0703 0.30078-1.3398 0.79297-0.26953 0.48828-0.25 1.082 0.050782 1.5508 1.8594 2.9453 5.8828 7.9062 12.922 10.172l-5.6328 0.6875c-0.66406 0.085938-1.2305 0.53516-1.4648 1.1641s-0.10156 1.3398 0.34766 1.8398c1.8359 2.0156 5.3359 4.8398 11.758 7.1953v-0.003906c1.25 0.46484 2.4141 1.1367 3.4375 1.9883 1.8789 1.5625 5.5156 4.0703 10.18 4.8359 0.32422 0.058594 0.65625-0.003906 0.9375-0.17188 0.62109-0.38281 0.81641-1.1914 0.4375-1.8125-0.99609-1.5977-1.6523-3.2617-2.1719-5.4062h0.003906c-0.22656-0.89062 0.25391-1.8047 1.1133-2.1211h0.003906c0.46094-0.16016 0.96875-0.11328 1.3984 0.12109 0.42969 0.23828 0.73828 0.64453 0.85156 1.1211 0.61328 2.5703 1.3672 4.1562 2.9141 6.0547 0.52344 0.65234 0.50781 1.582-0.035156 2.2188l-0.015626 0.015625s-6.0078 7.75-3.0508 14.973c0.21094 0.50781 0.65234 0.87891 1.1875 0.99609 0.53906 0.11719 1.0977-0.035156 1.4961-0.41016l2.9531-2.7539c0.41406-0.38672 1.0586-0.36719 1.4492 0.039063l2.2969 2.3906h0.003906c0.44922 0.46875 1.0703 0.73438 1.7227 0.73438s1.2734-0.26562 1.7227-0.73438l2.2969-2.3906c0.39062-0.40625 1.0352-0.42578 1.4492-0.039063l2.9453 2.75h0.003906c0.39844 0.375 0.95703 0.52734 1.4961 0.41406 0.53516-0.11719 0.97656-0.49219 1.1875-1 2.9531-7.2266-3.0391-14.977-3.0391-14.977l-0.015625-0.015624c-0.54688-0.63281-0.5625-1.5625-0.039062-2.2148 1.5391-1.8984 2.3008-3.4805 2.9141-6.0547 0.11328-0.47656 0.42188-0.88281 0.85156-1.1211 0.42969-0.23437 0.9375-0.28125 1.4023-0.125 0.85937 0.31641 1.3398 1.2344 1.1172 2.1211-0.50781 2.1133-1.1562 3.7578-2.125 5.3359-0.26172 0.39844-0.30469 0.89844-0.10938 1.332 0.25781 0.52734 0.82812 0.82422 1.4102 0.73047 4.668-0.75781 8.3086-3.2617 10.195-4.8281l-0.003907 0.003906c1.0273-0.85938 2.1914-1.5352 3.4453-2 6.4219-2.3516 9.9297-5.1797 11.766-7.1953 0.45312-0.50391 0.58594-1.2148 0.35156-1.8477-0.23828-0.63281-0.80859-1.082-1.4805-1.1602l-5.6328-0.6875c7.0312-2.2656 11.062-7.2266 12.922-10.172 0.29297-0.46875 0.3125-1.0625 0.046875-1.5469-0.26953-0.48438-0.77734-0.78516-1.332-0.78906zm-46.172 14.031c-0.21094 0.10156-0.43359 0.17969-0.66406 0.23047-2.0469 0.46875-4.1016-1.0273-4.2266-3.125-0.007812-0.19922-0.003906-0.39844 0.015625-0.59766 0.027344-0.26562 0.19531-0.49219 0.4375-0.60156 0.24219-0.10547 0.52344-0.074219 0.73438 0.085937l3.8008 2.7656h0.003907c0.20312 0.14844 0.32031 0.39453 0.29687 0.64844-0.019531 0.25391-0.17187 0.48047-0.39844 0.59375zm4.2734 4.8516-1.2773 2.707c-0.10547 0.22266-0.32812 0.36328-0.57422 0.36328s-0.46875-0.14062-0.57422-0.36328l-1.2773-2.707c-0.32031-0.67969-0.1875-1.4883 0.33984-2.0273l0.96484-0.98438v-0.003906c0.14453-0.14453 0.33984-0.22656 0.54688-0.22656s0.40234 0.082032 0.54688 0.22656l0.96484 0.98438v0.003906c0.52734 0.53906 0.66016 1.3477 0.33984 2.0273zm5.375-7.7109c-0.11328 2.0312-2.1055 3.4805-4.0859 3.0273-0.22266-0.050781-0.4375-0.125-0.64453-0.22266-0.21875-0.11328-0.36719-0.33203-0.38281-0.57812-0.019531-0.24609 0.09375-0.48438 0.29297-0.625l3.6797-2.6797c0.20703-0.14844 0.47656-0.17578 0.70703-0.074219 0.23438 0.10156 0.39062 0.32031 0.41797 0.57422 0.023437 0.19141 0.027343 0.38672 0.015624 0.57812z"/>
  <path d="m58.836 19.387c-0.37891-0.95312-0.87109-1.8555-1.4609-2.6914-1.457-2.0781-4.4453-6.6953-6.3281-12.164-0.15625-0.44141-0.57812-0.73828-1.0469-0.73828s-0.89062 0.29688-1.0469 0.73828c-1.8828 5.4688-4.8711 10.086-6.3242 12.156-0.58984 0.83594-1.082 1.7383-1.4609 2.6914h-0.003907c-0.17578 0.44531-0.046874 0.95312 0.31641 1.2656s0.88672 0.35938 1.3008 0.11328l0.15625-0.089843v0.003906c4.3672-2.5391 9.7656-2.5391 14.133 0l0.15625 0.089844 0.003907-0.003907c0.41016 0.23828 0.92578 0.19141 1.2852-0.11719 0.36328-0.30859 0.49219-0.80859 0.32031-1.2539z"/>
  <path d="m50 21.844c1.4023 0 2.5391 1.1406 2.5391 2.5391v18c0 0.36328-0.14453 0.71094-0.40234 0.96484-0.25391 0.25781-0.60156 0.40234-0.96484 0.40234h-2.3438c-0.75391 0-1.3672-0.61328-1.3672-1.3672v-18.008c0-1.3984 1.1367-2.5391 2.5391-2.5391z"/>
  <path d="m44.109 33.078c-0.27344-0.67578-0.62109-1.3164-1.0391-1.9102-1.0312-1.4688-3.1523-4.75-4.4922-8.6328v0.003906c-0.10547-0.32422-0.40625-0.53906-0.74219-0.53906-0.33984 0-0.64063 0.21484-0.74219 0.53906-1.3359 3.8828-3.4609 7.1641-4.4922 8.6328v-0.003906c-0.42187 0.59375-0.76953 1.2344-1.0391 1.9102-0.12109 0.31641-0.03125 0.67578 0.22656 0.89453 0.25781 0.21875 0.625 0.25391 0.91797 0.082032l0.10938-0.0625c3.1055-1.8008 6.9336-1.8008 10.039 0l0.10938 0.0625c0.29297 0.16797 0.66016 0.13281 0.91406-0.085938 0.25781-0.21875 0.34766-0.57422 0.23047-0.89062z"/>
  <path d="m37.832 34.945c0.99219 0 1.7969 0.80469 1.7969 1.7969v6.5156c0 0.25781-0.10156 0.50781-0.28516 0.69141-0.18359 0.18359-0.43359 0.28516-0.69141 0.28516h-1.6562c-0.53906 0-0.97656-0.4375-0.97656-0.97656v-6.5156c0-0.47656 0.19141-0.9375 0.53125-1.2734 0.33984-0.33594 0.80078-0.52344 1.2812-0.52344z"/>
  <path d="m55.891 33.078c0.27344-0.67578 0.62109-1.3164 1.0391-1.9102 1.0312-1.4688 3.1523-4.75 4.4922-8.6328v0.003906c0.10547-0.32422 0.40625-0.53906 0.74219-0.53906 0.33984 0 0.64063 0.21484 0.74219 0.53906 1.3359 3.8828 3.4609 7.1641 4.4922 8.6328v-0.003906c0.42187 0.59375 0.76953 1.2344 1.0391 1.9102 0.12109 0.31641 0.03125 0.67578-0.22656 0.89453-0.25781 0.21875-0.625 0.25391-0.91797 0.082032l-0.10938-0.0625c-3.1055-1.8008-6.9336-1.8008-10.039 0l-0.10938 0.0625c-0.29297 0.16797-0.66016 0.13281-0.91406-0.085938-0.25781-0.21875-0.34766-0.57422-0.23047-0.89062z"/>
  <path d="m62.996 44.227h-1.6562c-0.25781 0-0.50391-0.10156-0.6875-0.28516s-0.28906-0.43359-0.28906-0.69141v-6.5156 0.003906c0-0.99609 0.80469-1.7969 1.7969-1.7969 0.99609 0 1.7969 0.80078 1.7969 1.7969v6.5195c-0.003906 0.53125-0.42969 0.96094-0.96094 0.96875z"/>
 </g>
</svg>
