<?xml version="1.0" encoding="UTF-8"?>
<svg width="100pt" height="100pt" version="1.1" viewBox="0 0 100 100" xmlns="http://www.w3.org/2000/svg">
 <g>
  <path d="m85.891 72.852c-2.625-2.0898-6.1406-3.0703-8.3516-3.5156-2.418-0.48828-4.7734-1.2305-7.0312-2.2227-0.92578-0.40234-1.8086-0.8125-2.625-1.207-0.40625-0.19922-0.875-0.21094-1.2891-0.035156-0.41797 0.17188-0.73828 0.51953-0.87891 0.94531-0.54688 1.5859-1.0117 3.1992-1.3867 4.832-0.20703 0.92578-1.0273 1.5898-1.9766 1.5938-0.14844 0-0.29687-0.015626-0.4375-0.046876-1.0938-0.24609-1.7852-1.3242-1.5469-2.4219 0.6875-3.1094 4.75-16.254 4.75-16.254 0.14844-0.58984-0.078126-1.2148-0.57422-1.5703-0.49219-0.35938-1.1562-0.37891-1.6719-0.050781l-10.762 6.8672c-1.2852 0.81641-2.9219 0.81641-4.2031 0l-10.762-6.8633h-0.003906c-0.51172-0.32812-1.1758-0.30859-1.6719 0.046875-0.49609 0.35938-0.72266 0.98047-0.57031 1.5742 0 0 4.043 13.297 4.6875 16.254 0.23828 1.0938-0.45313 2.1758-1.5469 2.418-0.14453 0.03125-0.29297 0.046876-0.4375 0.046876-0.95312 0-1.7773-0.66016-1.9805-1.5938-0.37891-1.625-0.83984-3.2305-1.3828-4.8047v-0.003906c-0.14062-0.42578-0.46094-0.76953-0.87891-0.94531-0.41406-0.17578-0.88281-0.16406-1.2891 0.035157-0.80078 0.39062-1.6641 0.78125-2.5703 1.1797-2.2578 0.99609-4.6133 1.7422-7.0312 2.2266-2.2109 0.4375-5.7266 1.4219-8.3516 3.5039-0.58594 0.48047-0.88672 1.2266-0.78906 1.9766 0.09375 0.75 0.57031 1.3984 1.2617 1.7109l32.82 15.145c1.6445 0.76172 3.5391 0.76172 5.1875 0l32.812-15.145h-0.003906c0.6875-0.3125 1.1641-0.95703 1.2617-1.7031 0.10156-0.74609-0.19531-1.4922-0.77734-1.9727z"/>
  <path d="m53.758 15.797 5.6641-4.0859c0.21875-0.15234 0.34375-0.40234 0.33203-0.66797-0.007812-0.26172-0.15234-0.50391-0.37891-0.64062-0.36719-0.21875-0.73438-0.42188-1.0938-0.61719v0.003906c-5.1836-2.7148-11.367-2.7148-16.551 0l-0.375 0.19531h-0.003907c-0.21484 0.11719-0.34766 0.35156-0.33594 0.60156 0.011719 0.24609 0.16016 0.46875 0.38672 0.57031l11.016 4.7734h0.003906c0.4375 0.19141 0.94531 0.14062 1.3359-0.13281z"/>
  <path d="m63.086 14.086-4.7734 3.4297c-0.17578 0.12109-0.26953 0.33203-0.24609 0.54297 0.023438 0.21484 0.16016 0.39844 0.35938 0.48047l8.957 3.8789c0.28125 0.12109 0.60547 0.066406 0.82813-0.14062 0.22656-0.21094 0.30469-0.53125 0.20312-0.81641-0.64844-1.8438-1.9883-4.9062-4.3086-7.2852h0.003906c-0.27344-0.27734-0.70703-0.31641-1.0234-0.089843z"/>
  <path d="m69.699 30.098c0.019531-0.58203 0.019531-1.168 0-1.7578-0.011719-0.3125-0.20312-0.58594-0.48828-0.70703l-31.516-13.652c-0.67578-0.28906-1.4609-0.11719-1.9531 0.42969-2.1289 2.3945-3.6836 5.2422-4.5391 8.332-0.097656 0.34375-0.19531 0.68359-0.26562 1.0312-0.11328 0.46875-0.019531 0.96484 0.25391 1.3672 0.27344 0.39844 0.70312 0.66406 1.1836 0.73438l36.398 5.0039c0.23047 0.03125 0.46094-0.035156 0.63672-0.18359 0.17969-0.14844 0.28125-0.36719 0.28906-0.59766z"/>
  <path d="m32.133 29.938c-0.46094-0.0625-0.92578 0.085938-1.2617 0.40234-0.33984 0.32031-0.51172 0.77344-0.47266 1.2383 0 0.058594 0.011718 0.11719 0.015624 0.17188 0.23047 2.4297 0.65625 6.9062 1.3555 10.098h-0.003906c0.32422 1.4727 1.2227 2.7617 2.4922 3.5742l13.984 8.9219c1.0781 0.6875 2.4609 0.6875 3.5391 0l13.977-8.9219c1.2734-0.8125 2.168-2.1016 2.4922-3.5742 0.35938-1.625 0.64062-3.5859 0.86719-5.4375v0.003906c0.097656-0.76172-0.4375-1.4609-1.1953-1.5625zm13.852 14.879c-0.92188 0.45312-2.4297 0.87109-4.5469 0.40625v0.003906c-1.2227-0.25391-2.2188-1.1367-2.6172-2.3203-0.27734-0.82031-0.30078-1.707-0.0625-2.5391 0.058594-0.21875 0.21484-0.39844 0.42578-0.48828 0.20703-0.085937 0.44531-0.074218 0.64453 0.039063l6.1875 3.5625v0.003906c0.24219 0.13281 0.39062 0.39453 0.38281 0.67578-0.003907 0.28125-0.16406 0.53125-0.41406 0.66016zm15.5-1.9102c-0.40234 1.1836-1.3984 2.0664-2.6211 2.3203-2.1133 0.46484-3.625 0.046876-4.5469-0.40625h0.003906c-0.25-0.12891-0.40625-0.37891-0.41406-0.65625-0.007812-0.27734 0.14062-0.53906 0.38281-0.67578l6.1836-3.5625-0.003906-0.003906c0.19922-0.10938 0.4375-0.125 0.64844-0.035156 0.21094 0.085937 0.36719 0.26562 0.42578 0.48828 0.23438 0.82812 0.21094 1.7109-0.058594 2.5312z"/>
  <path d="m10.555 63.898 1.3125 2.0547c0.44531 0.70312 1.3555 0.93359 2.0781 0.53125l16.113-8.8125h0.003906c0.57422-0.3125 0.89453-0.95312 0.79688-1.6016l-0.67969-4.6875c-0.070313-0.54297-0.41797-1.0039-0.91797-1.2227s-1.0742-0.16406-1.5195 0.14844l-16.75 11.449c-0.70313 0.47266-0.89844 1.4258-0.4375 2.1406z"/>
  <path d="m4.2422 25.469c0.74609-1.7695 2.2148-4.9297 4.1484-7.5469l0.003906 0.003906c0.34766-0.48047 0.9375-0.72266 1.5195-0.62891 0.58594 0.089844 1.0703 0.5 1.2539 1.0625l9.8047 30.137c0.24219 0.74219-0.039062 1.5586-0.69141 1.9922l-2.8594 1.9062v-0.003906c-0.42578 0.28516-0.95703 0.37109-1.4492 0.22656-0.49219-0.14063-0.89844-0.49219-1.1094-0.96094l-10.586-23.531c-0.37891-0.84375-0.39062-1.8047-0.03125-2.6562z"/>
  <path d="m89.453 63.898-1.3125 2.0547c-0.44141 0.70312-1.3555 0.93359-2.0781 0.53125l-16.113-8.8125c-0.57812-0.3125-0.89844-0.95312-0.80078-1.6016l0.67969-4.6875c0.074219-0.54297 0.42188-1.0039 0.92188-1.2227 0.49609-0.21875 1.0742-0.16406 1.5195 0.14844l16.746 11.445v0.003906c0.70312 0.47266 0.89844 1.4258 0.4375 2.1406z"/>
  <path d="m95.758 25.469c-0.74609-1.7695-2.2148-4.9297-4.1484-7.5469l-0.003906 0.003906c-0.34766-0.48047-0.9375-0.72266-1.5195-0.62891-0.58594 0.089844-1.0703 0.5-1.2578 1.0625l-9.8008 30.137c-0.24219 0.74219 0.039062 1.5586 0.69141 1.9922l2.8594 1.9062v-0.003906c0.42578 0.28516 0.95703 0.37109 1.4492 0.22656 0.49219-0.14063 0.89844-0.49219 1.1094-0.96094l10.586-23.531c0.37891-0.84375 0.39062-1.8047 0.03125-2.6562z"/>
 </g>
</svg>
