<?xml version="1.0" encoding="UTF-8"?>
<svg width="100pt" height="100pt" version="1.1" viewBox="0 0 100 100" xmlns="http://www.w3.org/2000/svg">
 <g>
  <path d="m41.293 32.211h4.7031s0.9375 5.6641-2.1953 11.297c-0.19922 0.36328-0.097656 0.82031 0.23828 1.0625 1.7188 1.2461 3.3398 2.625 4.8438 4.1211 0.62109 0.60547 1.6133 0.60547 2.2344 0 1.5039-1.4961 3.125-2.875 4.8398-4.1211h0.003907c0.33594-0.24219 0.4375-0.69922 0.23828-1.0625-3.125-5.6289-2.1953-11.297-2.1953-11.297h4.7031c0.89062 0 1.6094-0.72266 1.6094-1.6094v-1.668c0-0.88672-0.71875-1.6055-1.6055-1.6055h-17.418c-0.88672 0-1.6055 0.71875-1.6055 1.6055v1.668c0 0.88672 0.71875 1.6055 1.6055 1.6094z"/>
  <path d="m48.613 74.91c-0.94531 0.57031-2.0352 1.1953-3.2266 1.8203l0.003906-0.003907c-0.87109 0.45703-1.4023 1.3672-1.3672 2.3438 0.11719 3.6914 0.20703 6.7109 0.25781 8.3594 0.03125 0.93359 0.32422 1.8359 0.84766 2.6094l3.8594 5.6953h-0.003906c0.23047 0.33984 0.60938 0.53906 1.0156 0.53906s0.78906-0.19922 1.0156-0.53906l3.6562-5.4062c0.65234-0.96094 1.0195-2.0859 1.0547-3.25 0.054688-1.7031 0.14063-4.5586 0.25-8.0078h-0.003906c0.035156-0.97656-0.49609-1.8867-1.3672-2.3438-1.1875-0.625-2.2773-1.2461-3.2266-1.8203l0.003906 0.003906c-0.85156-0.51562-1.918-0.51562-2.7695 0z"/>
  <path d="m92.609 36.773c-2.4609 1.3516-6.375 2.75-12.406 3.2266 0 0-19.094 0.60156-30.203 16.277-11.113-15.676-30.203-16.277-30.203-16.277-6.0312-0.47266-9.9453-1.8711-12.406-3.2266h-0.003906c-0.77734-0.42578-1.7227-0.39453-2.4766 0.078124-0.75 0.46875-1.1875 1.3125-1.1406 2.1953 1.1953 25.078 13.883 33.648 21.25 36.523 3.8633 1.4922 8.1172 1.6055 12.051 0.32031 6.7344-2.1562 12.93-6.75 12.93-6.75s6.1953 4.5938 12.93 6.75c3.9336 1.2852 8.1875 1.1719 12.051-0.32031 7.3672-2.875 20.055-11.445 21.25-36.523 0.046875-0.88281-0.39062-1.7266-1.1406-2.1953-0.75391-0.47266-1.6992-0.50391-2.4805-0.078124zm-55.305 25.438c-4 2.3164-13 5.2734-19.359-9.6172-0.22656-0.52344-0.14062-1.125 0.21875-1.5664 0.35938-0.44141 0.93359-0.64453 1.4922-0.53125 4.0391 0.82812 11.836 3.0586 17.969 8.5859v-0.003906c0.45703 0.41797 0.69141 1.0312 0.62891 1.6484-0.0625 0.61719-0.41406 1.168-0.94922 1.4844zm44.746-9.6172c-6.3594 14.883-15.359 11.93-19.359 9.6172-0.53125-0.31641-0.88281-0.86719-0.94531-1.4844-0.066406-0.61719 0.16797-1.2266 0.62891-1.6406 6.1328-5.5234 13.93-7.7539 17.969-8.5859 0.55469-0.11328 1.1289 0.089844 1.4844 0.53125 0.35938 0.4375 0.44531 1.0391 0.22266 1.5625z"/>
  <path d="m56.062 5.3281c0-0.87891-0.71094-1.5938-1.5938-1.5938h-8.9375c-0.87891 0.003906-1.5859 0.71875-1.5859 1.5938v1.4453c0 1.2305 0.99219 2.2266 2.2188 2.2305h0.61328v14.113c0 0.28125 0.10938 0.54687 0.30859 0.74609 0.19531 0.19922 0.46484 0.30859 0.74219 0.30859h4.3438c0.27734 0 0.54688-0.10938 0.74219-0.30859 0.19922-0.19922 0.30859-0.46484 0.30859-0.74609v-14.113h0.61328c1.2305 0 2.2266-0.99609 2.2266-2.2305z"/>
 </g>
</svg>
