<?xml version="1.0" encoding="UTF-8"?>
<svg width="100pt" height="100pt" version="1.1" viewBox="0 0 100 100" xmlns="http://www.w3.org/2000/svg">
 <g>
  <path d="m66.906 58.809c0.92188-1.9297 1.5234-4 1.7734-6.125 0.082031-0.64844-0.10938-1.3047-0.52734-1.8047-0.41797-0.50391-1.0273-0.8125-1.6797-0.84766-0.9375-0.046875-1.8672-0.16797-2.7852-0.35938-0.66406-0.14062-1.3281 0.22656-1.5625 0.85938-0.19922 0.55078-0.42188 1.0898-0.67188 1.6172-0.23438 0.48047-0.14062 1.0586 0.23828 1.4375z"/>
  <path d="m53.805 61.883c-0.53906-0.53906-1.3711-0.66406-2.0469-0.30859-1.7734 0.94531-5.5078 3.0781-10.664 6.8164-0.44141 0.32031-0.89062 0.57031-1.3984 0.57031h0.003907c-0.53125-0.003907-1.043-0.21094-1.4258-0.58594 0 0-2.4141-2.2266-11.43-7.1836-5.6758-3.125-8.293-7.207-9.5-10.438h0.003906c-0.27734-0.75781-1.0664-1.1992-1.8555-1.043h-0.003907c-0.84766 0.16797-1.7109 0.27344-2.5781 0.31641-0.64844 0.035156-1.2578 0.33984-1.6758 0.83594-0.41797 0.5-0.61328 1.1484-0.53516 1.793 1.4766 12.273 12.922 16.449 12.922 16.449 7.9961 2.8672 12.336 8.0078 14.422 11.363h0.003906c0.35547 0.57031 0.97656 0.91406 1.6484 0.91406 0.66797 0 1.2891-0.34375 1.6445-0.91406 2.0938-3.3477 6.4258-8.5 14.422-11.359h0.003906c1.2109-0.48828 2.3711-1.0938 3.4609-1.8164z"/>
  <path d="m58.414 48.844c0.066407-0.19531 0.125-0.39062 0.17578-0.58594h-0.003906c0.13672-0.46875 0.003906-0.97266-0.33984-1.3203-1.3984-1.3867-2.3906-3.3789-2.4883-6.25 0 0-0.33203-5.4961 3.9531-8.5391 0.63281-0.45313 0.86328-1.2891 0.55078-2.0039-2.4492-5.75-7.1953-10.215-13.086-12.305s-12.387-1.6172-17.914 1.3008c-0.30859 0.16406-0.52344 0.46094-0.57422 0.80469-0.054688 0.34766 0.058594 0.69531 0.30469 0.94531l28.234 28.242c0.17578 0.17578 0.42969 0.24609 0.67188 0.1875 0.24219-0.058593 0.4375-0.23828 0.51562-0.47656z"/>
  <path d="m19.441 29.441c-0.15234 0.32031-0.29688 0.64844-0.43359 0.97656-0.24219 0.60547-0.023437 1.2969 0.52344 1.6523 4.4297 3.0195 4.0898 8.6328 4.0898 8.6328-0.097656 2.7891-1.0469 4.7578-2.3828 6.1367l-0.003906 0.003906c-0.41016 0.42578-0.55859 1.0391-0.39062 1.6055 0.75391 2.5469 2.7344 6.3203 7.957 9.1875 6.0547 3.3203 9.2773 5.4883 10.891 6.6836 1.4492-1.0781 4.1953-2.9297 9.1172-5.6992l0.003906 0.003906c0.26172-0.15234 0.4375-0.41406 0.48047-0.71484 0.039062-0.29688-0.058594-0.59766-0.26953-0.8125l-27.93-27.941c-0.23438-0.24219-0.57031-0.35156-0.90234-0.29297-0.32812 0.058594-0.60938 0.27344-0.75 0.57812z"/>
  <path d="m24.047 15.953c0.57422 0.57031 1.4648 0.67578 2.1602 0.25781 6.6484-3.9531 14.695-4.7891 22.02-2.293 7.3203 2.4922 13.18 8.0742 16.031 15.262 0.26172 0.66797 0.91797 1.0898 1.6328 1.0469 0.6875-0.035156 1.375-0.035156 2.0625 0 0.58984 0.023438 1.1602-0.21094 1.5664-0.64453 0.40234-0.42969 0.60156-1.0156 0.54297-1.6055-0.50781-5.2266-3.4375-17.383-19.477-22.289l-0.003907 0.003906c-7.1641-2.1836-14.816-2.1641-21.969 0.058594h-0.003906c-3.0938 0.92969-6.0273 2.3281-8.6992 4.1445-0.28125 0.19531-0.46094 0.5-0.49219 0.83984s0.089843 0.67578 0.33203 0.91797z"/>
  <path d="m10.949 21.172c-0.84766 2.1875-1.3984 4.4766-1.6289 6.8086-0.058593 0.58984 0.14453 1.1797 0.55469 1.6094 0.41016 0.42969 0.98828 0.66016 1.5781 0.63281 0.74609-0.035156 1.4961-0.03125 2.2383 0.015625h0.003906c0.58984 0.039063 1.1367-0.3125 1.3516-0.86328h0.003906c0.40625-1.0391 0.87891-2.0547 1.4141-3.0352h-0.003906c0.38281-0.68359 0.26562-1.5352-0.28906-2.0938l-3.4414-3.4414c-0.25781-0.25781-0.62891-0.36719-0.98828-0.29688-0.35938 0.074219-0.65625 0.32422-0.79297 0.66406z"/>
  <path d="m59.672 82.457c1.5469-0.53516 4.0312-1.3281 6.1914-1.7031h-0.003906c0.16406-0.027344 0.30078-0.13672 0.36328-0.28906 0.058594-0.15625 0.03125-0.32812-0.066406-0.45703-0.50781-0.63281-0.92578-1.7148 0.39062-3.0234l0.73438-0.73047-0.003906-0.003906c0.66406-0.66406 1.5625-1.0352 2.5039-1.0352 0.9375 0 1.8359 0.37109 2.5 1.0352l1.0938 1.0898h-0.003906c1.9766 1.9414 2.9258 4.6953 2.5703 7.4375-0.03125 0.23438-0.078125 0.46875-0.13281 0.70703-0.21484 1.0039 0.1875 2.043 1.0273 2.6328 3.125 2.2227 10.734 7.0312 19.418 8.1211-1.0859-8.6875-5.9023-16.301-8.125-19.422h0.003906c-0.58984-0.83984-1.625-1.2422-2.625-1.0234-0.58203 0.12891-1.1758 0.20312-1.7695 0.21484-2.3828 0.027344-4.6719-0.91797-6.3438-2.6172l-1.1367-1.125c-0.66016-0.66406-1.0352-1.5625-1.0352-2.5039 0-0.9375 0.375-1.8398 1.0352-2.5039l0.73438-0.73437c1.3047-1.3047 2.3906-0.89063 3.0234-0.39063v0.003907c0.12891 0.10156 0.30469 0.125 0.45703 0.066406 0.15625-0.058594 0.26562-0.19531 0.29297-0.35938 0.375-2.1602 1.1719-4.6445 1.7031-6.1914 0.09375-0.27344 0.023438-0.57422-0.17969-0.77734-0.20312-0.19922-0.50391-0.26953-0.77344-0.17578-1.5469 0.53516-4.0312 1.3281-6.1914 1.7031h-0.003907c-0.16016 0.027344-0.29687 0.14062-0.35547 0.29297-0.058594 0.15234-0.035156 0.32813 0.066406 0.45703 0.50781 0.63281 0.92578 1.7148-0.39062 3.0234l-0.73047 0.73438c-1.3828 1.3789-3.6211 1.3789-5.0039 0l-60.273-60.277c-1.0625-1.0625-2.7891-1.1875-3.9062-0.19531-0.58984 0.51562-0.9375 1.25-0.96094 2.0312-0.027344 0.77734 0.26953 1.5352 0.82031 2.0859l60.352 60.352c0.66406 0.66406 1.0391 1.5625 1.0391 2.5039 0 0.9375-0.375 1.8398-1.0391 2.5039l-0.73438 0.73438c-1.3047 1.3047-2.3906 0.89062-3.0234 0.39062l0.003906-0.003906c-0.12891-0.10156-0.30469-0.125-0.45703-0.066406-0.15625 0.058594-0.26562 0.19531-0.29297 0.35938-0.375 2.1484-1.1719 4.6445-1.7031 6.1914h0.003906c-0.085937 0.26562-0.015625 0.55469 0.18359 0.75391 0.19531 0.19531 0.48438 0.26562 0.75391 0.18359z"/>
 </g>
</svg>
