<?xml version="1.0" encoding="UTF-8"?>
<svg width="100pt" height="100pt" version="1.1" viewBox="0 0 100 100" xmlns="http://www.w3.org/2000/svg">
 <g>
  <path d="m44.75 33.496h11.582c0.76562 0 1.3828 0.76562 1.3828 1.3828v2.6562c0 0.76562-0.61719 1.3828-1.3828 1.3828h-11.582c-0.76562 0-1.3828-0.76562-1.3828-1.3828v-2.6562c0-0.76562 0.61719-1.3828 1.3828-1.3828z"/>
  <path d="m55.633 50.559v-7.3945c0-0.73828-0.59766-1.3359-1.3359-1.3359h-7.5156c-0.73828 0-1.3359 0.59766-1.3359 1.3359v7.3984c-6.4609 1.3867-12.082 5.3438-15.562 10.961-3.4805 5.6172-4.5234 12.414-2.8867 18.816 1.6367 6.4023 5.8125 11.863 11.562 15.121 1.0391 0.58203 2.207 0.88281 3.3945 0.87891h17.168c1.1914 0.003906 2.3633-0.29688 3.4023-0.87891 5.7461-3.2617 9.918-8.7227 11.555-15.125 1.6328-6.4023 0.59375-13.195-2.8867-18.812-3.4805-5.6172-9.1016-9.5742-15.559-10.961zm0.66797 7.8398c0.78516 0 1.4922 0.47266 1.793 1.1953s0.13281 1.5586-0.42188 2.1133c-0.55078 0.55469-1.3867 0.71875-2.1094 0.41797-0.72656-0.29688-1.1953-1.0039-1.1953-1.7891h-0.003907c0-1.0703 0.86719-1.9375 1.9375-1.9375zm-15.43 3.8398c1.1211 0 2.1328 0.67578 2.5625 1.7109 0.42969 1.0352 0.19141 2.2266-0.60156 3.0195s-1.9844 1.0312-3.0195 0.60156c-1.0352-0.42969-1.7109-1.4414-1.7109-2.5625 0-0.73828 0.29297-1.4414 0.8125-1.9648 0.51953-0.51953 1.2266-0.8125 1.9648-0.80859zm26.605 12.031v0.003907c0 4.4922-1.7852 8.7969-4.9609 11.973-3.1797 3.1797-7.4844 4.9648-11.977 4.9648-10.492 0-15.613-8.418-16.562-13.648h-0.003906c-0.16016-0.93359 0.12891-1.8906 0.78516-2.582 0.65234-0.6875 1.5938-1.0234 2.5352-0.91016 1.0938 0.125 2.2969 0.21875 3.5156 0.25v-0.003906c2.7812 0.039063 5.5117-0.72656 7.8672-2.2031 3.4023-2.0938 10.156-4.832 17.578-0.085937 0.76562 0.48047 1.2305 1.3203 1.2383 2.2227z"/>
  <path d="m51.027 83.363c0 4.2734-6.4102 4.2734-6.4102 0 0-4.2734 6.4102-4.2734 6.4102 0"/>
  <path d="m59.172 77.031c0 2.5781-3.875 2.5781-3.875 0 0-2.582 3.875-2.582 3.875 0"/>
  <path d="m20.555 7.8594c0.015624 0.078125 0.03125 0.16406 0.050781 0.24609h-0.003907c0.28516 1.0977 1.0078 2.0312 1.9922 2.582h0.003906c0.87891 0.52344 1.8906 0.78906 2.9141 0.76953 0.71484-0.023437 1.3867-0.35156 1.8398-0.90625 0.45313-0.55469 0.64453-1.2734 0.52344-1.9805-0.21484-1.2422-0.80078-2.7344-2.2852-3.7578-2.3164-1.6094-5.5273 0.26562-5.0352 3.0469z"/>
  <path d="m39.352 29.953c-1.6484-1.7812-3.7461-2.7344-5.3047-3.2109-1.0977-0.34375-2.2539-0.46094-3.3984-0.33984-0.70313 0.074218-1.4141 0.11328-2.1211 0.11328-6.3281 0-9.0703-3.2734-10.086-5.0234v0.003906c-0.55078-0.92188-0.31641-2.1094 0.54297-2.7461 0.46875-0.32812 1.0547-0.44141 1.6133-0.31641s1.0352 0.48438 1.3164 0.98047c0.60938 1.0859 1.9688 2.5508 4.9141 2.9531 0.84375 0.12109 1.6328-0.44531 1.793-1.2812v-0.042969c0.47656-2.4414-0.53516-4.9336-2.5742-6.3555-1.332-0.89453-2.8477-1.4805-4.4375-1.707-8.6484-1.457-12.711 5.3164-12.711 5.3164-2.3047 3.5156-2.4609 6.8359-1.7578 9.6094 1.8008 7.0938 9.3867 11.016 16.34 8.7305v0.003906c2.4102-0.8125 4.6992-1.9414 6.8086-3.3594 2.8203-1.8828 6.1172-1.9648 8.25-1.7461 0.39063 0.042969 0.76953-0.16016 0.95313-0.50781 0.17969-0.35156 0.125-0.77734-0.14063-1.0742z"/>
  <path d="m61.086 27.211c1.5078-1.9023 3.5234-3 5.0469-3.6094 1.0664-0.42969 2.2109-0.63672 3.3594-0.60156 0.71094 0.019531 1.418 0.003906 2.125-0.046875 6.3086-0.48438 8.7891-3.9609 9.6719-5.7812 0.48438-0.96094 0.15625-2.1289-0.75391-2.7031-0.49219-0.29297-1.0859-0.36328-1.6328-0.19141-0.55078 0.16797-1 0.5625-1.2461 1.082-0.52344 1.1328-1.7695 2.6953-4.6719 3.3203-0.83203 0.19141-1.668-0.3125-1.8906-1.1406l-0.011719-0.039062c-0.66016-2.4023 0.15625-4.9648 2.082-6.5391v0.003906c1.2617-0.99609 2.7305-1.6953 4.2969-2.0469 8.5312-2.1016 13.098 4.3359 13.098 4.3359 2.5625 3.3359 2.9766 6.6289 2.4844 9.4453-1.25 7.2109-8.5156 11.703-15.625 9.9609l0.003906 0.003906c-2.4648-0.625-4.8359-1.5742-7.0469-2.8242-2.957-1.6602-6.25-1.4922-8.3555-1.1094v-0.003907c-0.39062 0.078126-0.78906-0.097656-0.99609-0.43359-0.20703-0.33984-0.18359-0.76953 0.0625-1.082z"/>
  <path d="m62.031 3.8359c-1.0352-0.17188-2.0898-0.21484-3.1406-0.125-2.5977 0.10156-5.1406 0.78125-7.4453 1.9883-0.25781 0.14062-0.51562 0.26562-0.78125 0.39062-0.29297 0.12109-0.46875 0.42188-0.4375 0.73438 0.03125 0.31641 0.26953 0.57422 0.57813 0.63281 0.83594 0.17188 1.6875 0.26172 2.5391 0.26172 1.1016-0.003906 2.0117 0.85156 2.0742 1.9531 0.023437 0.55078-0.17969 1.0898-0.5625 1.4883-0.38281 0.39844-0.91016 0.62109-1.4648 0.62109-5.7422 0-9.4062-2.7109-11.375-4.793v0.003907c-1.5586-1.6758-4.0117-2.168-6.0977-1.2266-0.09375 0.046875-0.19531 0.089844-0.28125 0.14062-2.5 1.3281-3.7383 4.1836-3.3008 6.9844 0.35937 2.3047 1.7578 5.1328 5.9531 6.957v-0.003906c2.0117 0.84375 3.8242 2.0859 5.3359 3.6562 1.6602 1.7539 3.0117 3.7734 4 5.9766h0.003906c0.13672 0.31641 0.45312 0.50781 0.79688 0.48828 0.33984-0.023438 0.63281-0.25781 0.73047-0.58594 0.32031-1.1172 0.64844-2.1094 1.2188-3h-0.003906c0.21094-0.32422 0.57812-0.50781 0.96094-0.48047 0.38281 0.023437 0.72266 0.25391 0.88672 0.60156l0.027344 0.054688c0.16406 0.33984 0.50781 0.55469 0.88672 0.55469 0.37891-0.003906 0.72266-0.22266 0.88281-0.56641 0.875-1.918 2.8438-4.6211 7.207-6.25 4.5625-1.6953 5.9766-5.7383 6.3906-8.5352 0.55078-3.7344-1.875-7.2656-5.582-7.9219z"/>
 </g>
</svg>
