<?xml version="1.0" encoding="UTF-8"?>
<svg width="100pt" height="100pt" version="1.1" viewBox="0 0 100 100" xmlns="http://www.w3.org/2000/svg">
 <g>
  <path d="m58.078 45.992c-0.14062-0.26563-0.13281-0.58203 0.019531-0.83984 0.15234-0.25781 0.42969-0.41406 0.72656-0.41406h1.9531c0.76562 0 1.4688 0.41797 1.832 1.0898l0.4375 0.80469 3.2266-5.9531h-21.473l-2.4883 4.5898c-0.14844 0.27344-0.43359 0.44141-0.74609 0.44141-0.30859 0-0.59375-0.16797-0.74609-0.44141l-1.0234-1.8906v0.003906c-0.33594-0.62109-0.33594-1.3711 0-1.9922l0.39062-0.71094h-6.4609l11.078 20.422h4.4336-0.003906c0.29688 0 0.57422 0.15625 0.72656 0.41406 0.15234 0.25781 0.16016 0.57422 0.015624 0.83984l-0.92969 1.707c-0.36328 0.67188-1.0664 1.0898-1.8281 1.0938h-0.21484l2.9961 5.5312 10.742-19.797z"/>
  <path d="m50 3.6875c-25.578 0-46.312 20.734-46.312 46.312s20.734 46.312 46.312 46.312 46.312-20.727 46.312-46.312-20.727-46.312-46.312-46.312zm0 83.648c-20.586 0-37.336-16.75-37.336-37.336 0-20.59 16.75-37.336 37.336-37.336s37.336 16.75 37.336 37.336-16.75 37.336-37.336 37.336z"/>
  <path d="m50 16.719c-18.348 0-33.281 14.934-33.281 33.281 0 18.352 14.934 33.281 33.281 33.281 18.352 0 33.281-14.922 33.281-33.281s-14.922-33.281-33.281-33.281zm15.883 43.652v0.003906c-0.33594-0.62109-0.33594-1.3672 0-1.9883l1.0234-1.8906v0.003906c0.14844-0.27344 0.43359-0.44531 0.74609-0.44531 0.30859 0 0.59766 0.17187 0.74609 0.44531l3.0742 5.6641h-0.003906c0.45703 0.83984 0.26172 1.8828-0.46094 2.5078-0.38281 0.32031-0.86719 0.49609-1.3672 0.48828h-12.023l-5.8281 10.742h-0.003906c-0.35156 0.65234-1.0391 1.0625-1.7812 1.0625-0.74219 0-1.4297-0.41016-1.7852-1.0625l-11.266-20.754-3.2266 5.9531h0.64063-0.003907c0.76562 0 1.4688 0.41797 1.832 1.0938l0.92969 1.7148c0.14453 0.26172 0.13672 0.58203-0.015625 0.83594-0.15234 0.25781-0.42969 0.41406-0.72656 0.41797h-6.0703c-0.87891-0.003906-1.6562-0.57031-1.9297-1.4023-0.16797-0.55859-0.10156-1.1562 0.18359-1.6602l6.0781-11.211-6.1133-11.273v0.003906c-0.45703-0.84375-0.26562-1.8867 0.46094-2.5117 0.38281-0.32031 0.86719-0.49609 1.3672-0.48828h22.637l-2.9961-5.5234-0.19531 0.375c-0.36328 0.67188-1.0664 1.0898-1.832 1.0898h-1.9531c-0.29688 0-0.57422-0.15625-0.72656-0.41406-0.15234-0.25781-0.16016-0.57422-0.019531-0.83594l2.9297-5.3828v-0.003907c0.27734-0.52734 0.76562-0.91406 1.3438-1.0586 0.89453-0.21094 1.8164 0.19922 2.25 1.0078l5.8281 10.742h12.023c0.5-0.007813 0.98437 0.16406 1.3672 0.48437 0.72266 0.625 0.91797 1.6719 0.46094 2.5117l-11.656 21.484h6.4609z"/>
 </g>
</svg>
