<?xml version="1.0" encoding="UTF-8"?>
<svg width="100pt" height="100pt" version="1.1" viewBox="0 0 100 100" xmlns="http://www.w3.org/2000/svg">
 <g>
  <path d="m33.008 27.719c0.46875 1.5117 1.0547 3.1094 1.7344 4.7617v-0.003907c0.14844 0.35156 0.42969 0.62109 0.78516 0.75391 0.35156 0.12891 0.74609 0.10547 1.082-0.066407 1.75-0.86719 3.582-1.5664 5.4688-2.0781 0.36719-0.10547 0.67578-0.36328 0.84375-0.70703s0.18359-0.74609 0.039063-1.0977c-2.4492-6.1016-4.0859-10.938-4.9453-13.625v-0.003906c-0.44141-1.3672-1.7461-2.2656-3.1797-2.1992-13.477 0.60156-20.758-5.3984-23.828-8.8984h-0.003906c-0.43359-0.49219-1.0859-0.73438-1.7344-0.63672-0.64844 0.097656-1.207 0.51562-1.4805 1.1133-10.07 22.195 1.6641 36.031 7.0664 40.883 0.49219 0.44141 1.1758 0.60156 1.8125 0.42188 0.63672-0.17578 1.1406-0.66406 1.332-1.2969 3.8281-12.492 15.008-17.32 15.008-17.32z"/>
  <path d="m74.098 82.215c-0.23047-0.26172-0.45703-0.52344-0.6875-0.78906l0.003906-0.003906c-0.23047-0.26172-0.55469-0.41406-0.90234-0.42188-0.34766-0.011719-0.68359 0.125-0.92578 0.375-1.0898 1.1133-2.2656 2.1406-3.5156 3.0781-0.5 0.375-0.64062 1.0742-0.32031 1.6172 2.1172 3.6094 3.0703 6.0547 3.5781 8.1758v-0.003906c0.26953 1.0938 1.2461 1.8633 2.3711 1.8594h3.4023c0.71094 0 1.3906-0.3125 1.8555-0.85547 0.46484-0.54297 0.67188-1.2617 0.5625-1.9688-0.89453-5.9961-5.4219-11.062-5.4219-11.062z"/>
  <path d="m28.414 81.375c-0.24219-0.25-0.57812-0.38672-0.92578-0.375-0.34766 0.007812-0.67188 0.16016-0.90234 0.42188-0.22656 0.26172-0.45313 0.52344-0.6875 0.78906 0 0-4.5273 5.0664-5.4258 11.062l0.003906 0.007812c-0.10937 0.70312 0.097657 1.4219 0.5625 1.9648 0.46484 0.54297 1.1445 0.85547 1.8594 0.85547h3.3984c1.125 0.003907 2.1016-0.76562 2.3711-1.8594 0.50781-2.1172 1.4648-4.5625 3.5781-8.1758 0.32031-0.53906 0.18359-1.2383-0.32031-1.6172v0.003906c-1.25-0.9375-2.4219-1.9648-3.5156-3.0781z"/>
  <path d="m92.211 5.0312c-0.26953-0.59766-0.82813-1.0156-1.4766-1.1133-0.64844-0.097657-1.3008 0.14453-1.7344 0.63672-3.0781 3.5-10.363 9.5-23.828 8.8984-1.4375-0.066406-2.7422 0.83203-3.1797 2.2031-0.875 2.7031-2.5078 7.5195-4.9609 13.625-0.14453 0.35547-0.12891 0.75391 0.039062 1.0977 0.16797 0.34766 0.47266 0.60156 0.84375 0.70703 1.8867 0.51172 3.7188 1.2109 5.4688 2.0781 0.33594 0.17188 0.73047 0.19531 1.082 0.066407 0.35547-0.13281 0.63672-0.40234 0.78516-0.75391 0.67969-1.6562 1.2656-3.25 1.7344-4.7617 0 0 11.18 4.8281 15 17.32v0.003906c0.19531 0.63281 0.69922 1.1211 1.3359 1.2969 0.63672 0.17969 1.3203 0.019531 1.8125-0.42188 5.4141-4.8516 17.145-18.688 7.0781-40.883z"/>
  <path d="m50 34.086c-6.9375 0-13.594 2.7578-18.5 7.6641-4.9062 4.9023-7.6641 11.559-7.6641 18.496s2.7539 13.594 7.6602 18.5c4.9023 4.9062 11.555 7.6641 18.496 7.6641 6.9375 0.003906 13.59-2.75 18.5-7.6562 4.9062-4.9023 7.6641-11.555 7.668-18.492v-0.003907c0.003906-6.9375-2.75-13.594-7.6562-18.504s-11.562-7.668-18.504-7.668zm0 45.773v0.003906c-5.2031 0-10.191-2.0664-13.867-5.7461-3.6797-3.6758-5.7461-8.6641-5.7461-13.867s2.0664-10.191 5.7461-13.867c3.6758-3.6797 8.6641-5.7461 13.867-5.7461s10.191 2.0664 13.867 5.7461c3.6797 3.6758 5.7461 8.6641 5.7461 13.867-0.007812 5.1992-2.0742 10.184-5.75 13.863-3.6797 3.6758-8.6641 5.7422-13.863 5.75z"/>
  <path d="m50 44.695c-4.125 0-8.082 1.6406-11 4.5547-2.9141 2.918-4.5547 6.875-4.5547 11s1.6406 8.082 4.5547 11c2.918 2.9141 6.875 4.5547 11 4.5547s8.082-1.6406 11-4.5547c2.9141-2.918 4.5547-6.875 4.5547-11-0.003907-4.125-1.6445-8.0781-4.5625-10.992-2.9141-2.918-6.8672-4.5586-10.992-4.5625zm0 20.984c-2.1953 0-4.1758-1.3242-5.0156-3.3516s-0.375-4.3633 1.1758-5.918c1.5547-1.5508 3.8906-2.0156 5.918-1.1758s3.3516 2.8203 3.3516 5.0156c0 1.4414-0.57031 2.8203-1.5898 3.8398-1.0195 1.0195-2.3984 1.5898-3.8398 1.5898z"/>
 </g>
</svg>
