<?xml version="1.0" encoding="UTF-8"?>
<svg width="100pt" height="100pt" version="1.1" viewBox="0 0 100 100" xmlns="http://www.w3.org/2000/svg">
 <path d="m50.297 44.98c-3.1875 0.82812-15.938 9.918-15.938 9.918l3.6602-8.5zm16.527-19.953c-23.258 24.91-14.168-6.2578-3.3047-22.078-14.875 9.5625-21.84 29.754-21.84 29.754l2.3594-21.016c-5.1953 4.3672-9.918 14.168-10.152 22.195-0.23438 8.0273-6.0195 12.988-6.0195 12.988-6.6133 27.625-17.473 8.9727-17.473 8.9727-5.3125 21.133 11.57 27.863 11.57 27.863-0.82812-6.8477 2.7148-10.273 2.7148-10.273 0.35547 4.957 3.3047 6.7305 3.3047 6.7305-1.2969-3.6602 2.3594-8.1445 2.3594-8.1445 0 3.0703 3.543 4.0156 3.543 4.0156 3.3047-19.715 15.348-14.402 15.348-14.402 5.668 15.82-17.828 19.125-17.828 19.125 0.35547 3.543 4.4883 4.1328 4.4883 4.1328-2.832 3.1875-10.035 1.7695-10.035 1.7695 7.2031 12.516 21.371 10.391 21.371 10.391-8.6172-10.742-2.5977-17.473 11.805-11.453-10.625-32.469 32.82-21.016 32.82-21.016-17.473-9.6797-29.043-16.059-2.9531-27.391 13.578-5.9023-37.664 16.766-22.078-12.16z" fill-rule="evenodd"/>
</svg>
