<?xml version="1.0" encoding="UTF-8"?>
<svg width="100pt" height="100pt" version="1.1" viewBox="0 0 100 100" xmlns="http://www.w3.org/2000/svg">
 <g>
  <path d="m15.977 77.5c4.5 3.1641 13.266 5.7734 30.312 3.5547 1.3906-0.17969 1.4141-2.1875 0.03125-2.4062-5.2734-0.83594-11.988-2.2422-16.875-4.4219-3.6484-1.625-3.9805-6.6719-0.58594-8.7891 1.6133-1.0078 3.8203-2.0352 6.8359-2.9766 1.2617-0.39063 0.93359-2.2734-0.39062-2.2109-6.0234 0.27734-13.82 1.4922-19.375 5.4688v0.007812c-1.9141 1.3516-3.0508 3.5508-3.043 5.8984 0.011719 2.3438 1.1602 4.5391 3.0898 5.875z"/>
  <path d="m62.43 62.215c0 3.0117-5.5781 3.0117-5.5781 0 0-3.0117 5.5781-3.0117 5.5781 0"/>
  <path d="m72.922 72.484c-2.5391 1.8633-6.5391 3.8086-11.805 5.5234-1.1445 0.375-0.84375 2.0664 0.35937 2.0156 7.2266-0.30469 16.539-1.4531 22.375-5.0117 2.1836-1.332 3.4922-3.7891 3.2344-6.3359-0.27344-2.75-2.3672-5.9062-9.8906-7.1016 0 0-3.5781-0.67188-8.3789-0.25391-1.7578 0.15625-2.1172 2.5977-0.46094 3.2109 1.1641 0.43359 2.4766 0.72656 3.8359 1.3086 2.7305 1.1758 3.125 4.8789 0.73047 6.6445z"/>
  <path d="m49.906 4.5312c-0.32422-0.52344-0.89453-0.83984-1.5078-0.83984-0.61719 0-1.1875 0.31641-1.5078 0.84375-5.6523 9.1797-10.105 21.961-12.383 29.223v-0.003906c-0.29687 0.94141 0.007813 1.9727 0.76953 2.5977 0.76562 0.62891 1.832 0.73438 2.6992 0.26563 0.63281-0.33984 1.3789-0.38281 2.043-0.12109 0.66406 0.26562 1.1797 0.80859 1.4023 1.4883 2.9297 8.8047 3.9062 26.367 4.1719 33.078 0.058594 1.5039 1.2969 2.6953 2.8047 2.6953 1.5039 0 2.7422-1.1914 2.7969-2.6953 0.27344-6.7031 1.25-24.273 4.1719-33.078 0.22656-0.67969 0.74219-1.2227 1.4062-1.4883 0.66406-0.26172 1.4102-0.21875 2.0391 0.12109 0.87109 0.46875 1.9375 0.36328 2.7031-0.26563 0.76172-0.625 1.0664-1.6562 0.77344-2.5977-2.2812-7.2617-6.7344-20.047-12.383-29.223z"/>
  <path d="m46.457 85.055c-0.48438 0.65234-0.73047 1.4531-0.69531 2.2656 0.035156 1.2227 0.97656 5.1992 1.7305 8.2422 0.10156 0.44141 0.49609 0.75391 0.95312 0.75391 0.45313 0 0.84766-0.3125 0.94922-0.75391 0.71875-2.9922 1.5977-6.8789 1.6367-8.1328 0.035156-0.76953-0.1875-1.5312-0.625-2.1641-1.1719-1.6406-2.8906-1.5664-3.9492-0.21094z"/>
 </g>
</svg>
