<?xml version="1.0" encoding="UTF-8"?>
<svg width="100pt" height="100pt" version="1.1" viewBox="0 0 100 100" xmlns="http://www.w3.org/2000/svg">
 <g>
  <path d="m13.312 20.117c0.25 0.3125 0.67578 0.41406 1.0391 0.25 0.36328-0.16016 0.57031-0.55078 0.5-0.94141l-0.91797-5.2734c-0.13672-0.78125-0.28906-2.0156-0.88281-3.125h0.003907c-0.32031-0.59766-0.74219-1.1406-1.2422-1.6016v0.003907c-0.50391-0.41797-1.1758-0.5625-1.8047-0.39844-0.63281 0.16406-1.1445 0.625-1.3789 1.2344-0.46484 1.2031-0.53516 3.0156 1.207 5.3281 1.375 1.8281 2.5547 3.3516 3.4766 4.5234z"/>
  <path d="m88.523 46.961c-1.5234 0.39062-3.3672 1.625-4.4297 5.0312-0.83594 2.6797-1.5078 4.9609-2.0078 6.7227-0.13672 0.47266 0.066406 0.97266 0.49219 1.2188s0.96094 0.17188 1.3047-0.18359l5.5273-5.6641c0.69141-0.69922 1.2578-1.5195 1.668-2.4141 0.30859-0.67969 0.50391-1.4062 0.57031-2.1484 0.046874-0.80078-0.29297-1.5742-0.91016-2.0781-0.61719-0.50781-1.4414-0.6875-2.2148-0.48437z"/>
  <path d="m88.281 76.199c-1.8203 0.78125-3.6641 1.4453-5.2852 1.9766v-0.003906c-1.168 0.38672-2.4531 0.15625-3.4141-0.60938-0.96484-0.76172-1.4766-1.9609-1.3711-3.1875 0.15234-1.6797 0.34375-3.3125 0.53125-4.6992v0.003907c0.066406-0.48828-0.1875-0.96484-0.63281-1.1758-0.44531-0.21094-0.97656-0.11328-1.3125 0.24609-0.98828 1.0312-2.0312 2.0117-3.125 2.9297-1.875 1.5781-4.7188 0.082031-4.4609-2.3516 0.66406-6.2812 1.9531-13.852 2.8359-18.672h0.003906c0.078125-0.43359-0.15234-0.86328-0.55859-1.0352-0.40625-0.16797-0.875-0.035156-1.1289 0.32422-1.7266 2.4375-3.6562 4.7188-5.7734 6.8281-3.0625 3.0625-8.3047 1.1406-8.6914-3.1719-1.0391-11.5-2.1289-26.844-2.7969-36.57-0.09375-1.3672-2.0508-1.4922-2.3203-0.14844-2.4375 12.18-5.8828 25.996-8.2266 35.035-1.1016 4.25-6.6523 5.2734-9.2188 1.707-5.4258-7.5273-10.656-16.621-13.953-22.656-0.6875-1.2578-2.6094-0.59766-2.375 0.82031 1.5938 9.5977 4.3281 24.391 5.8047 32.293l0.007812-0.003906c0.16797 0.89062-0.23047 1.7891-1 2.2656-0.76953 0.47266-1.7539 0.41797-2.4688-0.13281-3.2266-2.4688-5.9023-4.7383-7.9453-6.5703-0.96094-0.85547-2.3984 0.23047-1.8359 1.3906l7.9375 16.375c0.44141 0.91797 0.41016 1.9922-0.089843 2.8789-0.5 0.88672-1.4023 1.4727-2.418 1.5703l-1.8164 0.17188h0.003906c-0.72656 0.066406-1.3359 0.5625-1.5547 1.2578-0.21875 0.69141 0 1.4492 0.55469 1.918l6.875 5.832h10.125c0.37891 0 0.73828-0.17188 0.98047-0.46484 0.24219-0.29297 0.33594-0.68359 0.26172-1.0547-0.50781-2.4492-0.36328-5.6797 2.7344-8.0234 3.543-2.6797 6.7109-1.8633 8.4922-0.97656h-0.003906c0.92578 0.46094 2.0391 0.30469 2.8047-0.39062 1.4922-1.3477 4.1719-3.1758 7.5234-2.9297h-0.003907c1.9102 0.16797 3.7031 0.98438 5.0781 2.3203 1.0156 0.93359 1.8438 2.0508 2.4375 3.2969 0.51953 1.125 1.7969 1.6914 2.9805 1.3164 2.1719-0.6875 5.375-1.1523 7.5039 0.97656 1.3828 1.3828 1.875 3.125 1.9688 4.7188v0.003906c0.039063 0.67188 0.59375 1.1992 1.2656 1.2031h8.1016c1.7109-3.3789 5.6641-9.0703 8.4609-12.961v-0.003906c0.32422-0.45312 0.30859-1.0664-0.039063-1.5s-0.94141-0.58594-1.4531-0.36719z"/>
  <path d="m67.344 32.359c1.4102 0 2.6836-0.85156 3.2227-2.1562 0.53906-1.3047 0.24219-2.8047-0.75781-3.8047-0.99609-0.99609-2.5-1.2969-3.8008-0.75391-1.3047 0.53906-2.1562 1.8125-2.1562 3.2227 0 1.9258 1.5625 3.4922 3.4922 3.4922z"/>
 </g>
</svg>
