<?xml version="1.0" encoding="UTF-8"?>
<svg width="100pt" height="100pt" version="1.1" viewBox="0 0 100 100" xmlns="http://www.w3.org/2000/svg">
 <g>
  <path d="m10.332 45.906c6.9062 2.1094 16.27 5.4141 17.602 8.2031 1.5938 3.3203 2.6484 17.398 4.5195 27.691 0.46875 2.5625 4.1328 2.5625 4.5977 0 1.875-10.293 2.9297-24.363 4.5195-27.691 1.3281-2.7812 10.691-6.0859 17.602-8.2031 2.1016-0.64062 2.1016-3.6172 0-4.2578-6.9102-2.1094-16.273-5.4141-17.602-8.2031-1.5938-3.3203-2.6484-17.398-4.5195-27.691-0.46484-2.5625-4.1328-2.5625-4.5977 0-1.875 10.293-2.9297 24.363-4.5195 27.691-1.3281 2.7812-10.691 6.0859-17.602 8.2031-2.0977 0.64453-2.0977 3.6172 0 4.2578z"/>
  <path d="m90.176 67.648c-4.6875-1.4297-11.027-3.6719-11.93-5.5547-1.0781-2.2539-1.793-11.789-3.0625-18.766-0.31641-1.7344-2.8008-1.7344-3.125 0-1.2656 6.9766-1.9844 16.512-3.0625 18.766-0.90234 1.8828-7.2461 4.125-11.93 5.5547h0.003906c-0.63281 0.19141-1.0703 0.77734-1.0703 1.4414 0 0.66406 0.4375 1.25 1.0703 1.4414 4.6875 1.4297 11.027 3.6719 11.93 5.5547 1.0781 2.2539 1.793 11.789 3.0625 18.766 0.31641 1.7344 2.8008 1.7344 3.125 0 1.2695-6.9766 1.9844-16.512 3.0625-18.766 0.90234-1.8828 7.2461-4.125 11.93-5.5547h-0.003907c0.63281-0.19141 1.0703-0.77734 1.0703-1.4414 0-0.66406-0.4375-1.25-1.0703-1.4414z"/>
 </g>
</svg>
