<?xml version="1.0" encoding="UTF-8"?>
<svg width="100pt" height="100pt" version="1.1" viewBox="0 0 100 100" xmlns="http://www.w3.org/2000/svg">
 <g>
  <path d="m16.656 58.273c0.78125 0.72266 1.082 1.8242 0.78516 2.8438-0.29688 1.0234-1.1406 1.7891-2.1875 1.9844-1.1094 0.19922-2.2344 0.27344-3.3594 0.22656-1.625-0.078125-2.5391 1.8516-1.3984 3.0156 1.9141 1.9688 4.9844 4.1016 9.6484 4.8828 2.7031 0.46484 5.3203 1.332 7.7695 2.5703 1.5 0.75391 3.0547 1.4062 4.6484 1.9531 1.7031 0.57031 2.9766-1.6094 1.6328-2.8047-2.5117-2.2188-4.6914-4.7812-6.4688-7.6172-10.445-16.875-10.613-36.5 1.8672-45.312 4.0664-2.875 8.8672-4.1719 13.891-4.0547 1.7109 0.039062 2.2461-2.293 0.67969-2.9766l-0.003906-0.007813c-2.6094-1.1172-5.3555-1.8672-8.168-2.2344-1.6758-0.21875-2.8633-1.7383-2.6719-3.4141v-0.054687c0.14453-1.1797-0.37109-2.3438-1.3398-3.0312-0.97266-0.6875-2.2422-0.78906-3.3086-0.25781-5.4688 2.7344-13.227 9.7344-15.32 27.613-0.23828 2.0469-2.7344 2.9727-4.2266 1.5625l-0.13281-0.125c-1.6562-1.6094-4.4336-0.375-4.3242 1.9336 0.29297 5.8906 2.6211 14.656 11.988 23.305z"/>
  <path d="m91.977 48.344c0.41016 0.10156 0.80859 0.19531 1.1875 0.30859 1.5234 0.41797 2.8281-1.418 1.7812-2.5977-3.5938-4.0312-7.7812-7.9375-11.156-10.898-4.5586-4.0039-9.6523-7.3594-15.137-9.9609l-0.36328-0.17187c-1.1406-0.53906-2.1758 0.92969-1.2773 1.8164 1.9609 1.9336 3.7422 4.0391 5.332 6.2891 11.449 16.211 10.613 36.5-1.8672 45.312-4.3828 3.0938-13.102 3-18.84 2.5273-1.6094-0.13281-2.2422 2.0469-0.80469 2.7891 3.3672 1.7383 6.8359 2.375 9.1367 2.6055h-0.003906c0.74219 0.078125 1.4023 0.50781 1.7656 1.1602 0.36719 0.64844 0.39453 1.4336 0.074219 2.1094-0.76563 1.6328-1.9805 3.0078-3.1797 4.0781-1.0938 0.97656-0.26562 2.9062 1.1719 2.6406 12.082-2.2344 17.68-12.664 17.68-12.664h0.003907c1.2109-2.1562 2.6562-4.1758 4.3086-6.0195 0.92578-1.0273 2.2344-1.6289 3.6133-1.6562 1.3828-0.027344 2.7148 0.51953 3.6797 1.5078 0.54688 0.57031 1.0625 1.1719 1.5352 1.7578 1.3008 1.6172 3.9219 0.82812 4.082-1.2422 0.74219-9.7031-3.5156-19.387-5.6484-22.578v0.003907c-0.44922-0.67969-0.84766-1.3945-1.1914-2.1328-1.2578-2.7266 1.2031-5.6953 4.1172-4.9844z"/>
  <path d="m44.367 80.016c0-0.98047-0.58984-1.8672-1.4961-2.2422-0.91016-0.375-1.9531-0.16797-2.6484 0.52734-0.69531 0.69531-0.90234 1.7383-0.52734 2.6484 0.375 0.90625 1.2617 1.4961 2.2422 1.4961 1.3438 0 2.4297-1.0859 2.4297-2.4297z"/>
  <path d="m59.766 18.359c-1.1523-1.3828-2.8477-2.5547-5.2734-2.4453-0.96875 0.042969-1.8242 0.64844-2.1836 1.5508-0.35938 0.89844-0.16016 1.9258 0.51172 2.625 0.94141 0.97656 2.3984 1.8906 4.6367 2.2734 2.2422 0.38672 3.7695-2.2617 2.3086-4.0039z"/>
 </g>
</svg>
