<?xml version="1.0" encoding="UTF-8"?>
<svg width="100pt" height="100pt" version="1.1" viewBox="0 0 100 100" xmlns="http://www.w3.org/2000/svg">
 <g>
  <path d="m92.953 32.461c-8.7109-22.266-28.84-27.871-28.84-27.871-8.9844-2.8906-16.367-1.1562-21.305 1.0938-1.5781 0.71875-0.9375 3.0898 0.78906 2.8984 19.922-2.1797 30.578 9.5547 30.578 9.5547 6.6953 6.6953 9.457 14.105 10.5 20.102 0.92969 5.3516-0.14062 10.824-2.75 15.59-2.6406 4.8281-3.1055 10.758-3.1055 10.758 0.003907 0.003906-3.2891 16.648-27.867 14.711-23.988-1.8906-22.906-28.105-22.852-29.371v-0.10156h-0.003906c-0.125-2.3398-0.5-4.6562-1.1172-6.918-2.5664-9.1562-15.098-10.418-19.465-1.9688-0.078125 0.14844-0.11328 0.23047-0.11328 0.23047-9.0977 17.23 3.0977 37.738 3.0977 37.738s10.648 18.02 38.906 18.02c28.254 0 39.672-22.273 39.672-22.273 12.773-19.355 3.875-42.191 3.875-42.191z"/>
  <path d="m32.191 11.422c2.0664 3.5742-4.2188 7.2031-6.2852 3.6289-2.0625-3.5742 4.2227-7.2031 6.2852-3.6289"/>
 </g>
</svg>
