<?xml version="1.0" encoding="UTF-8"?>
<svg width="100pt" height="100pt" version="1.1" viewBox="0 0 100 100" xmlns="http://www.w3.org/2000/svg">
 <g>
  <path d="m46.359 82.672c0 3.1914-4.7891 3.1914-4.7891 0 0-3.1953 4.7891-3.1953 4.7891 0"/>
  <path d="m90.941 37.922c-0.73047-0.98828-0.74219-2.332-0.03125-3.3359l1.375-1.9531h0.003906c0.30078-0.41016 0.39063-0.94141 0.25-1.4297-0.16406-0.51562-0.57812-0.91016-1.0977-1.0469-0.51953-0.14062-1.0742-0.003906-1.4727 0.35938l-3.1797 2.9297-9.9453 9.7812h0.003906c-0.46484 0.47266-1.1719 0.61328-1.7773 0.35156-0.41797-0.17969-0.73437-0.53125-0.87109-0.96094-0.14062-0.42969-0.089844-0.89844 0.13672-1.2891l18.223-33.609c0.97656-1.9023-1.5625-3.6406-2.9727-2.0195l-15.535 17.914h0.003907c-0.9375 1.0742-2.4141 1.5-3.7734 1.0859-2.0039-0.62109-4.0508-1.0977-6.1211-1.4336 0 0-15.414-2.5703-31.836 4.9766-1.2656-3.4922-2.6836-7.4023-3.6484-10.133-0.41016-1.207-1.4805-2.0781-2.7461-2.2344-1.9648-0.21094-3.5703 1.3672-3.5781 3.3477-0.03125 5.3086 3.9414 18.008 4.457 19.469h-0.003906c0.34375 0.98828-0.14844 2.0703-1.1172 2.457-0.98047 0.36719-2.0742-0.089844-2.5078-1.0391-0.76172-1.6367-1.4258-3.3203-1.9844-5.0391l-1.3672-4.3203c-0.22656-0.75-0.99219-1.1992-1.7578-1.0352-0.71484 0.17969-1.1836 0.85547-1.1016 1.5859 0.22656 2.207-0.25781 4.7031-0.99219 7.0312-0.46484 1.457-1.1914 2.8164-2.1484 4.0117-11.105 13.906-9.6172 29.898-9.6172 29.898 1.1289 14.332 10.672 20.883 16.805 22.668 0.40234 0.11719 0.83594-0.070312 1.0234-0.44531 0.19141-0.375 0.089844-0.83203-0.24219-1.0898-17.785-13.867-6.1953-31.613-6.1953-31.613 3.2656-5.3281 7.8281-9.75 13.258-12.848 0.56641-0.32812 1.25-0.39453 1.8711-0.17969 0.62109 0.21875 1.1211 0.69141 1.3633 1.3008 2.7344 6.8594 5.4297 14.16 7.2266 19.641 0.30469 0.92969 1.6875 0.67188 1.6406-0.30859-0.28125-5.8594-4.3906-28.172-5.1055-31.211-0.28516-1.1484 0.39062-2.3242 1.5312-2.6523 0.55859-0.14844 1.1484-0.066406 1.6445 0.22656 0.49609 0.29688 0.85547 0.77734 0.99219 1.3359l1.2969 5.2109c0.25781 1.0352 1.2617 1.7031 2.3164 1.5391 1.8359-0.30469 3.6914-0.45703 5.5508-0.45703 0.29297 0.015625 0.58594 0.039063 0.86719 0.0625 0.50781 0.070313 4.6211 0.78125 4.7344 6.0859 0.011719 0.24219 0.17578 0.44922 0.41016 0.52344 0.23047 0.074219 0.48438-0.007812 0.63672-0.19922l8.6719-12.414c0.58203-0.86328 1.7422-1.1133 2.6328-0.57422 0.45703 0.27344 0.78516 0.72266 0.90234 1.2422 0.12109 0.51953 0.023437 1.0664-0.26953 1.5117l-11.984 18.164c-0.82812 1.2422 0.80469 2.6406 1.9062 1.6328l7.582-6.9375-0.003906 0.003907c0.62109-0.57031 1.457-0.84766 2.293-0.76563 0.83984 0.078126 1.6055 0.51172 2.1055 1.1914 4.6875 6.3789 4.3359 13.586 4.3359 13.586-0.11328 11.82-6.7344 19.352-12.914 23.812-0.88672 0.64062-0.085938 2.0156 0.91016 1.5625 4.9648-2.2031 11.055-5.4688 17.992-10.195 7.8828-5.375 12.211-14.145 14.5-20.848 2.2891-6.7031 1.7305-14.062-1.7734-20.188l-0.003906 0.003906c-0.53516-0.9375-1.1289-1.8359-1.7773-2.6992z"/>
 </g>
</svg>
