<?xml version="1.0" encoding="UTF-8"?>
<svg width="100pt" height="100pt" version="1.1" viewBox="0 0 100 100" xmlns="http://www.w3.org/2000/svg">
 <path d="m16.039 84.766c0.875-10.898 5.4688-26.832 22.227-41.668h0.003906c2.4492-2.1328 3.7734-5.2812 3.582-8.5273-0.15625-2.2891-1.0938-4.8672-3.6758-7.2578 0 0-7.3711-4.418-2.457-11.043s18.539-4.6367 18.539-4.6367 6.0547 0.625 9.7344 4.6875c2.582 2.8672 2.6445 7.1992 0.14844 10.141-1.9102 2.2422-5.3203 4.5156-11.359 5.0469-5.7461 0.5-9.2031 6.5234-6.6211 11.633 5.4414 10.766 12.293 27.094 14.535 44.477 0.85547 6.6406 8.625 9.9297 14.07 5.9609 8.5664-6.25 18.449-16.328 20.469-30.5l0.003906 0.003906c0.39453-2.9609-0.66797-5.9258-2.8555-7.957-3.5156-3.3203-8.4844-9.4648-7.3047-16.762 0.54688-3.3711 0.21875-5.9609-0.50391-7.9297-0.23438-0.64844-0.82031-1.1016-1.5078-1.1602-0.6875-0.058594-1.3438 0.28906-1.6797 0.89062l-0.015625 0.03125c-2.2734 3.9062-6.8203 8.6875-15.598 9.2969h-0.14063l-0.003906-0.003907c-1.1016 0-1.9961-0.89062-2.0039-1.9883 0.023438-1.0586 0.85547-1.9258 1.9141-1.9922 4.9141-0.35547 8.5-3.4297 10.773-6.2109 3.2422-3.9688 3.7812-9.4961 1.1523-13.883-2.2539-3.7578-6.9492-7.6953-16.504-9.75 0 0-23.68-4.6406-33.281 6.4062 0 0-4.5547 3.5664-3.8672 11.219l-0.003906-0.003906c0.10938 1.1445-0.52344 2.2305-1.5742 2.6992-2.2344 0.99219-5.6484 3.2539-5.4141 7.707h0.003907c0.046875 0.73828-0.17578 1.4688-0.625 2.0547-3.6406 4.6523-18.707 26.102-7.375 50.285 1.6406 3.5 6.9102 2.582 7.2148-1.2656z"/>
</svg>
