<?xml version="1.0" encoding="UTF-8"?>
<svg width="100pt" height="100pt" version="1.1" viewBox="0 0 100 100" xmlns="http://www.w3.org/2000/svg">
 <g>
  <path d="m18.25 40.445c0.75391 1.1875 2.0625 1.9062 3.4688 1.9062h32.531c2.4219-0.003906 4.7695 0.83594 6.6406 2.375 4.043 3.3164 4.9023 9.1602 1.9922 13.5l-4.1914 6.2422c-0.24609 0.35938-0.27344 0.82812-0.070312 1.2148 0.20703 0.38672 0.60938 0.625 1.0469 0.62109h19.762c0.88672 0 1.668-0.57422 1.9258-1.4219 0.95312-3.125 2.2734-7.1094 3.918-11.227 2.1016-5.1992 3.0195-10.805 2.6836-16.406-0.4375-6.7812-2.6328-15.203-9.5156-22.367 0 0-12.672-14.207-35.133-8.832 0 0-5.3438 1.4102-11.102 6.2695l23.555 16.355 0.003906 0.003907c0.90234 0.625 1.125 1.8633 0.5 2.7656-0.625 0.89844-1.8633 1.125-2.7656 0.49609l-29.035-20.145c-1.043-0.42969-2.2461-0.078125-2.8945 0.84375l-8.8516 12.539c-0.81641 1.1523-0.97656 2.6445-0.42578 3.9453 1.6797 3.9297 3.668 7.7148 5.957 11.324zm42.426-5.9297h-0.003906c0.30078-0.43359 0.76172-0.73047 1.2812-0.82422 0.51562-0.09375 1.0508 0.023438 1.4844 0.32422l0.29688 0.20312h-0.003906c0.90234 0.62891 1.125 1.8672 0.5 2.7656-0.625 0.90234-1.8633 1.125-2.7656 0.5l-0.29688-0.19531h0.003906c-0.4375-0.30078-0.73438-0.76172-0.82812-1.2812-0.09375-0.52344 0.027344-1.0586 0.32812-1.4922zm-27.137-5.8828 0.58594-1.3672c0.21094-0.48828 0.60156-0.86719 1.0898-1.0664 0.48828-0.19531 1.0352-0.1875 1.5195 0.019531 1.0117 0.42969 1.4766 1.5977 1.0469 2.6094l-0.58594 1.3594v-0.003906c-0.19141 0.45312-0.24219 0.95312-0.13672 1.4336l0.83203 3.8125c0.21094 1.0625-0.46875 2.0977-1.5273 2.3281-1.0547 0.23047-2.1016-0.42969-2.3555-1.4844l-0.82812-3.8125v0.003906c-0.28125-1.2852-0.15625-2.625 0.35937-3.832zm-10.992-4.5625 2.5938-3.6953v-0.007812c0.62891-0.89844 1.8711-1.1133 2.7695-0.48047 0.89844 0.62891 1.1133 1.8711 0.48047 2.7695l-2.5898 3.6875c-0.67969 0.96484-0.82812 2.207-0.39062 3.3008l2.1719 5.4688c0.38672 1.0156-0.11328 2.1484-1.1211 2.5508-1.0078 0.39844-2.1523-0.082031-2.5703-1.0859l-2.1758-5.4688c-0.92969-2.3359-0.61719-4.9844 0.83203-7.043z"/>
  <path d="m51.09 50.555-0.039063 0.078124h0.003907c-0.31641 1.875-1.9414 3.2422-3.8398 3.2344h-28.574c-1.5391 0-2.7852 1.2461-2.7852 2.7852v11.812c0 1.043 0.21094 2.0742 0.62109 3.0273 1.0781 2.5156 3.4688 7.7188 6.4648 11.898h-0.003906c0.77344 1.0742 2.1367 1.543 3.4102 1.1719l7.7188-2.2656h-0.003906c3.6953-1.082 6.957-3.3086 9.3047-6.3633l15.387-19.961h0.003906c1.6016-2.082 1.2969-5.0508-0.69141-6.7656-1.0508-0.90625-2.457-1.2812-3.8164-1.0195-1.3594 0.26562-2.5234 1.1367-3.1562 2.3672z"/>
  <path d="m77.648 70.277h-22.223c-0.39453 0-0.75781 0.19531-0.97656 0.52344l-4.6094 6.875-4.582 6.9531v-0.003906c-0.64062 0.97656-0.98047 2.1211-0.97656 3.2891v4.9492-0.003906c0 0.60938 0.24219 1.1914 0.67188 1.6211 0.42969 0.42969 1.0117 0.66797 1.6172 0.66797h38.766c0.62891 0.007812 1.2031-0.36719 1.4492-0.94531 0.25-0.57812 0.125-1.25-0.31641-1.7031-3.0938-3.2461-5.2617-7.2695-6.2656-11.641-0.63672-2.7383-0.82422-5.5586-0.55469-8.3555 0.054687-0.56641-0.12891-1.1328-0.50781-1.5547-0.38281-0.42578-0.92578-0.66797-1.4922-0.67188zm-24.562 18.375c-0.023438 0.12891-0.0625 0.25-0.11328 0.37109-0.046875 0.12109-0.10938 0.23437-0.17969 0.34375-0.074219 0.10937-0.16016 0.21094-0.25391 0.30078-0.37109 0.375-0.875 0.58594-1.4062 0.58594-0.12891 0-0.26172-0.011718-0.39062-0.035156-0.125-0.027344-0.25-0.066406-0.37109-0.11719v0.003907c-0.11719-0.050781-0.23438-0.11328-0.33984-0.18359-0.10938-0.074219-0.21094-0.15625-0.30469-0.25-0.18359-0.18359-0.32812-0.40234-0.42969-0.64453-0.046875-0.12109-0.085937-0.24219-0.11328-0.37109-0.12891-0.65234 0.074218-1.3242 0.54297-1.793 0.09375-0.09375 0.19531-0.17578 0.30469-0.24609 0.10547-0.074219 0.21875-0.13281 0.33984-0.17969 0.12109-0.050781 0.24609-0.089844 0.37109-0.11719 0.26172-0.050781 0.52344-0.050781 0.78125 0 0.12891 0.027344 0.25391 0.0625 0.375 0.11719h-0.003907c0.12109 0.046875 0.23828 0.10547 0.34375 0.17969 0.55469 0.36719 0.88672 0.98828 0.88281 1.6523 0.003906 0.12891-0.007813 0.25781-0.035156 0.38281zm11.812 1.0156c-0.37109 0.37109-0.875 0.58203-1.4062 0.58594h0.003906c-0.13281 0-0.26562-0.011718-0.39062-0.035156-0.12891-0.027344-0.25391-0.066406-0.37109-0.11719-0.12109-0.046874-0.23438-0.10937-0.33984-0.17969-0.11328-0.074219-0.21484-0.15625-0.30469-0.25-0.47266-0.46484-0.67969-1.1406-0.54297-1.7891 0.023437-0.12891 0.0625-0.25391 0.11328-0.375 0.050782-0.12109 0.10938-0.23437 0.18359-0.34375 0.070312-0.10547 0.15234-0.20703 0.24609-0.30078 0.089844-0.09375 0.19141-0.17578 0.30469-0.24609 0.10547-0.074219 0.21875-0.13281 0.33984-0.18359 0.11719-0.046875 0.24219-0.085938 0.37109-0.11328 0.78906-0.16016 1.5938 0.17188 2.0391 0.84375 0.070313 0.10938 0.13281 0.22266 0.18359 0.34375 0.046875 0.12109 0.085937 0.24609 0.10938 0.375 0.027344 0.12891 0.039062 0.25781 0.039062 0.39063 0 0.52344-0.21094 1.0234-0.57812 1.3945zm12.352 0h0.003906c-0.089844 0.09375-0.19141 0.17578-0.30078 0.24609-0.10938 0.074219-0.22266 0.13281-0.34375 0.18359-0.12109 0.050782-0.24219 0.089844-0.37109 0.11328-0.12891 0.027343-0.25781 0.039062-0.39062 0.039062-0.13281 0-0.26172-0.011719-0.39062-0.039062-0.12891-0.023438-0.25-0.0625-0.37109-0.11328-0.12109-0.050781-0.23438-0.10938-0.34375-0.18359-0.10938-0.070312-0.21094-0.15234-0.30078-0.24609-0.09375-0.089844-0.17578-0.19141-0.24609-0.30078-0.074218-0.10938-0.13281-0.22266-0.18359-0.34375-0.050781-0.12109-0.089844-0.24219-0.11328-0.37109-0.12891-0.65234 0.074218-1.3203 0.54297-1.793 0.089844-0.089844 0.19141-0.17578 0.30078-0.24609 0.10937-0.074219 0.22266-0.13281 0.34375-0.18359 0.12109-0.050782 0.24219-0.085938 0.37109-0.11328 0.25781-0.050781 0.52344-0.050781 0.78125 0 0.12891 0.027344 0.25 0.0625 0.37109 0.11328 0.12109 0.050781 0.23438 0.10937 0.34375 0.18359 0.10938 0.070313 0.21094 0.15234 0.30078 0.24609 0.375 0.37109 0.58203 0.87891 0.58203 1.4062 0 0.52344-0.20703 1.0312-0.58203 1.4023z"/>
 </g>
</svg>
