<?xml version="1.0" encoding="UTF-8"?>
<svg width="100pt" height="100pt" version="1.1" viewBox="0 0 100 100" xmlns="http://www.w3.org/2000/svg">
 <g>
  <path d="m8.3594 28.637h7.7109c0.76563 0 1.5078-0.27734 2.0859-0.78125l14.836-12.957c0.69141-0.60547 1.0898-1.4805 1.0859-2.3984v-3.9062c0-1.1484-0.92969-2.0781-2.0781-2.0781h-23.699c-1.1484-0.003906-2.082 0.92969-2.082 2.0781v17.902c0 0.56641 0.22266 1.1133 0.625 1.5156 0.40234 0.39844 0.94531 0.625 1.5156 0.625z"/>
  <path d="m67.008 14.895 14.828 12.961c0.57812 0.50391 1.3203 0.78125 2.0898 0.78125h7.7109c0.57031 0 1.1133-0.22266 1.5195-0.625 0.40234-0.39844 0.62891-0.94531 0.62891-1.5117v-17.906c-0.003906-1.1484-0.9375-2.0781-2.0859-2.0781h-23.699c-1.1445 0-2.0742 0.92969-2.0781 2.0781v3.9062c0 0.91797 0.39453 1.793 1.0859 2.3945z"/>
  <path d="m18.453 34.605 2.4141 9.0859c0.29297 1.0977 0.95703 2.0625 1.8828 2.7227l2.4453 1.7422 7.3281 3.8633c0.98828 0.52344 2.1641 0.57422 3.1992 0.14453l11.172-4.6719 0.003907-0.003907c0.99219-0.41406 2.0391-0.67969 3.1094-0.78125 1.0742 0.10156 2.1211 0.36719 3.1172 0.78125l11.172 4.6719v0.003906c1.0352 0.42969 2.2109 0.37891 3.2031-0.14453l7.3281-3.8633 2.4375-1.7422h-0.007813c0.92578-0.66016 1.5938-1.625 1.8828-2.7227l2.4141-9.0859c0.26172-0.98047-0.019532-2.0273-0.73828-2.7461l-20.48-17.898c-0.78125-0.8125-2.0508-0.90625-2.9414-0.21875l-7.3945 5.7422-7.3945-5.7422c-0.89062-0.68359-2.1523-0.58984-2.9297 0.21875l-20.48 17.898c-0.71875 0.71875-1 1.7656-0.74219 2.7461z"/>
  <path d="m29.23 76.098h41.539c1.0703 0 1.9531-0.91797 1.9922-2.0781 0.21875-6.9062 0.76562-13.684 1.2422-18.859 0.10938-1.1719-1.0469-1.9844-1.9961-1.4141l-4.2109 2.25v0.003906c-1.2227 0.74609-2.7461 0.79688-4.0156 0.12891l-10.703-5.0195c-0.96484-0.50391-2.0039-0.84766-3.0781-1.0234-1.0742 0.17578-2.1133 0.51953-3.0781 1.0234l-10.703 5.0195c-1.2695 0.66797-2.793 0.61719-4.0156-0.12891l-4.2109-2.25c-0.94922-0.57031-2.1016 0.24219-1.9961 1.4141 0.47656 5.1758 1.0234 11.953 1.2422 18.859 0.039063 1.1562 0.91797 2.0742 1.9922 2.0742z"/>
  <path d="m23.812 82.148-3.457 8.1445-0.003907-0.003907c-0.29687 0.71094-0.22266 1.5195 0.19922 2.1641 0.42578 0.64062 1.1406 1.0273 1.9102 1.0312h55.078c0.76953 0 1.4883-0.38672 1.9141-1.0312 0.42578-0.64062 0.5-1.4531 0.19922-2.1641l-3.457-8.1445v0.003907c-0.77344-1.8281-2.5664-3.0117-4.5469-3.0117h-43.289c-1.9844 0-3.7734 1.1836-4.5508 3.0117zm40.164 4.1289-0.003906-0.003906c0.027344-0.125 0.066406-0.25 0.11328-0.37109v0.003906c0.050781-0.12109 0.10937-0.23438 0.17969-0.34375 0.074219-0.10938 0.16016-0.21094 0.25-0.30469 0.375-0.37109 0.87891-0.58203 1.4062-0.58203s1.0312 0.21094 1.4023 0.58203c0.09375 0.09375 0.17578 0.19531 0.24609 0.30469 0.078126 0.10938 0.14453 0.22266 0.19531 0.34375 0.050781 0.11719 0.085937 0.24219 0.11328 0.36719 0.050782 0.26172 0.050782 0.52344 0 0.78125-0.027344 0.12891-0.0625 0.25391-0.11328 0.375-0.054687 0.12109-0.11719 0.23437-0.19531 0.34375-0.070312 0.10937-0.15234 0.20703-0.24609 0.29687-0.37109 0.375-0.875 0.58594-1.4023 0.58594s-1.0312-0.21094-1.4062-0.58594c-0.089844-0.089843-0.17578-0.19141-0.25-0.29687-0.066406-0.10938-0.12891-0.22656-0.17969-0.34375-0.046876-0.12109-0.085938-0.24609-0.11328-0.375-0.050781-0.25781-0.050781-0.51953 0-0.78125zm-15.922 0-0.003907-0.003906c0.027344-0.125 0.066407-0.25 0.11328-0.37109v0.003906c0.10547-0.24219 0.25-0.46094 0.43359-0.64844 0.37109-0.37109 0.875-0.57812 1.4023-0.57812s1.0312 0.20703 1.4023 0.57812c0.18359 0.1875 0.33203 0.40625 0.43359 0.64844 0.046874 0.11719 0.085937 0.24219 0.10937 0.36719 0.050782 0.26172 0.050782 0.52344 0 0.78125-0.023437 0.12891-0.0625 0.25391-0.11328 0.375h0.003907c-0.050782 0.12109-0.11328 0.23437-0.18359 0.34375-0.074219 0.10547-0.15625 0.20703-0.25 0.29687-0.37109 0.375-0.875 0.58203-1.4023 0.58203s-1.0312-0.20703-1.4023-0.58203c-0.09375-0.089843-0.17578-0.19141-0.24609-0.29687-0.074218-0.10938-0.13672-0.22266-0.1875-0.34375-0.046874-0.12109-0.085937-0.24609-0.10937-0.375h-0.003907c-0.046875-0.25781-0.046875-0.51953 0-0.78125zm-15.922 0v-0.003906c0.023438-0.125 0.0625-0.25 0.10938-0.37109v0.003906c0.050781-0.12109 0.11328-0.23438 0.1875-0.34375 0.070312-0.10938 0.15234-0.21094 0.24609-0.30469 0.37109-0.37109 0.875-0.58203 1.4023-0.58203s1.0312 0.21094 1.4062 0.58203c0.089844 0.09375 0.17578 0.19531 0.25 0.30469 0.070313 0.10938 0.12891 0.22266 0.17969 0.34375 0.046876 0.11719 0.085938 0.24219 0.11328 0.36719 0.050781 0.26172 0.050781 0.52344 0 0.78125-0.027344 0.12891-0.066406 0.25391-0.11328 0.375-0.050781 0.11719-0.11328 0.23437-0.17969 0.34375-0.074219 0.10547-0.16016 0.20703-0.25 0.29687-0.375 0.375-0.87891 0.58594-1.4062 0.58594s-1.0312-0.21094-1.4023-0.58594c-0.09375-0.089843-0.17578-0.1875-0.24609-0.29687-0.074219-0.10938-0.13672-0.22266-0.1875-0.34375-0.046876-0.12109-0.085938-0.24609-0.10938-0.375-0.050781-0.25781-0.050781-0.51953 0-0.78125z"/>
 </g>
</svg>
