<?xml version="1.0" encoding="UTF-8"?>
<svg width="100pt" height="100pt" version="1.1" viewBox="0 0 100 100" xmlns="http://www.w3.org/2000/svg">
 <g>
  <path d="m89.156 11.969c2.3164-1.7031 1.5859-5.3555-1.2031-6-3.6055-0.84375-7.2891-1.2852-10.992-1.3086-12.414-0.039062-23.879 6.6953-30.25 17.469-2.7188 4.6016-6.6953 10.719-11 15.34l0.007812-0.003906c-0.53516 0.57031-0.64062 1.4219-0.25781 2.1055 1.5273 2.7461 3.3945 5.2852 5.5547 7.5625 0.23828 0.25 0.57812 0.37891 0.92188 0.34375 0.34375-0.035156 0.65234-0.22266 0.83594-0.51562 0.5-0.77734 1.2891-1.3203 2.1914-1.5078 0.90625-0.19141 1.8477-0.011719 2.6133 0.5l6.7188 4.4648c1.6055 1.0742 2.0508 3.2422 0.99609 4.8594-0.085938 0.13281-0.10547 0.30078-0.054688 0.44922 0.054688 0.15234 0.17578 0.26563 0.33203 0.3125 5.3281 1.5625 11.289 1.8867 17.879 0.97656 0.92969-0.13281 1.5977-0.97266 1.5195-1.9141-0.03125-0.41406-0.058594-0.83203-0.078125-1.2539 0.003906 0-2.8203-29.309 14.266-41.879z"/>
  <path d="m71.203 95.312s12.133 0.75781 21.91-5.3203c2.9297-1.8203 2.8125-6.1719-0.20312-7.8281-5.5195-3.0234-13.211-8.9414-16.477-19.41h-0.003906c-0.25391-0.84375-1.082-1.375-1.9531-1.2578-2.6172 0.38281-5.2578 0.57812-7.9062 0.58594-4.375 0.03125-8.7344-0.60547-12.922-1.8867h0.003906c-0.75781-0.23828-1.5781 0.054688-2.0078 0.71875l-0.75781 1.1719h0.003906c-0.5 0.77734-1.2891 1.3203-2.1914 1.5117-0.90625 0.1875-1.8477 0.007813-2.6133-0.50391l-6.7305-4.4648v0.003906c-1.6055-1.0742-2.0508-3.2383-1-4.8594l0.37891-0.58594c0.42969-0.66406 0.33203-1.5391-0.23047-2.0938v-0.007812l-0.003906-0.003907c-2.4609-2.457-4.6094-5.2148-6.3906-8.2031h0.003906c-0.47656-0.80469-1.4961-1.0938-2.3242-0.66797-2.8672 1.4648-6.082 2.1055-9.2891 1.8594-3.3477-0.26172-7.7227-1.0391-11.086-3.1719-2.0938-1.3281-4.7812 0.3125-4.6484 2.7969 0.82422 15.57 9.1484 51.617 66.438 51.617z"/>
 </g>
</svg>
