<?xml version="1.0" encoding="UTF-8"?>
<svg width="100pt" height="100pt" version="1.1" viewBox="0 0 100 100" xmlns="http://www.w3.org/2000/svg">
 <g>
  <path d="m77.859 16.492c-0.49609-0.085938-0.98828 0.17578-1.1953 0.63281-0.21094 0.45703-0.085937 1 0.30469 1.3203 1.207 0.98047 2.293 2.1016 3.2422 3.3398 3.7109 4.8516 4.625 11.348 2.207 16.953l-0.003907 0.003907c-1.3242 3.1797-3.7383 5.7852-6.8125 7.3516-0.38281 0.19531-0.66797 0.54297-0.79297 0.95703-0.12109 0.41016-0.074219 0.85547 0.13672 1.2305 1.875 3.332 3.3867 7.4219 4.0586 12.391h0.003906c0.066407 0.49609 0.37891 0.92578 0.83203 1.1367 0.45703 0.21094 0.98828 0.17969 1.4102-0.089844 5.7188-3.5859 13.488-10.715 13.812-23.082-0.007812 0.003906 1.5547-18.801-17.203-22.145z"/>
  <path d="m23.031 18.445c0.39062-0.32031 0.51562-0.86328 0.30469-1.3203-0.20703-0.45703-0.69922-0.71875-1.1953-0.63281-18.75 3.3438-17.188 22.152-17.188 22.152 0.32031 12.363 8.0859 19.496 13.797 23.074 0.42578 0.26562 0.95312 0.29688 1.4062 0.082031 0.45312-0.21094 0.76562-0.64062 0.83203-1.1367 0.67188-4.9688 2.1836-9.0547 4.0586-12.391 0.21094-0.375 0.25781-0.81641 0.13672-1.2266-0.125-0.41016-0.40625-0.75391-0.78906-0.95312h0.003907c-3.0742-1.5664-5.4922-4.1719-6.8203-7.3516-2.418-5.6094-1.5-12.109 2.207-16.953 0.94922-1.2383 2.0391-2.3594 3.2461-3.3438z"/>
  <path d="m26.656 68.828h10.258c1.2422 0 2.2617-0.98438 2.3086-2.2266l1-25.484h-0.003906c0.019531-0.56641-0.27344-1.0977-0.76172-1.3828s-1.0977-0.27734-1.582 0.015625c-5.9336 3.7109-13.73 11.445-13.812 26.461-0.003906 0.69141 0.26562 1.3555 0.75391 1.8477 0.48438 0.49219 1.1484 0.76953 1.8398 0.76953z"/>
  <path d="m62.359 39.891c-0.48438-0.30469-1.0977-0.31641-1.5938-0.03125-0.49219 0.28516-0.79297 0.81641-0.77344 1.3906l0.8125 25.34v-0.003906c0.039062 1.25 1.0625 2.2422 2.3125 2.2422h10.227c0.69531 0 1.3594-0.27344 1.8477-0.76562 0.48828-0.49219 0.76172-1.1602 0.75781-1.8516-0.085938-14.824-7.6914-22.547-13.59-26.32z"/>
  <path d="m50.125 68.828h6.5391c0.38281 0.003906 0.74609-0.15234 1.0117-0.42578 0.26562-0.27734 0.40625-0.64453 0.39453-1.0273l-1.125-31.684c-0.046874-1.3008-1.1133-2.3281-2.4141-2.3281h-8.8125c-1.3008 0-2.3711 1.0273-2.4141 2.3281l-1.1172 31.691c-0.011719 0.38281 0.12891 0.75 0.39453 1.0234 0.26562 0.27734 0.62891 0.42969 1.0117 0.42969z"/>
  <path d="m24.945 83.531h50.109c0.57812 0 1.1289-0.23047 1.5352-0.63672s0.63672-0.96094 0.63672-1.5352v-7.2812c0-1.1992-0.97266-2.168-2.168-2.168h-50.113c-1.1992 0-2.1719 0.96875-2.1719 2.168v7.2812c0 0.57422 0.23047 1.1289 0.63672 1.5352s0.95703 0.63672 1.5352 0.63672zm43.023-7.6484c0.74609-0.003906 1.418 0.44531 1.7031 1.1328s0.125 1.4805-0.39844 2.0078c-0.52734 0.52344-1.3203 0.68359-2.0078 0.39844s-1.1367-0.95703-1.1328-1.7031c0-0.48828 0.19141-0.95312 0.53516-1.3008 0.34766-0.34375 0.8125-0.53516 1.3008-0.53516zm-17.961 0c0.74609-0.003906 1.418 0.44531 1.7031 1.1328 0.28516 0.6875 0.12891 1.4805-0.39844 2.0078-0.52734 0.52344-1.3164 0.68359-2.0039 0.39844-0.69141-0.28516-1.1367-0.95703-1.1367-1.7031 0-1.0117 0.81641-1.832 1.8281-1.8359zm-17.961 0h0.003906c0.74609-0.003906 1.418 0.44531 1.7031 1.1328s0.125 1.4805-0.39844 2.0078c-0.52734 0.52344-1.3203 0.68359-2.0078 0.39844s-1.1367-0.95703-1.1328-1.7031c-0.003906-1.0117 0.81641-1.832 1.8242-1.8359z"/>
 </g>
</svg>
