<?xml version="1.0" encoding="UTF-8"?>
<svg width="100pt" height="100pt" version="1.1" viewBox="0 0 100 100" xmlns="http://www.w3.org/2000/svg">
 <g>
  <path d="m12.273 6.4453-2.8633 1.707c-1.1094 0.66016-1.6797 1.9492-1.418 3.2148 2 9.7266 7.8672 17.93 15.469 21.734 0.41797 0.21094 0.91406 0.21484 1.3359 0.015626 0.42578-0.20313 0.73047-0.58984 0.83594-1.0469 0.40625-1.8398 0.71875-3.7031 0.92969-5.5742v-0.003906c0.0625-0.58203-0.22266-1.1484-0.72656-1.4453-8.2188-4.8828-11.328-14.617-12.188-18.031v-0.003906c-0.070313-0.28516-0.27344-0.51953-0.54297-0.62891-0.27344-0.11328-0.58203-0.089843-0.83203 0.0625z"/>
  <path d="m17.773 45.141c0.71094 0.46875 1.6641 0.30469 2.1797-0.375 0.90625-1.2461 1.6797-2.582 2.3125-3.9844 0.46484-1.0312 0.14453-2.2422-0.76953-2.9062-3.1953-2.3438-9.3594-7.3672-13.41-13.855-0.25391-0.40625-0.72266-0.62891-1.1992-0.5625-0.47266 0.0625-0.86719 0.40234-1 0.86328-0.625 2.1484-1.0625 4.0234-1.3398 5.3281-0.27344 1.2617-0.042969 2.582 0.63672 3.6797 3.3594 5.3672 9.8789 10.02 12.59 11.812z"/>
  <path d="m67.914 5.1016c-1.1562-0.71875-2.6562-0.51953-3.5859 0.47266-2.125 2.2891-6.7109 5.9492-14.328 5.9492s-12.203-3.6562-14.328-5.9453c-0.92969-0.99609-2.4297-1.1914-3.5859-0.47656l-9.6406 5.9453c-1.2148 0.74609-1.6172 2.3242-0.90625 3.5586 4.2812 7.4766 14.035 10.566 18.344 11.602 1.3086 0.3125 2.6875 0.14062 3.8828-0.48047l4.2578-2.2109v-0.003906c1.2383-0.64453 2.7148-0.64453 3.9531 0l4.2578 2.2109v0.003906c1.1953 0.62109 2.5742 0.79297 3.8828 0.48047 4.3086-1.0312 14.062-4.1211 18.344-11.602v0.003906c0.71094-1.2383 0.30859-2.8164-0.90625-3.5625z"/>
  <path d="m69.562 28.059c-0.054688-0.37109-0.28125-0.69531-0.61328-0.875-0.33203-0.17578-0.73047-0.17969-1.0664-0.015625-2.8438 1.3867-6.2148 2.3242-8.2578 2.8047-1.1602 0.27734-2.3828 0.12891-3.4453-0.41797l-4.2109-2.1758c-1.2344-0.64062-2.7031-0.64062-3.9375 0l-4.207 2.1719c-1.0625 0.55078-2.2891 0.69922-3.4531 0.42188-2.043-0.48828-5.418-1.4219-8.2539-2.8047-0.33594-0.16406-0.73438-0.16016-1.0664 0.015625-0.33203 0.17969-0.55859 0.50391-0.61328 0.87891-0.5625 4.4414-2.7266 16.602-10.027 24.664l0.003906-0.003906c-0.8125 0.90234-0.83594 2.2656-0.050781 3.1914 2.2109 2.6016 6.2383 8.1094 7.4883 14.949 0.20313 1.1367 0.92578 2.1133 1.9531 2.6406 2.8945 1.4648 9.0977 4.3633 15.734 5.9531l-0.003906 0.003907c2.9297 0.69922 5.9844 0.69922 8.9102 0 6.6406-1.5938 12.836-4.4922 15.734-5.9531v-0.003906c1.0273-0.52734 1.75-1.5039 1.9531-2.6406 1.25-6.8359 5.2734-12.352 7.4883-14.949 0.78516-0.92578 0.76172-2.2891-0.050782-3.1914-7.2852-8.0703-9.4531-20.223-10.008-24.664z"/>
  <path d="m92.008 11.367c0.26172-1.2656-0.30859-2.5547-1.418-3.2148l-2.8633-1.707c-0.25-0.14844-0.55469-0.16797-0.82422-0.058593-0.26953 0.11328-0.46875 0.34375-0.54297 0.625-0.86328 3.418-3.9648 13.148-12.188 18.031h0.003906c-0.50781 0.30078-0.79297 0.86719-0.72656 1.4492 0.21094 1.875 0.51953 3.7383 0.92969 5.5781h-0.003906c0.10547 0.45703 0.41016 0.84375 0.83594 1.0469 0.42187 0.19922 0.91797 0.19531 1.3359-0.015626 7.5938-3.8047 13.461-12.008 15.461-21.734z"/>
  <path d="m94.113 24.32c-0.13672-0.46094-0.52734-0.79687-1.0039-0.86328-0.47656-0.0625-0.94141 0.16016-1.1953 0.56641-4.0508 6.4844-10.211 11.508-13.41 13.855v-0.003906c-0.91016 0.66797-1.2305 1.8789-0.76953 2.9062 0.63281 1.4023 1.4062 2.7383 2.3125 3.9844 0.51562 0.67969 1.4688 0.84375 2.1797 0.375 2.7109-1.793 9.2305-6.4453 12.59-11.812 0.67969-1.0977 0.91016-2.418 0.63672-3.6797-0.27344-1.3047-0.71875-3.1875-1.3398-5.3281z"/>
  <path d="m36.641 95.203c1.1211 0.35156 2.3438-0.050781 3.0391-1 1.5391-2.1172 4.8945-5.6094 10.32-5.6094s8.7891 3.4922 10.32 5.6094h0.003907c0.69141 0.94922 1.9141 1.3516 3.0352 1 5.4453-1.6641 10.586-4.1953 15.219-7.5h0.003906c0.40625-0.28906 0.67188-0.74609 0.72656-1.2461 0.050781-0.5-0.11328-1-0.45312-1.3711-2.0039-2.1914-3.6172-4.707-4.7695-7.4375v-0.003907c-0.17969-0.42188-0.53125-0.75-0.96875-0.89844-0.4375-0.15234-0.91406-0.10547-1.3164 0.11719-6.3984 3.6133-16.453 6.0547-20.266 6.8906v0.003906c-1.0117 0.22266-2.0586 0.22266-3.0703 0-3.8125-0.83984-13.867-3.2812-20.266-6.8906v-0.003907c-0.40234-0.22266-0.87891-0.26953-1.3164-0.11719-0.4375 0.14844-0.78906 0.47656-0.96484 0.89844-1.1562 2.7344-2.7695 5.25-4.7734 7.4414-0.33984 0.37109-0.50391 0.87109-0.45312 1.3711 0.054688 0.5 0.32031 0.95703 0.73047 1.2461 4.6328 3.3047 9.7734 5.8359 15.219 7.5z"/>
 </g>
</svg>
