<?xml version="1.0" encoding="UTF-8"?>
<svg width="100pt" height="100pt" version="1.1" viewBox="0 0 100 100" xmlns="http://www.w3.org/2000/svg">
 <path d="m77.781 46.621c2.4414-27.281-27.324-38.375-27.77-38.539h-0.019531c-0.44531 0.16406-30.211 11.258-27.773 38.535 1.793 20.07-2.3086 29.176-5.0703 32.707 5.8359 8.1367 24.867 12.594 24.867 12.594-0.76562-4.9922 3.2812-34.035 3.2812-34.035s-11.105-3.4336-16.172-7.8867c0.31641 0.26953-0.30859-1.9453-0.30859-1.9453 7.4531 0.30078 7.8789 0.13281 20.867 2.1523v0.097656l0.31641-0.046875 0.31641 0.050782v-0.097657c12.988-2.0195 13.414-1.8516 20.867-2.1523 0 0-0.625 2.2148-0.30859 1.9453-5.0664 4.4531-16.172 7.8867-16.172 7.8867s4.0469 29.043 3.2812 34.035c0 0 19.035-4.457 24.867-12.594-2.7617-3.5352-6.8633-12.637-5.0703-32.707zm-27.902 1.418c-0.46094 0.042969-0.87109-0.28516-0.92969-0.74219v-0.03125l0.81641-33.738c0.019531-0.10547 0.16797-0.10547 0.19141 0l0.8125 33.738c-0.035156 0.45703-0.43359 0.80469-0.89062 0.77344z"/>
</svg>
