<?xml version="1.0" encoding="UTF-8"?>
<svg width="100pt" height="100pt" version="1.1" viewBox="0 0 100 100" xmlns="http://www.w3.org/2000/svg">
 <path d="m92.164 43.125-11.391-3.1406c-0.52344-1.6016-1.168-3.1602-1.9375-4.6641l5.8359-10.273c0.62891-1.1055 0.44141-2.4922-0.45703-3.3906l-5.8594-5.8594v0.003906c-0.89844-0.89844-2.2852-1.0898-3.3867-0.46094l-10.273 5.8359h-0.003906c-1.5-0.76562-3.0625-1.4141-4.6641-1.9336l-3.1523-11.402c-0.33984-1.2266-1.4531-2.0742-2.7227-2.0742h-8.3047c-1.2695 0-2.3828 0.84766-2.7227 2.0703l-3.1406 11.391c-1.6016 0.52344-3.1602 1.168-4.6641 1.9375l-10.273-5.8359c-1.1055-0.62891-2.4922-0.44141-3.3906 0.45703l-5.8594 5.8594h0.003906c-0.89844 0.89844-1.0898 2.2852-0.46094 3.3867l5.8359 10.273v0.003906c-0.76562 1.5-1.4141 3.0625-1.9336 4.6641l-11.402 3.1523c-1.2266 0.33984-2.0742 1.4531-2.0742 2.7227v8.3047c0 1.2695 0.84766 2.3828 2.0703 2.7227l11.391 3.1406v-0.003906c0.52344 1.6055 1.168 3.1641 1.9336 4.668l-5.832 10.273c-0.62891 1.1055-0.44141 2.4922 0.45703 3.3906l5.8594 5.8594c0.89844 0.89453 2.2852 1.0859 3.3867 0.45703l10.273-5.8359h0.003906c1.5 0.76562 3.0625 1.4141 4.6641 1.9336l3.1406 11.391c0.33594 1.2266 1.4492 2.0742 2.7188 2.0703h8.3047c1.2734 0.003906 2.3867-0.84375 2.7227-2.0703l3.1406-11.391c1.6016-0.51953 3.1641-1.168 4.6641-1.9336l10.273 5.8359c1.1055 0.62891 2.4922 0.4375 3.3906-0.45703l5.8594-5.8594c0.89844-0.89844 1.0859-2.2852 0.46094-3.3906l-5.8359-10.273c0.76562-1.5039 1.4102-3.0625 1.9297-4.6641l11.391-3.1406c1.2266-0.33984 2.0742-1.4531 2.0742-2.7227v-8.3047c0.003907-1.2617-0.83203-2.375-2.043-2.7227zm-42.164 24.363c-4.6367 0-9.0859-1.8438-12.367-5.1211-3.2773-3.2812-5.1211-7.7305-5.1211-12.367s1.8438-9.0859 5.1211-12.367c3.2812-3.2773 7.7305-5.1211 12.367-5.1211s9.0859 1.8438 12.367 5.1211c3.2773 3.2812 5.1211 7.7305 5.1211 12.367s-1.8438 9.0859-5.1211 12.367c-3.2812 3.2773-7.7305 5.1211-12.367 5.1211z"/>
</svg>
