<?xml version="1.0" encoding="UTF-8"?>
<svg width="100pt" height="100pt" version="1.1" viewBox="0 0 100 100" xmlns="http://www.w3.org/2000/svg">
 <path d="m87.5 84.375h-3.125v-40.625c0.007812-7.9883-2.7812-15.727-7.8828-21.875-4.5469-5.4844-10.684-9.4258-17.562-11.273-0.046876 0-0.078126-0.050781-0.125-0.066406-0.046876-0.015625-0.11719 0-0.17188 0-5.6445-1.5156-11.59-1.5156-17.234 0-0.082032 0.015625-0.16406 0-0.24219 0.019532-0.082031 0.019531-0.11328 0.070312-0.17969 0.089843-6.8242 1.8594-12.91 5.7773-17.43 11.219l-0.042969 0.011719v0.023438c-5.0938 6.1445-7.8828 13.871-7.8789 21.852v40.625h-3.125c-1.7266 0-3.125 1.3984-3.125 3.125s1.3984 3.125 3.125 3.125h75c1.7266 0 3.125-1.3984 3.125-3.125s-1.3984-3.125-3.125-3.125zm-59.375-38.184v0.16406 6.7695h-6.25v-8.5zm-6.25 13.184h6.25v9.375h-6.25zm7.2188-19.375-6.6797-1.6719c0.69141-3.5234 2.0586-6.8828 4.0234-9.8906l6.0078 5.0898c-1.4805 1.9492-2.6172 4.1406-3.3516 6.4727zm10.773-22.445 2.4375 8.7227c-1.9297 0.69141-3.7461 1.6562-5.3984 2.8672l-6.5039-5.5273c2.7148-2.6406 5.9336-4.707 9.4648-6.0742zm29.723 6.0664-6.5156 5.4961c-1.6641-1.2109-3.4922-2.1797-5.4336-2.8672l2.4453-8.7227c3.543 1.3672 6.7773 3.4336 9.5 6.082zm-25.84 8.7734c0.77344-0.31641 1.5742-0.5625 2.3906-0.74609h0.039063c0.23437 0 0.46875-0.03125 0.69531-0.085938v52.812h-3.125zm9.375-0.82422c0.20312 0.046876 0.41406 0.078126 0.625 0.085938h0.078125c0.82422 0.18359 1.6289 0.43359 2.4141 0.75v51.969h-3.1172zm20.434-3.125c1.9648 3.0039 3.332 6.3594 4.0273 9.8789l-6.6836 1.668c-0.73828-2.332-1.875-4.5195-3.3555-6.4648zm4.5664 24.68h-6.25v-6.7734-0.16797l6.25-1.5625zm-6.25 6.25h6.25v9.375h-6.25zm-17.84-43.438-2.5508 9.1016c-0.3125 0-0.625-0.050781-0.96484-0.050781h-1.043c-0.34766 0-0.67969 0.035157-1.0234 0.054688l-2.5391-9.0977h-0.003906c2.6914-0.4375 5.4336-0.4375 8.125 0zm-32.16 59.062h6.25v9.375h-6.25zm12.5-28.648c0.011719-3.293 1.1094-6.4883 3.125-9.0938v47.117h-3.125zm28.125 38.023v-47.117c2.0156 2.6055 3.1133 5.8047 3.125 9.0977v38.02zm9.375 0v-9.375h6.25v9.375z"/>
</svg>
