<?xml version="1.0" encoding="UTF-8"?>
<svg width="100pt" height="100pt" version="1.1" viewBox="0 0 100 100" xmlns="http://www.w3.org/2000/svg">
 <path d="m94.051 38.555c-0.28516-1.8672-0.82812-3.6875-1.6055-5.4102-0.87109-1.8984-2.1992-3.5508-3.8672-4.8008-11.691-8.8125-26.234-16.277-34.051-20.023-4.3945-2.1094-9.5508-1.8672-13.727 0.64453-14.207 8.5586-21.27 29.887-23.996 40.484-0.35547 1.3867 0.097656 2.8516 1.1719 3.7969 5.3203 4.6875 13.73 11.375 25.875 19.102v0.003906c2.4531 1.5547 3.8594 4.3242 3.6719 7.2266-0.074219 1.1953 0.15234 2.3945 0.65625 3.4844 0.375 0.65625 1.7695 2.5703 4.7148 1.0938h-0.003906c0.49609-0.24609 1.0742-0.27344 1.5859-0.066406 0.51563 0.20312 0.91797 0.61719 1.1055 1.1367 0.32812 0.95313-0.11328 1.9961-1.0195 2.4297-1.1406 0.58594-2.3984 0.90234-3.6836 0.92188-3.0195 0-5.2266-1.9531-6.1562-3.7578-0.015625-0.027343-0.03125-0.054687-0.042968-0.085937-0.78906-1.6914-1.1406-3.5508-1.0273-5.4141v0.003907c0.10156-1.4883-0.62109-2.9141-1.8828-3.7109-15.82-10.062-25.352-18.305-30.176-22.945-0.70703-0.68359-1.707-0.97266-2.6719-0.77344-0.96094 0.19922-1.7656 0.85938-2.1484 1.7656-0.17969 0.42969-0.33594 0.87109-0.46484 1.3242-1.2695 4.3984-0.13672 9.1328 2.7969 12.645 11.328 13.57 28.031 21.555 34.82 24.402h0.003907c4.8594 2.0977 10.508 1.0664 14.305-2.625 2.3633-2.3242 3.7188-5.4844 3.7695-8.7969 0.21484-7.4609 0.91406-14.898 2.0977-22.27 1.4805-9.2734 5.5156-15.656 8.2578-18.496 1.9844-2.4062 4.7422-3.9062 7.6797-3.9219h0.070313c2.3594 0 4.2266 0.71484 5.5469 2.125 1.9961 2.125 1.8594 4.9453 1.8398 5.2617h-0.003906c-0.097657 1.0469-1.0078 1.8242-2.0547 1.7539-1.0469-0.066406-1.8516-0.95703-1.8125-2.0078 0-0.0625 0.046875-1.4766-0.8125-2.375-0.57031-0.58594-1.4961-0.89063-2.75-0.88281h-0.003906c-0.40625 0.011719-0.80469 0.10938-1.1719 0.28125-2.8203 1.2539-3.5156 4.9062-1.5625 7.3008 0.94141 1.1367 2.0938 2.0781 3.3945 2.7695 3.8828 2.1133 8.7891 1.0938 11.328-2.5234 0.082031-0.11719 0.16406-0.23438 0.23828-0.35547 1.6367-2.5898 2.2656-5.6914 1.7656-8.7148zm-54.277 15.164c-0.65625 2.4141-2.7656 3.9414-4.7109 3.4102-1.9414-0.53125-2.9844-2.9141-2.3281-5.3281 0.65625-2.4102 2.7656-3.9414 4.7109-3.4102 1.9453 0.53125 2.9844 2.9141 2.3281 5.3281zm17.551-26.691-11.898 15.625c-1.043 1.3711-2.9102 1.8203-4.4648 1.0664-1.5547-0.75391-2.3594-2.4961-1.9336-4.1641 1-3.8477 3.4688-11.66 8.5117-19.008v-0.003906c0.95703-1.3906 2.832-1.8047 4.2812-0.94141l4.5859 2.7188c0.79297 0.46484 1.3438 1.2461 1.5195 2.1445 0.17578 0.90234-0.042969 1.832-0.59766 2.5625z"/>
</svg>
