<?xml version="1.0" encoding="UTF-8"?>
<svg width="100pt" height="100pt" version="1.1" viewBox="0 0 100 100" xmlns="http://www.w3.org/2000/svg">
 <g>
  <path d="m91.602 8.8594c-3.543-3.7578-9.2734-4.4219-13.582-1.5742-4.3086 2.8477-5.9453 8.3828-3.875 13.113l-27.645 23.656c-1.7539 1.5-4.3672 1.3984-6-0.23438l-17.891-17.891 0.027344 0.007812-4.4727-4.4727c-2.8125-2.8086-7.3906-3.0156-10.293-0.30859-1.457 1.3516-2.3047 3.2422-2.3398 5.2305s0.73828 3.9062 2.1445 5.3125c2.8203 2.8203 6.125 2.2344 8.1484 1.4375v0.003906c1.25-0.48438 2.6719-0.13672 3.5586 0.86719 13.773 15.41 16.82 24.34 17.5 27.555v0.003906c0.16406 0.78125 0.77734 1.3945 1.5625 1.5625 3.2148 0.67188 12.141 3.7227 27.555 17.496h-0.003906c1.0039 0.88672 1.3555 2.3008 0.87891 3.5547-0.79688 2.0234-1.3828 5.3281 1.4375 8.1484 1.4062 1.4062 3.3242 2.1797 5.3164 2.1445 1.9883-0.039062 3.8789-0.88281 5.2305-2.3398 2.707-2.9062 2.5-7.4805-0.30859-10.289l-4.4766-4.4766c0.003906 0.007812 0.007812 0.019531 0.011719 0.027343l-17.895-17.895c-1.625-1.625-1.7305-4.2305-0.23828-5.9844l23.656-27.641c4.625 2.0352 10.043 0.52734 12.957-3.6016 2.9102-4.1328 2.5078-9.7422-0.96484-13.414zm-55.301 39.812c-0.19531 0.19531-0.46484 0.28906-0.73828 0.25781-0.26953-0.027344-0.51172-0.17969-0.66016-0.41406-0.65625-1.0273-1.2188-1.8438-1.582-2.3594-0.25-0.35938-0.21094-0.84375 0.10156-1.1562l0.87891-0.87891v0.003906c0.35156-0.35547 0.92188-0.35547 1.2773 0l2 2c0.16797 0.16797 0.26172 0.39453 0.26172 0.63281 0 0.24219-0.09375 0.46875-0.26172 0.64063zm8.7656 6.2695-3.6602 3.6641c-0.22656 0.23047-0.55469 0.32422-0.87109 0.25391s-0.57031-0.30078-0.67578-0.60156c-0.67969-1.8906-1.5039-3.7266-2.4609-5.4922-0.19531-0.36328-0.12891-0.8125 0.16406-1.1094l2.1094-2.1094c0.17578-0.17578 0.41406-0.27734 0.66406-0.27734s0.48828 0.10156 0.66406 0.27734l4.0703 4.0664c0.17578 0.17578 0.27344 0.41406 0.27344 0.66406s-0.10156 0.48828-0.27734 0.66406z"/>
  <path d="m30.562 93.109 18.199-18.199c0.31641-0.31641 0.47266-0.76172 0.42578-1.207-0.050781-0.44531-0.29688-0.84375-0.67578-1.0859-6.0312-3.8477-9.6406-4.9062-10.969-5.1875l-0.09375-0.019532h0.003906c-0.90234-0.19141-1.8398 0.085938-2.4922 0.73828l-24.023 24.039c-0.31641 0.31641-0.41016 0.79297-0.24219 1.207 0.17188 0.41797 0.57422 0.6875 1.0234 0.69141h16.504c0.87891-0.003907 1.7227-0.35547 2.3438-0.98047z"/>
  <path d="m5.5312 72.188v16.484c0.003906 0.44922 0.27734 0.85156 0.69141 1.0234 0.41406 0.16797 0.89062 0.074219 1.207-0.24219l24.43-24.414c0.64844-0.65234 0.92578-1.5859 0.73438-2.4883l-0.019531-0.09375c-0.28125-1.3359-1.3438-4.9375-5.1875-10.965h0.003906c-0.24219-0.37891-0.64062-0.625-1.0859-0.67188-0.44531-0.050781-0.88672 0.10547-1.2031 0.42188l-18.598 18.602c-0.62109 0.62109-0.96875 1.4609-0.97266 2.3438z"/>
 </g>
</svg>
