<?xml version="1.0" encoding="UTF-8"?>
<svg width="100pt" height="100pt" version="1.1" viewBox="0 0 100 100" xmlns="http://www.w3.org/2000/svg">
 <g>
  <path d="m50.422 21.781c-7.5664 0-14.824 3.0078-20.176 8.3555-5.3516 5.3516-8.3555 12.609-8.3555 20.176 0 7.5703 3.0039 14.828 8.3555 20.18 5.3516 5.3477 12.609 8.3555 20.176 8.3555s14.824-3.0078 20.176-8.3555c5.3516-5.3516 8.3555-12.609 8.3555-20.176v-0.003906c0.003906-7.5664-3.0039-14.824-8.3555-20.176-5.3516-5.3516-12.609-8.3555-20.176-8.3555zm-13.117 23.469c-2.0273 2.6016-3.4844 5.5938-4.2812 8.7891-0.46875 1.8594-3.168 1.7266-3.4023-0.17578l0.003906 0.003907c-0.10938-0.88281-0.16406-1.7695-0.16016-2.6562-0.007813-3.3086 0.74609-6.5703 2.2031-9.5391 0.42578-0.84766 1.1914-1.4727 2.1055-1.7227 0.91406-0.25391 1.8906-0.10547 2.6875 0.40234 0.80078 0.50781 1.3477 1.3281 1.5078 2.2617 0.16016 0.93359-0.082031 1.8945-0.66406 2.6367zm7.3242-8.7773c-0.16016 0.089844-0.31641 0.17969-0.46875 0.27344v0.003906c-1.3359 0.80078-3.0469 0.57422-4.1289-0.54688l-0.085938-0.09375c-0.73828-0.76953-1.0664-1.8477-0.87891-2.9023 0.1875-1.0508 0.86719-1.9492 1.8281-2.418 0.22266-0.10937 0.44531-0.21484 0.67188-0.3125l0.003906-0.003906c0.82813-0.37109 1.7773-0.39062 2.6211-0.050781 0.84375 0.34375 1.5117 1.0156 1.8477 1.8633 0.015626 0.03125 0.023438 0.066406 0.039063 0.097656 0.60156 1.5352-0.015625 3.2773-1.4453 4.0938z"/>
  <path d="m23.633 17.102c-2.3047-1.6172-5.8125-4.8828-7.7109-10.691v-0.003906c-0.13281-0.48438-0.57031-0.82031-1.0742-0.82031s-0.94141 0.33594-1.0742 0.82031c-1.8984 5.8047-5.4023 9.0781-7.7188 10.695-0.35156 0.25781-0.54297 0.67578-0.51563 1.1094 0.027344 0.4375 0.27734 0.82812 0.65625 1.0391 4.0391 2.0508 6.3789 6.7969 7.582 10.156h0.003906c0.14062 0.46484 0.57031 0.78516 1.0586 0.78516 0.48828 0 0.92188-0.32031 1.0625-0.78516 1.2031-3.3555 3.543-8.1016 7.582-10.156 0.38281-0.21094 0.63281-0.60156 0.66016-1.0352 0.03125-0.43359-0.16016-0.85547-0.51172-1.1133z"/>
  <path d="m93.945 81.332c-2.3086-1.6172-5.8125-4.8828-7.7109-10.695v0.003906c-0.13281-0.48828-0.57031-0.82422-1.0742-0.82422s-0.94141 0.33594-1.0742 0.82422c-1.8984 5.8047-5.4062 9.0781-7.7109 10.695v-0.003907c-0.35156 0.25781-0.54297 0.67969-0.51562 1.1133 0.027344 0.43359 0.27734 0.82422 0.65625 1.0352 4.0391 2.0469 6.3789 6.7969 7.582 10.156h0.003906c0.14063 0.46875 0.57031 0.78516 1.0586 0.78516 0.48828 0 0.92188-0.31641 1.0625-0.78516 1.2031-3.3555 3.543-8.1016 7.582-10.156 0.38281-0.21094 0.62891-0.60156 0.65625-1.0352 0.03125-0.43359-0.16406-0.85547-0.51563-1.1133z"/>
 </g>
</svg>
