<?xml version="1.0" encoding="UTF-8"?>
<svg width="100pt" height="100pt" version="1.1" viewBox="0 0 100 100" xmlns="http://www.w3.org/2000/svg">
 <g>
  <path d="m43.438 13.41h13.254-0.003906c1.5117 0 2.957-0.59766 4.0234-1.6641 1.0664-1.0703 1.6641-2.5156 1.6641-4.0234v-1.5625c0-0.39453-0.15625-0.76953-0.43359-1.0469-0.27734-0.27734-0.65234-0.43359-1.0469-0.43359h-21.664c-0.81641 0-1.4805 0.66406-1.4805 1.4805v1.5625c0 1.5078 0.59766 2.9531 1.6641 4.0234 1.0664 1.0664 2.5117 1.6641 4.0195 1.6641z"/>
  <path d="m49.938 95.328h0.125c18.285-0.035156 27.914-7.4062 32.922-14.285 4.9297-6.7773 6.3281-15.453 4.0234-23.512-2.5156-8.8203-8.2422-14.574-12.5-17.812-2.1953-1.6328-4.6055-2.9531-7.1641-3.9219v0.003906c-1.6484-0.62891-3.1875-1.5156-4.5547-2.625-3.5-2.8672-5.4375-7.2266-5.4375-11.742v-2.0664c0-0.53125-0.21094-1.0352-0.58594-1.4062-0.375-0.37109-0.87891-0.58203-1.4062-0.57813h-10.719c-0.52344 0-1.0273 0.20703-1.4023 0.57813-0.37109 0.375-0.58203 0.87891-0.58203 1.4062v2.0625c0 4.5234-1.9375 8.875-5.4375 11.742-1.3672 1.1133-2.9062 2-4.5547 2.625h0.003907c-2.5625 0.96875-4.9727 2.2891-7.168 3.9219-4.2656 3.2344-9.9922 8.9844-12.5 17.812-2.3008 8.0625-0.90625 16.734 4.0234 23.512 5 6.8789 14.629 14.246 32.914 14.285zm-18.719-41.465h37.559c6.3828 0 11.398 5.5508 10.656 11.891-0.67969 5.8203-3.5156 12.441-11.801 16.523v-0.003906c-2.7461 1.332-5.6953 2.1992-8.7266 2.5664-2.9336 0.37109-5.8867 0.5625-8.8438 0.57031h-0.125v0.003906c-2.957-0.011718-5.9102-0.20312-8.8477-0.57422h0.003906c-3.0312-0.36719-5.9805-1.2344-8.7266-2.5664-8.2891-4.082-11.117-10.703-11.801-16.523-0.74609-6.3359 4.2695-11.891 10.652-11.891z"/>
 </g>
</svg>
