<?xml version="1.0" encoding="UTF-8"?>
<svg width="100pt" height="100pt" version="1.1" viewBox="0 0 100 100" xmlns="http://www.w3.org/2000/svg">
 <g>
  <path d="m7.0586 32.699h27.582c0.80859 0 1.5039-0.57422 1.6641-1.3672l0.47266-2.3906h-0.003906c0.32031-1.6055 1.7305-2.7617 3.3672-2.7617h19.727c1.6367 0 3.0469 1.1562 3.3672 2.7617l0.47266 2.3906h-0.003906c0.16016 0.79297 0.85547 1.3672 1.6641 1.3672h27.578c0.58984 0 1.1523-0.25391 1.5469-0.69531 0.39453-0.44141 0.57812-1.0312 0.50781-1.6211-0.92578-8.0078-5.1641-12.758-8.6797-15.375-2.4336-1.8008-5.3828-2.7734-8.4141-2.7656h-55.812c-3.0352-0.007813-5.9883 0.96094-8.4219 2.7656-3.5156 2.6172-7.7578 7.3672-8.6797 15.375h-0.003907c-0.066406 0.58984 0.12109 1.1797 0.51562 1.625 0.39453 0.44141 0.96094 0.69141 1.5508 0.69141z"/>
  <path d="m50.141 47.711c1.25-0.003907 2.2578-1.0117 2.2578-2.2578l0.003906-4.8477c2.1289-1.0508 3.2539-3.4297 2.7148-5.7422-0.53906-2.3125-2.6016-3.9492-4.9766-3.9492s-4.4375 1.6367-4.9766 3.9492c-0.53906 2.3125 0.58984 4.6914 2.7188 5.7422v4.8477c0 1.2461 1.0117 2.2578 2.2617 2.2578z"/>
  <path d="m9.8164 87.758h80.367c2.7617 0 5-2.2383 5.0039-5v-44.016c0-0.54688-0.21875-1.0742-0.60938-1.4648-0.38672-0.38672-0.91406-0.60547-1.4648-0.60547h-26.293c-0.50781 0-0.98828 0.22656-1.3086 0.62109-0.32422 0.39062-0.45312 0.90625-0.35547 1.4062l0.875 4.4102c0.24219 1.2109-0.1875 2.4609-1.125 3.2656-4.2812 3.6445-8.8203 6.9766-13.586 9.9609-0.80859 0.50781-1.832 0.50781-2.6406 0-4.7656-2.9844-9.3047-6.3164-13.582-9.9609-0.94141-0.80469-1.3711-2.0547-1.1289-3.2656l0.875-4.4102c0.097656-0.5-0.03125-1.0156-0.35547-1.4062-0.32031-0.39453-0.80078-0.62109-1.3086-0.62109h-26.293c-1.1445 0-2.0742 0.92969-2.0742 2.0703v44.016c0.003906 2.7617 2.2422 5 5.0039 5zm65.805-10.648 8.7266-8.4766-0.003906 0.003907c0.55078-0.53516 1.3711-0.6875 2.0781-0.39062s1.168 0.99219 1.168 1.7578v8.4766-0.003907c0 0.50781-0.19922 0.99609-0.55859 1.3555s-0.84766 0.5625-1.3516 0.55859h-8.7266c-0.77734 0-1.4766-0.46875-1.7695-1.1914-0.29297-0.71875-0.12109-1.5469 0.43359-2.0898zm-63.211-7.1016c0-0.76562 0.46094-1.4609 1.168-1.7578s1.5273-0.14453 2.0781 0.39062l8.7266 8.4766c0.55469 0.53906 0.72656 1.3672 0.43359 2.0859-0.29297 0.72266-0.99219 1.1914-1.7695 1.1953h-8.7266c-0.50391 0-0.99219-0.20313-1.3516-0.5625-0.35938-0.35938-0.55859-0.84766-0.55859-1.3516z"/>
 </g>
</svg>
