<?xml version="1.0" encoding="UTF-8"?>
<svg width="100pt" height="100pt" version="1.1" viewBox="0 0 100 100" xmlns="http://www.w3.org/2000/svg">
 <g>
  <path d="m43.945 13.34h12.109c3.1406 0 5.6875-2.5469 5.6875-5.6875v-1.5625c0-0.39453-0.15625-0.76953-0.43359-1.0469-0.27734-0.27734-0.65625-0.43359-1.0508-0.43359h-20.523c-0.39062 0-0.76953 0.15625-1.0469 0.43359-0.27734 0.27734-0.43359 0.65234-0.43359 1.0469v1.5625c0 1.5078 0.60156 2.957 1.668 4.0234 1.0664 1.0664 2.5156 1.6641 4.0234 1.6641z"/>
  <path d="m38.367 93.898c3.1523 1.1328 7.0312 1.7969 11.633 1.3672 4.6094 0.42969 8.4805-0.23438 11.633-1.3672 4.2578-1.543 7.9062-4.4062 10.418-8.1719 2.5117-3.7617 3.7539-8.2305 3.543-12.75-0.078125-1.6836-0.32031-3.3555-0.72656-4.9883-1.1289-4.5039-3.3555-8.6602-6.4766-12.098-3.2852-3.6406-6.3594-7.4609-9.2109-11.449v0.003906c-1.7383-2.457-2.6758-5.3906-2.6719-8.3984v-17.539c-0.003906-0.66016-0.53906-1.1953-1.1992-1.1953h-10.605c-0.66016 0-1.1953 0.53516-1.1953 1.1953v17.539c-0.003906 3.0078-0.9375 5.9453-2.6797 8.3984-2.8555 3.9883-5.9375 7.8125-9.2266 11.453-3.125 3.4414-5.3516 7.6016-6.4766 12.109-0.39453 1.6211-0.63281 3.2773-0.71094 4.9453-0.21484 4.5195 1.0234 8.9922 3.5352 12.762 2.5117 3.7695 6.1602 6.6367 10.414 8.1836zm-4.9688-27.898c0.36719-0.84375 0.80469-1.6523 1.3047-2.4219 1.5703-2.3867 4.2383-3.8125 7.0938-3.8008h16.406c2.8516-0.011719 5.5195 1.418 7.0859 3.8008 0.50391 0.76953 0.9375 1.5781 1.3047 2.4219 4.6523 10.633-2.7891 22.609-14.355 23.594-0.71094 0.058594-1.457 0.089844-2.2383 0.09375-0.78125 0-1.5273-0.03125-2.2383-0.09375-11.566-0.98438-19.008-12.961-14.363-23.594z"/>
 </g>
</svg>
