<?xml version="1.0" encoding="UTF-8"?>
<svg width="100pt" height="100pt" version="1.1" viewBox="0 0 100 100" xmlns="http://www.w3.org/2000/svg">
 <g>
  <path d="m22.484 34.156h-5.2969c-0.36719 0-0.71875 0.14844-0.98047 0.41016-0.25781 0.25781-0.40234 0.61328-0.39844 0.98047v2.8594c0.015625 1.1172-0.85156 2.0469-1.9688 2.1094-0.55078 0.019531-1.0859-0.1875-1.4805-0.57422-0.39453-0.38281-0.61328-0.91406-0.60938-1.4648v-2.9297c0-0.36719-0.14844-0.71875-0.40625-0.97656-0.25781-0.25781-0.60938-0.40625-0.97656-0.40625h-5.2891c-0.36719 0-0.72266 0.14453-0.98047 0.40234-0.26172 0.26172-0.41016 0.61328-0.40625 0.98047l-0.003906 60.766h20.176l0.003907-60.766c0-0.36719-0.14453-0.72266-0.40234-0.98047-0.26172-0.26172-0.61328-0.41016-0.98047-0.41016zm-4.7812 27.758c0.003906 0.76172-0.61719 1.3828-1.3789 1.3828h-5.0938c-0.76562 0-1.3828-0.61719-1.3828-1.3828v-5.1953c0.046875-2.1367 1.793-3.8438 3.9297-3.8438 2.1367 0 3.8789 1.707 3.9258 3.8438z"/>
  <path d="m94.922 34.156h-5.2891c-0.76172 0-1.3828 0.62109-1.3828 1.3828v2.8594-0.003907c0.019531 1.1211-0.84766 2.0508-1.9648 2.1133-0.55078 0.019532-1.082-0.1875-1.4766-0.57031-0.39453-0.38281-0.61719-0.91016-0.61328-1.4609v-2.9297c0-0.36719-0.14844-0.71875-0.40625-0.97656-0.25781-0.25781-0.60937-0.40625-0.97656-0.40625h-5.2969c-0.76172 0-1.3828 0.62109-1.3828 1.3828v60.766h20.176l0.003906-60.766c0-0.36719-0.14453-0.72266-0.40625-0.98438s-0.61719-0.40625-0.98438-0.40625zm-4.7695 27.758c0 0.76563-0.61719 1.3828-1.3828 1.3828h-5.0938c-0.76172 0-1.3828-0.62109-1.3789-1.3828v-5.1953c0-2.168 1.7578-3.9297 3.9258-3.9297 1.043 0 2.043 0.41406 2.7773 1.1523 0.73828 0.73438 1.1523 1.7344 1.1523 2.7773z"/>
  <path d="m44.414 21.852h-5.7812c-0.94922 0.003907-1.7188 0.77344-1.7188 1.7227v31.566c0 0.45703 0.17969 0.89453 0.50391 1.2148 0.32422 0.32422 0.76172 0.50391 1.2148 0.50391h24.633c0.45703 0.003906 0.89453-0.17969 1.2188-0.5 0.32031-0.32422 0.50391-0.76172 0.5-1.2188v-31.566c0.003906-0.45703-0.17969-0.89453-0.5-1.2188-0.32422-0.32031-0.76172-0.50391-1.2188-0.50391h-5.7812c-0.72656 0-1.3164 0.59375-1.3203 1.3203v3.3203c0 0.35156-0.13672 0.68359-0.38281 0.93359-0.25 0.24609-0.58203 0.38281-0.93359 0.38281h-7.7969c-0.72656 0-1.3164-0.58984-1.3164-1.3164v-3.3203c0-0.72656-0.59375-1.3203-1.3203-1.3203zm1.7188 18.789v0.003906c0-2.6602 2.1562-4.8164 4.8164-4.8164 1.2773 0 2.5 0.50781 3.4062 1.4102 0.90234 0.90625 1.4102 2.1289 1.4102 3.4062v4.5469c0 0.30469-0.12109 0.59375-0.33594 0.80859-0.21484 0.21484-0.50391 0.33594-0.80859 0.33594h-7.3398c-0.63281 0-1.1484-0.51172-1.1484-1.1445z"/>
  <path d="m70.391 61.27h-6.1641c-0.24609 0-0.47656 0.097657-0.64844 0.26953-0.17188 0.17188-0.26953 0.40234-0.26953 0.64453v3.7383c0 0.50781-0.41016 0.91797-0.91797 0.91797h-7.0391c-0.50781 0-0.91797-0.41016-0.91797-0.91797v-3.7344c0.003906-0.24609-0.09375-0.47656-0.26562-0.64844-0.17188-0.17187-0.40625-0.26953-0.64844-0.26562l-7.0352-0.003907c-0.24219 0-0.47656 0.097657-0.64844 0.26953-0.17188 0.17188-0.26953 0.40234-0.26563 0.64453v3.7383c0 0.50781-0.41016 0.91797-0.91797 0.91797h-7.0312c-0.50781 0-0.91797-0.41016-0.91797-0.91797v-3.7344c0.003906-0.24609-0.09375-0.47656-0.26562-0.64844-0.17188-0.17187-0.40625-0.26953-0.64844-0.26562l-6.1797-0.003907c-0.98828 0-1.7891 0.80469-1.7891 1.7891v32.074c0 0.64844 0.52344 1.1719 1.1719 1.1719h8.1562c0.64844 0 1.1719-0.52344 1.1719-1.1719v-6.5781c0-3.0977 1.2305-6.0664 3.4219-8.2578 2.1914-2.1875 5.1602-3.418 8.2578-3.418 6.4492 0 11.676 5.2266 11.676 11.676v6.5781c0 0.64844 0.52344 1.1719 1.1719 1.1719h8.1523c0.64844 0 1.1719-0.52344 1.1719-1.1719v-32.07c0-0.98828-0.79688-1.7852-1.7812-1.793z"/>
  <path d="m52.977 21.273v-3.5391l9.6484-4.8203c0.6875-0.34375 1.1211-1.0469 1.1211-1.8125 0-0.76953-0.43359-1.4727-1.1211-1.8164l-10.766-5.3789-0.03125-0.015625c-0.058594-0.027344-0.11719-0.054687-0.17969-0.078125l-0.050782-0.015625h-0.003906c-0.14844-0.050781-0.30469-0.082031-0.46484-0.09375h-0.070312-0.11328-0.14062 0.007812c-0.054688 0-0.10938 0.007813-0.16406 0.015625l-0.070313 0.007812c-0.074219 0.015626-0.14844 0.03125-0.22266 0.054688-0.078125 0.023438-0.15234 0.050781-0.22656 0.085938l-0.046875 0.023437c-0.058593 0.023437-0.11328 0.054687-0.16797 0.085937l-0.03125 0.015626-0.023437 0.015624c-0.0625 0.039063-0.11719 0.078126-0.17188 0.125l-0.023438 0.015626c-0.058593 0.050781-0.11719 0.10547-0.17187 0.16016l-0.042969 0.046875c-0.039063 0.042969-0.078125 0.085937-0.10938 0.13281l-0.039063 0.054688c-0.039062 0.054687-0.074219 0.10938-0.10938 0.17188l-0.015625 0.023437h-0.003906c-0.035156 0.070313-0.070313 0.14453-0.10156 0.21484l-0.011718 0.035156c-0.023438 0.066407-0.046875 0.13281-0.0625 0.19531 0 0.023437-0.011719 0.039062-0.015625 0.0625-0.015625 0.0625-0.027344 0.12109-0.035157 0.17969v0.0625c-0.011718 0.078125-0.015624 0.16016-0.015624 0.23828v15.555c0 1.1211 0.91016 2.0312 2.0273 2.0312 1.1211 0 2.0312-0.91016 2.0312-2.0312z"/>
 </g>
</svg>
