<?xml version="1.0" encoding="UTF-8"?>
<svg width="100pt" height="100pt" version="1.1" viewBox="0 0 100 100" xmlns="http://www.w3.org/2000/svg">
 <path d="m80.227 31.566-3.5273 0.19531s-4.8516-9.4375-14.73-7.5039l-5.375-0.23047 1.0742 4.6289-8.1641 4.6289-8.1641-4.6289 1.0703-4.6289-5.3711 0.23047c-9.8867-1.9336-14.734 7.5039-14.734 7.5039l-3.5273-0.19531c-1.293 12.246 12.031 14.395 12.031 14.395l0.85547-1.2852c1.7188 4.082 5.8008 16.969 1.7461 18.043-4.0586 1.0703 0 6.6602 0 6.6602l11.844 8.7031h8.4805l11.848-8.7031s4.0586-5.5898 0-6.6602c-4.0547-1.0742 0.027344-13.961 1.7422-18.043l0.85938 1.2852c0.007812 0 13.328-2.1484 12.043-14.395z"/>
</svg>
