<svg width="38" height="34" xmlns="http://www.w3.org/2000/svg" xmlns:xlink="http://www.w3.org/1999/xlink" overflow="hidden"><defs><clipPath id="clip0"><rect x="7" y="427" width="38" height="34"/></clipPath><clipPath id="clip1"><rect x="8" y="428" width="37" height="32"/></clipPath><clipPath id="clip2"><rect x="8" y="428" width="37" height="32"/></clipPath><clipPath id="clip3"><rect x="8" y="428" width="42" height="41"/></clipPath></defs><g clip-path="url(#clip0)" transform="translate(-7 -427)"><g clip-path="url(#clip1)"><g clip-path="url(#clip2)"><g clip-path="url(#clip3)"><path d="M20.534 7.10846C18.0643 7.10846 15.6959 8.08935 13.9494 9.83558 12.2032 11.582 11.2223 13.9504 11.2223 16.4201 11.2223 18.8898 12.2032 21.2582 13.9494 23.0041 15.6959 24.7503 18.0642 25.7315 20.534 25.7315 23.0036 25.7315 25.372 24.7503 27.118 23.0041 28.8639 21.2579 29.8453 18.8896 29.8453 16.4201 29.8455 13.9505 28.8644 11.5819 27.1182 9.83558 25.372 8.08912 23.0034 7.10822 20.5336 7.10846ZM16.2532 14.7676C15.5919 15.6154 15.1162 16.5926 14.8567 17.6359 14.7037 18.2432 13.8227 18.2 13.7462 17.5785L13.7464 17.5785C13.7116 17.2912 13.6941 17.0019 13.6941 16.7124 13.6925 15.6331 13.9388 14.5678 14.4137 13.5987 14.5532 13.3228 14.8027 13.1186 15.1007 13.0367 15.3987 12.9547 15.7176 13.0025 15.9784 13.1682 16.2393 13.3342 16.418 13.6023 16.4704 13.9072 16.5227 14.2118 16.4437 14.5243 16.2532 14.7677ZM18.6435 11.9033C18.5911 11.9326 18.5401 11.9624 18.4905 11.9925 18.279 12.12 18.0307 12.1716 17.7857 12.1393 17.541 12.1068 17.3147 11.9923 17.1437 11.814L17.1151 11.784C16.8735 11.5324 16.767 11.1805 16.8285 10.8372 16.8897 10.4939 17.1112 10.2005 17.4246 10.0478 17.4972 10.012 17.5705 9.97765 17.6445 9.9451 17.9156 9.82286 18.225 9.81671 18.5009 9.92848 18.7766 10.04 18.9946 10.2595 19.1041 10.5361 19.1087 10.547 19.1123 10.5577 19.1169 10.5679 19.2116 10.8101 19.2157 11.0785 19.129 11.3237 19.0422 11.5686 18.8699 11.7744 18.6441 11.9033Z" fill="#6A6F77" transform="matrix(1.01701 0 0 1 8 428)"/><path d="M11.7915 5.58035C11.0387 5.05314 9.89455 3.98687 9.27514 2.09134 9.23212 1.93313 9.08848 1.8234 8.92458 1.8234 8.76068 1.8234 8.61704 1.93312 8.57402 2.09134 7.95437 3.98553 6.81095 5.05313 6.05494 5.58035 5.94067 5.66481 5.87715 5.80185 5.88671 5.94367 5.89605 6.08549 5.97709 6.21274 6.10138 6.28148 7.4194 6.95072 8.18316 8.50027 8.57582 9.59591 8.62203 9.74843 8.76271 9.85268 8.92228 9.85268 9.08163 9.85268 9.22231 9.74842 9.26875 9.59591 9.66143 8.50097 10.4249 6.95142 11.7432 6.28148L11.743 6.28148C11.8677 6.21319 11.949 6.08594 11.9588 5.94412 11.9686 5.8023 11.9055 5.66526 11.7914 5.58035Z" fill="#6A6F77" transform="matrix(1.01701 0 0 1 8 428)"/><path d="M34.7375 26.5422C33.984 26.0145 32.8406 24.9487 32.2212 23.0525 32.1781 22.8943 32.0345 22.7845 31.8706 22.7845 31.7067 22.7845 31.5631 22.8943 31.52 23.0525 30.9004 24.9469 29.7563 26.0145 29.0037 26.5422L29.0035 26.5422C28.8892 26.6267 28.8259 26.7635 28.8352 26.9053 28.8446 27.0473 28.9256 27.1746 29.0501 27.2433 30.3681 27.9119 31.1319 29.4614 31.5246 30.5578L31.5243 30.5578C31.5708 30.7103 31.7115 30.8145 31.8708 30.8145 32.0302 30.8145 32.1708 30.7103 32.2173 30.5578 32.61 29.4628 33.3735 27.9133 34.6917 27.2433L34.6915 27.2433C34.816 27.1744 34.8968 27.0471 34.9061 26.9053 34.9153 26.7635 34.8517 26.6267 34.7375 26.5422Z" fill="#6A6F77" transform="matrix(1.01701 0 0 1 8 428)"/><path d="M0.213067-0.0127478C0.202141-0.00728445 0.190531-0.00295923 0.178466 0 0.166856 0.00295929 0.154792 0.00455278 0.142044 0.00455278 0.103117 0.00455278 0.0721597-0.00591876 0.0491642-0.027317 0.0266279-0.0491703 0.0154739-0.078536 0.0154739-0.115639 0.0154739-0.1532 0.0266284-0.182563 0.0491642-0.203962 0.0721557-0.225815 0.103115-0.236742 0.142044-0.236742 0.154792-0.236742 0.166856-0.235148 0.178466-0.232189 0.190531-0.229002 0.202141-0.224905 0.213067-0.219441L0.213067-0.171182C0.202141-0.178467 0.191214-0.18393 0.180287-0.187572 0.169816-0.191214 0.158662-0.193036 0.146597-0.193036 0.125199-0.193036 0.108354-0.185979 0.0956058-0.172092 0.0833131-0.158662 0.0773946-0.139768 0.0773946-0.115638 0.0773946-0.0919635 0.0833131-0.0730694 0.0956058-0.0591835 0.108354-0.0457527 0.125199-0.0391513 0.146597-0.0391513 0.158662-0.0391513 0.169816-0.0405171 0.180287-0.0437041 0.191214-0.0473463 0.202141-0.0530375 0.213067-0.0610049Z" fill="#6A6F77" transform="matrix(1.01701 0 0 1 12.1487 461.59)"/><path d="M0.156616-0.126569C0.151608-0.128845 0.146827-0.130666 0.142047-0.132032 0.137039-0.13317 0.132258-0.133853 0.127478-0.133853 0.112909-0.133853 0.101527-0.128845 0.0937876-0.119284 0.0865031-0.110179 0.0828609-0.0969758 0.0828609-0.0801301L0.0828609-1.16551e-06 0.0264064-1.16551e-06 0.0264064-0.173919 0.0828609-0.173919 0.0828609-0.145691C0.0894623-0.157073 0.0974298-0.165268 0.106535-0.170277 0.116096-0.17574 0.127478-0.178471 0.140226-0.178471L0.1466-0.178471C0.148876-0.178471 0.152063-0.178016 0.155705-0.177561Z" fill="#6A6F77" transform="matrix(1.01701 0 0 1 12.3864 461.59)"/><path d="M0.200322-0.0874134 0.200322-0.0719342 0.0701114-0.0719342C0.0719325-0.0585034 0.0767128-0.0484876 0.0846803-0.0418862 0.0924198-0.0357398 0.103802-0.0327806 0.118371-0.0327806 0.130435-0.0327806 0.1425-0.0341465 0.154793-0.0373334 0.166858-0.0409756 0.179378-0.0464389 0.192125-0.0537234L0.192125-0.010927C0.179377-0.00546363 0.166175-0.00136627 0.152971 0.000909973 0.13954 0.00318633 0.126565 0.0045522 0.113817 0.0045522 0.082175 0.0045522 0.0575903-0.00318738 0.0400633-0.0191223 0.0223073-0.0355123 0.0136575-0.0582765 0.0136575-0.0874154 0.0136575-0.115187 0.02208-0.137496 0.039153-0.153885 0.0566812-0.170275 0.0803556-0.17847 0.110179-0.17847 0.137496-0.17847 0.159349-0.170275 0.175739-0.153885 0.192129-0.137494 0.200325-0.115186 0.200325-0.0874154ZM0.143868-0.106535C0.143868-0.116778 0.140453-0.124974 0.133851-0.13112 0.127705-0.137722 0.119738-0.141136 0.110177-0.141136 0.0992503-0.141136 0.0903726-0.13795 0.0837712-0.132031 0.0769418-0.125885 0.0728445-0.117462 0.0710234-0.106535Z" fill="#6A6F77" transform="matrix(1.01701 0 0 1 12.5464 461.59)"/><path d="M0.104715-0.0783107C0.0931057-0.0783107 0.084228-0.0760344 0.0783096-0.0719365 0.0728462-0.0682943 0.0701149-0.0623759 0.0701149-0.0546357 0.0701149-0.0478064 0.0721636-0.042343 0.076489-0.0382457 0.0812694-0.0346035 0.0878709-0.0327823 0.0965213-0.0327823 0.106765-0.0327823 0.115643-0.0364246 0.122927-0.043709 0.130212-0.0509935 0.133854-0.0603269 0.133854-0.0719365L0.133854-0.0783107ZM0.190311-0.0992538 0.190311-4.66205e-06 0.133856-4.66205e-06 0.133856-0.0255002C0.126572-0.0150287 0.117921-0.00751697 0.108361-0.00273662 0.099255 0.00204378 0.0878732 0.00454783 0.0746703 0.00454783 0.0564591 0.00454783 0.0414351-0.000460261 0.0300533-0.0109313 0.0191266-0.021858 0.0136633-0.0355166 0.0136633-0.0519061 0.0136633-0.0723934 0.0204926-0.0876453 0.0346064-0.0974339 0.0484923-0.106995 0.0705735-0.112003 0.101076-0.112003L0.133856-0.112003 0.133856-0.115645C0.133856-0.124751 0.130213-0.131124 0.122929-0.134766 0.1161-0.138864 0.105628-0.141141 0.0910591-0.141141 0.0787665-0.141141 0.0676125-0.139775 0.0573688-0.137498 0.0468973-0.134994 0.0375644-0.13158 0.0291413-0.127482L0.0291413-0.169368C0.0405231-0.172327 0.0523606-0.174376 0.0646533-0.175742 0.0767181-0.177563 0.0887829-0.178473 0.101076-0.178473 0.13249-0.178473 0.155254-0.172099 0.169369-0.159352 0.183255-0.147059 0.190312-0.127027 0.190312-0.0992582Z" fill="#6A6F77" transform="matrix(1.01701 0 0 1 12.7661 461.59)"/><path d="M0.0874134-0.224 0.0874134-0.173919 0.144779-0.173919 0.144779-0.134765 0.0874134-0.134765 0.0874134-0.0601019C0.0874134-0.0521345 0.0887792-0.0466712 0.0919662-0.0437119 0.0956084-0.0412079 0.10221-0.0400697 0.111998-0.0400697L0.140226-0.0400697 0.140226-5.2448e-06 0.092877-5.2448e-06C0.0703407-5.2448e-06 0.0546337-0.00455803 0.0455281-0.0136639 0.0364225-0.0227697 0.0318695-0.0382492 0.0318695-0.0601025L0.0318695-0.134765 0.00455278-0.134765 0.00455278-0.173919 0.0318695-0.173919 0.0318695-0.224Z" fill="#6A6F77" transform="matrix(1.01701 0 0 1 12.9849 461.59)"/><path d="M0.200322-0.0874134 0.200322-0.0719342 0.0701114-0.0719342C0.0719325-0.0585034 0.0767128-0.0484876 0.0846803-0.0418862 0.0924198-0.0357398 0.103802-0.0327806 0.118371-0.0327806 0.130435-0.0327806 0.1425-0.0341465 0.154793-0.0373334 0.166858-0.0409756 0.179378-0.0464389 0.192125-0.0537234L0.192125-0.010927C0.179377-0.00546363 0.166175-0.00136627 0.152971 0.000909973 0.13954 0.00318633 0.126565 0.0045522 0.113817 0.0045522 0.082175 0.0045522 0.0575903-0.00318738 0.0400633-0.0191223 0.0223073-0.0355123 0.0136575-0.0582765 0.0136575-0.0874154 0.0136575-0.115187 0.02208-0.137496 0.039153-0.153885 0.0566812-0.170275 0.0803556-0.17847 0.110179-0.17847 0.137496-0.17847 0.159349-0.170275 0.175739-0.153885 0.192129-0.137494 0.200325-0.115186 0.200325-0.0874154ZM0.143868-0.106535C0.143868-0.116778 0.140453-0.124974 0.133851-0.13112 0.127705-0.137722 0.119738-0.141136 0.110177-0.141136 0.0992503-0.141136 0.0903726-0.13795 0.0837712-0.132031 0.0769418-0.125885 0.0728445-0.117462 0.0710234-0.106535Z" fill="#6A6F77" transform="matrix(1.01701 0 0 1 13.1398 461.59)"/><path d="M0.145689-0.148422 0.145689-0.242211 0.201233-0.242211 0.201233-5.82756e-06 0.145689-5.82756e-06 0.145689-0.0255014C0.137722-0.0150299 0.129299-0.00751813 0.120193-0.00273779 0.111088 0.00204262 0.100389 0.00454666 0.0883236 0.00454666 0.0664703 0.00454666 0.048487-0.00387591 0.0346005-0.0209489 0.0211698-0.037794 0.0145683-0.0601031 0.0145683-0.087418 0.0145683-0.114052 0.0211698-0.135905 0.0346005-0.152978 0.0484865-0.169823 0.0664703-0.178474 0.0883236-0.178474 0.0997055-0.178474 0.110177-0.17597 0.119283-0.171189 0.128843-0.166181 0.137722-0.158669 0.145688-0.148426ZM0.108356-0.0355131C0.120421-0.0355131 0.129527-0.0396107 0.135673-0.0482609 0.142275-0.0573665 0.14569-0.0703421 0.14569-0.0874151 0.14569-0.103805 0.142275-0.116098 0.135673-0.124748 0.129527-0.133853 0.120421-0.138406 0.108356-0.138406 0.0967468-0.138406 0.0876412-0.133853 0.0810398-0.124748 0.0748935-0.116097 0.0719342-0.103805 0.0719342-0.0874151 0.0719342-0.0703421 0.0748935-0.0573671 0.0810398-0.0482609 0.0876412-0.0396105 0.0967468-0.0355131 0.108356-0.0355131Z" fill="#6A6F77" transform="matrix(1.01701 0 0 1 13.3597 461.59)"/><path d="M0.119284-0.035512C0.131349-0.035512 0.140455-0.0396095 0.146601-0.0482598 0.153202-0.0573653 0.156617-0.070341 0.156617-0.087414 0.156617-0.103804 0.153203-0.116097 0.146601-0.124746 0.140455-0.133852 0.131349-0.138405 0.119284-0.138405 0.107675-0.138405 0.0985691-0.133852 0.0919676-0.124746 0.0858213-0.116096 0.0828621-0.103803 0.0828621-0.087414 0.0828621-0.070341 0.0858214-0.0573659 0.0919676-0.0482598 0.0985691-0.0396093 0.107675-0.035512 0.119284-0.035512ZM0.0828621-0.148421C0.0901465-0.158665 0.0983412-0.166177 0.107447-0.171185 0.117008-0.175965 0.127935-0.178469 0.140227-0.178469 0.161398-0.178469 0.178926-0.169819 0.19304-0.152973 0.206926-0.1359 0.213983-0.114047 0.213983-0.0874134 0.213983-0.0600967 0.206926-0.0377882 0.19304-0.0209442 0.178926-0.00387125 0.161398 0.00455132 0.140227 0.00455132 0.127935 0.00455132 0.117008 0.00204728 0.107447-0.00273313 0.0983418-0.00751353 0.0901465-0.0150258 0.0828621-0.0254967L0.0828621-1.16551e-06 0.0264076-1.16551e-06 0.0264076-0.242206 0.0828621-0.242206Z" fill="#6A6F77" transform="matrix(1.01701 0 0 1 13.7044 461.59)"/><path d="M0.00364222-0.173918 0.0591859-0.173918 0.106535-0.0564574 0.146599-0.173918 0.202143-0.173918 0.128389 0.0163871C0.121105 0.0357363 0.112454 0.049395 0.102894 0.0573618 0.0931052 0.0651014 0.0801301 0.0691988 0.0637395 0.0691988L0.0318698 0.0691988 0.0318698 0.0318663 0.0491706 0.0318663C0.0587313 0.0318663 0.0657885 0.0302728 0.0701137 0.0273135 0.0742112 0.0241265 0.077626 0.0191188 0.0801301 0.0118343L0.0819512 0.00637098Z" fill="#6A6F77" transform="matrix(1.01701 0 0 1 13.9366 461.59)"/><path d="M0.0291378-0.232193 0.105625-0.232193 0.158437-0.108358 0.211249-0.232193 0.287736-0.232193 0.287736 0 0.231281 0 0.231281-0.170275 0.177558-0.0446216 0.139315-0.0446216 0.0865025-0.170275 0.0865025 0 0.0291372 0Z" fill="#6A6F77" transform="matrix(1.01701 0 0 1 14.2608 461.59)"/><path d="M0.104715-0.0783107C0.0931057-0.0783107 0.084228-0.0760344 0.0783096-0.0719365 0.0728462-0.0682943 0.0701149-0.0623759 0.0701149-0.0546357 0.0701149-0.0478064 0.0721636-0.042343 0.076489-0.0382457 0.0812694-0.0346035 0.0878709-0.0327823 0.0965213-0.0327823 0.106765-0.0327823 0.115643-0.0364246 0.122927-0.043709 0.130212-0.0509935 0.133854-0.0603269 0.133854-0.0719365L0.133854-0.0783107ZM0.190311-0.0992538 0.190311-4.66205e-06 0.133856-4.66205e-06 0.133856-0.0255002C0.126572-0.0150287 0.117921-0.00751697 0.108361-0.00273662 0.099255 0.00204378 0.0878732 0.00454783 0.0746703 0.00454783 0.0564591 0.00454783 0.0414351-0.000460261 0.0300533-0.0109313 0.0191266-0.021858 0.0136633-0.0355166 0.0136633-0.0519061 0.0136633-0.0723934 0.0204926-0.0876453 0.0346064-0.0974339 0.0484923-0.106995 0.0705735-0.112003 0.101076-0.112003L0.133856-0.112003 0.133856-0.115645C0.133856-0.124751 0.130213-0.131124 0.122929-0.134766 0.1161-0.138864 0.105628-0.141141 0.0910591-0.141141 0.0787665-0.141141 0.0676125-0.139775 0.0573688-0.137498 0.0468973-0.134994 0.0375644-0.13158 0.0291413-0.127482L0.0291413-0.169368C0.0405231-0.172327 0.0523606-0.174376 0.0646533-0.175742 0.0767181-0.177563 0.0887829-0.178473 0.101076-0.178473 0.13249-0.178473 0.155254-0.172099 0.169369-0.159352 0.183255-0.147059 0.190312-0.127027 0.190312-0.0992582Z" fill="#6A6F77" transform="matrix(1.01701 0 0 1 14.5833 461.59)"/><path d="M0.0710263-0.0892316 0.00819938-0.173912 0.066475-0.173912 0.102897-0.122921 0.138409-0.173912 0.197594-0.173912 0.134767-0.0892316 0.200327 -1.29398e-17 0.142051 -1.29398e-17 0.102897-0.0546334 0.063743 -1.29398e-17 0.00455832 -1.29398e-17Z" fill="#6A6F77" transform="matrix(1.01701 0 0 1 14.8018 461.59)"/><path d="M0.0264058-0.173918 0.0828603-0.173918 0.0828603 0 0.0264058 0ZM0.0264058-0.242211 0.0828603-0.242211 0.0828603-0.196683 0.0264058-0.196683Z" fill="#6A6F77" transform="matrix(1.01701 0 0 1 15.0109 461.59)"/><path d="M0.167542-0.168451 0.167542-0.123834C0.160258-0.128615 0.152518-0.132257 0.144779-0.134761 0.136811-0.137037 0.128844-0.138403 0.121104-0.138403 0.105169-0.138403 0.0931046-0.133851 0.084682-0.124745 0.0760316-0.115639 0.0719342-0.103119 0.0719342-0.0874122 0.0719342-0.0710222 0.0760318-0.0582744 0.084682-0.0491689 0.0931046-0.0400633 0.105169-0.0355102 0.121104-0.0355102 0.129527-0.0355102 0.137722-0.0366484 0.14569-0.0391525 0.153429-0.0414289 0.160714-0.0455266 0.167543-0.0509894L0.167543-0.00546159C0.158892-0.00181936 0.150242 0.000456881 0.141137 0.00182286 0.132032 0.00364397 0.122926 0.00455453 0.11382 0.00455453 0.0821785 0.00455453 0.0575938-0.00318505 0.0400668-0.0191199 0.0223108-0.0355099 0.013661-0.0582741 0.013661-0.0874131 0.013661-0.115868 0.0223114-0.137949 0.0400668-0.153882 0.0575949-0.170272 0.0821802-0.178468 0.11382-0.178468 0.122926-0.178468 0.132032-0.177557 0.141137-0.175736 0.150243-0.17437 0.158893-0.172094 0.167543-0.168451Z" fill="#6A6F77" transform="matrix(1.01701 0 0 1 15.122 461.59)"/><path d="M0.109267-0.138405C0.0969741-0.138405 0.0876412-0.133852 0.0810392-0.124746 0.0748929-0.116095 0.0719336-0.103803 0.0719336-0.0874134 0.0719336-0.0703404 0.0748929-0.0573653 0.0810392-0.0482592 0.0876407-0.0396088 0.0969741-0.0355114 0.109267-0.0355114 0.121332-0.0355114 0.130665-0.0396089 0.137494-0.0482592 0.144096-0.0573647 0.147511-0.0703404 0.147511-0.0874134 0.147511-0.103803 0.144096-0.116096 0.137494-0.124746 0.130665-0.133851 0.121332-0.138405 0.109267-0.138405ZM0.109267-0.178469C0.139543-0.178469 0.16299-0.170274 0.179378-0.153884 0.196223-0.137949 0.204874-0.115868 0.204874-0.0874145 0.204874-0.0582768 0.196223-0.0355131 0.179378-0.0191214 0.162988-0.00318651 0.139541 0.00455307 0.109267 0.00455307 0.0794459 0.00455307 0.0559993-0.00318651 0.0391554-0.0191214 0.0220824-0.0355114 0.0136598-0.0582756 0.0136598-0.0874145 0.0136598-0.115869 0.0220824-0.137951 0.0391554-0.153884 0.0560005-0.170274 0.0794477-0.178469 0.109267-0.178469Z" fill="#6A6F77" transform="matrix(1.01701 0 0 1 15.3141 461.59)"/><path d="M0.202146-0.106534 0.202146 0 0.145692 0 0.145692-0.081038C0.145692-0.0960621 0.145237-0.106534 0.144781-0.111997 0.144098-0.117915 0.14296-0.122241 0.141139-0.124745 0.139318-0.128387 0.136131-0.131119 0.132034-0.132939 0.128391-0.135216 0.124294-0.136582 0.120197-0.136582 0.107904-0.136582 0.0985711-0.132029 0.0919691-0.122923 0.0858228-0.113817 0.0828635-0.101298 0.0828635-0.0855905L0.0828635 4.66205e-06 0.026409 4.66205e-06 0.026409-0.173913 0.0828635-0.173913 0.0828635-0.148417C0.0906031-0.158661 0.0994814-0.166173 0.109269-0.171181 0.11883-0.175961 0.129302-0.178465 0.140228-0.178465 0.16026-0.178465 0.175285-0.172091 0.185756-0.159344 0.196683-0.147051 0.202146-0.129523 0.202146-0.106532Z" fill="#6A6F77" transform="matrix(1.01701 0 0 1 15.5368 461.59)"/><path d="M0.162991-0.168451 0.162991-0.126566C0.150698-0.131346 0.139317-0.134988 0.12839-0.137493 0.117463-0.139769 0.106764-0.141135 0.0965201-0.141135 0.0860486-0.141135 0.078309-0.139769 0.0728457-0.137493 0.0678376-0.134988 0.0655612-0.131118 0.0655612-0.125656 0.0655612-0.120647 0.0673823-0.117005 0.0710245-0.114729 0.075122-0.112225 0.0824063-0.110404 0.0928779-0.109266L0.101983-0.108355C0.130438-0.104713 0.14956-0.0985665 0.159349-0.0901439 0.169592-0.0821764 0.174828-0.0692008 0.174828-0.0509897 0.174828-0.0327786 0.167771-0.0186648 0.153885-0.0091041 0.140454 1.45689e-06 0.120195 0.00455453 0.0928761 0.00455453 0.0812665 0.00455453 0.0692017 0.00364397 0.0564539 0.00182286 0.0441612 1.74827e-06 0.0318686-0.00272992 0.0191214-0.00637185L0.0191214-0.0482574C0.0300481-0.0432494 0.0412026-0.0393797 0.0528117-0.0364205 0.0648765-0.0339164 0.0769413-0.0327783 0.0892339-0.0327783 0.100161-0.0327783 0.108355-0.0341441 0.113819-0.0373311 0.119283-0.0402903 0.122014-0.0446155 0.122014-0.0500788 0.122014-0.0555422 0.119738-0.0594123 0.11564-0.0619158 0.111998-0.0641921 0.104713-0.0660132 0.0937864-0.0673791L0.08377-0.0682897C0.0587296-0.071249 0.0412014-0.0769401 0.0309577-0.0855905 0.0211692-0.0940131 0.0163888-0.106761 0.0163888-0.123834 0.0163888-0.1425 0.022763-0.156159 0.0355102-0.164809 0.048258-0.173914 0.0676073-0.178467 0.0937858-0.178467 0.104029-0.178467 0.114729-0.177557 0.125656-0.175736 0.137037-0.17437 0.149558-0.172093 0.162988-0.168451Z" fill="#6A6F77" transform="matrix(1.01701 0 0 1 15.7677 461.59)"/><path d="M0.141138-0.242205 0.141138-0.205783 0.11109-0.205783C0.103122-0.205783 0.097431-0.204189 0.0937887-0.20123 0.0906018-0.198043 0.089236-0.193263 0.089236-0.186661L0.089236-0.173913 0.137495-0.173913 0.137495-0.134759 0.089236-0.134759 0.089236 3.20516e-06 0.0336923 3.20516e-06 0.0336923-0.134759 0.00637564-0.134759 0.00637564-0.173913 0.0336923-0.173913 0.0336923-0.186661C0.0336923-0.205327 0.0387004-0.219441 0.0491715-0.228547 0.0600982-0.237652 0.076716-0.242205 0.0992524-0.242205Z" fill="#6A6F77" transform="matrix(1.01701 0 0 1 12.1487 461.909)"/><path d="M0.156616-0.126569C0.151608-0.128845 0.146827-0.130666 0.142047-0.132032 0.137039-0.13317 0.132258-0.133853 0.127478-0.133853 0.112909-0.133853 0.101527-0.128845 0.0937876-0.119284 0.0865031-0.110179 0.0828609-0.0969758 0.0828609-0.0801301L0.0828609-1.16551e-06 0.0264064-1.16551e-06 0.0264064-0.173919 0.0828609-0.173919 0.0828609-0.145691C0.0894623-0.157073 0.0974298-0.165268 0.106535-0.170277 0.116096-0.17574 0.127478-0.178471 0.140226-0.178471L0.1466-0.178471C0.148876-0.178471 0.152063-0.178016 0.155705-0.177561Z" fill="#6A6F77" transform="matrix(1.01701 0 0 1 12.2897 461.909)"/><path d="M0.109267-0.138405C0.0969741-0.138405 0.0876412-0.133852 0.0810392-0.124746 0.0748929-0.116095 0.0719336-0.103803 0.0719336-0.0874134 0.0719336-0.0703404 0.0748929-0.0573653 0.0810392-0.0482592 0.0876407-0.0396088 0.0969741-0.0355114 0.109267-0.0355114 0.121332-0.0355114 0.130665-0.0396089 0.137494-0.0482592 0.144096-0.0573647 0.147511-0.0703404 0.147511-0.0874134 0.147511-0.103803 0.144096-0.116096 0.137494-0.124746 0.130665-0.133851 0.121332-0.138405 0.109267-0.138405ZM0.109267-0.178469C0.139543-0.178469 0.16299-0.170274 0.179378-0.153884 0.196223-0.137949 0.204874-0.115868 0.204874-0.0874145 0.204874-0.0582768 0.196223-0.0355131 0.179378-0.0191214 0.162988-0.00318651 0.139541 0.00455307 0.109267 0.00455307 0.0794459 0.00455307 0.0559993-0.00318651 0.0391554-0.0191214 0.0220824-0.0355114 0.0136598-0.0582756 0.0136598-0.0874145 0.0136598-0.115869 0.0220824-0.137951 0.0391554-0.153884 0.0560005-0.170274 0.0794477-0.178469 0.109267-0.178469Z" fill="#6A6F77" transform="matrix(1.01701 0 0 1 12.4496 461.909)"/><path d="M0.188487-0.145689C0.195088-0.155933 0.203283-0.1639 0.213072-0.169363 0.222633-0.175282 0.233559-0.178469 0.245852-0.178469 0.265201-0.178469 0.279998-0.172095 0.290469-0.159348 0.301396-0.147055 0.306859-0.129527 0.306859-0.106535L0.306859-1.74827e-06 0.250404-1.74827e-06 0.250404-0.0910574C0.25086-0.0921955 0.251315-0.0933337 0.251315-0.0946996L0.251315-0.101074C0.251315-0.113822 0.249494-0.122927 0.245852-0.12839 0.242209-0.133854 0.236291-0.136585 0.228551-0.136585 0.217624-0.136585 0.208974-0.132032 0.203055-0.122927 0.197592-0.114276 0.19486-0.101983 0.19486-0.085594L0.19486 1.16551e-06 0.138406 1.16551e-06 0.138406-0.0910544C0.138406-0.110404 0.136585-0.122924 0.132943-0.128387 0.129756-0.13385 0.124065-0.136582 0.115642-0.136582 0.10517-0.136582 0.0969755-0.132029 0.0910565-0.122923 0.0855931-0.114273 0.0828618-0.10198 0.0828618-0.0855905L0.0828618 4.66205e-06 0.0264073 4.66205e-06 0.0264073-0.173913 0.0828618-0.173913 0.0828618-0.148417C0.0894632-0.158661 0.0969755-0.166173 0.105625-0.171181 0.114731-0.175961 0.124747-0.178465 0.135673-0.178465 0.147738-0.178465 0.158437-0.175279 0.167543-0.16936 0.176649-0.163897 0.183478-0.155929 0.188486-0.145685Z" fill="#6A6F77" transform="matrix(1.01701 0 0 1 12.6721 461.909)"/><path d="M0.0874134-0.224 0.0874134-0.173919 0.144779-0.173919 0.144779-0.134765 0.0874134-0.134765 0.0874134-0.0601019C0.0874134-0.0521345 0.0887792-0.0466712 0.0919662-0.0437119 0.0956084-0.0412079 0.10221-0.0400697 0.111998-0.0400697L0.140226-0.0400697 0.140226-5.2448e-06 0.092877-5.2448e-06C0.0703407-5.2448e-06 0.0546337-0.00455803 0.0455281-0.0136639 0.0364225-0.0227697 0.0318695-0.0382492 0.0318695-0.0601025L0.0318695-0.134765 0.00455278-0.134765 0.00455278-0.173919 0.0318695-0.173919 0.0318695-0.224Z" fill="#6A6F77" transform="matrix(1.01701 0 0 1 13.1229 461.909)"/><path d="M0.202146-0.106534 0.202146 0 0.145692 0 0.145692-0.081038C0.145692-0.0960621 0.145237-0.106534 0.144781-0.111997 0.144098-0.117915 0.14296-0.122241 0.141139-0.124745 0.139318-0.128387 0.136131-0.131119 0.132034-0.132939 0.128391-0.135216 0.124294-0.136582 0.120197-0.136582 0.107904-0.136582 0.0985711-0.132029 0.0919691-0.122923 0.0858228-0.113817 0.0828635-0.101298 0.0828635-0.0855905L0.0828635 4.66205e-06 0.026409 4.66205e-06 0.026409-0.2422 0.0828635-0.2422 0.0828635-0.148412C0.0906031-0.158655 0.0994814-0.166168 0.109269-0.171175 0.11883-0.175956 0.129302-0.17846 0.140228-0.17846 0.16026-0.17846 0.175285-0.172085 0.185756-0.159338 0.196683-0.147046 0.202146-0.129517 0.202146-0.106526Z" fill="#6A6F77" transform="matrix(1.01701 0 0 1 13.2778 461.909)"/><path d="M0.200322-0.0874134 0.200322-0.0719342 0.0701114-0.0719342C0.0719325-0.0585034 0.0767128-0.0484876 0.0846803-0.0418862 0.0924198-0.0357398 0.103802-0.0327806 0.118371-0.0327806 0.130435-0.0327806 0.1425-0.0341465 0.154793-0.0373334 0.166858-0.0409756 0.179378-0.0464389 0.192125-0.0537234L0.192125-0.010927C0.179377-0.00546363 0.166175-0.00136627 0.152971 0.000909973 0.13954 0.00318633 0.126565 0.0045522 0.113817 0.0045522 0.082175 0.0045522 0.0575903-0.00318738 0.0400633-0.0191223 0.0223073-0.0355123 0.0136575-0.0582765 0.0136575-0.0874154 0.0136575-0.115187 0.02208-0.137496 0.039153-0.153885 0.0566812-0.170275 0.0803556-0.17847 0.110179-0.17847 0.137496-0.17847 0.159349-0.170275 0.175739-0.153885 0.192129-0.137494 0.200325-0.115186 0.200325-0.0874154ZM0.143868-0.106535C0.143868-0.116778 0.140453-0.124974 0.133851-0.13112 0.127705-0.137722 0.119738-0.141136 0.110177-0.141136 0.0992503-0.141136 0.0903726-0.13795 0.0837712-0.132031 0.0769418-0.125885 0.0728445-0.117462 0.0710234-0.106535Z" fill="#6A6F77" transform="matrix(1.01701 0 0 1 13.5083 461.909)"/><path d="M0.0291378-0.232193 0.096516-0.232193 0.180287-0.0728445 0.180287-0.232193 0.237653-0.232193 0.237653 0 0.170274 0 0.0865031-0.159349 0.0865031 0 0.0291378 0Z" fill="#6A6F77" transform="matrix(1.01701 0 0 1 13.841 461.909)"/><path d="M0.109267-0.138405C0.0969741-0.138405 0.0876412-0.133852 0.0810392-0.124746 0.0748929-0.116095 0.0719336-0.103803 0.0719336-0.0874134 0.0719336-0.0703404 0.0748929-0.0573653 0.0810392-0.0482592 0.0876407-0.0396088 0.0969741-0.0355114 0.109267-0.0355114 0.121332-0.0355114 0.130665-0.0396089 0.137494-0.0482592 0.144096-0.0573647 0.147511-0.0703404 0.147511-0.0874134 0.147511-0.103803 0.144096-0.116096 0.137494-0.124746 0.130665-0.133851 0.121332-0.138405 0.109267-0.138405ZM0.109267-0.178469C0.139543-0.178469 0.16299-0.170274 0.179378-0.153884 0.196223-0.137949 0.204874-0.115868 0.204874-0.0874145 0.204874-0.0582768 0.196223-0.0355131 0.179378-0.0191214 0.162988-0.00318651 0.139541 0.00455307 0.109267 0.00455307 0.0794459 0.00455307 0.0559993-0.00318651 0.0391554-0.0191214 0.0220824-0.0355114 0.0136598-0.0582756 0.0136598-0.0874145 0.0136598-0.115869 0.0220824-0.137951 0.0391554-0.153884 0.0560005-0.170274 0.0794477-0.178469 0.109267-0.178469Z" fill="#6A6F77" transform="matrix(1.01701 0 0 1 14.1124 461.909)"/><path d="M0.0245853-0.0682932 0.0245853-0.173918 0.0810398-0.173918 0.0810398-0.156617 0.0810398-0.121105 0.0810398-0.0928773C0.0810398-0.0787635 0.0812674-0.0685199 0.0819503-0.0619184 0.0824056-0.0557721 0.0837715-0.0514469 0.0855926-0.0491706 0.0878689-0.0455284 0.0910559-0.0423413 0.0946981-0.0400651 0.0983403-0.0382439 0.102438-0.0373334 0.107446-0.0373334 0.118828-0.0373334 0.127933-0.0418862 0.134763-0.050992 0.141364-0.0600976 0.144779-0.0723902 0.144779-0.0883245L0.144779-0.17392 0.200323-0.17392 0.200323-2.03965e-06 0.144779-2.03965e-06 0.144779-0.0254976C0.136129-0.0150261 0.127023-0.00751435 0.117462-0.002734 0.108357 0.00204641 0.0978852 0.00455045 0.0865034 0.00455045 0.0664712 0.00455045 0.0509914-0.00136802 0.0400648-0.0136607 0.0295932-0.0264085 0.0245856-0.0446196 0.0245856-0.068294Z" fill="#6A6F77" transform="matrix(1.01701 0 0 1 14.3351 461.909)"/><path d="M0.202146-0.106534 0.202146 0 0.145692 0 0.145692-0.081038C0.145692-0.0960621 0.145237-0.106534 0.144781-0.111997 0.144098-0.117915 0.14296-0.122241 0.141139-0.124745 0.139318-0.128387 0.136131-0.131119 0.132034-0.132939 0.128391-0.135216 0.124294-0.136582 0.120197-0.136582 0.107904-0.136582 0.0985711-0.132029 0.0919691-0.122923 0.0858228-0.113817 0.0828635-0.101298 0.0828635-0.0855905L0.0828635 4.66205e-06 0.026409 4.66205e-06 0.026409-0.173913 0.0828635-0.173913 0.0828635-0.148417C0.0906031-0.158661 0.0994814-0.166173 0.109269-0.171181 0.11883-0.175961 0.129302-0.178465 0.140228-0.178465 0.16026-0.178465 0.175285-0.172091 0.185756-0.159344 0.196683-0.147051 0.202146-0.129523 0.202146-0.106532Z" fill="#6A6F77" transform="matrix(1.01701 0 0 1 14.5659 461.909)"/><path d="M0.0291378-0.232193 0.128387-0.232193C0.15798-0.232193 0.180744-0.225364 0.19668-0.212161 0.212387-0.199413 0.220355-0.180747 0.220355-0.156617 0.220355-0.13226 0.212387-0.113366 0.19668-0.100163 0.180745-0.0874151 0.157982-0.0810415 0.128387-0.0810415L0.0892327-0.0810415 0.0892327-3.49654e-06 0.029139-3.49654e-06ZM0.0892316-0.188487 0.0892316-0.123836 0.122012-0.123836C0.133393-0.123836 0.142272-0.126567 0.148417-0.13203 0.155019-0.137949 0.158434-0.146144 0.158434-0.156616 0.158434-0.166859 0.155019-0.174827 0.148417-0.18029 0.142271-0.185753 0.133393-0.188485 0.122012-0.188485Z" fill="#6A6F77" transform="matrix(1.01701 0 0 1 14.9095 461.909)"/><path d="M0.156616-0.126569C0.151608-0.128845 0.146827-0.130666 0.142047-0.132032 0.137039-0.13317 0.132258-0.133853 0.127478-0.133853 0.112909-0.133853 0.101527-0.128845 0.0937876-0.119284 0.0865031-0.110179 0.0828609-0.0969758 0.0828609-0.0801301L0.0828609-1.16551e-06 0.0264064-1.16551e-06 0.0264064-0.173919 0.0828609-0.173919 0.0828609-0.145691C0.0894623-0.157073 0.0974298-0.165268 0.106535-0.170277 0.116096-0.17574 0.127478-0.178471 0.140226-0.178471L0.1466-0.178471C0.148876-0.178471 0.152063-0.178016 0.155705-0.177561Z" fill="#6A6F77" transform="matrix(1.01701 0 0 1 15.147 461.909)"/><path d="M0.109267-0.138405C0.0969741-0.138405 0.0876412-0.133852 0.0810392-0.124746 0.0748929-0.116095 0.0719336-0.103803 0.0719336-0.0874134 0.0719336-0.0703404 0.0748929-0.0573653 0.0810392-0.0482592 0.0876407-0.0396088 0.0969741-0.0355114 0.109267-0.0355114 0.121332-0.0355114 0.130665-0.0396089 0.137494-0.0482592 0.144096-0.0573647 0.147511-0.0703404 0.147511-0.0874134 0.147511-0.103803 0.144096-0.116096 0.137494-0.124746 0.130665-0.133851 0.121332-0.138405 0.109267-0.138405ZM0.109267-0.178469C0.139543-0.178469 0.16299-0.170274 0.179378-0.153884 0.196223-0.137949 0.204874-0.115868 0.204874-0.0874145 0.204874-0.0582768 0.196223-0.0355131 0.179378-0.0191214 0.162988-0.00318651 0.139541 0.00455307 0.109267 0.00455307 0.0794459 0.00455307 0.0559993-0.00318651 0.0391554-0.0191214 0.0220824-0.0355114 0.0136598-0.0582756 0.0136598-0.0874145 0.0136598-0.115869 0.0220824-0.137951 0.0391554-0.153884 0.0560005-0.170274 0.0794477-0.178469 0.109267-0.178469Z" fill="#6A6F77" transform="matrix(1.01701 0 0 1 15.3067 461.909)"/><path d="M0.0264058-0.173918 0.0828603-0.173918 0.0828603-0.00273313C0.0828603 0.0202583 0.0769418 0.0377865 0.0655595 0.0500791 0.0546328 0.0628269 0.0384706 0.0692005 0.0173003 0.0692005L-0.0109273 0.0692005-0.0109273 0.031868-0.000910847 0.031868C0.00933284 0.031868 0.01639 0.029364 0.0200322 0.0245836 0.0241297 0.0202584 0.0264064 0.0111528 0.0264064-0.00273313ZM0.0264058-0.242211 0.0828603-0.242211 0.0828603-0.196683 0.0264058-0.196683Z" fill="#6A6F77" transform="matrix(1.01701 0 0 1 15.5294 461.909)"/><path d="M0.200322-0.0874134 0.200322-0.0719342 0.0701114-0.0719342C0.0719325-0.0585034 0.0767128-0.0484876 0.0846803-0.0418862 0.0924198-0.0357398 0.103802-0.0327806 0.118371-0.0327806 0.130435-0.0327806 0.1425-0.0341465 0.154793-0.0373334 0.166858-0.0409756 0.179378-0.0464389 0.192125-0.0537234L0.192125-0.010927C0.179377-0.00546363 0.166175-0.00136627 0.152971 0.000909973 0.13954 0.00318633 0.126565 0.0045522 0.113817 0.0045522 0.082175 0.0045522 0.0575903-0.00318738 0.0400633-0.0191223 0.0223073-0.0355123 0.0136575-0.0582765 0.0136575-0.0874154 0.0136575-0.115187 0.02208-0.137496 0.039153-0.153885 0.0566812-0.170275 0.0803556-0.17847 0.110179-0.17847 0.137496-0.17847 0.159349-0.170275 0.175739-0.153885 0.192129-0.137494 0.200325-0.115186 0.200325-0.0874154ZM0.143868-0.106535C0.143868-0.116778 0.140453-0.124974 0.133851-0.13112 0.127705-0.137722 0.119738-0.141136 0.110177-0.141136 0.0992503-0.141136 0.0903726-0.13795 0.0837712-0.132031 0.0769418-0.125885 0.0728445-0.117462 0.0710234-0.106535Z" fill="#6A6F77" transform="matrix(1.01701 0 0 1 15.6406 461.909)"/><path d="M0.167542-0.168451 0.167542-0.123834C0.160258-0.128615 0.152518-0.132257 0.144779-0.134761 0.136811-0.137037 0.128844-0.138403 0.121104-0.138403 0.105169-0.138403 0.0931046-0.133851 0.084682-0.124745 0.0760316-0.115639 0.0719342-0.103119 0.0719342-0.0874122 0.0719342-0.0710222 0.0760318-0.0582744 0.084682-0.0491689 0.0931046-0.0400633 0.105169-0.0355102 0.121104-0.0355102 0.129527-0.0355102 0.137722-0.0366484 0.14569-0.0391525 0.153429-0.0414289 0.160714-0.0455266 0.167543-0.0509894L0.167543-0.00546159C0.158892-0.00181936 0.150242 0.000456881 0.141137 0.00182286 0.132032 0.00364397 0.122926 0.00455453 0.11382 0.00455453 0.0821785 0.00455453 0.0575938-0.00318505 0.0400668-0.0191199 0.0223108-0.0355099 0.013661-0.0582741 0.013661-0.0874131 0.013661-0.115868 0.0223114-0.137949 0.0400668-0.153882 0.0575949-0.170272 0.0821802-0.178468 0.11382-0.178468 0.122926-0.178468 0.132032-0.177557 0.141137-0.175736 0.150243-0.17437 0.158893-0.172094 0.167543-0.168451Z" fill="#6A6F77" transform="matrix(1.01701 0 0 1 15.8603 461.909)"/><path d="M0.0874134-0.224 0.0874134-0.173919 0.144779-0.173919 0.144779-0.134765 0.0874134-0.134765 0.0874134-0.0601019C0.0874134-0.0521345 0.0887792-0.0466712 0.0919662-0.0437119 0.0956084-0.0412079 0.10221-0.0400697 0.111998-0.0400697L0.140226-0.0400697 0.140226-5.2448e-06 0.092877-5.2448e-06C0.0703407-5.2448e-06 0.0546337-0.00455803 0.0455281-0.0136639 0.0364225-0.0227697 0.0318695-0.0382492 0.0318695-0.0601025L0.0318695-0.134765 0.00455278-0.134765 0.00455278-0.173919 0.0318695-0.173919 0.0318695-0.224Z" fill="#6A6F77" transform="matrix(1.01701 0 0 1 16.0524 461.909)"/></g></g></g></g></svg>