<?xml version="1.0" encoding="UTF-8"?>
<svg width="100pt" height="100pt" version="1.1" viewBox="0 0 100 100" xmlns="http://www.w3.org/2000/svg">
 <g>
  <path d="m40.391 75.797c0.57031-1.043 0.30469-2.3477-0.625-3.0859h-0.003906c-1.2539-1.0078-2.4414-2.0977-3.5508-3.2656-5.6094-5.8906-9.2109-13.703-10.133-22.008-0.10156-0.94141-0.19531-1.875-0.28125-2.8047v-0.003906c-0.15625-1.7305-1.3906-3.1719-3.0781-3.5977-1.1367-0.27734-2.2266-0.71094-3.25-1.2852h0.003906c-0.26953-0.15625-0.58984-0.1875-0.88281-0.082032-0.28906 0.10156-0.52344 0.32813-0.63281 0.61328-2.1484 5.8984-8.3594 8.957-11.688 10.211h0.003907c-1.2461 0.47656-1.8945 1.8438-1.4727 3.1055 1.6445 4.9297 3.6445 9.7344 5.9805 14.375h0.003906c2.6367 5.3555 6.9609 9.6992 12.301 12.367 3.0156 1.4844 6.5312 2.5547 10.18 2.3086h0.003906c0.69922-0.046875 1.3672-0.29297 1.9297-0.70703 2.2461-1.6523 3.9258-3.8359 5.1914-6.1406z"/>
  <path d="m93.727 50.488c-3.3203-1.2539-9.5469-4.3125-11.691-10.219l0.003906-0.003906c-0.10937-0.28516-0.33984-0.50781-0.62891-0.60938-0.28906-0.10156-0.60938-0.070312-0.87109 0.085938-0.39453 0.22266-0.80469 0.42578-1.2227 0.60547-1.418 0.59375-2.3945 1.9258-2.5391 3.4609-0.10156 1.2031-0.21875 2.4141-0.35547 3.625-0.92188 8.3047-4.5234 16.117-10.133 22.008l0.003907 0.003906c-1.5742 1.668-3.3125 3.1719-5.1914 4.4922-1.0625 0.74219-1.3516 2.1914-0.65234 3.2852h0.003906c1.1523 1.8281 2.6289 3.4336 4.3555 4.7344 0.53906 0.39844 1.1836 0.63672 1.8516 0.68359 3.6719 0.25781 7.2031-0.8125 10.234-2.3047h0.003907c5.3398-2.6641 9.6641-7.0078 12.305-12.367v0.003906c2.3359-4.6445 4.3359-9.4453 5.9805-14.379 0.42188-1.2578-0.21875-2.625-1.457-3.1055z"/>
  <path d="m55.82 59.316c1.6992-1.3281 3.1016-2.9883 4.1328-4.8828 0.027344-0.046875 0.054687-0.09375 0.078125-0.14062 0.078125-0.14062 0.14844-0.28906 0.22266-0.42969 0.035156-0.074219 0.070313-0.14844 0.10938-0.21875 0.0625-0.13281 0.125-0.26562 0.18359-0.39062 0.039063-0.09375 0.078125-0.18359 0.11719-0.27344 0.054688-0.125 0.10156-0.24609 0.15234-0.37109 0.046875-0.125 0.085938-0.21484 0.125-0.32031 0.039063-0.10937 0.085938-0.23437 0.125-0.35156 0.039063-0.11719 0.082032-0.24219 0.12109-0.36719 0.039062-0.12109 0.070312-0.21484 0.10156-0.32031 0.03125-0.10938 0.078126-0.28125 0.11719-0.41797 0.023438-0.09375 0.054688-0.19531 0.078125-0.28906 0.039063-0.16797 0.078125-0.33594 0.11719-0.50781 0.015626-0.070312 0.035157-0.14062 0.046876-0.21484 0.050781-0.24219 0.097656-0.48828 0.14062-0.73828 0.007813-0.0625 0.015626-0.11719 0.027344-0.17969 0.046875-0.28516 0.089844-0.57031 0.13281-0.85547 0.027343-0.1875 0.054687-0.375 0.078125-0.55859 0.019531-0.14844 0.039062-0.28906 0.058594-0.4375 0.03125-0.25 0.0625-0.49609 0.09375-0.74219l0.015624-0.15625c0.24219-2.0703 0.37891-4.0625 0.45313-5.7969 0.074218-1.7031 0.09375-3.1719 0.089843-4.2188-5.5703-0.73047-9.4648-3.6094-11.477-5.4922-2.0117 1.8828-5.9062 4.7656-11.477 5.4922 0 2.6406 0.10938 7.8633 0.94531 12.941 0.039062 0.23438 0.082031 0.46484 0.12891 0.69531 0.015625 0.085937 0.039063 0.17578 0.058594 0.26172 0.03125 0.14062 0.0625 0.28125 0.097656 0.41406 0.035156 0.13672 0.054687 0.22266 0.085937 0.33203s0.058594 0.21094 0.085938 0.3125c0.027344 0.10547 0.078125 0.26172 0.11719 0.39062 0.015624 0.054687 0.039062 0.11328 0.054687 0.16797v-0.003906c0.97656 3.0273 2.8359 5.6914 5.3359 7.6562 1.3477 1.082 2.8984 1.8828 4.5625 2.3438 1.6641-0.46094 3.2188-1.25 4.5664-2.3281z"/>
  <path d="m52.539 73.758c4.3672-1.2812 8.0078-4.0312 10.887-7.0586 5.1172-5.3711 8.2422-12.336 9.0586-19.707v0.003906c0.73828-6.418 1.0117-12.879 0.8125-19.336-0.046875-1.6562-1.3906-2.9766-3.0469-2.9961-4.4141-0.035156-12.977-0.9375-18.008-6.8984v0.003906c-0.24609-0.28906-0.60547-0.45312-0.98438-0.45312-0.37891 0-0.73828 0.16406-0.98437 0.45312-5.0312 5.9609-13.594 6.8633-18.008 6.8984v-0.003907c-1.6562 0.019532-3 1.3398-3.0469 2.9961-0.19922 6.457 0.074219 12.918 0.8125 19.336 0.82031 7.375 3.9414 14.336 9.0586 19.707 2.8828 3.0234 6.5234 5.7773 10.887 7.0586v-0.003907c0.83594 0.25 1.7266 0.25 2.5625 0zm-15.734-24.023c-1.2422-7.5703-0.97656-15.168-0.97656-15.488v0.003906c0.039063-1.0391 0.87109-1.8711 1.9102-1.9141 7.5469-0.28125 11.898-5.7344 11.945-5.7891h-0.003906c0.37891-0.48047 0.95312-0.76172 1.5625-0.76562 0.61328 0.003906 1.1914 0.28906 1.5625 0.77344 0.039062 0.046874 4.3906 5.5 11.938 5.7812 1.043 0.042968 1.875 0.875 1.9141 1.9141 0.007812 0.32031 0.27344 7.918-0.97656 15.488-0.83984 5.125-3.4844 9.6445-7.4492 12.727-2.0781 1.6172-4.2969 2.6875-6.5859 3.1797h0.003907c-0.14063 0.03125-0.28125 0.042969-0.42188 0.042969-0.14062 0-0.28125-0.011719-0.41797-0.042969-2.2891-0.49219-4.5078-1.5625-6.5859-3.1797-3.9336-3.0898-6.582-7.6133-7.418-12.738z"/>
 </g>
</svg>
