<?xml version="1.0" encoding="UTF-8"?>
<svg width="100pt" height="100pt" version="1.1" viewBox="0 0 100 100" xmlns="http://www.w3.org/2000/svg">
 <g>
  <path d="m43.75 66.648c2.1211-2.4453 4.8203-4.3164 7.8516-5.4492 0.75781-0.28906 1.2578-1.0117 1.2578-1.8203v-16.41c0-0.80859-0.5-1.5312-1.2578-1.8203-3.0742-1.1484-5.8086-3.0625-7.9453-5.5547-0.18359-0.22266-0.46094-0.33984-0.74609-0.32422-0.28516 0.019531-0.54688 0.17188-0.70312 0.41406-2.2266 3.4961-4.9258 9.1953-4.9258 16.305 0 6.4219 2.6328 11.391 5.0625 14.613 0.16797 0.21875 0.42188 0.35156 0.69141 0.35938 0.27344 0.007812 0.53516-0.10547 0.71484-0.3125z"/>
  <path d="m66.672 42.969v16.406c0.003906 0.80859 0.50391 1.5312 1.2617 1.8203 3.0312 1.1328 5.7266 3.0078 7.8477 5.4531 0.17578 0.20703 0.4375 0.32422 0.71094 0.31641 0.27344-0.007813 0.52734-0.13672 0.69141-0.35547 2.4336-3.2188 5.0625-8.1875 5.0625-14.613 0-7.1133-2.6953-12.812-4.9258-16.305-0.15234-0.24219-0.41406-0.39453-0.69922-0.41406-0.28516-0.015625-0.56641 0.10156-0.74609 0.32422-2.1367 2.4922-4.8711 4.4062-7.9492 5.5547-0.75 0.28906-1.2461 1.0078-1.2539 1.8125z"/>
  <path d="m36.781 76.688c0.33203 0.32812 0.81641 0.45312 1.2656 0.33203 0.44922-0.125 0.80078-0.47656 0.92188-0.92578 0.33203-1.2734 0.75391-2.5195 1.2656-3.7344 0.36719-0.85156 0.23047-1.8359-0.35547-2.5586-2.9883-3.668-6.4805-9.6914-6.4805-17.801 0-9.1367 3.8125-16.086 6.4688-19.812v-0.003906c0.5-0.69922 0.60547-1.6055 0.28125-2.3984-0.47266-1.1406-0.86328-2.3125-1.1719-3.5039-0.12109-0.45703-0.47266-0.8125-0.92578-0.94141-0.44922-0.125-0.9375 0-1.2734 0.32812-3.5156 3.4531-11.281 12.523-11.281 25.512 0.003906 12.988 7.7617 22.062 11.285 25.508z"/>
  <path d="m82.754 25.668c-0.33594-0.32812-0.82031-0.45312-1.2734-0.32812-0.45312 0.12891-0.80469 0.48438-0.92188 0.94141-0.3125 1.1914-0.70312 2.3633-1.1719 3.5039-0.32812 0.79297-0.22266 1.6992 0.27734 2.3984 2.6484 3.7305 6.4688 10.676 6.4688 19.816 0 8.1133-3.4922 14.133-6.4766 17.805-0.58594 0.71875-0.72266 1.7031-0.35547 2.5547 0.51172 1.2148 0.93359 2.4609 1.2656 3.7344 0.12109 0.44922 0.47266 0.80078 0.92188 0.92578 0.45312 0.12109 0.93359-0.003906 1.2695-0.33203 3.5156-3.4492 11.281-12.523 11.281-25.512s-7.7617-22.059-11.285-25.508z"/>
  <path d="m57.844 42.477c-0.29297 0-0.57812 0.11719-0.78516 0.32422-0.20703 0.21094-0.32422 0.49219-0.32422 0.78516v50.648h6.0547v-50.648c0-0.61328-0.49609-1.1094-1.1094-1.1094z"/>
  <path d="m19.625 36.945c1.8047-8.957 6.8984-12.207 11.234-13.605 0.88281-0.28516 0.88672-1.7031 0.015625-2.0156-8.0078-2.8984-9.9414-10.547-11.242-14.906h-0.007812c-0.12109-0.38281-0.47656-0.64453-0.875-0.64453-0.40234 0-0.75781 0.26172-0.88281 0.64453-1.3047 4.3672-3.1484 12.211-11.242 14.906-0.88281 0.29297-0.86328 1.7109 0.015625 2.0156 4.6172 1.6016 9.3008 4.6484 11.234 13.605 0.17969 0.89063 1.5703 0.89063 1.75 0z"/>
 </g>
</svg>
