<?xml version="1.0" encoding="UTF-8"?>
<svg width="100pt" height="100pt" version="1.1" viewBox="0 0 100 100" xmlns="http://www.w3.org/2000/svg">
 <g>
  <path d="m63.07 71.016c-0.42578-0.83594-1.1953-1.4414-2.1016-1.6562h-0.03125c-4.5156-1.2344-8.8164-1.8555-12.789-1.8555-8.7539 0-14.094 3.0391-16.492 4.8516l-0.007812 0.003906c-1.1172 0.84766-2.4844 1.3047-3.8867 1.3047-2.4883-0.011718-4.75-1.4336-5.8359-3.668l-12.809-26.648c-0.19922-0.40625-0.57422-0.69922-1.0156-0.79297-0.44531-0.089844-0.90625 0.03125-1.25 0.32812l-0.03125 0.027344v-0.003906c-1.0938 0.95703-1.4141 2.5234-0.78125 3.832l18.445 38.234v-0.003906c0.46094 0.95703 1.3711 1.6172 2.4219 1.7617s2.1055-0.24609 2.8086-1.0391c11.055-12.336 27.02-11.781 32.984-11.102l-0.003907 0.003906c0.46484 0.050781 0.91797-0.15234 1.1836-0.53516 0.26172-0.37891 0.29688-0.875 0.089844-1.293z"/>
  <path d="m92.809 54.453c0.55078 0.007813 1.0625-0.29297 1.3164-0.77734 0.25781-0.48828 0.21484-1.082-0.10938-1.5273l-2.043-2.8672h0.003906c-0.39062-0.55469-1.1445-0.70703-1.7188-0.34766-0.67969 0.44141-1.4336 0.75-2.2305 0.90234-6.1406 1.1875-11.789 4.4531-16.781 9.6992-3.8516 4.0508-5.8359 7.8125-5.8477 7.8438v0.003906c-0.13672 0.25391-0.14453 0.5625-0.015626 0.82813l1.5039 2.9688h0.003906c0.21094 0.41797 0.62109 0.70312 1.0859 0.75391 0.46875 0.054687 0.92969-0.13281 1.2266-0.49609 3.0703-3.7109 9.5547-8.6641 22.379-8.8008h0.003907c0.70312-0.007813 1.3516-0.39844 1.6875-1.0156 0.33984-0.62109 0.31641-1.375-0.054688-1.9727l-3.0938-4.9141c0-0.003906 0.77344-0.32031 2.6836-0.28125z"/>
  <path d="m59.148 63.27-17.906-35.352c-0.27344-0.53906-0.77734-0.92969-1.3672-1.0586-5.582-1.2109-17.602-2.0781-28.203 8.9297-0.75391 0.78125-0.94531 1.9492-0.47656 2.9297l14.23 29.59c0.33594 0.69922 0.96875 1.2109 1.7227 1.3945 0.75391 0.18359 1.5508 0.019531 2.1719-0.44531 4-3.0156 13.164-7.7656 28.754-4.5703 0.37109 0.074219 0.75-0.074219 0.98047-0.375 0.22656-0.30078 0.26562-0.70703 0.09375-1.043zm-35.891-27.062c0.26563-0.19531 6.5938-4.9062 14.406-2.5859 0.43359 0.11719 0.80078 0.40625 1.0156 0.79688 0.21875 0.39062 0.26953 0.85156 0.14062 1.2812-0.12891 0.42578-0.42187 0.78516-0.81641 0.99609-0.39844 0.20703-0.85938 0.25-1.2852 0.10938-6.2188-1.8477-11.406 2.0078-11.453 2.0469v0.003907c-0.73438 0.53125-1.7578 0.37891-2.3008-0.33984-0.54688-0.72266-0.41797-1.7461 0.29297-2.3086zm2.168 13.18c-0.66016 0.61328-1.6875 0.58984-2.3164-0.050781-0.63281-0.64063-0.63672-1.668-0.015625-2.3203 0.30469-0.29688 7.5977-7.3164 18.727-4.5234v0.003906c0.4375 0.097656 0.81641 0.36719 1.0547 0.75 0.23438 0.38281 0.30469 0.84375 0.19531 1.2773-0.10937 0.43359-0.39062 0.80859-0.77734 1.0312-0.39062 0.22656-0.85156 0.28516-1.2852 0.16406-9.332-2.3438-15.52 3.6094-15.582 3.668zm22.504 4.9727c-0.20703 0.89062-1.1016 1.4492-1.9961 1.2422-7.7266-1.8047-12.852 1.7734-12.898 1.8125h-0.003906c-0.74609 0.53125-1.7852 0.35938-2.3164-0.38672-0.53516-0.74609-0.36328-1.7852 0.38672-2.3203 0.25781-0.18359 6.4141-4.4805 15.586-2.3438 0.89453 0.21094 1.4492 1.1016 1.2422 1.9961z"/>
  <path d="m88.922 42.371-15.953-26.977c-0.73828-1.25-2.0547-2.043-3.5039-2.1133-4.8008-0.23828-15.855 0.61719-24.609 11.914-0.46875 0.61328-0.54688 1.4414-0.19531 2.125l17.656 34.867h0.003906c0.15625 0.3125 0.46484 0.51562 0.8125 0.53906 0.34766 0.023438 0.68359-0.13672 0.88281-0.42578 3.4375-4.9453 11.176-13.918 23.273-16.258 0.78516-0.15234 1.4453-0.67969 1.7695-1.4141 0.32422-0.73047 0.27344-1.5703-0.13672-2.2578zm-32.586-10.535c-0.27344 0.35156-0.67969 0.57812-1.125 0.625-0.44141 0.050781-0.88672-0.078126-1.2305-0.36328-0.34766-0.28125-0.56641-0.6875-0.60547-1.1328-0.042969-0.44531 0.09375-0.88672 0.38281-1.2266 0.14844-0.17969 3.625-4.4062 8.4141-6.0742 0.86328-0.30078 1.8125 0.15625 2.1133 1.0234 0.30078 0.86328-0.15625 1.8125-1.0195 2.1133-3.9062 1.3555-6.9023 4.9922-6.9297 5.0352zm2.5586 8.4766c-0.59375-0.046875-1.1172-0.41016-1.3711-0.95312-0.25391-0.53906-0.19922-1.1758 0.14062-1.6641 0.1875-0.26172 4.6328-6.4453 11.719-7.9414 0.89453-0.17578 1.7578 0.39844 1.9453 1.2891 0.19141 0.88672-0.37109 1.7617-1.2578 1.9648-5.832 1.2344-9.6641 6.5586-9.6992 6.6094h0.003906c-0.33984 0.47266-0.90234 0.73047-1.4805 0.6875zm17.734 1c-8.8516 0.32812-11.57 7.0664-11.68 7.3516h-0.003907c-0.25 0.65625-0.88672 1.082-1.5859 1.0664v-0.003907c-0.19141-0.003906-0.37891-0.039062-0.55469-0.10937-0.85547-0.32422-1.2852-1.2773-0.96484-2.1328 0.14062-0.37109 3.5469-9.0781 14.66-9.4922h0.003906c0.44531-0.03125 0.88672 0.12109 1.2227 0.42187 0.33594 0.30078 0.53125 0.72266 0.55078 1.1758 0.015625 0.44922-0.14844 0.88281-0.46094 1.2109-0.3125 0.32422-0.73828 0.50781-1.1875 0.51172z"/>
 </g>
</svg>
