<?xml version="1.0" encoding="UTF-8"?>
<svg width="100pt" height="100pt" version="1.1" viewBox="0 0 100 100" xmlns="http://www.w3.org/2000/svg">
 <g>
  <path d="m26.289 5.7656h47.418c0.63281 0 1.1484 0.63281 1.1484 1.1484v3.3828c0 0.63281-0.51562 1.1484-1.1484 1.1484h-47.418c-0.63281 0-1.1484-0.63281-1.1484-1.1484v-3.3828c0-0.63281 0.51562-1.1484 1.1484-1.1484z"/>
  <path d="m26.289 88.555h47.418c0.63281 0 1.1484 0.63281 1.1484 1.1484v3.3828c0 0.63281-0.51562 1.1484-1.1484 1.1484h-47.418c-0.63281 0-1.1484-0.63281-1.1484-1.1484v-3.3828c0-0.63281 0.51562-1.1484 1.1484-1.1484z"/>
  <path d="m55.859 52.32c-0.34766-0.12109-0.66406-0.3125-0.92969-0.57031v0.003906c-0.47266-0.46094-0.73828-1.0938-0.73828-1.7539s0.26562-1.293 0.73828-1.75c0.26562-0.25781 0.58203-0.44922 0.92969-0.56641 14.402-4.9844 16.547-21.188 16.586-30.145 0.003907-0.58594-0.23047-1.1523-0.64453-1.5664-0.41406-0.41797-0.98047-0.64844-1.5664-0.64844h-40.469c-0.58594 0-1.1484 0.23438-1.5625 0.64844-0.41406 0.41797-0.64844 0.98047-0.64844 1.5664 0.039062 8.9531 2.1875 25.16 16.586 30.145l0.003906-0.003906c0.34766 0.12109 0.66406 0.3125 0.92578 0.57031 0.47656 0.45703 0.74219 1.0898 0.74219 1.75s-0.26562 1.293-0.74219 1.75v0.003906c-0.26172 0.25391-0.57812 0.44531-0.92578 0.56641-14.402 4.9844-16.547 21.188-16.586 30.145l-0.003906-0.003906c0 0.58594 0.23437 1.1484 0.64844 1.5664 0.41406 0.41406 0.97656 0.64844 1.5625 0.64844h40.469c0.58594 0 1.1484-0.23438 1.5625-0.64844 0.41406-0.41797 0.64844-0.98047 0.64844-1.5664-0.039062-8.9531-2.1875-25.16-16.586-30.141zm-17.578-15.82c-0.47656-0.63672-0.55078-1.4844-0.19531-2.1914 0.35156-0.70703 1.0781-1.1562 1.8672-1.1523h20.094c0.79297-0.003906 1.5156 0.44531 1.8711 1.1523 0.35547 0.71094 0.27734 1.5586-0.19922 2.1914-2.4688 3.3438-6.1055 5.6367-10.188 6.4297-1.0117 0.19922-2.0547 0.19922-3.0625 0h-0.003906c-4.0781-0.79297-7.7148-3.0859-10.184-6.4297zm21.992 42.703-20.547-0.003906c-1.7578 0-3.2812-3.2617-1.7109-4.793 2.8047-2.7266 6.2109-6.2578 10.422-9.2109 0.46094-0.32031 1.0078-0.69531 1.5625-0.64453 0.5625-0.050781 1.1055 0.32031 1.5625 0.64453 4.207 2.9492 7.6172 6.4883 10.414 9.2109 1.5781 1.5312 0.054688 4.7969-1.707 4.7969z"/>
 </g>
</svg>
