<?xml version="1.0" encoding="UTF-8"?>
<svg width="100pt" height="100pt" version="1.1" viewBox="0 0 100 100" xmlns="http://www.w3.org/2000/svg">
 <g>
  <path d="m94.75 18.484-2.7148 1.8281c-0.55469 0.38281-0.84375 1.0508-0.74219 1.7188 0.039062 0.27734 0.054687 0.55469 0.050781 0.83594-0.09375 5.4688-0.53906 19.277-2.5859 29.523-0.28906 1.457-0.94531 2.8203-1.9062 3.957-3.1328 3.6133-6.8594 6.6641-11.016 9.0273-0.22266 0.125-0.3125 0.39453-0.20703 0.625 0.10156 0.23047 0.36719 0.34375 0.60547 0.25781 6.3945-2.3906 11.859-6.1719 14.391-8.0781 0.95703-0.72656 1.5859-1.8086 1.7461-3 2.1211-15.641 2.9414-28.965 3.2344-35.223 0.019531-0.40625-0.023438-0.8125-0.125-1.2031-0.039063-0.14844-0.15234-0.26953-0.29688-0.32422-0.14453-0.050782-0.30469-0.03125-0.43359 0.054687z"/>
  <path d="m86.602 16.559c0.80078 0.089844 1.5742 0.35938 2.2539 0.79297 0.42188 0.25781 0.95703 0.24609 1.3672-0.035156l2.1641-1.457h0.003906c0.16406-0.11328 0.24219-0.3125 0.19922-0.50781-0.042969-0.19531-0.19922-0.34375-0.39453-0.375-10.672-1.4961-17.156-7.5742-19.336-9.9531v0.003906c-0.53516-0.58984-1.3398-0.84766-2.1133-0.67578l-0.60938 0.13281c-0.30469 0.070313-0.55469 0.28516-0.67188 0.57422-0.11719 0.29297-0.085938 0.62109 0.085937 0.88281 0.046875 0.078125 0.09375 0.15625 0.13672 0.24219 1.7969 3.3555 6.375 9.1797 16.914 10.375z"/>
  <path d="m66.66 55.109v0.003906c3.2305-1.5898 6.2305-3.6055 8.9258-5.9922 1.0352-0.91016 1.6953-2.1719 1.8477-3.543 0.66797-5.9062 0.63281-12.578 0.54688-16.016-0.015625-0.85938-0.55469-1.625-1.3555-1.9297-3.7148-1.3281-7.1445-3.3516-10.105-5.957-0.42969-0.39453-1.0781-0.42969-1.5469-0.082031-2.043 1.4961-4.3164 2.6445-6.7305 3.4062-0.85938 0.27344-1.4453 1.0742-1.4531 1.9766-0.03125 6.2891 0.625 12.562 1.9648 18.707 0.039063 0.16406 0.085938 0.32422 0.14453 0.48047 1.3672 3.4336 3.5859 6.4609 6.4453 8.8008 0.375 0.30078 0.88672 0.35547 1.3164 0.14453z"/>
  <path d="m63.82 65.723c0.49609 0.45703 1.1953 0.62109 1.8438 0.43359 10.008-2.9023 16.238-9.2305 18.52-11.914l-0.003906-0.003907c0.65234-0.76562 1.0977-1.6875 1.2969-2.6758 1.9961-10.004 2.4336-23.551 2.5312-29.023h-0.003906c0.03125-1.332-0.95703-2.4688-2.2812-2.625-12.082-1.3672-17.242-8.457-19.039-11.836-0.19141-0.35547-0.54688-0.59375-0.94922-0.63281-0.40234-0.039062-0.80078 0.125-1.0547 0.4375-4.3633 5.2422-10.594 6.8555-14.012 7.3516-1.4453 0.22266-2.5117 1.4688-2.5039 2.9297 0.023438 12.754 2.1719 25.922 2.8281 29.656 0.13672 0.76563 0.36328 1.5156 0.67969 2.2266 3.1484 7.1211 9.8281 13.574 12.148 15.676zm-8.1562-17.91c-0.11719-0.29688-0.21094-0.60547-0.28125-0.91406-0.39062-1.6367-2.2734-10.328-2.1914-20.836 0.011719-2.1797 1.418-4.1055 3.4961-4.7734 2.2109-0.71094 5.4062-2.0898 8.0664-4.6406h-0.003906c0.27734-0.26563 0.65234-0.40625 1.0352-0.38281 0.38281 0.023437 0.73828 0.20312 0.98438 0.5 0.039063 0.046875 3.9062 4.6289 11.508 7.3945 1.9414 0.73047 3.2461 2.5664 3.293 4.6406 0.089844 3.7891 0.13281 11.133-0.60937 17.664-0.24219 2.1719-1.2852 4.1758-2.9297 5.6133-2.5625 2.2539-6.6953 5.3984-11.789 7.5781-0.17188 0.074219-0.35547 0.10938-0.53906 0.10938-0.25 0.003906-0.5-0.0625-0.71484-0.19531-0.25-0.15625-6.2148-3.8555-9.3242-11.758z"/>
  <path d="m16.07 73.957c-0.38281-0.36328-0.98437-0.36328-1.3672 0l-0.23438 0.22656c-0.63672 0.59766-0.99609 1.4336-0.99609 2.3086 0 0.87109 0.35938 1.707 0.99609 2.3086l2.7969 2.6836-8.7891 9.7812h-0.003906c-0.64453 0.70703-0.60156 1.8008 0.09375 2.4609l0.75781 0.72656 0.75391 0.72656v-0.007813c0.70703 0.67188 1.8047 0.71094 2.5625 0.09375l10.188-8.4375 2.7969 2.6836v-0.003907c1.3477 1.2734 3.457 1.2734 4.8047 0l0.23437-0.22656h0.003907c0.17969-0.16797 0.28125-0.40625 0.28125-0.65234s-0.10156-0.48438-0.28125-0.65234z"/>
  <path d="m22.906 75.414 1.3047 1.25h-0.003907c0.27734 0.26172 0.71094 0.26172 0.98828 0l15.891-15.258c0.23437-0.21875 0.35547-0.53516 0.33203-0.85547-0.027344-0.32031-0.19531-0.60938-0.46484-0.79297l-2.4453-1.7109v0.003906c-0.80469-0.55859-1.9062-0.41406-2.5391 0.33984l-13.117 16.141c-0.21875 0.26172-0.19531 0.64844 0.054688 0.88281z"/>
  <path d="m51.023 61.75c-0.19141-0.73828-0.85938-1.2539-1.625-1.2422h-1.3672c-0.4375 0-0.85547 0.16797-1.1719 0.46875l-19.008 18.242c-0.12891 0.12109-0.20312 0.29297-0.20312 0.47266 0 0.17969 0.074218 0.35156 0.20312 0.47266l1.3047 1.25h-0.003906c0.25781 0.24219 0.64453 0.26172 0.92578 0.054688l20.484-15.355c0.76562-0.5625 1.125-1.5273 0.91016-2.457z"/>
  <path d="m19.336 49.469 14.633 2.0781c0.60156 0.085937 1.1992-0.17969 1.5312-0.6875l1.332-2.0156v-0.003906c0.44922-0.67578 0.6875-1.4688 0.68359-2.2812v-0.046875c0.003906-0.71094-0.47266-1.3359-1.1602-1.5156l-14.703-3.9688h0.003906c-1.0195-0.25781-1.6484-1.2734-1.4336-2.2969 0.11719-0.5 0.43359-0.93359 0.875-1.1953 0.44141-0.26562 0.97266-0.33594 1.4688-0.20312l14.672 4.0117c0.68359 0.1875 1.4102-0.066406 1.8242-0.64062l2.0547-2.8438c0.33594-0.46875 0.4375-1.0703 0.27734-1.6211-0.16406-0.55469-0.57031-1.0039-1.1055-1.2188l-15.387-6.1328-0.003906 0.003906c-0.74219-0.30469-1.5664-0.35547-2.3438-0.14453l-17.086 4.625c-0.50391 0.13672-0.89844 0.53125-1.0352 1.0391-0.13672 0.50391 0.003906 1.043 0.37109 1.418l12.434 12.59 0.003907-0.003907c0.5625 0.57422 1.2969 0.94141 2.0938 1.0547z"/>
  <path d="m29.043 59.707 2.4648-2.5234c0.41016-0.41406 0.41016-1.082 0-1.5-0.19922-0.19922-0.47266-0.30859-0.75391-0.30859h-3.5156c-0.37891 0-0.73438 0.1875-0.94531 0.50391-0.21484 0.31641-0.25 0.71875-0.10547 1.0703l1 2.3984v0.003906c0.14844 0.34766 0.46094 0.60156 0.83203 0.67188 0.37109 0.070312 0.75781-0.046876 1.0234-0.31641z"/>
  <path d="m45.188 55.5c0.66797 0 1.2695-0.40625 1.5195-1.0273 0.24609-0.62109 0.09375-1.332-0.39453-1.793l-1.8086-1.7148 0.003906-0.003906c-0.32031-0.30078-0.74609-0.46094-1.1836-0.44922-0.4375 0.015625-0.85156 0.20703-1.1484 0.52734l-1.1719 1.2734c-0.47266 0.50781-0.56641 1.2617-0.24219 1.875l0.23438 0.44531h0.003906c0.28125 0.53516 0.83984 0.86719 1.4453 0.87109z"/>
  <path d="m32.594 24.852c0.089844 0.97266 0.61719 1.8477 1.4297 2.3906l5.0938 3.3984c0.49219 0.32422 1.1406 0.30469 1.6094-0.058594 0.46875-0.35938 0.65234-0.98047 0.46094-1.5391l-1.9297-5.6367c-0.12109-0.35547-0.30469-0.6875-0.53906-0.97656l-0.42969-0.53516v-0.003906c-0.89453-1.1094-2.4102-1.5039-3.7305-0.97656h-0.003906c-1.3359 0.53516-2.1602 1.8867-2.0234 3.3203z"/>
  <path d="m61.609 71.195c-0.32812-0.36328-0.85156-0.48047-1.3086-0.29687-0.45312 0.18359-0.74609 0.63281-0.73047 1.125l0.23828 5.0234v-0.003906c0.03125 0.60156 0.25391 1.1797 0.64062 1.6445l0.625 0.75c0.73828 0.88281 1.9492 1.2188 3.0352 0.83984 1.0898-0.375 1.832-1.3906 1.8594-2.543l0.011719-0.44141h0.003906c0.015625-0.69922-0.22656-1.3789-0.6875-1.9062z"/>
 </g>
</svg>
