<?xml version="1.0" encoding="UTF-8"?>
<svg width="100pt" height="100pt" version="1.1" viewBox="0 0 100 100" xmlns="http://www.w3.org/2000/svg">
 <g>
  <path d="m52.68 8.8672c-0.78125 0.32812-1.8281 0.84766-2.9297 1.4102-2.1836 1.1172-2.7812 3.9062-1.3477 5.8984 0.078125 0.10547 0.14844 0.21484 0.21875 0.32422l6.8633 10.516 0.003906 0.003906c0.33203 0.51172 0.85547 0.87109 1.457 0.99219 0.59766 0.12109 1.2227-0.003907 1.7305-0.34375 9.3281-6.2852 21.484-11.93 34.617-11.461l-0.003907 0.003907c0.62109 0.027343 1.2109-0.27734 1.5469-0.80078 0.33594-0.52344 0.37109-1.1836 0.085937-1.7383-1.8164-3.4961-6.293-8.5234-19.25-9.0859-7.8867-0.30469-15.742 1.1562-22.992 4.2812z"/>
  <path d="m13.879 89.914c2.1719 1.0156 4.5391 1.5352 6.9336 1.5234 4.7812 0.007812 15.684-0.51172 23.781-5.0156 1.7969-1 1.0508-3.75-1-3.6641-5.3516 0.22656-12.109-1.125-13.879-8.8945-1.4961-6.5977 0.91797-13.688 3.7383-19.172 0.70312-1.3633 0.41406-3.0273-0.70312-4.0742l-11.348-10.625-0.039063-0.035157h-0.003906c-0.85547-0.82422-2.0352-1.2227-3.2188-1.082s-2.2383 0.80469-2.875 1.8086v0.003906c-3.4023 5.4297-6.1094 11.27-8.0508 17.379 0 0-8.4141 24.652 6.6641 31.848z"/>
  <path d="m91.637 89.914-10.016-13.914 3.8594-3.2344h-0.003907c1.832-1.5352 2.0742-4.2656 0.53906-6.1016l-0.27344-0.32812v0.003906c-0.20703-0.25-0.50781-0.40625-0.82813-0.43359-0.32422-0.027344-0.64453 0.074219-0.89453 0.28125l-20.152 16.898c-0.25 0.21094-0.40625 0.50781-0.43359 0.83203s0.074218 0.64453 0.28125 0.89453l0.27344 0.32812v-0.003906c1.5352 1.832 4.2656 2.0703 6.0977 0.53516l3.8594-3.2344 11.941 12.289c0.875 0.89844 2.2969 0.97266 3.2617 0.16406l1.043-0.875 1.0391-0.875v0.007813c0.96094-0.80859 1.1367-2.2188 0.40625-3.2344z"/>
  <path d="m22.711 33.469c0.17187 0.99219 0.66406 1.9023 1.3984 2.5898l41.992 39.32v-0.003906c0.32813 0.30469 0.83203 0.32031 1.1719 0.03125l1.8008-1.5078v0.003906c0.375-0.31641 0.42578-0.875 0.10938-1.25l-36.605-43.629c-0.83984-1.0039-0.80078-2.5312 0.17969-3.3984 0.48438-0.43359 1.1211-0.64844 1.7656-0.60156 0.64844 0.046874 1.2461 0.35156 1.6641 0.84766l36.68 43.703c0.14844 0.17969 0.36719 0.29297 0.60156 0.31641 0.23438 0.019531 0.46875-0.054687 0.64844-0.20703l1.8008-1.5078v0.003907c0.34375-0.29297 0.41797-0.79688 0.17188-1.1719l-31.434-48.172c-0.54688-0.84375-1.3594-1.4883-2.3047-1.8281l-20.43-7.3438h-0.003906c-0.72266-0.26172-1.5352-0.11719-2.125 0.37891-0.58984 0.49609-0.875 1.2656-0.74219 2.0273z"/>
 </g>
</svg>
