<?xml version="1.0" encoding="UTF-8"?>
<svg width="100pt" height="100pt" version="1.1" viewBox="0 0 100 100" xmlns="http://www.w3.org/2000/svg">
 <g>
  <path d="m33.75 58.062c0.20703 0.10547 0.375 0.26953 0.45703 0.45703l1.543 3.082 34.855-29.645 1.293-11.562-11.562 1.293-29.648 34.832z"/>
  <path d="m12.68 75.188 10.309-10.312 4.4219 4.418-10.309 10.312z"/>
  <path d="m78.293 54.355-10.812 5.4141-5.3984 10.793 3.1484 3.1445 16.207-16.188z"/>
  <path d="m72.598 69.309 4.418-4.418 10.312 10.312-4.418 4.418z"/>
  <path d="m65.77 58.52c0.10547-0.20703 0.26953-0.375 0.45703-0.45703l3.082-1.543-10.25-12.043-7.4805 6.3555 12.625 10.75z"/>
  <path d="m40.688 41.543 7.957-9.3359-8.9766-10.539-11.562-1.2734 1.2891 11.543z"/>
  <path d="m21.707 54.355-3.1445 3.1641 16.207 16.188 3.1484-3.1445-5.3984-10.793z"/>
 </g>
</svg>
