<?xml version="1.0" encoding="UTF-8"?>
<svg width="100pt" height="100pt" version="1.1" viewBox="0 0 100 100" xmlns="http://www.w3.org/2000/svg">
 <g>
  <path d="m95.715 18.57v-14.285h-14.285l-27.43 30.57 10.57 11.715z"/>
  <path d="m4.2852 88.57c0 4 3.1445 7.1445 7.1445 7.1445 4.5703 0 8-4.2852 6.8555-8.5703l14.285-14.285 11.43 11.43v-8.5703l-5.7148-5.7148 7.1445-6.2852-10-9.1445-6 6.5703-5.7148-5.7148h-8.5703l11.43 11.43-14.285 14.285c-4.0039-0.57422-8.0039 2.8555-8.0039 7.4258z"/>
  <path d="m55.715 75.715v8.5703l11.43-11.43 14.285 14.285c-0.85547 4.5703 2.5703 8.5703 6.8555 8.5703 4 0 7.1445-3.1445 7.1445-7.1445 0-4.2852-4-7.7148-8.5703-7.1445l-14.285-14.285 11.43-11.43h-8.5703l-5.7148 5.4297-51.148-56.852h-14.285v14.285l57.145 51.715z"/>
 </g>
</svg>
