<?xml version="1.0" encoding="UTF-8"?>
<svg width="100pt" height="100pt" version="1.1" viewBox="0 0 100 100" xmlns="http://www.w3.org/2000/svg">
 <g>
  <path d="m54.738 57.688c6.3828 0.125 12.742 0.77344 19.016 1.9375-0.12109-11.586-8.5-22.516-19.52-24.801z"/>
  <path d="m45.766 34.824c-11.02 2.2852-19.398 13.215-19.52 24.801 6.2734-1.1641 12.633-1.8125 19.016-1.9375z"/>
  <path d="m51.852 62.102c0 2.4648-3.7031 2.4648-3.7031 0 0-2.4688 3.7031-2.4688 3.7031 0"/>
  <path d="m51.852 49.836c-0.003906 1.0234-0.83203 1.8477-1.8516 1.8477s-1.8477-0.82422-1.8516-1.8477c-0.023438-0.50781 0.15625-1.0039 0.50781-1.3711 0.35156-0.36719 0.83594-0.57812 1.3438-0.57812s0.99219 0.21094 1.3438 0.57812c0.35156 0.36719 0.53125 0.86328 0.50781 1.3711z"/>
  <path d="m51.852 39.449c-0.13281 0.92188-0.92187 1.6055-1.8516 1.6055s-1.7188-0.68359-1.8516-1.6055c-0.066407-0.53125 0.10156-1.0664 0.45312-1.4648 0.35547-0.40234 0.86328-0.62891 1.3984-0.62891s1.043 0.22656 1.3984 0.62891c0.35156 0.39844 0.51953 0.93359 0.45312 1.4648z"/>
  <path d="m51.781 32.516c-0.054688-0.97266-0.82812-2.1562-1.7812-2.1562s-1.7266 1.1836-1.7812 2.1562z"/>
  <path d="m26.762 41.336c-5.7578-2.0742-9.9141-6.2773-9.9141-10.258 0-4.5508 4.5508-11.16 7.9297-14.539 3.3789-3.375 2.0586-6.4609 2.0586-7.6367 0-1.1758-2.4961-2.2031-2.4961-0.29297s-6.9023 6.6094-6.9023 6.6094c-6.3086 4.2266-10.062 11.348-9.9844 18.941 0 11.086 11.938 16.992 15.559 18.531z"/>
  <path d="m32.488 41.504-4.6094-0.21484-4.0859 12.375 1.8711 1.1523c1.043-4.9688 3.3984-9.5625 6.8242-13.312z"/>
  <path d="m73.238 41.336c5.7578-2.0742 9.9141-6.2773 9.9141-10.258 0-4.5508-4.5508-11.16-7.9297-14.539-3.3789-3.375-2.0586-6.4609-2.0586-7.6367 0-1.1758 2.4961-2.2031 2.4961-0.29297s6.9023 6.6094 6.9023 6.6094c6.3086 4.2266 10.062 11.348 9.9844 18.941 0 11.086-11.938 16.992-15.559 18.531z"/>
  <path d="m67.512 41.504 4.6094-0.21484 4.0859 12.371-1.8711 1.1523v0.003906c-1.043-4.9688-3.3984-9.5625-6.8242-13.312z"/>
  <path d="m74.562 60.645c-6.8711-1.2305-13.828-1.9102-20.809-2.0312l-0.52344-25.336-6.4609 0.003906-0.52344 25.332c-6.9805 0.12109-13.938 0.80078-20.809 2.0312 0 0 0.21875 2.1758 0.35547 5.3594 3.4023-0.28906 10.586-0.78516 20.32-0.85938l-0.22266 10.723 4.1094 1.7656 4.1133-1.7617-0.22266-10.691c6.1328 0.10156 12.977 0.38281 20.312 0.95703 0.13672-3.2578 0.35938-5.4922 0.35938-5.4922zm-24.562-24.148c1.5195 0.10938 2.6914 1.3828 2.6758 2.9102-0.12891 1.3789-1.2891 2.4375-2.6758 2.4375s-2.5469-1.0586-2.6758-2.4375c-0.015625-1.5273 1.1562-2.8008 2.6758-2.9102zm0 10.48c1.4961 0.046876 2.6797 1.2773 2.6758 2.7695 0 1.4766-1.1992 2.6758-2.6758 2.6758s-2.6758-1.1992-2.6758-2.6758c-0.003907-1.4922 1.1797-2.7227 2.6758-2.7695zm0 12.422v0.003906c1.082 0 2.0547 0.65234 2.4688 1.6484 0.41406 1 0.1875 2.1523-0.57812 2.9141-0.76562 0.76562-1.9141 0.99609-2.9141 0.58203s-1.6523-1.3906-1.6523-2.4727c0.003906-1.4727 1.1992-2.6719 2.6758-2.6719z"/>
  <path d="m73.41 67.117c-6.6484-0.51953-12.875-0.79688-18.527-0.91016l0.074219 3.5508c4.4375-0.87109 8.9492-1.3086 13.473-1.3086 1.6094 2.8789 1.7773 8.0273 1.7773 8.0273-1.0938 2.75-4.3008 5.7227-4.3008 5.7227l1.1367 10.25s5.8281-1.9531 8.5234-4.6289c-2.3594-5.1914-2.4102-14.715-2.1562-20.703z"/>
  <path d="m29.277 76.477s0.16797-5.1484 1.7773-8.0273c4.6992 0 9.3867 0.47266 13.988 1.4141l0.078125-3.707c-9.1016 0.09375-15.816 0.55859-19.051 0.83203 0.25781 5.9805 0.22656 15.605-2.1562 20.832 2.6953 2.6758 8.5234 4.6289 8.5234 4.6289l1.1367-10.25s-3.207-2.9727-4.2969-5.7227z"/>
 </g>
</svg>
