<?xml version="1.0" encoding="UTF-8"?>
<svg width="100pt" height="100pt" version="1.1" viewBox="0 0 100 100" xmlns="http://www.w3.org/2000/svg">
 <path d="m20.324 85.16c-0.96875 0.80469-2.0977 1.4531-3.2266 1.2891-1.2891 0-2.418-0.48438-3.2266-1.4531-0.80469-0.96875-1.2891-2.0977-1.2891-3.2266 0-1.2891 0.48438-2.418 1.4531-3.2266l16.289-15.805 6.4531 6.6133zm54.352-68.227 12.582-3.2266-3.5469 12.418-23.227 22.586-4.0312-3.8711 22.098-21.453-1.1328-1.1289-22.094 21.453-4.1953-3.8711zm-35.16 34.195 4.1953 3.8711-5 4.8398-3.8711-4.0312zm4.0312 23.066-12.258-12.742-0.96875-1.1289-4.6758-4.8398 3.5469-3.3867 3.3867 3.5469 10 10.324 4.6758 4.8398zm0.16406-9.1953-3.8711-4.0312 5.1602-5 4.1953 3.8711zm-27.742-38.227c-0.32422-1.2891-2.418-7.9023-3.7109-12.418l12.582 2.9023 40.645 38.227-4.0312 4.1914-40.484-38.223-1.1289 1.2891 40.484 38.227-3.7109 4.0312zm40.965 47.258-3.5469-3.3867 3.3867-3.5469 10.969-11.773 3.3867-3.5469 3.5469 3.3867zm30 10.484c-1.7734 1.9336-4.6758 1.9336-6.6133 0.16016l-16.613-15.645 6.2891-6.7734 16.613 15.645c1.9375 1.7734 1.9375 4.6797 0.32422 6.6133z"/>
</svg>
