<?xml version="1.0" encoding="UTF-8"?>
<svg width="100pt" height="100pt" version="1.1" viewBox="0 0 100 100" xmlns="http://www.w3.org/2000/svg">
 <g>
  <path d="m23.656 43.316c-1.9492-1.5312-4.6836-1.5586-6.6641-0.0625-1.9766 1.4922-2.6992 4.1328-1.7578 6.4258 1.1953 3.0664 4.2773 5.9531 4.2773 5.9531l6.2695 6.2656c1.2695 1.2656 1.3828 3.2852 0.25781 4.6875l-12.508 15.641c-0.59766 0.75781-1.5039 1.207-2.4688 1.2188-1.5977 0.003907-3.1094 0.71094-4.1367 1.9336h0.003907c-1.8828 2.2344-1.668 5.5547 0.48047 7.5312 2.1523 1.9766 5.4766 1.9102 7.5469-0.15234 1.0039-1.0039 1.5781-2.3594 1.5938-3.7773 0.007813-0.98047 0.45703-1.9023 1.2227-2.5156l15.645-12.5c1.3984-1.1211 3.4219-1.0078 4.6875 0.26172l6.2617 6.2617s2.8867 3.0859 5.9531 4.2773c1.7461 0.71875 3.7422 0.48438 5.2734-0.62109 1.5312-1.1094 2.3828-2.9297 2.2461-4.8125-0.13281-1.8867-1.2344-3.5664-2.9062-4.4453-1.6719-0.87891-3.6797-0.82812-5.3086 0.13281-0.62891 0.35938-1.4297 0.15625-1.8047-0.46484l-8.0938-13.086c-0.29687-0.48047-0.70312-0.88281-1.1836-1.1797l-13.086-8.0938c-0.61719-0.375-0.82422-1.1758-0.46094-1.8047 1.3945-2.3594 0.82031-5.3867-1.3398-7.0742z"/>
  <path d="m93.219 5.7812-62.094 42.695c-0.38672 0.26563-0.61328 0.70703-0.60938 1.1758 0.003906 0.47266 0.24219 0.91016 0.63281 1.168 2.8125 1.8516 8.1836 5.3047 9.2578 5.9961l24.652-24.652c0.76562-0.76172 2.0078-0.76172 2.7695 0 0.76562 0.76563 0.76562 2.0078 0 2.7734l-24.652 24.652c0.6875 1.0742 4.1445 6.4453 6 9.2578h-0.003906c0.26172 0.39062 0.69922 0.62891 1.168 0.63281 0.46875 0.003906 0.91016-0.22266 1.1758-0.61328l42.703-62.09c0.19141-0.28516 0.15625-0.66797-0.085938-0.91406-0.24609-0.24609-0.62891-0.28125-0.91406-0.082031z"/>
 </g>
</svg>
