<?xml version="1.0" encoding="UTF-8"?>
<svg width="100pt" height="100pt" version="1.1" viewBox="0 0 100 100" xmlns="http://www.w3.org/2000/svg">
 <g>
  <path d="m6.625 90.531 3.0391 3.0391c0.65234 0.64844 1.707 0.64844 2.3594 0l18.086-18.09v-0.003907c0.28125-0.27734 0.4375-0.65625 0.4375-1.0508s-0.15625-0.77344-0.4375-1.0508l-0.32031-0.32812 24.242-24.234c0.41406-0.41016 0.42188-1.0742 0.023438-1.4961-0.22266-0.23438-0.44531-0.46875-0.67969-0.69531-0.23047-0.23047-0.46094-0.45312-0.69531-0.67969l0.003906 0.003906c-0.42188-0.39844-1.0859-0.39062-1.4961 0.023438l-24.234 24.242-0.32031-0.32031c-0.27734-0.27734-0.65625-0.43359-1.0508-0.43359s-0.77344 0.15625-1.0508 0.43359l-18.086 18.09c-0.64844 0.65234-0.64844 1.7031 0 2.3555z"/>
  <path d="m72.789 26.531-5.0625 1.8359c-0.35547 0.12891-0.62109 0.42578-0.71094 0.79297-0.09375 0.36328 0.003906 0.75 0.25781 1.0312 0.39062 0.4375 0.80078 0.87109 1.2344 1.2969 0.43359 0.42969 0.86719 0.83984 1.2969 1.2344l0.003906 0.003906c0.28125 0.25391 0.66797 0.35156 1.0312 0.25781 0.36719-0.089844 0.66406-0.35547 0.79297-0.71094l1.8359-5.0625v0.003906c0.074219-0.19531 0.023438-0.41406-0.12109-0.5625-0.14844-0.14453-0.36719-0.19531-0.55859-0.12109z"/>
  <path d="m43.031 19.531c7.6836-6.7109 15.531-7.0547 19.57-6.6523 0.31641 0.035156 0.63672-0.0625 0.87891-0.26953 0.24609-0.20703 0.39453-0.50781 0.41406-0.82812l0.25781-4.4453h0.003906c0.035156-0.625-0.42578-1.168-1.0469-1.2344-3.7031-0.39062-15.934-0.75391-25.906 9.2188-9.9766 9.9766-9.6016 22.195-9.2188 25.891 0.0625 0.62109 0.60547 1.0859 1.2305 1.0469l4.4453-0.25781h0.003906c0.31641-0.019531 0.61719-0.16797 0.82422-0.41406 0.20703-0.24219 0.30469-0.5625 0.26953-0.87891-0.40234-4.0391-0.058593-11.883 6.6562-19.57 0.50391-0.57031 1.043-1.1055 1.6172-1.6055z"/>
  <path d="m93.906 36.891c-0.066406-0.62109-0.60938-1.082-1.2344-1.0469l-4.4453 0.25781v0.003907c-0.32031 0.019531-0.61719 0.16797-0.82422 0.41406-0.20703 0.24219-0.30469 0.5625-0.26953 0.87891 0.40234 4.0391 0.058594 11.883-6.6523 19.57l-0.003907-0.003906c-0.50391 0.57812-1.043 1.1211-1.6211 1.6211-7.6836 6.7148-15.531 7.0586-19.566 6.6484-0.32031-0.035156-0.63672 0.0625-0.88281 0.26953-0.24609 0.20703-0.39453 0.50781-0.41406 0.82422l-0.25781 4.4453v0.003906c-0.035156 0.625 0.42578 1.168 1.0508 1.2305 3.6992 0.38281 15.934 0.75391 25.906-9.2188 9.9648-9.9688 9.5977-22.195 9.2148-25.898z"/>
  <path d="m39.328 36.004c9.8125-1.043 25.711 14.859 24.668 24.668-0.03125 0.26562 0.0625 0.53125 0.25391 0.71484 0.19141 0.18359 0.46094 0.26953 0.72266 0.22656 3.3633-0.55078 7.4922-2.0508 11.602-5.6406h-0.003907c0.46094-0.39844 0.89063-0.83203 1.293-1.293 3.5859-4.1016 5.0898-8.2344 5.6406-11.598h-0.003906c0.042969-0.26172-0.039062-0.52734-0.22656-0.71875-0.18359-0.19141-0.44531-0.28906-0.71094-0.25781-9.8125 1.0391-25.707-14.855-24.668-24.668 0.03125-0.26172-0.0625-0.52734-0.25391-0.71094-0.19141-0.18359-0.46094-0.26953-0.72266-0.22656-3.3633 0.54688-7.4922 2.0547-11.605 5.6367-0.46094 0.40234-0.89062 0.83203-1.293 1.293-3.5859 4.1016-5.0781 8.2344-5.6406 11.602l0.003906-0.003906c-0.042968 0.26562 0.039063 0.53125 0.22656 0.72266 0.1875 0.19531 0.45312 0.28906 0.71875 0.25391z"/>
 </g>
</svg>
