<?xml version="1.0" encoding="UTF-8"?>
<svg width="100pt" height="100pt" version="1.1" viewBox="0 0 100 100" xmlns="http://www.w3.org/2000/svg">
 <g>
  <path d="m42.625 71.258c1.2109 0.53906 2.6211 0.27734 3.5625-0.65234l46.461-46.465c0.39453-0.39062 0.65234-0.89844 0.74219-1.4453 0.80859-5.1797 0.52344-12.578 0.375-15.316-0.035156-0.61719-0.52734-1.1094-1.1445-1.1445-2.7344-0.14844-10.133-0.43359-15.316 0.375-0.54688 0.089844-1.0547 0.34766-1.4453 0.74219l-46.441 46.445c-0.92969 0.91797-1.1953 2.3164-0.66797 3.5156 2.6953 6 7.5547 11.156 13.875 13.945z"/>
  <path d="m10.34 89.66 3.8711 3.8711c0.25781 0.25781 0.60547 0.40625 0.96875 0.40625 0.36719 0 0.71484-0.14844 0.96875-0.40625l0.5625-0.5625c0.46484-0.46484 0.72266-1.0898 0.72266-1.7461s-0.25781-1.2812-0.72266-1.7461c-0.8125-0.8125-0.83594-2.1211-0.0625-2.9688 3.1602-3.4297 8.0859-6.9688 11.148-9.0234 1.5625-1.0391 3.5977-1.0547 5.1719-0.03125 4.5547 2.9297 9.375 4.1016 11.469 4.4922 0.62109 0.11719 1.2422-0.20312 1.5-0.78125l1.3281-2.9453c0.17578-0.39844 0.15625-0.85547-0.054687-1.2305-0.21484-0.37891-0.59375-0.63281-1.0234-0.6875-8.2031-0.97656-14.488-8.0078-14.488-8.0078s-7.0156-6.2812-8.0078-14.488c-0.054687-0.42969-0.30859-0.80859-0.6875-1.0234-0.375-0.21094-0.83203-0.23047-1.2305-0.054688l-2.9414 1.3359c-0.57422 0.25781-0.89844 0.87891-0.78125 1.5 0.39062 2.0898 1.5625 6.9141 4.4922 11.469 1.0234 1.5742 1.0117 3.6094-0.03125 5.1719-2.0547 3.0625-5.5898 7.9883-9.0234 11.148h0.003907c-0.84766 0.77344-2.1562 0.75-2.9688-0.0625-0.46484-0.46484-1.0938-0.72266-1.75-0.72266-0.65234 0-1.2812 0.25781-1.7422 0.72266l-0.5625 0.5625c-0.25781 0.25391-0.40234 0.60156-0.40234 0.96875 0 0.36328 0.14453 0.71094 0.40234 0.96875z"/>
 </g>
</svg>
