<?xml version="1.0" encoding="UTF-8"?>
<svg width="100pt" height="100pt" version="1.1" viewBox="0 0 100 100" xmlns="http://www.w3.org/2000/svg">
 <g>
  <path d="m68.328 64.594c1.4688-1.6016 2.4844-3.5625 2.9453-5.6875 2-9.375 2.8711-18.953 2.5938-28.539h-0.003907c-0.011719-0.41406-0.20312-0.80469-0.51953-1.0703-0.31641-0.26953-0.73047-0.39453-1.1445-0.34375-10.73 1.3516-17.832-2.7227-21.289-5.4688-0.53906-0.42969-1.3047-0.42969-1.8438 0-2.9805 2.3789-8.6797 5.7422-17.094 5.7422h0.003906c-1.4023 0-2.8047-0.089843-4.1953-0.26953-0.41016-0.050781-0.82422 0.074219-1.1406 0.34375-0.3125 0.26953-0.5 0.66016-0.51562 1.0742h0.003906c-0.28125 9.582 0.58984 19.164 2.5938 28.539l-0.003906-0.003906c0.46094 2.125 1.4766 4.0859 2.9453 5.6836 2.9844 3.25 8.7578 8.832 16.039 12.422h-0.003906c1.4453 0.71094 3.1406 0.71094 4.582 0 7.2891-3.5938 13.062-9.1719 16.047-12.422z"/>
  <path d="m51.547 6.4805c-0.40234-0.42969-0.96094-0.67578-1.5469-0.67578s-1.1445 0.24609-1.543 0.67578c-9.8125 10.609-23.031 8.6445-30.578 6.25h-0.003906c-0.32812-0.10547-0.68359 0.015625-0.88281 0.29688-0.19922 0.27734-0.19531 0.65625 0.011718 0.92969 2.9531 4.0078 5.7656 7.5195 7.4219 9.5312 0.55469 0.68359 1.3398 1.1484 2.207 1.3086 14.336 2.5547 21.555-5.7578 21.875-6.1289 0.37109-0.4375 0.91797-0.69531 1.4922-0.69922 0.58203 0 1.1328 0.25781 1.5078 0.70312 0.30469 0.36328 7.5273 8.6797 21.863 6.125h-0.003906c0.87109-0.16016 1.6523-0.625 2.2109-1.3086 1.6484-2.0117 4.4609-5.5234 7.4219-9.5312 0.20312-0.27734 0.20703-0.65234 0.007812-0.92969-0.19922-0.27734-0.55469-0.39844-0.88281-0.29688-7.5469 2.3945-20.77 4.3555-30.578-6.25z"/>
  <path d="m47 81.02c-8.3438-3.8477-14.906-10.156-18.219-13.773-1.9453-2.1133-3.2852-4.707-3.8906-7.5117-3.0703-14.258-2.8906-26.125-2.6172-31.098 0.050781-0.94141-0.25391-1.8672-0.85156-2.5938-1.7891-2.1797-4.9531-6.1133-8.2031-10.594-0.19141-0.28906-0.55469-0.41406-0.88672-0.30859-0.33203 0.10938-0.55078 0.42188-0.53906 0.77344 0.0625 14.402 2.707 39.707 3.7109 48.809v-0.003906c0.26172 2.3711 1.2617 4.6016 2.8555 6.375 7.7656 8.6562 21.289 18.387 27.859 22.898 0.35547 0.24219 0.82031 0.26953 1.2031 0.066406s0.625-0.59766 0.625-1.0312v-10.379c0-0.70313-0.41016-1.3398-1.0469-1.6289z"/>
  <path d="m86.789 15.445c-3.2617 4.4922-6.418 8.4141-8.2031 10.594v0.003907c-0.59766 0.72656-0.90234 1.6523-0.85156 2.5938 0.27344 4.9727 0.44922 16.836-2.6172 31.098-0.60547 2.8047-1.9492 5.3984-3.8906 7.5117-3.3203 3.6133-9.875 9.9297-18.219 13.773-0.63281 0.29297-1.0391 0.92969-1.0391 1.6289v10.375c0 0.42969 0.24219 0.82812 0.625 1.0312 0.38281 0.19922 0.84766 0.17578 1.2031-0.066407 6.5547-4.5117 20.086-14.246 27.852-22.895 1.5938-1.7734 2.5938-4 2.8555-6.3672 1.0039-9.1016 3.6523-34.406 3.7109-48.809 0.015625-0.34766-0.20312-0.66406-0.53516-0.77344-0.33203-0.10938-0.69531 0.011719-0.89063 0.30078z"/>
 </g>
</svg>
