<?xml version="1.0" encoding="UTF-8"?>
<svg width="100pt" height="100pt" version="1.1" viewBox="0 0 100 100" xmlns="http://www.w3.org/2000/svg">
 <g>
  <path d="m39.422 40.883 2.9766 0.4375c0.79297 0.11719 1.5703-0.28906 1.9219-1.0078 5.9609-12.211 24.805-29.828 29.035-33.699h0.003906c0.15625-0.14453 0.20703-0.37109 0.12891-0.57031s-0.27344-0.32812-0.48828-0.32031c-2.8047 0.078125-6.7344 2.1641-6.7344 2.1641-7.3125 3.9375-19.516 14.453-22.809 17.344h0.003907c-0.52344 0.46094-0.8125 1.1328-0.78125 1.832 0.29687 6.7852-2.1914 10.641-3.7852 12.391-0.21484 0.23828-0.27734 0.57422-0.16797 0.875 0.11328 0.30078 0.37891 0.51172 0.69531 0.55469z"/>
  <path d="m79.559 24.758c1.5352-2.5234 3.082-5.0781 4.2969-7.0859 0.26562-0.4375 0.19922-0.99609-0.16406-1.3594-0.35938-0.35938-0.92188-0.42578-1.3555-0.16406-2.0078 1.2109-4.5625 2.7578-7.0859 4.2969-7.2578 4.457-13.699 10.121-19.047 16.746-2.8672 3.5234-5.6406 7.4766-6.3828 10.336v-0.003906c-0.19531 0.75 0.019532 1.5469 0.56641 2.0977 0.54688 0.54688 1.3438 0.76562 2.0938 0.57422 2.8555-0.74219 6.8086-3.5156 10.336-6.3828v0.003906c6.625-5.3555 12.285-11.801 16.742-19.059z"/>
  <path d="m93.391 26.641c-3.8711 4.2344-21.484 23.07-33.699 29.035l-0.003906 0.003907c-0.71875 0.35156-1.125 1.1289-1.0078 1.9219l0.4375 2.9766c0.042968 0.3125 0.25781 0.57812 0.55859 0.6875s0.63281 0.042969 0.87109-0.16797c1.7578-1.5938 5.6094-4.0781 12.391-3.7852 0.69922 0.03125 1.3711-0.25391 1.832-0.77344 2.8867-3.2969 13.406-15.496 17.344-22.809 0 0 2.0859-3.9258 2.1641-6.7344l0.003906 0.003906c0.003906-0.21484-0.125-0.41016-0.32422-0.48828s-0.42578-0.027344-0.56641 0.12891z"/>
  <path d="m47.055 52.945c-5.3594-5.3555-9.7422-8.2812-12.223-9.7031-0.53125-0.30078-1.168-0.35938-1.7461-0.15625-0.57813 0.20312-1.0391 0.64453-1.2656 1.2148-0.30469 0.76562-0.64844 1.5391-1.0234 2.3281v-0.003906c-0.39844 0.83984-0.082031 1.8398 0.72656 2.293 4.0781 2.293 7.8242 5.1211 11.145 8.4141 3.293 3.3164 6.1211 7.0625 8.4141 11.133 0.45312 0.80859 1.4531 1.1289 2.2891 0.73047 0.78125-0.375 1.5625-0.71875 2.3281-1.0234 0.57031-0.22656 1.0117-0.6875 1.2148-1.2656 0.20313-0.57812 0.14453-1.2148-0.15625-1.75-1.4219-2.4609-4.3477-6.8516-9.7031-12.211z"/>
  <path d="m24.195 94.273c0.54297 0.046874 1.0781-0.14453 1.4609-0.53125l2.875-2.875v0.003906c0.074219-0.078125 0.13281-0.16406 0.17969-0.26172 0.14062-0.28125 0.14844-0.60938 0.03125-0.90234-0.12109-0.28906-0.35938-0.51562-0.65625-0.61719-2.4375-0.84375-5.875-2.7695-10.141-7.0312-4.2656-4.2617-6.1875-7.707-7.0312-10.141v-0.003907c-0.10156-0.29687-0.32812-0.53516-0.62109-0.65234-0.28906-0.12109-0.61719-0.10938-0.89844 0.027343v0.003907c-0.097656 0.042969-0.1875 0.10547-0.26172 0.17969l-2.8828 2.8711c-0.38281 0.38281-0.57812 0.91797-0.53125 1.4609 0.50391 6.0547 6.4453 12.027 6.4453 12.027s5.9844 5.9375 12.031 6.4414z"/>
  <path d="m31.023 84.57c0.48437-0.59375 1.0234-1.1328 1.6172-1.6094 1.9297-1.5781 7.7383-6.2031 14.152-10.141v-0.003906c1.1953-0.74219 1.5781-2.3047 0.86328-3.5156-2.0508-3.4844-4.5273-6.6953-7.3711-9.5703-2.8711-2.8438-6.0859-5.3242-9.5703-7.375-1.2109-0.71875-2.7734-0.33203-3.5156 0.86328-3.9414 6.418-8.5703 12.227-10.156 14.156-0.48047 0.58984-1.0195 1.1211-1.6133 1.5938-0.17188 0.14062-0.34766 0.26953-0.51563 0.39062h-0.003906c-0.64844 0.46875-0.89062 1.3242-0.58594 2.0625 0.78125 1.918 2.4531 4.7109 5.9922 8.25 3.543 3.5391 6.3359 5.2188 8.2461 6.0039l0.003906 0.003907c0.73828 0.30859 1.5938 0.0625 2.0586-0.58594 0.13281-0.17578 0.25781-0.35156 0.39844-0.52344z"/>
 </g>
</svg>
