<?xml version="1.0" encoding="UTF-8"?>
<svg width="100pt" height="100pt" version="1.1" viewBox="0 0 100 100" xmlns="http://www.w3.org/2000/svg">
 <g>
  <path d="m88.117 94.02 3.2227-3.2227c0.43359-0.4375 0.45312-1.1406 0.042968-1.6016l-16.613-18.43c-0.18359-0.20312-0.44141-0.32031-0.71094-0.32812-0.27344-0.007812-0.53516 0.097656-0.72656 0.29297l-5.2734 5.2734c-0.19531 0.19141-0.30078 0.45312-0.29297 0.72656 0.007813 0.26953 0.125 0.52734 0.32812 0.71094l18.43 16.621c0.46094 0.40234 1.1562 0.38672 1.5938-0.042969z"/>
  <path d="m8.6602 90.797 3.2227 3.2227c0.44141 0.43359 1.1406 0.45312 1.6016 0.042969l18.43-16.613-0.003906-0.003907c0.20312-0.17969 0.32422-0.4375 0.32812-0.71094 0.007813-0.26953-0.097656-0.53516-0.28906-0.72656l-5.2734-5.2734c-0.19141-0.19141-0.45703-0.29688-0.72656-0.28906-0.27344 0.003907-0.53125 0.125-0.71484 0.32813l-16.617 18.422c-0.41016 0.46094-0.39063 1.1641 0.042968 1.6016z"/>
  <path d="m9.9219 5.918c-0.28125-0.28125-0.71094-0.35547-1.0703-0.18359-0.35937 0.17188-0.57031 0.55078-0.52734 0.94922 0.69531 6.4453 3.8906 24.281 18.523 44.586 0.69922 0.97266 1.6797 1.7148 2.8086 2.1211 1.1016 0.39062 2.7109 1.0078 4.6875 1.8359 0.73438 0.30469 1.582 0.14063 2.1484-0.42187l9.8398-9.8438c0.35156-0.34766 0.54688-0.82031 0.54688-1.3164 0-0.49609-0.19531-0.96875-0.54688-1.3203z"/>
  <path d="m55.453 74.336 3.5586 3.5586h-0.003907c0.38281 0.38281 1 0.38281 1.3828 0l13.773-13.773v0.003906c0.38281-0.38281 0.38281-1 0-1.3828l-3.5625-3.5625c-0.37891-0.38281-0.99609-0.38281-1.3789 0l-3.0117 3.0195-1.5625-1.5508c-0.56641-0.5625-1.4219-0.71484-2.1484-0.37891-2.4297 1.1484-5.125 2.5391-7.9531 4.1602h0.003906c-0.31641 0.18359-0.51562 0.51172-0.53125 0.875-0.015625 0.36328 0.15625 0.70703 0.45703 0.91406 1.4805 1.0312 2.9609 2.125 4.4297 3.2812l-3.4531 3.4531c-0.18359 0.18359-0.28906 0.42969-0.28906 0.69141 0 0.25781 0.10547 0.50781 0.28906 0.69141z"/>
  <path d="m90.078 5.918-56.289 56.281-3.0117-3.0195c-0.38281-0.38281-1-0.38281-1.3789 0l-3.5625 3.5625c-0.38281 0.37891-0.38281 0.99609 0 1.3789l13.773 13.773v-0.003906c0.38281 0.38281 1 0.38281 1.3828 0l3.5586-3.5547c0.18359-0.18359 0.28516-0.43359 0.28516-0.69141 0-0.25781-0.10156-0.50781-0.28516-0.69141l-3.4531-3.4531c11.832-9.3438 24.723-14.48 29.246-16.109 1.1289-0.41016 2.1094-1.1484 2.8086-2.1211 14.633-20.301 17.828-38.141 18.523-44.586 0.042969-0.39453-0.16797-0.77344-0.52734-0.94531-0.35938-0.17188-0.78906-0.10156-1.0703 0.17969z"/>
 </g>
</svg>
