<?xml version="1.0" encoding="UTF-8"?>
<svg width="100pt" height="100pt" version="1.1" viewBox="0 0 100 100" xmlns="http://www.w3.org/2000/svg">
 <path d="m87.5 64.062c-0.37891-0.16016-0.6875-0.44922-0.875-0.8125l-7.6719-15.625-6.6562-1.5625c-0.61328-0.13672-1.0977-0.60938-1.25-1.2188l-4.0781-16.422-3.2812-13.078-10.094-2.6875-5.3594 1.8281c-0.42969 0.22656-0.94141 0.25391-1.3945 0.074219-0.45312-0.17969-0.80469-0.55078-0.96094-1.0078-0.16016-0.46094-0.10938-0.96875 0.13672-1.3906s0.66016-0.71484 1.1406-0.80078l5.8438-1.9844c0.31641-0.10156 0.65234-0.10156 0.96875 0l11.531 3.125c0.59766 0.13281 1.0625 0.60547 1.1875 1.2031l3.125 12.203 5.8281-2.1406 4-7.5312-0.8125-2.8906c-0.14844 0.30859-0.39453 0.5625-0.70312 0.71875l-3.75 2.5v4.0312c0 0.92188-0.75 1.6719-1.6719 1.6719s-1.6719-0.75-1.6719-1.6719v-4.5156l-3.125-5.9688-15.812-10.109-11.734 9.9062-11.375 35.406c-0.26172 0.81641-1.0977 1.3008-1.9375 1.125l-5.0781-1.125-10.547 11.922-2.6875 14.734c-0.054687 0.33984-0.21875 0.65234-0.46875 0.89062l-8.2656 8.1406v19h100v-31zm-63.594-6.9375-2.5625 10.688 1.6719 12.266c0.03125 0.19141 0.03125 0.38672 0 0.57812l-3.4375 15.812c-0.15625 0.74609-0.80078 1.2852-1.5625 1.3125h-0.35938c-0.90234-0.19531-1.4727-1.082-1.2812-1.9844l3.375-15.516-1.6719-12.281c-0.046875-0.19922-0.046875-0.41016 0-0.60938l2.6094-11.141c0.22266-0.89844 1.1289-1.4492 2.0312-1.2344 0.42969 0.10547 0.80078 0.38281 1.0312 0.76172 0.23047 0.38281 0.29688 0.83984 0.1875 1.2695zm46.203-6.25c-1.0703 1.6016-2.8711 2.5625-4.7969 2.5625h-5.1094c-0.14844-0.007812-0.29688-0.039062-0.4375-0.09375v0.25c-0.0625 0.3125-0.21484 0.60156-0.4375 0.82812l-6.25 6.4688 3.4375 12.125c0.19922 0.69922-0.078125 1.4453-0.6875 1.8438-0.26953 0.1875-0.59375 0.28516-0.92188 0.28125-0.375-0.003906-0.73828-0.12891-1.0312-0.35938l-15.625-12.359c-0.65234-0.51562-0.82812-1.4375-0.40625-2.1562l2.1875-4.0156v-3.4062l-1.1406 0.42188c-0.18359 0.074219-0.37891 0.11328-0.57812 0.10938h-3.6875c-1.918 0-3.7109-0.95703-4.7852-2.5469-1.0742-1.5898-1.2891-3.6094-0.57422-5.3906l9.4688-23.562c0.3125-0.81641 1.2148-1.2422 2.0469-0.96875l9.2188 2.8594 8.9844-3.125c0.83594-0.28125 1.7461 0.13672 2.0781 0.95312l9.6719 23.75c0.73828 1.8047 0.51562 3.8633-0.59375 5.4688zm13.844 46.953c-0.88281 0-1.6133-0.68359-1.6719-1.5625l-0.90625-19.422-4.0312-9.7656c-0.35547-0.86328 0.058594-1.8477 0.92188-2.2031s1.8477 0.058594 2.2031 0.92188l4.1562 10.047c0.074219 0.17969 0.11719 0.36719 0.125 0.5625l0.92188 19.703c-0.003906 0.44531-0.18359 0.86719-0.5 1.1758-0.31641 0.3125-0.74219 0.48438-1.1875 0.48047zm-33.422-70.734 4.8125-1.5625c2.4062 2.125 5.75 6.375 5.75 8.1875 0 5.5938-0.79688 8.5938-1.6719 10.203l-4.7344-4.3125c-0.30859-0.28125-0.70703-0.4375-1.125-0.4375h-7.5625c-0.39844 0.007813-0.78516 0.14844-1.0938 0.40625l-3.8438 3.3281c-0.042969 0.046875-0.078125 0.10156-0.10938 0.15625-1.7266-3.2188-2.5859-6.832-2.5-10.484 0-1.6406 3.8594-5.0469 5.3125-6.3281l0.76562-0.67188 4.9688 1.5625c0.33984 0.10156 0.70312 0.085937 1.0312-0.046875zm-12.516 22.906h-3.3906c-0.80469-0.007812-1.5586-0.41016-2.0117-1.0781s-0.54688-1.5156-0.25391-2.2656l3.3438-8.2969c0.51172 3.3086 2.0195 6.3828 4.3281 8.8125v2.0781zm18.516 2.3594 1.125-5.625-4.6875-4.25h-6.25l-3.3594 2.8281v11.328c0.007813 0.29688-0.066406 0.58984-0.21875 0.84375l-1.8125 3.125 10.5 8.2812-2.2812-8.0938c-0.14062-0.55469 0.011719-1.1445 0.40625-1.5625zm-9.875-2.5938c-0.92188 0-1.6719-0.75-1.6719-1.6719s0.75-1.6719 1.6719-1.6719h6.1094c0.92188 0 1.6719 0.75 1.6719 1.6719s-0.75 1.6719-1.6719 1.6719zm20.719-0.84375c-0.45312 0.67969-1.2148 1.082-2.0312 1.0781h-4.9219l0.51562-2.6406c1.7344-1.7656 2.7969-4.6875 3.2188-8.9688l3.3906 8.3125c0.31641 0.73438 0.25391 1.5742-0.17188 2.25z"/>
</svg>
