<?xml version="1.0" encoding="UTF-8" standalone="no"?>
<!-- Created with Inkscape (http://www.inkscape.org/) -->

<svg
   xmlns:dc="http://purl.org/dc/elements/1.1/"
   xmlns:cc="http://creativecommons.org/ns#"
   xmlns:rdf="http://www.w3.org/1999/02/22-rdf-syntax-ns#"
   xmlns:svg="http://www.w3.org/2000/svg"
   xmlns="http://www.w3.org/2000/svg"
   xmlns:sodipodi="http://sodipodi.sourceforge.net/DTD/sodipodi-0.dtd"
   xmlns:inkscape="http://www.inkscape.org/namespaces/inkscape"
   width="33.884239mm"
   height="33.866669mm"
   viewBox="0 0 33.884239 33.866669"
   version="1.1"
   id="svg4782"
   inkscape:version="0.92.4 (5da689c313, 2019-01-14)"
   sodipodi:docname="frame-corner.svg">
  <defs
     id="defs4776" />
  <sodipodi:namedview
     id="base"
     pagecolor="#ffffff"
     bordercolor="#666666"
     borderopacity="1.0"
     inkscape:pageopacity="0.0"
     inkscape:pageshadow="2"
     inkscape:zoom="1.4"
     inkscape:cx="239.94174"
     inkscape:cy="149.79278"
     inkscape:document-units="mm"
     inkscape:current-layer="layer1"
     showgrid="false"
     inkscape:window-width="1041"
     inkscape:window-height="811"
     inkscape:window-x="1651"
     inkscape:window-y="574"
     inkscape:window-maximized="0" />
  <metadata
     id="metadata4779">
    <rdf:RDF>
      <cc:Work
         rdf:about="">
        <dc:format>image/svg+xml</dc:format>
        <dc:type
           rdf:resource="http://purl.org/dc/dcmitype/StillImage" />
        <dc:title></dc:title>
      </cc:Work>
    </rdf:RDF>
  </metadata>
  <g
     inkscape:label="Layer 1"
     inkscape:groupmode="layer"
     id="layer1"
     transform="translate(0,-263.13333)">
    <path
       inkscape:connector-curvature="0"
       style="fill:#000000;fill-opacity:1;stroke-width:0.35331187"
       d="m 0,263.13333 c 0.0629,15.03691 0.20814,17.4453 0.54106,18.35356 1.84099,5.02264 6.99285,5.7799 9.89862,1.45496 0.55651,-0.82831 0.80253,-1.71188 0.80253,-2.88555 0,-1.4282 -0.1819,-1.88474 -1.16582,-2.93116 -1.95413,-2.07825 -4.10842,-2.13973 -5.94382,-0.16897 -1.87601,2.01436 -0.92733,4.89615 1.61179,4.89615 1.49019,0 2.08735,-0.71577 1.90479,-2.28429 -0.13578,-1.16662 -0.10962,-1.20194 0.48989,-0.65775 1.00393,0.91129 0.7996,2.3856 -0.48059,3.46607 -0.83682,0.70625 -1.34214,0.8839 -2.02882,0.71478 -1.39166,-0.34277 -2.4962,-1.17772 -2.87321,-2.17232 -0.10879,-0.28705 -0.18569,-6.54025 -0.22789,-17.78548 z m 1.18804,32.34226 5.02709,0.0985 c 3.75566,0.0734 5.02708,-0.0104 5.02708,-0.33069 0,-0.23582 -0.3382,-1.12912 -0.75137,-1.98521 -0.85573,-1.77305 -0.76565,-4.18252 0.22892,-6.11163 0.31568,-0.61239 0.49319,-1.19452 0.39429,-1.29375 -0.0989,-0.0992 -1.20493,0.16132 -2.45773,0.57949 -2.48479,0.82939 -3.43549,0.7546 -5.61257,-0.44213 -0.72543,-0.39877 -1.43981,-0.60391 -1.5875,-0.45614 -0.1477,0.14779 -0.26821,2.44493 -0.26821,5.10504 z m 2.64584,-2.65385 v -1.61149 -1.612 l 1.67535,0.10781 1.67587,0.10833 0.10851,1.50367 0.10853,1.50368 H 5.61775 Z m 7.40833,-1.66228 c 0,1.81323 0.11528,2.10717 1.322921,3.37121 1.76769,1.85026 0.10272,2.33914 21.31911,2.46933 v -2.80416 c -11.59018,-0.0542 -17.78727,-0.14267 -18.10897,-0.26539 -1.19954,-0.45758 -2.06396,-1.70249 -2.06396,-2.97263 0,-1.28661 1.42518,-2.73574 2.69028,-2.73574 0.94648,0 2.24896,0.86592 2.24896,1.49538 0,0.17835 -0.24959,0.0741 -0.55449,-0.23169 -0.64447,-0.64642 -1.33425,-0.70349 -2.29134,-0.18971 -0.99379,0.53347 -0.93855,2.90464 0.0899,3.86571 1.20464,1.12569 2.65141,0.9314 4.03697,-0.54218 0.87988,-0.93577 1.18804,-1.58273 1.18804,-2.4942 0,-3.63238 -3.89186,-5.91127 -6.92619,-4.05542 -2.0081,1.22818 -2.951251,2.85463 -2.951251,5.08949 z"
       id="path4665-0" />
  </g>
</svg>
